G04 EAGLE Gerber RS-274X export*
G75*
%MOMM*%
%FSLAX34Y34*%
%LPD*%
%INSilkscreen Top*%
%IPPOS*%
%AMOC8*
5,1,8,0,0,1.08239X$1,22.5*%
G01*
%ADD10C,0.304800*%
%ADD11C,0.152400*%
%ADD12C,0.127000*%
%ADD13C,0.203200*%
%ADD14C,0.200000*%
%ADD15C,0.101600*%
%ADD16C,0.025400*%


D10*
X864550Y699948D02*
X858200Y699948D01*
X851850Y699948D01*
D11*
X858200Y699948D02*
X858200Y712140D01*
D10*
X858200Y693598D02*
X864550Y693598D01*
X858200Y693598D02*
X851850Y693598D01*
D11*
X858200Y693598D02*
X858200Y681660D01*
X881060Y733730D02*
X835340Y733730D01*
X832800Y731190D02*
X832800Y662610D01*
X835340Y660070D02*
X881060Y660070D01*
X883600Y662610D02*
X883600Y731190D01*
X883600Y662610D02*
X883598Y662510D01*
X883592Y662411D01*
X883582Y662311D01*
X883569Y662213D01*
X883551Y662114D01*
X883530Y662017D01*
X883505Y661921D01*
X883476Y661825D01*
X883443Y661731D01*
X883407Y661638D01*
X883367Y661547D01*
X883323Y661457D01*
X883276Y661369D01*
X883226Y661283D01*
X883172Y661199D01*
X883115Y661117D01*
X883055Y661038D01*
X882991Y660960D01*
X882925Y660886D01*
X882856Y660814D01*
X882784Y660745D01*
X882710Y660679D01*
X882632Y660615D01*
X882553Y660555D01*
X882471Y660498D01*
X882387Y660444D01*
X882301Y660394D01*
X882213Y660347D01*
X882123Y660303D01*
X882032Y660263D01*
X881939Y660227D01*
X881845Y660194D01*
X881749Y660165D01*
X881653Y660140D01*
X881556Y660119D01*
X881457Y660101D01*
X881359Y660088D01*
X881259Y660078D01*
X881160Y660072D01*
X881060Y660070D01*
X835340Y660070D02*
X835240Y660072D01*
X835141Y660078D01*
X835041Y660088D01*
X834943Y660101D01*
X834844Y660119D01*
X834747Y660140D01*
X834651Y660165D01*
X834555Y660194D01*
X834461Y660227D01*
X834368Y660263D01*
X834277Y660303D01*
X834187Y660347D01*
X834099Y660394D01*
X834013Y660444D01*
X833929Y660498D01*
X833847Y660555D01*
X833768Y660615D01*
X833690Y660679D01*
X833616Y660745D01*
X833544Y660814D01*
X833475Y660886D01*
X833409Y660960D01*
X833345Y661038D01*
X833285Y661117D01*
X833228Y661199D01*
X833174Y661283D01*
X833124Y661369D01*
X833077Y661457D01*
X833033Y661547D01*
X832993Y661638D01*
X832957Y661731D01*
X832924Y661825D01*
X832895Y661921D01*
X832870Y662017D01*
X832849Y662114D01*
X832831Y662213D01*
X832818Y662311D01*
X832808Y662411D01*
X832802Y662510D01*
X832800Y662610D01*
X832800Y731190D02*
X832802Y731290D01*
X832808Y731389D01*
X832818Y731489D01*
X832831Y731587D01*
X832849Y731686D01*
X832870Y731783D01*
X832895Y731879D01*
X832924Y731975D01*
X832957Y732069D01*
X832993Y732162D01*
X833033Y732253D01*
X833077Y732343D01*
X833124Y732431D01*
X833174Y732517D01*
X833228Y732601D01*
X833285Y732683D01*
X833345Y732762D01*
X833409Y732840D01*
X833475Y732914D01*
X833544Y732986D01*
X833616Y733055D01*
X833690Y733121D01*
X833768Y733185D01*
X833847Y733245D01*
X833929Y733302D01*
X834013Y733356D01*
X834099Y733406D01*
X834187Y733453D01*
X834277Y733497D01*
X834368Y733537D01*
X834461Y733573D01*
X834555Y733606D01*
X834651Y733635D01*
X834747Y733660D01*
X834844Y733681D01*
X834943Y733699D01*
X835041Y733712D01*
X835141Y733722D01*
X835240Y733728D01*
X835340Y733730D01*
X881060Y733730D02*
X881160Y733728D01*
X881259Y733722D01*
X881359Y733712D01*
X881457Y733699D01*
X881556Y733681D01*
X881653Y733660D01*
X881749Y733635D01*
X881845Y733606D01*
X881939Y733573D01*
X882032Y733537D01*
X882123Y733497D01*
X882213Y733453D01*
X882301Y733406D01*
X882387Y733356D01*
X882471Y733302D01*
X882553Y733245D01*
X882632Y733185D01*
X882710Y733121D01*
X882784Y733055D01*
X882856Y732986D01*
X882925Y732914D01*
X882991Y732840D01*
X883055Y732762D01*
X883115Y732683D01*
X883172Y732601D01*
X883226Y732517D01*
X883276Y732431D01*
X883323Y732343D01*
X883367Y732253D01*
X883407Y732162D01*
X883443Y732069D01*
X883476Y731975D01*
X883505Y731879D01*
X883530Y731783D01*
X883551Y731686D01*
X883569Y731587D01*
X883582Y731489D01*
X883592Y731389D01*
X883598Y731290D01*
X883600Y731190D01*
D12*
X898205Y710833D02*
X898205Y708293D01*
X898203Y708193D01*
X898197Y708094D01*
X898187Y707994D01*
X898174Y707896D01*
X898156Y707797D01*
X898135Y707700D01*
X898110Y707604D01*
X898081Y707508D01*
X898048Y707414D01*
X898012Y707321D01*
X897972Y707230D01*
X897928Y707140D01*
X897881Y707052D01*
X897831Y706966D01*
X897777Y706882D01*
X897720Y706800D01*
X897660Y706721D01*
X897596Y706643D01*
X897530Y706569D01*
X897461Y706497D01*
X897389Y706428D01*
X897315Y706362D01*
X897237Y706298D01*
X897158Y706238D01*
X897076Y706181D01*
X896992Y706127D01*
X896906Y706077D01*
X896818Y706030D01*
X896728Y705986D01*
X896637Y705946D01*
X896544Y705910D01*
X896450Y705877D01*
X896354Y705848D01*
X896258Y705823D01*
X896161Y705802D01*
X896062Y705784D01*
X895964Y705771D01*
X895864Y705761D01*
X895765Y705755D01*
X895665Y705753D01*
X889315Y705753D01*
X889215Y705755D01*
X889116Y705761D01*
X889016Y705771D01*
X888918Y705784D01*
X888819Y705802D01*
X888722Y705823D01*
X888626Y705848D01*
X888530Y705877D01*
X888436Y705910D01*
X888343Y705946D01*
X888252Y705986D01*
X888162Y706030D01*
X888074Y706077D01*
X887988Y706127D01*
X887904Y706181D01*
X887822Y706238D01*
X887743Y706298D01*
X887665Y706362D01*
X887591Y706428D01*
X887519Y706497D01*
X887450Y706569D01*
X887384Y706643D01*
X887320Y706721D01*
X887260Y706800D01*
X887203Y706882D01*
X887149Y706966D01*
X887099Y707052D01*
X887052Y707140D01*
X887008Y707230D01*
X886968Y707321D01*
X886932Y707414D01*
X886899Y707508D01*
X886870Y707604D01*
X886845Y707700D01*
X886824Y707797D01*
X886806Y707896D01*
X886793Y707994D01*
X886783Y708094D01*
X886777Y708193D01*
X886775Y708293D01*
X886775Y710833D01*
X889315Y715315D02*
X886775Y718490D01*
X898205Y718490D01*
X898205Y715315D02*
X898205Y721665D01*
D13*
X693300Y1012570D02*
X642500Y1012570D01*
X693300Y1012570D02*
X693300Y1004950D01*
X693300Y997330D01*
X642500Y997330D01*
X642500Y1004950D01*
X642500Y1012570D01*
X693300Y1004950D02*
X695840Y1004950D01*
X642500Y1004950D02*
X639960Y1004950D01*
D12*
X663848Y1015745D02*
X663848Y1020571D01*
X665189Y1020571D01*
X665260Y1020569D01*
X665332Y1020563D01*
X665402Y1020554D01*
X665472Y1020541D01*
X665542Y1020524D01*
X665610Y1020503D01*
X665677Y1020479D01*
X665743Y1020451D01*
X665807Y1020420D01*
X665870Y1020385D01*
X665930Y1020347D01*
X665989Y1020306D01*
X666045Y1020262D01*
X666099Y1020215D01*
X666150Y1020166D01*
X666198Y1020113D01*
X666244Y1020058D01*
X666286Y1020001D01*
X666326Y1019941D01*
X666362Y1019880D01*
X666395Y1019816D01*
X666424Y1019751D01*
X666450Y1019685D01*
X666473Y1019617D01*
X666492Y1019548D01*
X666507Y1019478D01*
X666518Y1019408D01*
X666526Y1019337D01*
X666530Y1019266D01*
X666530Y1019194D01*
X666526Y1019123D01*
X666518Y1019052D01*
X666507Y1018982D01*
X666492Y1018912D01*
X666473Y1018843D01*
X666450Y1018775D01*
X666424Y1018709D01*
X666395Y1018644D01*
X666362Y1018580D01*
X666326Y1018519D01*
X666286Y1018459D01*
X666244Y1018402D01*
X666198Y1018347D01*
X666150Y1018294D01*
X666099Y1018245D01*
X666045Y1018198D01*
X665989Y1018154D01*
X665930Y1018113D01*
X665870Y1018075D01*
X665807Y1018040D01*
X665743Y1018009D01*
X665677Y1017981D01*
X665610Y1017957D01*
X665542Y1017936D01*
X665472Y1017919D01*
X665402Y1017906D01*
X665332Y1017897D01*
X665260Y1017891D01*
X665189Y1017889D01*
X665189Y1017890D02*
X663848Y1017890D01*
X665457Y1017890D02*
X666529Y1015745D01*
X669271Y1018426D02*
X670879Y1018426D01*
X670944Y1018424D01*
X671008Y1018418D01*
X671072Y1018408D01*
X671136Y1018395D01*
X671198Y1018377D01*
X671259Y1018356D01*
X671319Y1018332D01*
X671377Y1018303D01*
X671434Y1018271D01*
X671488Y1018236D01*
X671540Y1018198D01*
X671590Y1018156D01*
X671637Y1018112D01*
X671681Y1018065D01*
X671723Y1018015D01*
X671761Y1017963D01*
X671796Y1017909D01*
X671828Y1017852D01*
X671857Y1017794D01*
X671881Y1017734D01*
X671902Y1017673D01*
X671920Y1017611D01*
X671933Y1017547D01*
X671943Y1017483D01*
X671949Y1017419D01*
X671951Y1017354D01*
X671952Y1017354D02*
X671952Y1017086D01*
X671950Y1017015D01*
X671944Y1016943D01*
X671935Y1016873D01*
X671922Y1016803D01*
X671905Y1016733D01*
X671884Y1016665D01*
X671860Y1016598D01*
X671832Y1016532D01*
X671801Y1016468D01*
X671766Y1016405D01*
X671728Y1016345D01*
X671687Y1016286D01*
X671643Y1016230D01*
X671596Y1016176D01*
X671547Y1016125D01*
X671494Y1016077D01*
X671439Y1016031D01*
X671382Y1015989D01*
X671322Y1015949D01*
X671261Y1015913D01*
X671197Y1015880D01*
X671132Y1015851D01*
X671066Y1015825D01*
X670998Y1015802D01*
X670929Y1015783D01*
X670859Y1015768D01*
X670789Y1015757D01*
X670718Y1015749D01*
X670647Y1015745D01*
X670575Y1015745D01*
X670504Y1015749D01*
X670433Y1015757D01*
X670363Y1015768D01*
X670293Y1015783D01*
X670224Y1015802D01*
X670156Y1015825D01*
X670090Y1015851D01*
X670025Y1015880D01*
X669961Y1015913D01*
X669900Y1015949D01*
X669840Y1015989D01*
X669783Y1016031D01*
X669728Y1016077D01*
X669675Y1016125D01*
X669626Y1016176D01*
X669579Y1016230D01*
X669535Y1016286D01*
X669494Y1016345D01*
X669456Y1016405D01*
X669421Y1016468D01*
X669390Y1016532D01*
X669362Y1016598D01*
X669338Y1016665D01*
X669317Y1016733D01*
X669300Y1016803D01*
X669287Y1016873D01*
X669278Y1016943D01*
X669272Y1017015D01*
X669270Y1017086D01*
X669271Y1017086D02*
X669271Y1018426D01*
X669273Y1018517D01*
X669279Y1018608D01*
X669288Y1018698D01*
X669302Y1018789D01*
X669319Y1018878D01*
X669340Y1018966D01*
X669365Y1019054D01*
X669394Y1019141D01*
X669426Y1019226D01*
X669461Y1019310D01*
X669501Y1019392D01*
X669543Y1019472D01*
X669589Y1019551D01*
X669639Y1019627D01*
X669691Y1019701D01*
X669747Y1019774D01*
X669806Y1019843D01*
X669867Y1019910D01*
X669932Y1019975D01*
X669999Y1020036D01*
X670068Y1020095D01*
X670140Y1020151D01*
X670215Y1020203D01*
X670291Y1020253D01*
X670370Y1020299D01*
X670450Y1020341D01*
X670532Y1020381D01*
X670616Y1020416D01*
X670701Y1020448D01*
X670788Y1020477D01*
X670875Y1020502D01*
X670964Y1020523D01*
X671053Y1020540D01*
X671144Y1020554D01*
X671234Y1020563D01*
X671325Y1020569D01*
X671416Y1020571D01*
D14*
X528520Y800100D02*
X528522Y800163D01*
X528528Y800225D01*
X528538Y800287D01*
X528551Y800349D01*
X528569Y800409D01*
X528590Y800468D01*
X528615Y800526D01*
X528644Y800582D01*
X528676Y800636D01*
X528711Y800688D01*
X528749Y800737D01*
X528791Y800785D01*
X528835Y800829D01*
X528883Y800871D01*
X528932Y800909D01*
X528984Y800944D01*
X529038Y800976D01*
X529094Y801005D01*
X529152Y801030D01*
X529211Y801051D01*
X529271Y801069D01*
X529333Y801082D01*
X529395Y801092D01*
X529457Y801098D01*
X529520Y801100D01*
X529583Y801098D01*
X529645Y801092D01*
X529707Y801082D01*
X529769Y801069D01*
X529829Y801051D01*
X529888Y801030D01*
X529946Y801005D01*
X530002Y800976D01*
X530056Y800944D01*
X530108Y800909D01*
X530157Y800871D01*
X530205Y800829D01*
X530249Y800785D01*
X530291Y800737D01*
X530329Y800688D01*
X530364Y800636D01*
X530396Y800582D01*
X530425Y800526D01*
X530450Y800468D01*
X530471Y800409D01*
X530489Y800349D01*
X530502Y800287D01*
X530512Y800225D01*
X530518Y800163D01*
X530520Y800100D01*
X530518Y800037D01*
X530512Y799975D01*
X530502Y799913D01*
X530489Y799851D01*
X530471Y799791D01*
X530450Y799732D01*
X530425Y799674D01*
X530396Y799618D01*
X530364Y799564D01*
X530329Y799512D01*
X530291Y799463D01*
X530249Y799415D01*
X530205Y799371D01*
X530157Y799329D01*
X530108Y799291D01*
X530056Y799256D01*
X530002Y799224D01*
X529946Y799195D01*
X529888Y799170D01*
X529829Y799149D01*
X529769Y799131D01*
X529707Y799118D01*
X529645Y799108D01*
X529583Y799102D01*
X529520Y799100D01*
X529457Y799102D01*
X529395Y799108D01*
X529333Y799118D01*
X529271Y799131D01*
X529211Y799149D01*
X529152Y799170D01*
X529094Y799195D01*
X529038Y799224D01*
X528984Y799256D01*
X528932Y799291D01*
X528883Y799329D01*
X528835Y799371D01*
X528791Y799415D01*
X528749Y799463D01*
X528711Y799512D01*
X528676Y799564D01*
X528644Y799618D01*
X528615Y799674D01*
X528590Y799732D01*
X528569Y799791D01*
X528551Y799851D01*
X528538Y799913D01*
X528528Y799975D01*
X528522Y800037D01*
X528520Y800100D01*
D12*
X547070Y809150D02*
X547070Y822350D01*
X613070Y822350D01*
X613070Y809150D01*
X613070Y638650D02*
X613070Y625450D01*
X547070Y625450D01*
X547070Y638650D01*
D15*
X541848Y851704D02*
X541848Y860142D01*
X541848Y851704D02*
X541850Y851591D01*
X541856Y851478D01*
X541866Y851365D01*
X541880Y851252D01*
X541897Y851140D01*
X541919Y851029D01*
X541944Y850919D01*
X541974Y850809D01*
X542007Y850701D01*
X542044Y850594D01*
X542084Y850488D01*
X542129Y850384D01*
X542177Y850281D01*
X542228Y850180D01*
X542283Y850081D01*
X542341Y849984D01*
X542403Y849889D01*
X542468Y849796D01*
X542536Y849706D01*
X542607Y849618D01*
X542682Y849532D01*
X542759Y849449D01*
X542839Y849369D01*
X542922Y849292D01*
X543008Y849217D01*
X543096Y849146D01*
X543186Y849078D01*
X543279Y849013D01*
X543374Y848951D01*
X543471Y848893D01*
X543570Y848838D01*
X543671Y848787D01*
X543774Y848739D01*
X543878Y848694D01*
X543984Y848654D01*
X544091Y848617D01*
X544199Y848584D01*
X544309Y848554D01*
X544419Y848529D01*
X544530Y848507D01*
X544642Y848490D01*
X544755Y848476D01*
X544868Y848466D01*
X544981Y848460D01*
X545094Y848458D01*
X545207Y848460D01*
X545320Y848466D01*
X545433Y848476D01*
X545546Y848490D01*
X545658Y848507D01*
X545769Y848529D01*
X545879Y848554D01*
X545989Y848584D01*
X546097Y848617D01*
X546204Y848654D01*
X546310Y848694D01*
X546414Y848739D01*
X546517Y848787D01*
X546618Y848838D01*
X546717Y848893D01*
X546814Y848951D01*
X546909Y849013D01*
X547002Y849078D01*
X547092Y849146D01*
X547180Y849217D01*
X547266Y849292D01*
X547349Y849369D01*
X547429Y849449D01*
X547506Y849532D01*
X547581Y849618D01*
X547652Y849706D01*
X547720Y849796D01*
X547785Y849889D01*
X547847Y849984D01*
X547905Y850081D01*
X547960Y850180D01*
X548011Y850281D01*
X548059Y850384D01*
X548104Y850488D01*
X548144Y850594D01*
X548181Y850701D01*
X548214Y850809D01*
X548244Y850919D01*
X548269Y851029D01*
X548291Y851140D01*
X548308Y851252D01*
X548322Y851365D01*
X548332Y851478D01*
X548338Y851591D01*
X548340Y851704D01*
X548339Y851704D02*
X548339Y860142D01*
X553659Y857546D02*
X556905Y860142D01*
X556905Y848458D01*
X560150Y848458D02*
X553659Y848458D01*
D10*
X782000Y699948D02*
X788350Y699948D01*
X782000Y699948D02*
X775650Y699948D01*
D11*
X782000Y699948D02*
X782000Y712140D01*
D10*
X782000Y693598D02*
X788350Y693598D01*
X782000Y693598D02*
X775650Y693598D01*
D11*
X782000Y693598D02*
X782000Y681660D01*
X804860Y733730D02*
X759140Y733730D01*
X756600Y731190D02*
X756600Y662610D01*
X759140Y660070D02*
X804860Y660070D01*
X807400Y662610D02*
X807400Y731190D01*
X807400Y662610D02*
X807398Y662510D01*
X807392Y662411D01*
X807382Y662311D01*
X807369Y662213D01*
X807351Y662114D01*
X807330Y662017D01*
X807305Y661921D01*
X807276Y661825D01*
X807243Y661731D01*
X807207Y661638D01*
X807167Y661547D01*
X807123Y661457D01*
X807076Y661369D01*
X807026Y661283D01*
X806972Y661199D01*
X806915Y661117D01*
X806855Y661038D01*
X806791Y660960D01*
X806725Y660886D01*
X806656Y660814D01*
X806584Y660745D01*
X806510Y660679D01*
X806432Y660615D01*
X806353Y660555D01*
X806271Y660498D01*
X806187Y660444D01*
X806101Y660394D01*
X806013Y660347D01*
X805923Y660303D01*
X805832Y660263D01*
X805739Y660227D01*
X805645Y660194D01*
X805549Y660165D01*
X805453Y660140D01*
X805356Y660119D01*
X805257Y660101D01*
X805159Y660088D01*
X805059Y660078D01*
X804960Y660072D01*
X804860Y660070D01*
X759140Y660070D02*
X759040Y660072D01*
X758941Y660078D01*
X758841Y660088D01*
X758743Y660101D01*
X758644Y660119D01*
X758547Y660140D01*
X758451Y660165D01*
X758355Y660194D01*
X758261Y660227D01*
X758168Y660263D01*
X758077Y660303D01*
X757987Y660347D01*
X757899Y660394D01*
X757813Y660444D01*
X757729Y660498D01*
X757647Y660555D01*
X757568Y660615D01*
X757490Y660679D01*
X757416Y660745D01*
X757344Y660814D01*
X757275Y660886D01*
X757209Y660960D01*
X757145Y661038D01*
X757085Y661117D01*
X757028Y661199D01*
X756974Y661283D01*
X756924Y661369D01*
X756877Y661457D01*
X756833Y661547D01*
X756793Y661638D01*
X756757Y661731D01*
X756724Y661825D01*
X756695Y661921D01*
X756670Y662017D01*
X756649Y662114D01*
X756631Y662213D01*
X756618Y662311D01*
X756608Y662411D01*
X756602Y662510D01*
X756600Y662610D01*
X756600Y731190D02*
X756602Y731290D01*
X756608Y731389D01*
X756618Y731489D01*
X756631Y731587D01*
X756649Y731686D01*
X756670Y731783D01*
X756695Y731879D01*
X756724Y731975D01*
X756757Y732069D01*
X756793Y732162D01*
X756833Y732253D01*
X756877Y732343D01*
X756924Y732431D01*
X756974Y732517D01*
X757028Y732601D01*
X757085Y732683D01*
X757145Y732762D01*
X757209Y732840D01*
X757275Y732914D01*
X757344Y732986D01*
X757416Y733055D01*
X757490Y733121D01*
X757568Y733185D01*
X757647Y733245D01*
X757729Y733302D01*
X757813Y733356D01*
X757899Y733406D01*
X757987Y733453D01*
X758077Y733497D01*
X758168Y733537D01*
X758261Y733573D01*
X758355Y733606D01*
X758451Y733635D01*
X758547Y733660D01*
X758644Y733681D01*
X758743Y733699D01*
X758841Y733712D01*
X758941Y733722D01*
X759040Y733728D01*
X759140Y733730D01*
X804860Y733730D02*
X804960Y733728D01*
X805059Y733722D01*
X805159Y733712D01*
X805257Y733699D01*
X805356Y733681D01*
X805453Y733660D01*
X805549Y733635D01*
X805645Y733606D01*
X805739Y733573D01*
X805832Y733537D01*
X805923Y733497D01*
X806013Y733453D01*
X806101Y733406D01*
X806187Y733356D01*
X806271Y733302D01*
X806353Y733245D01*
X806432Y733185D01*
X806510Y733121D01*
X806584Y733055D01*
X806656Y732986D01*
X806725Y732914D01*
X806791Y732840D01*
X806855Y732762D01*
X806915Y732683D01*
X806972Y732601D01*
X807026Y732517D01*
X807076Y732431D01*
X807123Y732343D01*
X807167Y732253D01*
X807207Y732162D01*
X807243Y732069D01*
X807276Y731975D01*
X807305Y731879D01*
X807330Y731783D01*
X807351Y731686D01*
X807369Y731587D01*
X807382Y731489D01*
X807392Y731389D01*
X807398Y731290D01*
X807400Y731190D01*
D12*
X822005Y710833D02*
X822005Y708293D01*
X822003Y708193D01*
X821997Y708094D01*
X821987Y707994D01*
X821974Y707896D01*
X821956Y707797D01*
X821935Y707700D01*
X821910Y707604D01*
X821881Y707508D01*
X821848Y707414D01*
X821812Y707321D01*
X821772Y707230D01*
X821728Y707140D01*
X821681Y707052D01*
X821631Y706966D01*
X821577Y706882D01*
X821520Y706800D01*
X821460Y706721D01*
X821396Y706643D01*
X821330Y706569D01*
X821261Y706497D01*
X821189Y706428D01*
X821115Y706362D01*
X821037Y706298D01*
X820958Y706238D01*
X820876Y706181D01*
X820792Y706127D01*
X820706Y706077D01*
X820618Y706030D01*
X820528Y705986D01*
X820437Y705946D01*
X820344Y705910D01*
X820250Y705877D01*
X820154Y705848D01*
X820058Y705823D01*
X819961Y705802D01*
X819862Y705784D01*
X819764Y705771D01*
X819664Y705761D01*
X819565Y705755D01*
X819465Y705753D01*
X813115Y705753D01*
X813015Y705755D01*
X812916Y705761D01*
X812816Y705771D01*
X812718Y705784D01*
X812619Y705802D01*
X812522Y705823D01*
X812426Y705848D01*
X812330Y705877D01*
X812236Y705910D01*
X812143Y705946D01*
X812052Y705986D01*
X811962Y706030D01*
X811874Y706077D01*
X811788Y706127D01*
X811704Y706181D01*
X811622Y706238D01*
X811543Y706298D01*
X811465Y706362D01*
X811391Y706428D01*
X811319Y706497D01*
X811250Y706569D01*
X811184Y706643D01*
X811120Y706721D01*
X811060Y706800D01*
X811003Y706882D01*
X810949Y706966D01*
X810899Y707052D01*
X810852Y707140D01*
X810808Y707230D01*
X810768Y707321D01*
X810732Y707414D01*
X810699Y707508D01*
X810670Y707604D01*
X810645Y707700D01*
X810624Y707797D01*
X810606Y707896D01*
X810593Y707994D01*
X810583Y708094D01*
X810577Y708193D01*
X810575Y708293D01*
X810575Y710833D01*
X810575Y718808D02*
X810577Y718912D01*
X810583Y719017D01*
X810592Y719121D01*
X810605Y719224D01*
X810623Y719327D01*
X810643Y719429D01*
X810668Y719531D01*
X810696Y719631D01*
X810728Y719731D01*
X810764Y719829D01*
X810803Y719926D01*
X810845Y720021D01*
X810891Y720115D01*
X810941Y720207D01*
X810993Y720297D01*
X811049Y720385D01*
X811109Y720471D01*
X811171Y720555D01*
X811236Y720636D01*
X811304Y720715D01*
X811376Y720792D01*
X811449Y720865D01*
X811526Y720937D01*
X811605Y721005D01*
X811686Y721070D01*
X811770Y721132D01*
X811856Y721192D01*
X811944Y721248D01*
X812034Y721300D01*
X812126Y721350D01*
X812220Y721396D01*
X812315Y721438D01*
X812412Y721477D01*
X812510Y721513D01*
X812610Y721545D01*
X812710Y721573D01*
X812812Y721598D01*
X812914Y721618D01*
X813017Y721636D01*
X813120Y721649D01*
X813224Y721658D01*
X813329Y721664D01*
X813433Y721666D01*
X810575Y718808D02*
X810577Y718690D01*
X810583Y718571D01*
X810592Y718453D01*
X810605Y718336D01*
X810623Y718219D01*
X810643Y718102D01*
X810668Y717986D01*
X810696Y717871D01*
X810729Y717758D01*
X810764Y717645D01*
X810804Y717533D01*
X810846Y717423D01*
X810893Y717314D01*
X810943Y717206D01*
X810996Y717101D01*
X811053Y716997D01*
X811113Y716895D01*
X811176Y716795D01*
X811243Y716697D01*
X811312Y716601D01*
X811385Y716508D01*
X811461Y716417D01*
X811539Y716328D01*
X811621Y716242D01*
X811705Y716159D01*
X811791Y716078D01*
X811881Y716001D01*
X811972Y715926D01*
X812066Y715854D01*
X812163Y715785D01*
X812261Y715720D01*
X812362Y715657D01*
X812465Y715598D01*
X812569Y715542D01*
X812675Y715490D01*
X812783Y715441D01*
X812892Y715396D01*
X813003Y715354D01*
X813115Y715316D01*
X815655Y720713D02*
X815580Y720789D01*
X815501Y720864D01*
X815420Y720935D01*
X815336Y721004D01*
X815250Y721069D01*
X815162Y721131D01*
X815072Y721191D01*
X814980Y721247D01*
X814885Y721300D01*
X814789Y721349D01*
X814691Y721395D01*
X814592Y721438D01*
X814491Y721477D01*
X814389Y721512D01*
X814286Y721544D01*
X814182Y721572D01*
X814077Y721597D01*
X813970Y721618D01*
X813864Y721635D01*
X813757Y721648D01*
X813649Y721657D01*
X813541Y721663D01*
X813433Y721665D01*
X815655Y720713D02*
X822005Y715315D01*
X822005Y721665D01*
D10*
X712150Y699948D02*
X705800Y699948D01*
X699450Y699948D01*
D11*
X705800Y699948D02*
X705800Y712140D01*
D10*
X705800Y693598D02*
X712150Y693598D01*
X705800Y693598D02*
X699450Y693598D01*
D11*
X705800Y693598D02*
X705800Y681660D01*
X728660Y733730D02*
X682940Y733730D01*
X680400Y731190D02*
X680400Y662610D01*
X682940Y660070D02*
X728660Y660070D01*
X731200Y662610D02*
X731200Y731190D01*
X731200Y662610D02*
X731198Y662510D01*
X731192Y662411D01*
X731182Y662311D01*
X731169Y662213D01*
X731151Y662114D01*
X731130Y662017D01*
X731105Y661921D01*
X731076Y661825D01*
X731043Y661731D01*
X731007Y661638D01*
X730967Y661547D01*
X730923Y661457D01*
X730876Y661369D01*
X730826Y661283D01*
X730772Y661199D01*
X730715Y661117D01*
X730655Y661038D01*
X730591Y660960D01*
X730525Y660886D01*
X730456Y660814D01*
X730384Y660745D01*
X730310Y660679D01*
X730232Y660615D01*
X730153Y660555D01*
X730071Y660498D01*
X729987Y660444D01*
X729901Y660394D01*
X729813Y660347D01*
X729723Y660303D01*
X729632Y660263D01*
X729539Y660227D01*
X729445Y660194D01*
X729349Y660165D01*
X729253Y660140D01*
X729156Y660119D01*
X729057Y660101D01*
X728959Y660088D01*
X728859Y660078D01*
X728760Y660072D01*
X728660Y660070D01*
X682940Y660070D02*
X682840Y660072D01*
X682741Y660078D01*
X682641Y660088D01*
X682543Y660101D01*
X682444Y660119D01*
X682347Y660140D01*
X682251Y660165D01*
X682155Y660194D01*
X682061Y660227D01*
X681968Y660263D01*
X681877Y660303D01*
X681787Y660347D01*
X681699Y660394D01*
X681613Y660444D01*
X681529Y660498D01*
X681447Y660555D01*
X681368Y660615D01*
X681290Y660679D01*
X681216Y660745D01*
X681144Y660814D01*
X681075Y660886D01*
X681009Y660960D01*
X680945Y661038D01*
X680885Y661117D01*
X680828Y661199D01*
X680774Y661283D01*
X680724Y661369D01*
X680677Y661457D01*
X680633Y661547D01*
X680593Y661638D01*
X680557Y661731D01*
X680524Y661825D01*
X680495Y661921D01*
X680470Y662017D01*
X680449Y662114D01*
X680431Y662213D01*
X680418Y662311D01*
X680408Y662411D01*
X680402Y662510D01*
X680400Y662610D01*
X680400Y731190D02*
X680402Y731290D01*
X680408Y731389D01*
X680418Y731489D01*
X680431Y731587D01*
X680449Y731686D01*
X680470Y731783D01*
X680495Y731879D01*
X680524Y731975D01*
X680557Y732069D01*
X680593Y732162D01*
X680633Y732253D01*
X680677Y732343D01*
X680724Y732431D01*
X680774Y732517D01*
X680828Y732601D01*
X680885Y732683D01*
X680945Y732762D01*
X681009Y732840D01*
X681075Y732914D01*
X681144Y732986D01*
X681216Y733055D01*
X681290Y733121D01*
X681368Y733185D01*
X681447Y733245D01*
X681529Y733302D01*
X681613Y733356D01*
X681699Y733406D01*
X681787Y733453D01*
X681877Y733497D01*
X681968Y733537D01*
X682061Y733573D01*
X682155Y733606D01*
X682251Y733635D01*
X682347Y733660D01*
X682444Y733681D01*
X682543Y733699D01*
X682641Y733712D01*
X682741Y733722D01*
X682840Y733728D01*
X682940Y733730D01*
X728660Y733730D02*
X728760Y733728D01*
X728859Y733722D01*
X728959Y733712D01*
X729057Y733699D01*
X729156Y733681D01*
X729253Y733660D01*
X729349Y733635D01*
X729445Y733606D01*
X729539Y733573D01*
X729632Y733537D01*
X729723Y733497D01*
X729813Y733453D01*
X729901Y733406D01*
X729987Y733356D01*
X730071Y733302D01*
X730153Y733245D01*
X730232Y733185D01*
X730310Y733121D01*
X730384Y733055D01*
X730456Y732986D01*
X730525Y732914D01*
X730591Y732840D01*
X730655Y732762D01*
X730715Y732683D01*
X730772Y732601D01*
X730826Y732517D01*
X730876Y732431D01*
X730923Y732343D01*
X730967Y732253D01*
X731007Y732162D01*
X731043Y732069D01*
X731076Y731975D01*
X731105Y731879D01*
X731130Y731783D01*
X731151Y731686D01*
X731169Y731587D01*
X731182Y731489D01*
X731192Y731389D01*
X731198Y731290D01*
X731200Y731190D01*
D12*
X745805Y710833D02*
X745805Y708293D01*
X745803Y708193D01*
X745797Y708094D01*
X745787Y707994D01*
X745774Y707896D01*
X745756Y707797D01*
X745735Y707700D01*
X745710Y707604D01*
X745681Y707508D01*
X745648Y707414D01*
X745612Y707321D01*
X745572Y707230D01*
X745528Y707140D01*
X745481Y707052D01*
X745431Y706966D01*
X745377Y706882D01*
X745320Y706800D01*
X745260Y706721D01*
X745196Y706643D01*
X745130Y706569D01*
X745061Y706497D01*
X744989Y706428D01*
X744915Y706362D01*
X744837Y706298D01*
X744758Y706238D01*
X744676Y706181D01*
X744592Y706127D01*
X744506Y706077D01*
X744418Y706030D01*
X744328Y705986D01*
X744237Y705946D01*
X744144Y705910D01*
X744050Y705877D01*
X743954Y705848D01*
X743858Y705823D01*
X743761Y705802D01*
X743662Y705784D01*
X743564Y705771D01*
X743464Y705761D01*
X743365Y705755D01*
X743265Y705753D01*
X736915Y705753D01*
X736815Y705755D01*
X736716Y705761D01*
X736616Y705771D01*
X736518Y705784D01*
X736419Y705802D01*
X736322Y705823D01*
X736226Y705848D01*
X736130Y705877D01*
X736036Y705910D01*
X735943Y705946D01*
X735852Y705986D01*
X735762Y706030D01*
X735674Y706077D01*
X735588Y706127D01*
X735504Y706181D01*
X735422Y706238D01*
X735343Y706298D01*
X735265Y706362D01*
X735191Y706428D01*
X735119Y706497D01*
X735050Y706569D01*
X734984Y706643D01*
X734920Y706721D01*
X734860Y706800D01*
X734803Y706882D01*
X734749Y706966D01*
X734699Y707052D01*
X734652Y707140D01*
X734608Y707230D01*
X734568Y707321D01*
X734532Y707414D01*
X734499Y707508D01*
X734470Y707604D01*
X734445Y707700D01*
X734424Y707797D01*
X734406Y707896D01*
X734393Y707994D01*
X734383Y708094D01*
X734377Y708193D01*
X734375Y708293D01*
X734375Y710833D01*
X745805Y715315D02*
X745805Y718490D01*
X745803Y718601D01*
X745797Y718711D01*
X745788Y718822D01*
X745774Y718932D01*
X745757Y719041D01*
X745736Y719150D01*
X745711Y719258D01*
X745682Y719365D01*
X745650Y719471D01*
X745614Y719576D01*
X745574Y719679D01*
X745531Y719781D01*
X745484Y719882D01*
X745433Y719981D01*
X745380Y720078D01*
X745323Y720172D01*
X745262Y720265D01*
X745199Y720356D01*
X745132Y720445D01*
X745062Y720531D01*
X744989Y720614D01*
X744914Y720696D01*
X744836Y720774D01*
X744754Y720849D01*
X744671Y720922D01*
X744585Y720992D01*
X744496Y721059D01*
X744405Y721122D01*
X744312Y721183D01*
X744218Y721240D01*
X744121Y721293D01*
X744022Y721344D01*
X743921Y721391D01*
X743819Y721434D01*
X743716Y721474D01*
X743611Y721510D01*
X743505Y721542D01*
X743398Y721571D01*
X743290Y721596D01*
X743181Y721617D01*
X743072Y721634D01*
X742962Y721648D01*
X742851Y721657D01*
X742741Y721663D01*
X742630Y721665D01*
X742519Y721663D01*
X742409Y721657D01*
X742298Y721648D01*
X742188Y721634D01*
X742079Y721617D01*
X741970Y721596D01*
X741862Y721571D01*
X741755Y721542D01*
X741649Y721510D01*
X741544Y721474D01*
X741441Y721434D01*
X741339Y721391D01*
X741238Y721344D01*
X741139Y721293D01*
X741043Y721240D01*
X740948Y721183D01*
X740855Y721122D01*
X740764Y721059D01*
X740675Y720992D01*
X740589Y720922D01*
X740506Y720849D01*
X740424Y720774D01*
X740346Y720696D01*
X740271Y720614D01*
X740198Y720531D01*
X740128Y720445D01*
X740061Y720356D01*
X739998Y720265D01*
X739937Y720172D01*
X739880Y720078D01*
X739827Y719981D01*
X739776Y719882D01*
X739729Y719781D01*
X739686Y719679D01*
X739646Y719576D01*
X739610Y719471D01*
X739578Y719365D01*
X739549Y719258D01*
X739524Y719150D01*
X739503Y719041D01*
X739486Y718932D01*
X739472Y718822D01*
X739463Y718711D01*
X739457Y718601D01*
X739455Y718490D01*
X734375Y719125D02*
X734375Y715315D01*
X734375Y719125D02*
X734377Y719225D01*
X734383Y719324D01*
X734393Y719424D01*
X734406Y719522D01*
X734424Y719621D01*
X734445Y719718D01*
X734470Y719814D01*
X734499Y719910D01*
X734532Y720004D01*
X734568Y720097D01*
X734608Y720188D01*
X734652Y720278D01*
X734699Y720366D01*
X734749Y720452D01*
X734803Y720536D01*
X734860Y720618D01*
X734920Y720697D01*
X734984Y720775D01*
X735050Y720849D01*
X735119Y720921D01*
X735191Y720990D01*
X735265Y721056D01*
X735343Y721120D01*
X735422Y721180D01*
X735504Y721237D01*
X735588Y721291D01*
X735674Y721341D01*
X735762Y721388D01*
X735852Y721432D01*
X735943Y721472D01*
X736036Y721508D01*
X736130Y721541D01*
X736226Y721570D01*
X736322Y721595D01*
X736419Y721616D01*
X736518Y721634D01*
X736616Y721647D01*
X736716Y721657D01*
X736815Y721663D01*
X736915Y721665D01*
X737015Y721663D01*
X737114Y721657D01*
X737214Y721647D01*
X737312Y721634D01*
X737411Y721616D01*
X737508Y721595D01*
X737604Y721570D01*
X737700Y721541D01*
X737794Y721508D01*
X737887Y721472D01*
X737978Y721432D01*
X738068Y721388D01*
X738156Y721341D01*
X738242Y721291D01*
X738326Y721237D01*
X738408Y721180D01*
X738487Y721120D01*
X738565Y721056D01*
X738639Y720990D01*
X738711Y720921D01*
X738780Y720849D01*
X738846Y720775D01*
X738910Y720697D01*
X738970Y720618D01*
X739027Y720536D01*
X739081Y720452D01*
X739131Y720366D01*
X739178Y720278D01*
X739222Y720188D01*
X739262Y720097D01*
X739298Y720004D01*
X739331Y719910D01*
X739360Y719814D01*
X739385Y719718D01*
X739406Y719621D01*
X739424Y719522D01*
X739437Y719424D01*
X739447Y719324D01*
X739453Y719225D01*
X739455Y719125D01*
X739455Y716585D01*
D10*
X458150Y699948D02*
X451800Y699948D01*
X445450Y699948D01*
D11*
X451800Y699948D02*
X451800Y712140D01*
D10*
X451800Y693598D02*
X458150Y693598D01*
X451800Y693598D02*
X445450Y693598D01*
D11*
X451800Y693598D02*
X451800Y681660D01*
X474660Y733730D02*
X428940Y733730D01*
X426400Y731190D02*
X426400Y662610D01*
X428940Y660070D02*
X474660Y660070D01*
X477200Y662610D02*
X477200Y731190D01*
X477200Y662610D02*
X477198Y662510D01*
X477192Y662411D01*
X477182Y662311D01*
X477169Y662213D01*
X477151Y662114D01*
X477130Y662017D01*
X477105Y661921D01*
X477076Y661825D01*
X477043Y661731D01*
X477007Y661638D01*
X476967Y661547D01*
X476923Y661457D01*
X476876Y661369D01*
X476826Y661283D01*
X476772Y661199D01*
X476715Y661117D01*
X476655Y661038D01*
X476591Y660960D01*
X476525Y660886D01*
X476456Y660814D01*
X476384Y660745D01*
X476310Y660679D01*
X476232Y660615D01*
X476153Y660555D01*
X476071Y660498D01*
X475987Y660444D01*
X475901Y660394D01*
X475813Y660347D01*
X475723Y660303D01*
X475632Y660263D01*
X475539Y660227D01*
X475445Y660194D01*
X475349Y660165D01*
X475253Y660140D01*
X475156Y660119D01*
X475057Y660101D01*
X474959Y660088D01*
X474859Y660078D01*
X474760Y660072D01*
X474660Y660070D01*
X428940Y660070D02*
X428840Y660072D01*
X428741Y660078D01*
X428641Y660088D01*
X428543Y660101D01*
X428444Y660119D01*
X428347Y660140D01*
X428251Y660165D01*
X428155Y660194D01*
X428061Y660227D01*
X427968Y660263D01*
X427877Y660303D01*
X427787Y660347D01*
X427699Y660394D01*
X427613Y660444D01*
X427529Y660498D01*
X427447Y660555D01*
X427368Y660615D01*
X427290Y660679D01*
X427216Y660745D01*
X427144Y660814D01*
X427075Y660886D01*
X427009Y660960D01*
X426945Y661038D01*
X426885Y661117D01*
X426828Y661199D01*
X426774Y661283D01*
X426724Y661369D01*
X426677Y661457D01*
X426633Y661547D01*
X426593Y661638D01*
X426557Y661731D01*
X426524Y661825D01*
X426495Y661921D01*
X426470Y662017D01*
X426449Y662114D01*
X426431Y662213D01*
X426418Y662311D01*
X426408Y662411D01*
X426402Y662510D01*
X426400Y662610D01*
X426400Y731190D02*
X426402Y731290D01*
X426408Y731389D01*
X426418Y731489D01*
X426431Y731587D01*
X426449Y731686D01*
X426470Y731783D01*
X426495Y731879D01*
X426524Y731975D01*
X426557Y732069D01*
X426593Y732162D01*
X426633Y732253D01*
X426677Y732343D01*
X426724Y732431D01*
X426774Y732517D01*
X426828Y732601D01*
X426885Y732683D01*
X426945Y732762D01*
X427009Y732840D01*
X427075Y732914D01*
X427144Y732986D01*
X427216Y733055D01*
X427290Y733121D01*
X427368Y733185D01*
X427447Y733245D01*
X427529Y733302D01*
X427613Y733356D01*
X427699Y733406D01*
X427787Y733453D01*
X427877Y733497D01*
X427968Y733537D01*
X428061Y733573D01*
X428155Y733606D01*
X428251Y733635D01*
X428347Y733660D01*
X428444Y733681D01*
X428543Y733699D01*
X428641Y733712D01*
X428741Y733722D01*
X428840Y733728D01*
X428940Y733730D01*
X474660Y733730D02*
X474760Y733728D01*
X474859Y733722D01*
X474959Y733712D01*
X475057Y733699D01*
X475156Y733681D01*
X475253Y733660D01*
X475349Y733635D01*
X475445Y733606D01*
X475539Y733573D01*
X475632Y733537D01*
X475723Y733497D01*
X475813Y733453D01*
X475901Y733406D01*
X475987Y733356D01*
X476071Y733302D01*
X476153Y733245D01*
X476232Y733185D01*
X476310Y733121D01*
X476384Y733055D01*
X476456Y732986D01*
X476525Y732914D01*
X476591Y732840D01*
X476655Y732762D01*
X476715Y732683D01*
X476772Y732601D01*
X476826Y732517D01*
X476876Y732431D01*
X476923Y732343D01*
X476967Y732253D01*
X477007Y732162D01*
X477043Y732069D01*
X477076Y731975D01*
X477105Y731879D01*
X477130Y731783D01*
X477151Y731686D01*
X477169Y731587D01*
X477182Y731489D01*
X477192Y731389D01*
X477198Y731290D01*
X477200Y731190D01*
D12*
X491805Y710833D02*
X491805Y708293D01*
X491803Y708193D01*
X491797Y708094D01*
X491787Y707994D01*
X491774Y707896D01*
X491756Y707797D01*
X491735Y707700D01*
X491710Y707604D01*
X491681Y707508D01*
X491648Y707414D01*
X491612Y707321D01*
X491572Y707230D01*
X491528Y707140D01*
X491481Y707052D01*
X491431Y706966D01*
X491377Y706882D01*
X491320Y706800D01*
X491260Y706721D01*
X491196Y706643D01*
X491130Y706569D01*
X491061Y706497D01*
X490989Y706428D01*
X490915Y706362D01*
X490837Y706298D01*
X490758Y706238D01*
X490676Y706181D01*
X490592Y706127D01*
X490506Y706077D01*
X490418Y706030D01*
X490328Y705986D01*
X490237Y705946D01*
X490144Y705910D01*
X490050Y705877D01*
X489954Y705848D01*
X489858Y705823D01*
X489761Y705802D01*
X489662Y705784D01*
X489564Y705771D01*
X489464Y705761D01*
X489365Y705755D01*
X489265Y705753D01*
X482915Y705753D01*
X482815Y705755D01*
X482716Y705761D01*
X482616Y705771D01*
X482518Y705784D01*
X482419Y705802D01*
X482322Y705823D01*
X482226Y705848D01*
X482130Y705877D01*
X482036Y705910D01*
X481943Y705946D01*
X481852Y705986D01*
X481762Y706030D01*
X481674Y706077D01*
X481588Y706127D01*
X481504Y706181D01*
X481422Y706238D01*
X481343Y706298D01*
X481265Y706362D01*
X481191Y706428D01*
X481119Y706497D01*
X481050Y706569D01*
X480984Y706643D01*
X480920Y706721D01*
X480860Y706800D01*
X480803Y706882D01*
X480749Y706966D01*
X480699Y707052D01*
X480652Y707140D01*
X480608Y707230D01*
X480568Y707321D01*
X480532Y707414D01*
X480499Y707508D01*
X480470Y707604D01*
X480445Y707700D01*
X480424Y707797D01*
X480406Y707896D01*
X480393Y707994D01*
X480383Y708094D01*
X480377Y708193D01*
X480375Y708293D01*
X480375Y710833D01*
X480375Y717855D02*
X489265Y715315D01*
X489265Y721665D01*
X486725Y719760D02*
X491805Y719760D01*
D10*
X381950Y699948D02*
X375600Y699948D01*
X369250Y699948D01*
D11*
X375600Y699948D02*
X375600Y712140D01*
D10*
X375600Y693598D02*
X381950Y693598D01*
X375600Y693598D02*
X369250Y693598D01*
D11*
X375600Y693598D02*
X375600Y681660D01*
X398460Y733730D02*
X352740Y733730D01*
X350200Y731190D02*
X350200Y662610D01*
X352740Y660070D02*
X398460Y660070D01*
X401000Y662610D02*
X401000Y731190D01*
X401000Y662610D02*
X400998Y662510D01*
X400992Y662411D01*
X400982Y662311D01*
X400969Y662213D01*
X400951Y662114D01*
X400930Y662017D01*
X400905Y661921D01*
X400876Y661825D01*
X400843Y661731D01*
X400807Y661638D01*
X400767Y661547D01*
X400723Y661457D01*
X400676Y661369D01*
X400626Y661283D01*
X400572Y661199D01*
X400515Y661117D01*
X400455Y661038D01*
X400391Y660960D01*
X400325Y660886D01*
X400256Y660814D01*
X400184Y660745D01*
X400110Y660679D01*
X400032Y660615D01*
X399953Y660555D01*
X399871Y660498D01*
X399787Y660444D01*
X399701Y660394D01*
X399613Y660347D01*
X399523Y660303D01*
X399432Y660263D01*
X399339Y660227D01*
X399245Y660194D01*
X399149Y660165D01*
X399053Y660140D01*
X398956Y660119D01*
X398857Y660101D01*
X398759Y660088D01*
X398659Y660078D01*
X398560Y660072D01*
X398460Y660070D01*
X352740Y660070D02*
X352640Y660072D01*
X352541Y660078D01*
X352441Y660088D01*
X352343Y660101D01*
X352244Y660119D01*
X352147Y660140D01*
X352051Y660165D01*
X351955Y660194D01*
X351861Y660227D01*
X351768Y660263D01*
X351677Y660303D01*
X351587Y660347D01*
X351499Y660394D01*
X351413Y660444D01*
X351329Y660498D01*
X351247Y660555D01*
X351168Y660615D01*
X351090Y660679D01*
X351016Y660745D01*
X350944Y660814D01*
X350875Y660886D01*
X350809Y660960D01*
X350745Y661038D01*
X350685Y661117D01*
X350628Y661199D01*
X350574Y661283D01*
X350524Y661369D01*
X350477Y661457D01*
X350433Y661547D01*
X350393Y661638D01*
X350357Y661731D01*
X350324Y661825D01*
X350295Y661921D01*
X350270Y662017D01*
X350249Y662114D01*
X350231Y662213D01*
X350218Y662311D01*
X350208Y662411D01*
X350202Y662510D01*
X350200Y662610D01*
X350200Y731190D02*
X350202Y731290D01*
X350208Y731389D01*
X350218Y731489D01*
X350231Y731587D01*
X350249Y731686D01*
X350270Y731783D01*
X350295Y731879D01*
X350324Y731975D01*
X350357Y732069D01*
X350393Y732162D01*
X350433Y732253D01*
X350477Y732343D01*
X350524Y732431D01*
X350574Y732517D01*
X350628Y732601D01*
X350685Y732683D01*
X350745Y732762D01*
X350809Y732840D01*
X350875Y732914D01*
X350944Y732986D01*
X351016Y733055D01*
X351090Y733121D01*
X351168Y733185D01*
X351247Y733245D01*
X351329Y733302D01*
X351413Y733356D01*
X351499Y733406D01*
X351587Y733453D01*
X351677Y733497D01*
X351768Y733537D01*
X351861Y733573D01*
X351955Y733606D01*
X352051Y733635D01*
X352147Y733660D01*
X352244Y733681D01*
X352343Y733699D01*
X352441Y733712D01*
X352541Y733722D01*
X352640Y733728D01*
X352740Y733730D01*
X398460Y733730D02*
X398560Y733728D01*
X398659Y733722D01*
X398759Y733712D01*
X398857Y733699D01*
X398956Y733681D01*
X399053Y733660D01*
X399149Y733635D01*
X399245Y733606D01*
X399339Y733573D01*
X399432Y733537D01*
X399523Y733497D01*
X399613Y733453D01*
X399701Y733406D01*
X399787Y733356D01*
X399871Y733302D01*
X399953Y733245D01*
X400032Y733185D01*
X400110Y733121D01*
X400184Y733055D01*
X400256Y732986D01*
X400325Y732914D01*
X400391Y732840D01*
X400455Y732762D01*
X400515Y732683D01*
X400572Y732601D01*
X400626Y732517D01*
X400676Y732431D01*
X400723Y732343D01*
X400767Y732253D01*
X400807Y732162D01*
X400843Y732069D01*
X400876Y731975D01*
X400905Y731879D01*
X400930Y731783D01*
X400951Y731686D01*
X400969Y731587D01*
X400982Y731489D01*
X400992Y731389D01*
X400998Y731290D01*
X401000Y731190D01*
D12*
X415605Y710833D02*
X415605Y708293D01*
X415603Y708193D01*
X415597Y708094D01*
X415587Y707994D01*
X415574Y707896D01*
X415556Y707797D01*
X415535Y707700D01*
X415510Y707604D01*
X415481Y707508D01*
X415448Y707414D01*
X415412Y707321D01*
X415372Y707230D01*
X415328Y707140D01*
X415281Y707052D01*
X415231Y706966D01*
X415177Y706882D01*
X415120Y706800D01*
X415060Y706721D01*
X414996Y706643D01*
X414930Y706569D01*
X414861Y706497D01*
X414789Y706428D01*
X414715Y706362D01*
X414637Y706298D01*
X414558Y706238D01*
X414476Y706181D01*
X414392Y706127D01*
X414306Y706077D01*
X414218Y706030D01*
X414128Y705986D01*
X414037Y705946D01*
X413944Y705910D01*
X413850Y705877D01*
X413754Y705848D01*
X413658Y705823D01*
X413561Y705802D01*
X413462Y705784D01*
X413364Y705771D01*
X413264Y705761D01*
X413165Y705755D01*
X413065Y705753D01*
X406715Y705753D01*
X406615Y705755D01*
X406516Y705761D01*
X406416Y705771D01*
X406318Y705784D01*
X406219Y705802D01*
X406122Y705823D01*
X406026Y705848D01*
X405930Y705877D01*
X405836Y705910D01*
X405743Y705946D01*
X405652Y705986D01*
X405562Y706030D01*
X405474Y706077D01*
X405388Y706127D01*
X405304Y706181D01*
X405222Y706238D01*
X405143Y706298D01*
X405065Y706362D01*
X404991Y706428D01*
X404919Y706497D01*
X404850Y706569D01*
X404784Y706643D01*
X404720Y706721D01*
X404660Y706800D01*
X404603Y706882D01*
X404549Y706966D01*
X404499Y707052D01*
X404452Y707140D01*
X404408Y707230D01*
X404368Y707321D01*
X404332Y707414D01*
X404299Y707508D01*
X404270Y707604D01*
X404245Y707700D01*
X404224Y707797D01*
X404206Y707896D01*
X404193Y707994D01*
X404183Y708094D01*
X404177Y708193D01*
X404175Y708293D01*
X404175Y710833D01*
X415605Y715315D02*
X415605Y719125D01*
X415603Y719225D01*
X415597Y719324D01*
X415587Y719424D01*
X415574Y719522D01*
X415556Y719621D01*
X415535Y719718D01*
X415510Y719814D01*
X415481Y719910D01*
X415448Y720004D01*
X415412Y720097D01*
X415372Y720188D01*
X415328Y720278D01*
X415281Y720366D01*
X415231Y720452D01*
X415177Y720536D01*
X415120Y720618D01*
X415060Y720697D01*
X414996Y720775D01*
X414930Y720849D01*
X414861Y720921D01*
X414789Y720990D01*
X414715Y721056D01*
X414637Y721120D01*
X414558Y721180D01*
X414476Y721237D01*
X414392Y721291D01*
X414306Y721341D01*
X414218Y721388D01*
X414128Y721432D01*
X414037Y721472D01*
X413944Y721508D01*
X413850Y721541D01*
X413754Y721570D01*
X413658Y721595D01*
X413561Y721616D01*
X413462Y721634D01*
X413364Y721647D01*
X413264Y721657D01*
X413165Y721663D01*
X413065Y721665D01*
X411795Y721665D01*
X411695Y721663D01*
X411596Y721657D01*
X411496Y721647D01*
X411398Y721634D01*
X411299Y721616D01*
X411202Y721595D01*
X411106Y721570D01*
X411010Y721541D01*
X410916Y721508D01*
X410823Y721472D01*
X410732Y721432D01*
X410642Y721388D01*
X410554Y721341D01*
X410468Y721291D01*
X410384Y721237D01*
X410302Y721180D01*
X410223Y721120D01*
X410145Y721056D01*
X410071Y720990D01*
X409999Y720921D01*
X409930Y720849D01*
X409864Y720775D01*
X409800Y720697D01*
X409740Y720618D01*
X409683Y720536D01*
X409629Y720452D01*
X409579Y720366D01*
X409532Y720278D01*
X409488Y720188D01*
X409448Y720097D01*
X409412Y720004D01*
X409379Y719910D01*
X409350Y719814D01*
X409325Y719718D01*
X409304Y719621D01*
X409286Y719522D01*
X409273Y719424D01*
X409263Y719324D01*
X409257Y719225D01*
X409255Y719125D01*
X409255Y715315D01*
X404175Y715315D01*
X404175Y721665D01*
D10*
X305750Y699948D02*
X299400Y699948D01*
X293050Y699948D01*
D11*
X299400Y699948D02*
X299400Y712140D01*
D10*
X299400Y693598D02*
X305750Y693598D01*
X299400Y693598D02*
X293050Y693598D01*
D11*
X299400Y693598D02*
X299400Y681660D01*
X322260Y733730D02*
X276540Y733730D01*
X274000Y731190D02*
X274000Y662610D01*
X276540Y660070D02*
X322260Y660070D01*
X324800Y662610D02*
X324800Y731190D01*
X324800Y662610D02*
X324798Y662510D01*
X324792Y662411D01*
X324782Y662311D01*
X324769Y662213D01*
X324751Y662114D01*
X324730Y662017D01*
X324705Y661921D01*
X324676Y661825D01*
X324643Y661731D01*
X324607Y661638D01*
X324567Y661547D01*
X324523Y661457D01*
X324476Y661369D01*
X324426Y661283D01*
X324372Y661199D01*
X324315Y661117D01*
X324255Y661038D01*
X324191Y660960D01*
X324125Y660886D01*
X324056Y660814D01*
X323984Y660745D01*
X323910Y660679D01*
X323832Y660615D01*
X323753Y660555D01*
X323671Y660498D01*
X323587Y660444D01*
X323501Y660394D01*
X323413Y660347D01*
X323323Y660303D01*
X323232Y660263D01*
X323139Y660227D01*
X323045Y660194D01*
X322949Y660165D01*
X322853Y660140D01*
X322756Y660119D01*
X322657Y660101D01*
X322559Y660088D01*
X322459Y660078D01*
X322360Y660072D01*
X322260Y660070D01*
X276540Y660070D02*
X276440Y660072D01*
X276341Y660078D01*
X276241Y660088D01*
X276143Y660101D01*
X276044Y660119D01*
X275947Y660140D01*
X275851Y660165D01*
X275755Y660194D01*
X275661Y660227D01*
X275568Y660263D01*
X275477Y660303D01*
X275387Y660347D01*
X275299Y660394D01*
X275213Y660444D01*
X275129Y660498D01*
X275047Y660555D01*
X274968Y660615D01*
X274890Y660679D01*
X274816Y660745D01*
X274744Y660814D01*
X274675Y660886D01*
X274609Y660960D01*
X274545Y661038D01*
X274485Y661117D01*
X274428Y661199D01*
X274374Y661283D01*
X274324Y661369D01*
X274277Y661457D01*
X274233Y661547D01*
X274193Y661638D01*
X274157Y661731D01*
X274124Y661825D01*
X274095Y661921D01*
X274070Y662017D01*
X274049Y662114D01*
X274031Y662213D01*
X274018Y662311D01*
X274008Y662411D01*
X274002Y662510D01*
X274000Y662610D01*
X274000Y731190D02*
X274002Y731290D01*
X274008Y731389D01*
X274018Y731489D01*
X274031Y731587D01*
X274049Y731686D01*
X274070Y731783D01*
X274095Y731879D01*
X274124Y731975D01*
X274157Y732069D01*
X274193Y732162D01*
X274233Y732253D01*
X274277Y732343D01*
X274324Y732431D01*
X274374Y732517D01*
X274428Y732601D01*
X274485Y732683D01*
X274545Y732762D01*
X274609Y732840D01*
X274675Y732914D01*
X274744Y732986D01*
X274816Y733055D01*
X274890Y733121D01*
X274968Y733185D01*
X275047Y733245D01*
X275129Y733302D01*
X275213Y733356D01*
X275299Y733406D01*
X275387Y733453D01*
X275477Y733497D01*
X275568Y733537D01*
X275661Y733573D01*
X275755Y733606D01*
X275851Y733635D01*
X275947Y733660D01*
X276044Y733681D01*
X276143Y733699D01*
X276241Y733712D01*
X276341Y733722D01*
X276440Y733728D01*
X276540Y733730D01*
X322260Y733730D02*
X322360Y733728D01*
X322459Y733722D01*
X322559Y733712D01*
X322657Y733699D01*
X322756Y733681D01*
X322853Y733660D01*
X322949Y733635D01*
X323045Y733606D01*
X323139Y733573D01*
X323232Y733537D01*
X323323Y733497D01*
X323413Y733453D01*
X323501Y733406D01*
X323587Y733356D01*
X323671Y733302D01*
X323753Y733245D01*
X323832Y733185D01*
X323910Y733121D01*
X323984Y733055D01*
X324056Y732986D01*
X324125Y732914D01*
X324191Y732840D01*
X324255Y732762D01*
X324315Y732683D01*
X324372Y732601D01*
X324426Y732517D01*
X324476Y732431D01*
X324523Y732343D01*
X324567Y732253D01*
X324607Y732162D01*
X324643Y732069D01*
X324676Y731975D01*
X324705Y731879D01*
X324730Y731783D01*
X324751Y731686D01*
X324769Y731587D01*
X324782Y731489D01*
X324792Y731389D01*
X324798Y731290D01*
X324800Y731190D01*
D12*
X339405Y710833D02*
X339405Y708293D01*
X339403Y708193D01*
X339397Y708094D01*
X339387Y707994D01*
X339374Y707896D01*
X339356Y707797D01*
X339335Y707700D01*
X339310Y707604D01*
X339281Y707508D01*
X339248Y707414D01*
X339212Y707321D01*
X339172Y707230D01*
X339128Y707140D01*
X339081Y707052D01*
X339031Y706966D01*
X338977Y706882D01*
X338920Y706800D01*
X338860Y706721D01*
X338796Y706643D01*
X338730Y706569D01*
X338661Y706497D01*
X338589Y706428D01*
X338515Y706362D01*
X338437Y706298D01*
X338358Y706238D01*
X338276Y706181D01*
X338192Y706127D01*
X338106Y706077D01*
X338018Y706030D01*
X337928Y705986D01*
X337837Y705946D01*
X337744Y705910D01*
X337650Y705877D01*
X337554Y705848D01*
X337458Y705823D01*
X337361Y705802D01*
X337262Y705784D01*
X337164Y705771D01*
X337064Y705761D01*
X336965Y705755D01*
X336865Y705753D01*
X330515Y705753D01*
X330415Y705755D01*
X330316Y705761D01*
X330216Y705771D01*
X330118Y705784D01*
X330019Y705802D01*
X329922Y705823D01*
X329826Y705848D01*
X329730Y705877D01*
X329636Y705910D01*
X329543Y705946D01*
X329452Y705986D01*
X329362Y706030D01*
X329274Y706077D01*
X329188Y706127D01*
X329104Y706181D01*
X329022Y706238D01*
X328943Y706298D01*
X328865Y706362D01*
X328791Y706428D01*
X328719Y706497D01*
X328650Y706569D01*
X328584Y706643D01*
X328520Y706721D01*
X328460Y706800D01*
X328403Y706882D01*
X328349Y706966D01*
X328299Y707052D01*
X328252Y707140D01*
X328208Y707230D01*
X328168Y707321D01*
X328132Y707414D01*
X328099Y707508D01*
X328070Y707604D01*
X328045Y707700D01*
X328024Y707797D01*
X328006Y707896D01*
X327993Y707994D01*
X327983Y708094D01*
X327977Y708193D01*
X327975Y708293D01*
X327975Y710833D01*
X333055Y715315D02*
X333055Y719125D01*
X333057Y719225D01*
X333063Y719324D01*
X333073Y719424D01*
X333086Y719522D01*
X333104Y719621D01*
X333125Y719718D01*
X333150Y719814D01*
X333179Y719910D01*
X333212Y720004D01*
X333248Y720097D01*
X333288Y720188D01*
X333332Y720278D01*
X333379Y720366D01*
X333429Y720452D01*
X333483Y720536D01*
X333540Y720618D01*
X333600Y720697D01*
X333664Y720775D01*
X333730Y720849D01*
X333799Y720921D01*
X333871Y720990D01*
X333945Y721056D01*
X334023Y721120D01*
X334102Y721180D01*
X334184Y721237D01*
X334268Y721291D01*
X334354Y721341D01*
X334442Y721388D01*
X334532Y721432D01*
X334623Y721472D01*
X334716Y721508D01*
X334810Y721541D01*
X334906Y721570D01*
X335002Y721595D01*
X335099Y721616D01*
X335198Y721634D01*
X335296Y721647D01*
X335396Y721657D01*
X335495Y721663D01*
X335595Y721665D01*
X336230Y721665D01*
X336341Y721663D01*
X336451Y721657D01*
X336562Y721648D01*
X336672Y721634D01*
X336781Y721617D01*
X336890Y721596D01*
X336998Y721571D01*
X337105Y721542D01*
X337211Y721510D01*
X337316Y721474D01*
X337419Y721434D01*
X337521Y721391D01*
X337622Y721344D01*
X337721Y721293D01*
X337818Y721240D01*
X337912Y721183D01*
X338005Y721122D01*
X338096Y721059D01*
X338185Y720992D01*
X338271Y720922D01*
X338354Y720849D01*
X338436Y720774D01*
X338514Y720696D01*
X338589Y720614D01*
X338662Y720531D01*
X338732Y720445D01*
X338799Y720356D01*
X338862Y720265D01*
X338923Y720172D01*
X338980Y720077D01*
X339033Y719981D01*
X339084Y719882D01*
X339131Y719781D01*
X339174Y719679D01*
X339214Y719576D01*
X339250Y719471D01*
X339282Y719365D01*
X339311Y719258D01*
X339336Y719150D01*
X339357Y719041D01*
X339374Y718932D01*
X339388Y718822D01*
X339397Y718711D01*
X339403Y718601D01*
X339405Y718490D01*
X339403Y718379D01*
X339397Y718269D01*
X339388Y718158D01*
X339374Y718048D01*
X339357Y717939D01*
X339336Y717830D01*
X339311Y717722D01*
X339282Y717615D01*
X339250Y717509D01*
X339214Y717404D01*
X339174Y717301D01*
X339131Y717199D01*
X339084Y717098D01*
X339033Y716999D01*
X338980Y716903D01*
X338923Y716808D01*
X338862Y716715D01*
X338799Y716624D01*
X338732Y716535D01*
X338662Y716449D01*
X338589Y716366D01*
X338514Y716284D01*
X338436Y716206D01*
X338354Y716131D01*
X338271Y716058D01*
X338185Y715988D01*
X338096Y715921D01*
X338005Y715858D01*
X337912Y715797D01*
X337818Y715740D01*
X337721Y715687D01*
X337622Y715636D01*
X337521Y715589D01*
X337419Y715546D01*
X337316Y715506D01*
X337211Y715470D01*
X337105Y715438D01*
X336998Y715409D01*
X336890Y715384D01*
X336781Y715363D01*
X336672Y715346D01*
X336562Y715332D01*
X336451Y715323D01*
X336341Y715317D01*
X336230Y715315D01*
X333055Y715315D01*
X332915Y715317D01*
X332775Y715323D01*
X332635Y715332D01*
X332496Y715346D01*
X332357Y715363D01*
X332219Y715384D01*
X332081Y715409D01*
X331944Y715438D01*
X331808Y715470D01*
X331673Y715507D01*
X331539Y715547D01*
X331406Y715590D01*
X331274Y715638D01*
X331143Y715688D01*
X331014Y715743D01*
X330887Y715801D01*
X330761Y715862D01*
X330637Y715927D01*
X330515Y715996D01*
X330395Y716067D01*
X330277Y716142D01*
X330160Y716220D01*
X330046Y716302D01*
X329935Y716386D01*
X329826Y716474D01*
X329719Y716564D01*
X329614Y716658D01*
X329513Y716754D01*
X329414Y716853D01*
X329318Y716954D01*
X329224Y717059D01*
X329134Y717166D01*
X329046Y717275D01*
X328962Y717386D01*
X328880Y717500D01*
X328802Y717617D01*
X328727Y717735D01*
X328656Y717855D01*
X328587Y717977D01*
X328522Y718101D01*
X328461Y718227D01*
X328403Y718354D01*
X328348Y718483D01*
X328298Y718614D01*
X328250Y718746D01*
X328207Y718879D01*
X328167Y719013D01*
X328130Y719148D01*
X328098Y719284D01*
X328069Y719421D01*
X328044Y719559D01*
X328023Y719697D01*
X328006Y719836D01*
X327992Y719975D01*
X327983Y720115D01*
X327977Y720255D01*
X327975Y720395D01*
D13*
X772500Y1012570D02*
X823300Y1012570D01*
X823300Y1004950D01*
X823300Y997330D01*
X772500Y997330D01*
X772500Y1004950D01*
X772500Y1012570D01*
X823300Y1004950D02*
X825840Y1004950D01*
X772500Y1004950D02*
X769960Y1004950D01*
D12*
X793848Y1015745D02*
X793848Y1020571D01*
X795189Y1020571D01*
X795260Y1020569D01*
X795332Y1020563D01*
X795402Y1020554D01*
X795472Y1020541D01*
X795542Y1020524D01*
X795610Y1020503D01*
X795677Y1020479D01*
X795743Y1020451D01*
X795807Y1020420D01*
X795870Y1020385D01*
X795930Y1020347D01*
X795989Y1020306D01*
X796045Y1020262D01*
X796099Y1020215D01*
X796150Y1020166D01*
X796198Y1020113D01*
X796244Y1020058D01*
X796286Y1020001D01*
X796326Y1019941D01*
X796362Y1019880D01*
X796395Y1019816D01*
X796424Y1019751D01*
X796450Y1019685D01*
X796473Y1019617D01*
X796492Y1019548D01*
X796507Y1019478D01*
X796518Y1019408D01*
X796526Y1019337D01*
X796530Y1019266D01*
X796530Y1019194D01*
X796526Y1019123D01*
X796518Y1019052D01*
X796507Y1018982D01*
X796492Y1018912D01*
X796473Y1018843D01*
X796450Y1018775D01*
X796424Y1018709D01*
X796395Y1018644D01*
X796362Y1018580D01*
X796326Y1018519D01*
X796286Y1018459D01*
X796244Y1018402D01*
X796198Y1018347D01*
X796150Y1018294D01*
X796099Y1018245D01*
X796045Y1018198D01*
X795989Y1018154D01*
X795930Y1018113D01*
X795870Y1018075D01*
X795807Y1018040D01*
X795743Y1018009D01*
X795677Y1017981D01*
X795610Y1017957D01*
X795542Y1017936D01*
X795472Y1017919D01*
X795402Y1017906D01*
X795332Y1017897D01*
X795260Y1017891D01*
X795189Y1017889D01*
X795189Y1017890D02*
X793848Y1017890D01*
X795457Y1017890D02*
X796529Y1015745D01*
X799271Y1019499D02*
X800611Y1020571D01*
X800611Y1015745D01*
X799271Y1015745D02*
X801952Y1015745D01*
D13*
X902500Y1013670D02*
X953300Y1013670D01*
X953300Y1006050D01*
X953300Y998430D01*
X902500Y998430D01*
X902500Y1006050D01*
X902500Y1013670D01*
X953300Y1006050D02*
X955840Y1006050D01*
X902500Y1006050D02*
X899960Y1006050D01*
D12*
X923848Y1016845D02*
X923848Y1021671D01*
X925189Y1021671D01*
X925260Y1021669D01*
X925332Y1021663D01*
X925402Y1021654D01*
X925472Y1021641D01*
X925542Y1021624D01*
X925610Y1021603D01*
X925677Y1021579D01*
X925743Y1021551D01*
X925807Y1021520D01*
X925870Y1021485D01*
X925930Y1021447D01*
X925989Y1021406D01*
X926045Y1021362D01*
X926099Y1021315D01*
X926150Y1021266D01*
X926198Y1021213D01*
X926244Y1021158D01*
X926286Y1021101D01*
X926326Y1021041D01*
X926362Y1020980D01*
X926395Y1020916D01*
X926424Y1020851D01*
X926450Y1020785D01*
X926473Y1020717D01*
X926492Y1020648D01*
X926507Y1020578D01*
X926518Y1020508D01*
X926526Y1020437D01*
X926530Y1020366D01*
X926530Y1020294D01*
X926526Y1020223D01*
X926518Y1020152D01*
X926507Y1020082D01*
X926492Y1020012D01*
X926473Y1019943D01*
X926450Y1019875D01*
X926424Y1019809D01*
X926395Y1019744D01*
X926362Y1019680D01*
X926326Y1019619D01*
X926286Y1019559D01*
X926244Y1019502D01*
X926198Y1019447D01*
X926150Y1019394D01*
X926099Y1019345D01*
X926045Y1019298D01*
X925989Y1019254D01*
X925930Y1019213D01*
X925870Y1019175D01*
X925807Y1019140D01*
X925743Y1019109D01*
X925677Y1019081D01*
X925610Y1019057D01*
X925542Y1019036D01*
X925472Y1019019D01*
X925402Y1019006D01*
X925332Y1018997D01*
X925260Y1018991D01*
X925189Y1018989D01*
X925189Y1018990D02*
X923848Y1018990D01*
X925457Y1018990D02*
X926529Y1016845D01*
X930745Y1021671D02*
X930813Y1021669D01*
X930880Y1021663D01*
X930947Y1021654D01*
X931014Y1021641D01*
X931079Y1021624D01*
X931144Y1021603D01*
X931207Y1021579D01*
X931269Y1021551D01*
X931329Y1021520D01*
X931387Y1021486D01*
X931443Y1021448D01*
X931498Y1021408D01*
X931549Y1021364D01*
X931598Y1021317D01*
X931645Y1021268D01*
X931689Y1021217D01*
X931729Y1021162D01*
X931767Y1021106D01*
X931801Y1021048D01*
X931832Y1020988D01*
X931860Y1020926D01*
X931884Y1020863D01*
X931905Y1020798D01*
X931922Y1020733D01*
X931935Y1020666D01*
X931944Y1020599D01*
X931950Y1020532D01*
X931952Y1020464D01*
X930745Y1021671D02*
X930667Y1021669D01*
X930589Y1021663D01*
X930512Y1021653D01*
X930435Y1021640D01*
X930359Y1021622D01*
X930284Y1021601D01*
X930210Y1021576D01*
X930138Y1021547D01*
X930067Y1021515D01*
X929998Y1021479D01*
X929930Y1021440D01*
X929865Y1021397D01*
X929802Y1021351D01*
X929741Y1021302D01*
X929683Y1021250D01*
X929628Y1021195D01*
X929575Y1021138D01*
X929526Y1021078D01*
X929479Y1021015D01*
X929436Y1020951D01*
X929396Y1020884D01*
X929359Y1020815D01*
X929326Y1020744D01*
X929296Y1020672D01*
X929270Y1020599D01*
X931550Y1019526D02*
X931599Y1019575D01*
X931646Y1019627D01*
X931689Y1019682D01*
X931730Y1019739D01*
X931768Y1019798D01*
X931802Y1019859D01*
X931833Y1019922D01*
X931861Y1019986D01*
X931885Y1020052D01*
X931905Y1020118D01*
X931922Y1020186D01*
X931935Y1020255D01*
X931944Y1020324D01*
X931950Y1020394D01*
X931952Y1020464D01*
X931550Y1019526D02*
X929271Y1016845D01*
X931952Y1016845D01*
D13*
X323300Y1012570D02*
X272500Y1012570D01*
X323300Y1012570D02*
X323300Y1004950D01*
X323300Y997330D01*
X272500Y997330D01*
X272500Y1004950D01*
X272500Y1012570D01*
X323300Y1004950D02*
X325840Y1004950D01*
X272500Y1004950D02*
X269960Y1004950D01*
D12*
X293848Y1015745D02*
X293848Y1020571D01*
X295189Y1020571D01*
X295260Y1020569D01*
X295332Y1020563D01*
X295402Y1020554D01*
X295472Y1020541D01*
X295542Y1020524D01*
X295610Y1020503D01*
X295677Y1020479D01*
X295743Y1020451D01*
X295807Y1020420D01*
X295870Y1020385D01*
X295930Y1020347D01*
X295989Y1020306D01*
X296045Y1020262D01*
X296099Y1020215D01*
X296150Y1020166D01*
X296198Y1020113D01*
X296244Y1020058D01*
X296286Y1020001D01*
X296326Y1019941D01*
X296362Y1019880D01*
X296395Y1019816D01*
X296424Y1019751D01*
X296450Y1019685D01*
X296473Y1019617D01*
X296492Y1019548D01*
X296507Y1019478D01*
X296518Y1019408D01*
X296526Y1019337D01*
X296530Y1019266D01*
X296530Y1019194D01*
X296526Y1019123D01*
X296518Y1019052D01*
X296507Y1018982D01*
X296492Y1018912D01*
X296473Y1018843D01*
X296450Y1018775D01*
X296424Y1018709D01*
X296395Y1018644D01*
X296362Y1018580D01*
X296326Y1018519D01*
X296286Y1018459D01*
X296244Y1018402D01*
X296198Y1018347D01*
X296150Y1018294D01*
X296099Y1018245D01*
X296045Y1018198D01*
X295989Y1018154D01*
X295930Y1018113D01*
X295870Y1018075D01*
X295807Y1018040D01*
X295743Y1018009D01*
X295677Y1017981D01*
X295610Y1017957D01*
X295542Y1017936D01*
X295472Y1017919D01*
X295402Y1017906D01*
X295332Y1017897D01*
X295260Y1017891D01*
X295189Y1017889D01*
X295189Y1017890D02*
X293848Y1017890D01*
X295457Y1017890D02*
X296529Y1015745D01*
X299271Y1015745D02*
X300611Y1015745D01*
X300682Y1015747D01*
X300754Y1015753D01*
X300824Y1015762D01*
X300894Y1015775D01*
X300964Y1015792D01*
X301032Y1015813D01*
X301099Y1015837D01*
X301165Y1015865D01*
X301229Y1015896D01*
X301292Y1015931D01*
X301352Y1015969D01*
X301411Y1016010D01*
X301467Y1016054D01*
X301521Y1016101D01*
X301572Y1016150D01*
X301620Y1016203D01*
X301666Y1016258D01*
X301708Y1016315D01*
X301748Y1016375D01*
X301784Y1016436D01*
X301817Y1016500D01*
X301846Y1016565D01*
X301872Y1016631D01*
X301895Y1016699D01*
X301914Y1016768D01*
X301929Y1016838D01*
X301940Y1016908D01*
X301948Y1016979D01*
X301952Y1017050D01*
X301952Y1017122D01*
X301948Y1017193D01*
X301940Y1017264D01*
X301929Y1017334D01*
X301914Y1017404D01*
X301895Y1017473D01*
X301872Y1017541D01*
X301846Y1017607D01*
X301817Y1017672D01*
X301784Y1017736D01*
X301748Y1017797D01*
X301708Y1017857D01*
X301666Y1017914D01*
X301620Y1017969D01*
X301572Y1018022D01*
X301521Y1018071D01*
X301467Y1018118D01*
X301411Y1018162D01*
X301352Y1018203D01*
X301292Y1018241D01*
X301229Y1018276D01*
X301165Y1018307D01*
X301099Y1018335D01*
X301032Y1018359D01*
X300964Y1018380D01*
X300894Y1018397D01*
X300824Y1018410D01*
X300754Y1018419D01*
X300682Y1018425D01*
X300611Y1018427D01*
X300879Y1020571D02*
X299271Y1020571D01*
X300879Y1020571D02*
X300944Y1020569D01*
X301008Y1020563D01*
X301072Y1020553D01*
X301136Y1020540D01*
X301198Y1020522D01*
X301259Y1020501D01*
X301319Y1020477D01*
X301377Y1020448D01*
X301434Y1020416D01*
X301488Y1020381D01*
X301540Y1020343D01*
X301590Y1020301D01*
X301637Y1020257D01*
X301681Y1020210D01*
X301723Y1020160D01*
X301761Y1020108D01*
X301796Y1020054D01*
X301828Y1019997D01*
X301857Y1019939D01*
X301881Y1019879D01*
X301902Y1019818D01*
X301920Y1019756D01*
X301933Y1019692D01*
X301943Y1019628D01*
X301949Y1019564D01*
X301951Y1019499D01*
X301949Y1019434D01*
X301943Y1019370D01*
X301933Y1019306D01*
X301920Y1019242D01*
X301902Y1019180D01*
X301881Y1019119D01*
X301857Y1019059D01*
X301828Y1019001D01*
X301796Y1018944D01*
X301761Y1018890D01*
X301723Y1018838D01*
X301681Y1018788D01*
X301637Y1018741D01*
X301590Y1018697D01*
X301540Y1018655D01*
X301488Y1018617D01*
X301434Y1018582D01*
X301377Y1018550D01*
X301319Y1018521D01*
X301259Y1018497D01*
X301198Y1018476D01*
X301136Y1018458D01*
X301072Y1018445D01*
X301008Y1018435D01*
X300944Y1018429D01*
X300879Y1018427D01*
X300879Y1018426D02*
X299807Y1018426D01*
D13*
X392500Y1012570D02*
X443300Y1012570D01*
X443300Y1004950D01*
X443300Y997330D01*
X392500Y997330D01*
X392500Y1004950D01*
X392500Y1012570D01*
X443300Y1004950D02*
X445840Y1004950D01*
X392500Y1004950D02*
X389960Y1004950D01*
D12*
X413848Y1015745D02*
X413848Y1020571D01*
X415189Y1020571D01*
X415260Y1020569D01*
X415332Y1020563D01*
X415402Y1020554D01*
X415472Y1020541D01*
X415542Y1020524D01*
X415610Y1020503D01*
X415677Y1020479D01*
X415743Y1020451D01*
X415807Y1020420D01*
X415870Y1020385D01*
X415930Y1020347D01*
X415989Y1020306D01*
X416045Y1020262D01*
X416099Y1020215D01*
X416150Y1020166D01*
X416198Y1020113D01*
X416244Y1020058D01*
X416286Y1020001D01*
X416326Y1019941D01*
X416362Y1019880D01*
X416395Y1019816D01*
X416424Y1019751D01*
X416450Y1019685D01*
X416473Y1019617D01*
X416492Y1019548D01*
X416507Y1019478D01*
X416518Y1019408D01*
X416526Y1019337D01*
X416530Y1019266D01*
X416530Y1019194D01*
X416526Y1019123D01*
X416518Y1019052D01*
X416507Y1018982D01*
X416492Y1018912D01*
X416473Y1018843D01*
X416450Y1018775D01*
X416424Y1018709D01*
X416395Y1018644D01*
X416362Y1018580D01*
X416326Y1018519D01*
X416286Y1018459D01*
X416244Y1018402D01*
X416198Y1018347D01*
X416150Y1018294D01*
X416099Y1018245D01*
X416045Y1018198D01*
X415989Y1018154D01*
X415930Y1018113D01*
X415870Y1018075D01*
X415807Y1018040D01*
X415743Y1018009D01*
X415677Y1017981D01*
X415610Y1017957D01*
X415542Y1017936D01*
X415472Y1017919D01*
X415402Y1017906D01*
X415332Y1017897D01*
X415260Y1017891D01*
X415189Y1017889D01*
X415189Y1017890D02*
X413848Y1017890D01*
X415457Y1017890D02*
X416529Y1015745D01*
X419271Y1016817D02*
X420343Y1020571D01*
X419271Y1016817D02*
X421952Y1016817D01*
X421148Y1017890D02*
X421148Y1015745D01*
D13*
X522500Y1012570D02*
X573300Y1012570D01*
X573300Y1004950D01*
X573300Y997330D01*
X522500Y997330D01*
X522500Y1004950D01*
X522500Y1012570D01*
X573300Y1004950D02*
X575840Y1004950D01*
X522500Y1004950D02*
X519960Y1004950D01*
D12*
X543848Y1015745D02*
X543848Y1020571D01*
X545189Y1020571D01*
X545260Y1020569D01*
X545332Y1020563D01*
X545402Y1020554D01*
X545472Y1020541D01*
X545542Y1020524D01*
X545610Y1020503D01*
X545677Y1020479D01*
X545743Y1020451D01*
X545807Y1020420D01*
X545870Y1020385D01*
X545930Y1020347D01*
X545989Y1020306D01*
X546045Y1020262D01*
X546099Y1020215D01*
X546150Y1020166D01*
X546198Y1020113D01*
X546244Y1020058D01*
X546286Y1020001D01*
X546326Y1019941D01*
X546362Y1019880D01*
X546395Y1019816D01*
X546424Y1019751D01*
X546450Y1019685D01*
X546473Y1019617D01*
X546492Y1019548D01*
X546507Y1019478D01*
X546518Y1019408D01*
X546526Y1019337D01*
X546530Y1019266D01*
X546530Y1019194D01*
X546526Y1019123D01*
X546518Y1019052D01*
X546507Y1018982D01*
X546492Y1018912D01*
X546473Y1018843D01*
X546450Y1018775D01*
X546424Y1018709D01*
X546395Y1018644D01*
X546362Y1018580D01*
X546326Y1018519D01*
X546286Y1018459D01*
X546244Y1018402D01*
X546198Y1018347D01*
X546150Y1018294D01*
X546099Y1018245D01*
X546045Y1018198D01*
X545989Y1018154D01*
X545930Y1018113D01*
X545870Y1018075D01*
X545807Y1018040D01*
X545743Y1018009D01*
X545677Y1017981D01*
X545610Y1017957D01*
X545542Y1017936D01*
X545472Y1017919D01*
X545402Y1017906D01*
X545332Y1017897D01*
X545260Y1017891D01*
X545189Y1017889D01*
X545189Y1017890D02*
X543848Y1017890D01*
X545457Y1017890D02*
X546529Y1015745D01*
X549271Y1015745D02*
X550879Y1015745D01*
X550944Y1015747D01*
X551008Y1015753D01*
X551072Y1015763D01*
X551136Y1015776D01*
X551198Y1015794D01*
X551259Y1015815D01*
X551319Y1015839D01*
X551377Y1015868D01*
X551434Y1015900D01*
X551488Y1015935D01*
X551540Y1015973D01*
X551590Y1016015D01*
X551637Y1016059D01*
X551681Y1016106D01*
X551723Y1016156D01*
X551761Y1016208D01*
X551796Y1016262D01*
X551828Y1016319D01*
X551857Y1016377D01*
X551881Y1016437D01*
X551902Y1016498D01*
X551920Y1016560D01*
X551933Y1016624D01*
X551943Y1016688D01*
X551949Y1016752D01*
X551951Y1016817D01*
X551952Y1016817D02*
X551952Y1017354D01*
X551951Y1017354D02*
X551949Y1017419D01*
X551943Y1017483D01*
X551933Y1017547D01*
X551920Y1017611D01*
X551902Y1017673D01*
X551881Y1017734D01*
X551857Y1017794D01*
X551828Y1017852D01*
X551796Y1017909D01*
X551761Y1017963D01*
X551723Y1018015D01*
X551681Y1018065D01*
X551637Y1018112D01*
X551590Y1018156D01*
X551540Y1018198D01*
X551488Y1018236D01*
X551434Y1018271D01*
X551377Y1018303D01*
X551319Y1018332D01*
X551259Y1018356D01*
X551198Y1018377D01*
X551136Y1018395D01*
X551072Y1018408D01*
X551008Y1018418D01*
X550944Y1018424D01*
X550879Y1018426D01*
X549271Y1018426D01*
X549271Y1020571D01*
X551952Y1020571D01*
D13*
X963650Y647220D02*
X976350Y647220D01*
X963650Y647220D02*
X957300Y653570D01*
X957300Y666270D02*
X963650Y672620D01*
X957300Y653570D02*
X950950Y647220D01*
X938250Y647220D01*
X931900Y653570D01*
X931900Y666270D02*
X938250Y672620D01*
X950950Y672620D01*
X957300Y666270D01*
X982700Y666270D02*
X982700Y653570D01*
X976350Y647220D01*
X982700Y666270D02*
X976350Y672620D01*
X963650Y672620D01*
X931900Y666270D02*
X931900Y653570D01*
D12*
X976436Y645315D02*
X976436Y641561D01*
X976434Y641496D01*
X976428Y641432D01*
X976418Y641368D01*
X976405Y641304D01*
X976387Y641242D01*
X976366Y641181D01*
X976342Y641121D01*
X976313Y641063D01*
X976281Y641006D01*
X976246Y640952D01*
X976208Y640900D01*
X976166Y640850D01*
X976122Y640803D01*
X976075Y640759D01*
X976025Y640717D01*
X975973Y640679D01*
X975919Y640644D01*
X975862Y640612D01*
X975804Y640583D01*
X975744Y640559D01*
X975683Y640538D01*
X975621Y640520D01*
X975557Y640507D01*
X975493Y640497D01*
X975429Y640491D01*
X975364Y640489D01*
X974827Y640489D01*
X979384Y640489D02*
X980724Y640489D01*
X980795Y640491D01*
X980867Y640497D01*
X980937Y640506D01*
X981007Y640519D01*
X981077Y640536D01*
X981145Y640557D01*
X981212Y640581D01*
X981278Y640609D01*
X981342Y640640D01*
X981405Y640675D01*
X981465Y640713D01*
X981524Y640754D01*
X981580Y640798D01*
X981634Y640845D01*
X981685Y640894D01*
X981733Y640947D01*
X981779Y641002D01*
X981821Y641059D01*
X981861Y641119D01*
X981897Y641180D01*
X981930Y641244D01*
X981959Y641309D01*
X981985Y641375D01*
X982008Y641443D01*
X982027Y641512D01*
X982042Y641582D01*
X982053Y641652D01*
X982061Y641723D01*
X982065Y641794D01*
X982065Y641866D01*
X982061Y641937D01*
X982053Y642008D01*
X982042Y642078D01*
X982027Y642148D01*
X982008Y642217D01*
X981985Y642285D01*
X981959Y642351D01*
X981930Y642416D01*
X981897Y642480D01*
X981861Y642541D01*
X981821Y642601D01*
X981779Y642658D01*
X981733Y642713D01*
X981685Y642766D01*
X981634Y642815D01*
X981580Y642862D01*
X981524Y642906D01*
X981465Y642947D01*
X981405Y642985D01*
X981342Y643020D01*
X981278Y643051D01*
X981212Y643079D01*
X981145Y643103D01*
X981077Y643124D01*
X981007Y643141D01*
X980937Y643154D01*
X980867Y643163D01*
X980795Y643169D01*
X980724Y643171D01*
X980993Y645315D02*
X979384Y645315D01*
X980993Y645315D02*
X981058Y645313D01*
X981122Y645307D01*
X981186Y645297D01*
X981250Y645284D01*
X981312Y645266D01*
X981373Y645245D01*
X981433Y645221D01*
X981491Y645192D01*
X981548Y645160D01*
X981602Y645125D01*
X981654Y645087D01*
X981704Y645045D01*
X981751Y645001D01*
X981795Y644954D01*
X981837Y644904D01*
X981875Y644852D01*
X981910Y644798D01*
X981942Y644741D01*
X981971Y644683D01*
X981995Y644623D01*
X982016Y644562D01*
X982034Y644500D01*
X982047Y644436D01*
X982057Y644372D01*
X982063Y644308D01*
X982065Y644243D01*
X982063Y644178D01*
X982057Y644114D01*
X982047Y644050D01*
X982034Y643986D01*
X982016Y643924D01*
X981995Y643863D01*
X981971Y643803D01*
X981942Y643745D01*
X981910Y643688D01*
X981875Y643634D01*
X981837Y643582D01*
X981795Y643532D01*
X981751Y643485D01*
X981704Y643441D01*
X981654Y643399D01*
X981602Y643361D01*
X981548Y643326D01*
X981491Y643294D01*
X981433Y643265D01*
X981373Y643241D01*
X981312Y643220D01*
X981250Y643202D01*
X981186Y643189D01*
X981122Y643179D01*
X981058Y643173D01*
X980993Y643171D01*
X980993Y643170D02*
X979920Y643170D01*
D13*
X645080Y1024760D02*
X632380Y1024760D01*
X626030Y1031110D01*
X626030Y1043810D02*
X632380Y1050160D01*
X626030Y1031110D02*
X619680Y1024760D01*
X606980Y1024760D01*
X600630Y1031110D01*
X600630Y1043810D02*
X606980Y1050160D01*
X619680Y1050160D01*
X626030Y1043810D01*
X651430Y1043810D02*
X651430Y1031110D01*
X645080Y1024760D01*
X651430Y1043810D02*
X645080Y1050160D01*
X632380Y1050160D01*
X600630Y1043810D02*
X600630Y1031110D01*
D12*
X601986Y1053391D02*
X601986Y1057145D01*
X601986Y1053391D02*
X601984Y1053326D01*
X601978Y1053262D01*
X601968Y1053198D01*
X601955Y1053134D01*
X601937Y1053072D01*
X601916Y1053011D01*
X601892Y1052951D01*
X601863Y1052893D01*
X601831Y1052836D01*
X601796Y1052782D01*
X601758Y1052730D01*
X601716Y1052680D01*
X601672Y1052633D01*
X601625Y1052589D01*
X601575Y1052547D01*
X601523Y1052509D01*
X601469Y1052474D01*
X601412Y1052442D01*
X601354Y1052413D01*
X601294Y1052389D01*
X601233Y1052368D01*
X601171Y1052350D01*
X601107Y1052337D01*
X601043Y1052327D01*
X600979Y1052321D01*
X600914Y1052319D01*
X600377Y1052319D01*
X606409Y1057145D02*
X606477Y1057143D01*
X606544Y1057137D01*
X606611Y1057128D01*
X606678Y1057115D01*
X606743Y1057098D01*
X606808Y1057077D01*
X606871Y1057053D01*
X606933Y1057025D01*
X606993Y1056994D01*
X607051Y1056960D01*
X607107Y1056922D01*
X607162Y1056882D01*
X607213Y1056838D01*
X607262Y1056791D01*
X607309Y1056742D01*
X607353Y1056691D01*
X607393Y1056636D01*
X607431Y1056580D01*
X607465Y1056522D01*
X607496Y1056462D01*
X607524Y1056400D01*
X607548Y1056337D01*
X607569Y1056272D01*
X607586Y1056207D01*
X607599Y1056140D01*
X607608Y1056073D01*
X607614Y1056006D01*
X607616Y1055938D01*
X606409Y1057145D02*
X606331Y1057143D01*
X606253Y1057137D01*
X606176Y1057127D01*
X606099Y1057114D01*
X606023Y1057096D01*
X605948Y1057075D01*
X605874Y1057050D01*
X605802Y1057021D01*
X605731Y1056989D01*
X605662Y1056953D01*
X605594Y1056914D01*
X605529Y1056871D01*
X605466Y1056825D01*
X605405Y1056776D01*
X605347Y1056724D01*
X605292Y1056669D01*
X605239Y1056612D01*
X605190Y1056552D01*
X605143Y1056489D01*
X605100Y1056425D01*
X605060Y1056358D01*
X605023Y1056289D01*
X604990Y1056218D01*
X604960Y1056146D01*
X604934Y1056073D01*
X607213Y1055000D02*
X607262Y1055049D01*
X607309Y1055101D01*
X607352Y1055156D01*
X607393Y1055213D01*
X607431Y1055272D01*
X607465Y1055333D01*
X607496Y1055396D01*
X607524Y1055460D01*
X607548Y1055526D01*
X607568Y1055592D01*
X607585Y1055660D01*
X607598Y1055729D01*
X607607Y1055798D01*
X607613Y1055868D01*
X607615Y1055938D01*
X607213Y1055000D02*
X604934Y1052319D01*
X607615Y1052319D01*
D13*
X753490Y1027300D02*
X766190Y1027300D01*
X753490Y1027300D02*
X747140Y1033650D01*
X747140Y1046350D02*
X753490Y1052700D01*
X747140Y1033650D02*
X740790Y1027300D01*
X728090Y1027300D01*
X721740Y1033650D01*
X721740Y1046350D02*
X728090Y1052700D01*
X740790Y1052700D01*
X747140Y1046350D01*
X772540Y1046350D02*
X772540Y1033650D01*
X766190Y1027300D01*
X772540Y1046350D02*
X766190Y1052700D01*
X753490Y1052700D01*
X721740Y1046350D02*
X721740Y1033650D01*
D12*
X721826Y1054661D02*
X721826Y1058415D01*
X721826Y1054661D02*
X721824Y1054596D01*
X721818Y1054532D01*
X721808Y1054468D01*
X721795Y1054404D01*
X721777Y1054342D01*
X721756Y1054281D01*
X721732Y1054221D01*
X721703Y1054163D01*
X721671Y1054106D01*
X721636Y1054052D01*
X721598Y1054000D01*
X721556Y1053950D01*
X721512Y1053903D01*
X721465Y1053859D01*
X721415Y1053817D01*
X721363Y1053779D01*
X721309Y1053744D01*
X721252Y1053712D01*
X721194Y1053683D01*
X721134Y1053659D01*
X721073Y1053638D01*
X721011Y1053620D01*
X720947Y1053607D01*
X720883Y1053597D01*
X720819Y1053591D01*
X720754Y1053589D01*
X720217Y1053589D01*
X724774Y1054661D02*
X725846Y1058415D01*
X724774Y1054661D02*
X727455Y1054661D01*
X726651Y1055734D02*
X726651Y1053589D01*
D13*
X856140Y1050290D02*
X868840Y1050290D01*
X875190Y1043940D01*
X875190Y1031240D02*
X868840Y1024890D01*
X875190Y1043940D02*
X881540Y1050290D01*
X894240Y1050290D01*
X900590Y1043940D01*
X900590Y1031240D02*
X894240Y1024890D01*
X881540Y1024890D01*
X875190Y1031240D01*
X849790Y1031240D02*
X849790Y1043940D01*
X856140Y1050290D01*
X849790Y1031240D02*
X856140Y1024890D01*
X868840Y1024890D01*
X900590Y1031240D02*
X900590Y1043940D01*
D12*
X852034Y1053267D02*
X852034Y1057021D01*
X852033Y1053267D02*
X852031Y1053202D01*
X852025Y1053138D01*
X852015Y1053074D01*
X852002Y1053010D01*
X851984Y1052948D01*
X851963Y1052887D01*
X851939Y1052827D01*
X851910Y1052769D01*
X851878Y1052712D01*
X851843Y1052658D01*
X851805Y1052606D01*
X851763Y1052556D01*
X851719Y1052509D01*
X851672Y1052465D01*
X851622Y1052423D01*
X851570Y1052385D01*
X851516Y1052350D01*
X851459Y1052318D01*
X851401Y1052289D01*
X851341Y1052265D01*
X851280Y1052244D01*
X851218Y1052226D01*
X851154Y1052213D01*
X851090Y1052203D01*
X851026Y1052197D01*
X850961Y1052195D01*
X850425Y1052195D01*
X854982Y1052195D02*
X856590Y1052195D01*
X856655Y1052197D01*
X856719Y1052203D01*
X856783Y1052213D01*
X856847Y1052226D01*
X856909Y1052244D01*
X856970Y1052265D01*
X857030Y1052289D01*
X857088Y1052318D01*
X857145Y1052350D01*
X857199Y1052385D01*
X857251Y1052423D01*
X857301Y1052465D01*
X857348Y1052509D01*
X857392Y1052556D01*
X857434Y1052606D01*
X857472Y1052658D01*
X857507Y1052712D01*
X857539Y1052769D01*
X857568Y1052827D01*
X857592Y1052887D01*
X857613Y1052948D01*
X857631Y1053010D01*
X857644Y1053074D01*
X857654Y1053138D01*
X857660Y1053202D01*
X857662Y1053267D01*
X857663Y1053267D02*
X857663Y1053804D01*
X857662Y1053804D02*
X857660Y1053869D01*
X857654Y1053933D01*
X857644Y1053997D01*
X857631Y1054061D01*
X857613Y1054123D01*
X857592Y1054184D01*
X857568Y1054244D01*
X857539Y1054302D01*
X857507Y1054359D01*
X857472Y1054413D01*
X857434Y1054465D01*
X857392Y1054515D01*
X857348Y1054562D01*
X857301Y1054606D01*
X857251Y1054648D01*
X857199Y1054686D01*
X857145Y1054721D01*
X857088Y1054753D01*
X857030Y1054782D01*
X856970Y1054806D01*
X856909Y1054827D01*
X856847Y1054845D01*
X856783Y1054858D01*
X856719Y1054868D01*
X856655Y1054874D01*
X856590Y1054876D01*
X854982Y1054876D01*
X854982Y1057021D01*
X857663Y1057021D01*
D13*
X250350Y1049020D02*
X237650Y1049020D01*
X250350Y1049020D02*
X256700Y1042670D01*
X256700Y1029970D02*
X250350Y1023620D01*
X256700Y1042670D02*
X263050Y1049020D01*
X275750Y1049020D01*
X282100Y1042670D01*
X282100Y1029970D02*
X275750Y1023620D01*
X263050Y1023620D01*
X256700Y1029970D01*
X231300Y1029970D02*
X231300Y1042670D01*
X237650Y1049020D01*
X231300Y1029970D02*
X237650Y1023620D01*
X250350Y1023620D01*
X282100Y1029970D02*
X282100Y1042670D01*
D12*
X233544Y1051997D02*
X233544Y1055751D01*
X233543Y1051997D02*
X233541Y1051932D01*
X233535Y1051868D01*
X233525Y1051804D01*
X233512Y1051740D01*
X233494Y1051678D01*
X233473Y1051617D01*
X233449Y1051557D01*
X233420Y1051499D01*
X233388Y1051442D01*
X233353Y1051388D01*
X233315Y1051336D01*
X233273Y1051286D01*
X233229Y1051239D01*
X233182Y1051195D01*
X233132Y1051153D01*
X233080Y1051115D01*
X233026Y1051080D01*
X232969Y1051048D01*
X232911Y1051019D01*
X232851Y1050995D01*
X232790Y1050974D01*
X232728Y1050956D01*
X232664Y1050943D01*
X232600Y1050933D01*
X232536Y1050927D01*
X232471Y1050925D01*
X231935Y1050925D01*
X236492Y1053606D02*
X238100Y1053606D01*
X238165Y1053604D01*
X238229Y1053598D01*
X238293Y1053588D01*
X238357Y1053575D01*
X238419Y1053557D01*
X238480Y1053536D01*
X238540Y1053512D01*
X238598Y1053483D01*
X238655Y1053451D01*
X238709Y1053416D01*
X238761Y1053378D01*
X238811Y1053336D01*
X238858Y1053292D01*
X238902Y1053245D01*
X238944Y1053195D01*
X238982Y1053143D01*
X239017Y1053089D01*
X239049Y1053032D01*
X239078Y1052974D01*
X239102Y1052914D01*
X239123Y1052853D01*
X239141Y1052791D01*
X239154Y1052727D01*
X239164Y1052663D01*
X239170Y1052599D01*
X239172Y1052534D01*
X239173Y1052534D02*
X239173Y1052266D01*
X239171Y1052195D01*
X239165Y1052123D01*
X239156Y1052053D01*
X239143Y1051983D01*
X239126Y1051913D01*
X239105Y1051845D01*
X239081Y1051778D01*
X239053Y1051712D01*
X239022Y1051648D01*
X238987Y1051585D01*
X238949Y1051525D01*
X238908Y1051466D01*
X238864Y1051410D01*
X238817Y1051356D01*
X238768Y1051305D01*
X238715Y1051257D01*
X238660Y1051211D01*
X238603Y1051169D01*
X238543Y1051129D01*
X238482Y1051093D01*
X238418Y1051060D01*
X238353Y1051031D01*
X238287Y1051005D01*
X238219Y1050982D01*
X238150Y1050963D01*
X238080Y1050948D01*
X238010Y1050937D01*
X237939Y1050929D01*
X237868Y1050925D01*
X237796Y1050925D01*
X237725Y1050929D01*
X237654Y1050937D01*
X237584Y1050948D01*
X237514Y1050963D01*
X237445Y1050982D01*
X237377Y1051005D01*
X237311Y1051031D01*
X237246Y1051060D01*
X237182Y1051093D01*
X237121Y1051129D01*
X237061Y1051169D01*
X237004Y1051211D01*
X236949Y1051257D01*
X236896Y1051305D01*
X236847Y1051356D01*
X236800Y1051410D01*
X236756Y1051466D01*
X236715Y1051525D01*
X236677Y1051585D01*
X236642Y1051648D01*
X236611Y1051712D01*
X236583Y1051778D01*
X236559Y1051845D01*
X236538Y1051913D01*
X236521Y1051983D01*
X236508Y1052053D01*
X236499Y1052123D01*
X236493Y1052195D01*
X236491Y1052266D01*
X236492Y1052266D02*
X236492Y1053606D01*
X236494Y1053697D01*
X236500Y1053788D01*
X236509Y1053878D01*
X236523Y1053969D01*
X236540Y1054058D01*
X236561Y1054146D01*
X236586Y1054234D01*
X236615Y1054321D01*
X236647Y1054406D01*
X236682Y1054490D01*
X236722Y1054572D01*
X236764Y1054652D01*
X236810Y1054731D01*
X236860Y1054807D01*
X236912Y1054881D01*
X236968Y1054954D01*
X237027Y1055023D01*
X237088Y1055090D01*
X237153Y1055155D01*
X237220Y1055216D01*
X237289Y1055275D01*
X237361Y1055331D01*
X237436Y1055383D01*
X237512Y1055433D01*
X237591Y1055479D01*
X237671Y1055521D01*
X237753Y1055561D01*
X237837Y1055596D01*
X237922Y1055628D01*
X238009Y1055657D01*
X238096Y1055682D01*
X238185Y1055703D01*
X238274Y1055720D01*
X238365Y1055734D01*
X238455Y1055743D01*
X238546Y1055749D01*
X238637Y1055751D01*
D13*
X356870Y1047910D02*
X369570Y1047910D01*
X375920Y1041560D01*
X375920Y1028860D02*
X369570Y1022510D01*
X375920Y1041560D02*
X382270Y1047910D01*
X394970Y1047910D01*
X401320Y1041560D01*
X401320Y1028860D02*
X394970Y1022510D01*
X382270Y1022510D01*
X375920Y1028860D01*
X350520Y1028860D02*
X350520Y1041560D01*
X356870Y1047910D01*
X350520Y1028860D02*
X356870Y1022510D01*
X369570Y1022510D01*
X401320Y1028860D02*
X401320Y1041560D01*
D12*
X352764Y1050887D02*
X352764Y1054641D01*
X352763Y1050887D02*
X352761Y1050822D01*
X352755Y1050758D01*
X352745Y1050694D01*
X352732Y1050630D01*
X352714Y1050568D01*
X352693Y1050507D01*
X352669Y1050447D01*
X352640Y1050389D01*
X352608Y1050332D01*
X352573Y1050278D01*
X352535Y1050226D01*
X352493Y1050176D01*
X352449Y1050129D01*
X352402Y1050085D01*
X352352Y1050043D01*
X352300Y1050005D01*
X352246Y1049970D01*
X352189Y1049938D01*
X352131Y1049909D01*
X352071Y1049885D01*
X352010Y1049864D01*
X351948Y1049846D01*
X351884Y1049833D01*
X351820Y1049823D01*
X351756Y1049817D01*
X351691Y1049815D01*
X351155Y1049815D01*
X355712Y1054105D02*
X355712Y1054641D01*
X358393Y1054641D01*
X357052Y1049815D01*
D13*
X487590Y1050100D02*
X500290Y1050100D01*
X506640Y1043750D01*
X506640Y1031050D02*
X500290Y1024700D01*
X506640Y1043750D02*
X512990Y1050100D01*
X525690Y1050100D01*
X532040Y1043750D01*
X532040Y1031050D02*
X525690Y1024700D01*
X512990Y1024700D01*
X506640Y1031050D01*
X481240Y1031050D02*
X481240Y1043750D01*
X487590Y1050100D01*
X481240Y1031050D02*
X487590Y1024700D01*
X500290Y1024700D01*
X532040Y1031050D02*
X532040Y1043750D01*
D12*
X483484Y1053077D02*
X483484Y1056831D01*
X483483Y1053077D02*
X483481Y1053012D01*
X483475Y1052948D01*
X483465Y1052884D01*
X483452Y1052820D01*
X483434Y1052758D01*
X483413Y1052697D01*
X483389Y1052637D01*
X483360Y1052579D01*
X483328Y1052522D01*
X483293Y1052468D01*
X483255Y1052416D01*
X483213Y1052366D01*
X483169Y1052319D01*
X483122Y1052275D01*
X483072Y1052233D01*
X483020Y1052195D01*
X482966Y1052160D01*
X482909Y1052128D01*
X482851Y1052099D01*
X482791Y1052075D01*
X482730Y1052054D01*
X482668Y1052036D01*
X482604Y1052023D01*
X482540Y1052013D01*
X482476Y1052007D01*
X482411Y1052005D01*
X481875Y1052005D01*
X486431Y1053346D02*
X486433Y1053417D01*
X486439Y1053489D01*
X486448Y1053559D01*
X486461Y1053629D01*
X486478Y1053699D01*
X486499Y1053767D01*
X486523Y1053834D01*
X486551Y1053900D01*
X486582Y1053964D01*
X486617Y1054027D01*
X486655Y1054087D01*
X486696Y1054146D01*
X486740Y1054202D01*
X486787Y1054256D01*
X486836Y1054307D01*
X486889Y1054355D01*
X486944Y1054401D01*
X487001Y1054443D01*
X487061Y1054483D01*
X487122Y1054519D01*
X487186Y1054552D01*
X487251Y1054581D01*
X487317Y1054607D01*
X487385Y1054630D01*
X487454Y1054649D01*
X487524Y1054664D01*
X487594Y1054675D01*
X487665Y1054683D01*
X487736Y1054687D01*
X487808Y1054687D01*
X487879Y1054683D01*
X487950Y1054675D01*
X488020Y1054664D01*
X488090Y1054649D01*
X488159Y1054630D01*
X488227Y1054607D01*
X488293Y1054581D01*
X488358Y1054552D01*
X488422Y1054519D01*
X488483Y1054483D01*
X488543Y1054443D01*
X488600Y1054401D01*
X488655Y1054355D01*
X488708Y1054307D01*
X488757Y1054256D01*
X488804Y1054202D01*
X488848Y1054146D01*
X488889Y1054087D01*
X488927Y1054027D01*
X488962Y1053964D01*
X488993Y1053900D01*
X489021Y1053834D01*
X489045Y1053767D01*
X489066Y1053699D01*
X489083Y1053629D01*
X489096Y1053559D01*
X489105Y1053489D01*
X489111Y1053417D01*
X489113Y1053346D01*
X489111Y1053275D01*
X489105Y1053203D01*
X489096Y1053133D01*
X489083Y1053063D01*
X489066Y1052993D01*
X489045Y1052925D01*
X489021Y1052858D01*
X488993Y1052792D01*
X488962Y1052728D01*
X488927Y1052665D01*
X488889Y1052605D01*
X488848Y1052546D01*
X488804Y1052490D01*
X488757Y1052436D01*
X488708Y1052385D01*
X488655Y1052337D01*
X488600Y1052291D01*
X488543Y1052249D01*
X488483Y1052209D01*
X488422Y1052173D01*
X488358Y1052140D01*
X488293Y1052111D01*
X488227Y1052085D01*
X488159Y1052062D01*
X488090Y1052043D01*
X488020Y1052028D01*
X487950Y1052017D01*
X487879Y1052009D01*
X487808Y1052005D01*
X487736Y1052005D01*
X487665Y1052009D01*
X487594Y1052017D01*
X487524Y1052028D01*
X487454Y1052043D01*
X487385Y1052062D01*
X487317Y1052085D01*
X487251Y1052111D01*
X487186Y1052140D01*
X487122Y1052173D01*
X487061Y1052209D01*
X487001Y1052249D01*
X486944Y1052291D01*
X486889Y1052337D01*
X486836Y1052385D01*
X486787Y1052436D01*
X486740Y1052490D01*
X486696Y1052546D01*
X486655Y1052605D01*
X486617Y1052665D01*
X486582Y1052728D01*
X486551Y1052792D01*
X486523Y1052858D01*
X486499Y1052925D01*
X486478Y1052993D01*
X486461Y1053063D01*
X486448Y1053133D01*
X486439Y1053203D01*
X486433Y1053275D01*
X486431Y1053346D01*
X486700Y1055759D02*
X486702Y1055824D01*
X486708Y1055888D01*
X486718Y1055952D01*
X486731Y1056016D01*
X486749Y1056078D01*
X486770Y1056139D01*
X486794Y1056199D01*
X486823Y1056257D01*
X486855Y1056314D01*
X486890Y1056368D01*
X486928Y1056420D01*
X486970Y1056470D01*
X487014Y1056517D01*
X487061Y1056561D01*
X487111Y1056603D01*
X487163Y1056641D01*
X487217Y1056676D01*
X487274Y1056708D01*
X487332Y1056737D01*
X487392Y1056761D01*
X487453Y1056782D01*
X487515Y1056800D01*
X487579Y1056813D01*
X487643Y1056823D01*
X487707Y1056829D01*
X487772Y1056831D01*
X487837Y1056829D01*
X487901Y1056823D01*
X487965Y1056813D01*
X488029Y1056800D01*
X488091Y1056782D01*
X488152Y1056761D01*
X488212Y1056737D01*
X488270Y1056708D01*
X488327Y1056676D01*
X488381Y1056641D01*
X488433Y1056603D01*
X488483Y1056561D01*
X488530Y1056517D01*
X488574Y1056470D01*
X488616Y1056420D01*
X488654Y1056368D01*
X488689Y1056314D01*
X488721Y1056257D01*
X488750Y1056199D01*
X488774Y1056139D01*
X488795Y1056078D01*
X488813Y1056016D01*
X488826Y1055952D01*
X488836Y1055888D01*
X488842Y1055824D01*
X488844Y1055759D01*
X488842Y1055694D01*
X488836Y1055630D01*
X488826Y1055566D01*
X488813Y1055502D01*
X488795Y1055440D01*
X488774Y1055379D01*
X488750Y1055319D01*
X488721Y1055261D01*
X488689Y1055204D01*
X488654Y1055150D01*
X488616Y1055098D01*
X488574Y1055048D01*
X488530Y1055001D01*
X488483Y1054957D01*
X488433Y1054915D01*
X488381Y1054877D01*
X488327Y1054842D01*
X488270Y1054810D01*
X488212Y1054781D01*
X488152Y1054757D01*
X488091Y1054736D01*
X488029Y1054718D01*
X487965Y1054705D01*
X487901Y1054695D01*
X487837Y1054689D01*
X487772Y1054687D01*
X487707Y1054689D01*
X487643Y1054695D01*
X487579Y1054705D01*
X487515Y1054718D01*
X487453Y1054736D01*
X487392Y1054757D01*
X487332Y1054781D01*
X487274Y1054810D01*
X487217Y1054842D01*
X487163Y1054877D01*
X487111Y1054915D01*
X487061Y1054957D01*
X487014Y1055001D01*
X486970Y1055048D01*
X486928Y1055098D01*
X486890Y1055150D01*
X486855Y1055204D01*
X486823Y1055261D01*
X486794Y1055319D01*
X486770Y1055379D01*
X486749Y1055440D01*
X486731Y1055502D01*
X486718Y1055566D01*
X486708Y1055630D01*
X486702Y1055694D01*
X486700Y1055759D01*
D13*
X465300Y802650D02*
X458950Y796300D01*
X446250Y796300D01*
X439900Y802650D01*
X439900Y815350D02*
X446250Y821700D01*
X458950Y821700D01*
X465300Y815350D01*
X497050Y796300D02*
X509750Y796300D01*
X497050Y796300D02*
X490700Y802650D01*
X490700Y815350D02*
X497050Y821700D01*
X490700Y802650D02*
X484350Y796300D01*
X471650Y796300D01*
X465300Y802650D01*
X465300Y815350D02*
X471650Y821700D01*
X484350Y821700D01*
X490700Y815350D01*
X516100Y815350D02*
X516100Y802650D01*
X509750Y796300D01*
X516100Y815350D02*
X509750Y821700D01*
X497050Y821700D01*
X439900Y815350D02*
X439900Y802650D01*
D12*
X509836Y794395D02*
X509836Y790641D01*
X509834Y790576D01*
X509828Y790512D01*
X509818Y790448D01*
X509805Y790384D01*
X509787Y790322D01*
X509766Y790261D01*
X509742Y790201D01*
X509713Y790143D01*
X509681Y790086D01*
X509646Y790032D01*
X509608Y789980D01*
X509566Y789930D01*
X509522Y789883D01*
X509475Y789839D01*
X509425Y789797D01*
X509373Y789759D01*
X509319Y789724D01*
X509262Y789692D01*
X509204Y789663D01*
X509144Y789639D01*
X509083Y789618D01*
X509021Y789600D01*
X508957Y789587D01*
X508893Y789577D01*
X508829Y789571D01*
X508764Y789569D01*
X508227Y789569D01*
X513856Y791714D02*
X515465Y791714D01*
X513856Y791714D02*
X513791Y791716D01*
X513727Y791722D01*
X513663Y791732D01*
X513599Y791745D01*
X513537Y791763D01*
X513476Y791784D01*
X513416Y791808D01*
X513358Y791837D01*
X513301Y791869D01*
X513247Y791904D01*
X513195Y791942D01*
X513145Y791984D01*
X513098Y792028D01*
X513054Y792075D01*
X513012Y792125D01*
X512974Y792177D01*
X512939Y792231D01*
X512907Y792288D01*
X512878Y792346D01*
X512854Y792406D01*
X512833Y792467D01*
X512815Y792529D01*
X512802Y792593D01*
X512792Y792657D01*
X512786Y792721D01*
X512784Y792786D01*
X512784Y793054D01*
X512783Y793054D02*
X512785Y793125D01*
X512791Y793197D01*
X512800Y793267D01*
X512813Y793337D01*
X512830Y793407D01*
X512851Y793475D01*
X512875Y793542D01*
X512903Y793608D01*
X512934Y793672D01*
X512969Y793735D01*
X513007Y793795D01*
X513048Y793854D01*
X513092Y793910D01*
X513139Y793964D01*
X513188Y794015D01*
X513241Y794063D01*
X513296Y794109D01*
X513353Y794151D01*
X513413Y794191D01*
X513474Y794227D01*
X513538Y794260D01*
X513603Y794289D01*
X513669Y794315D01*
X513737Y794338D01*
X513806Y794357D01*
X513876Y794372D01*
X513946Y794383D01*
X514017Y794391D01*
X514088Y794395D01*
X514160Y794395D01*
X514231Y794391D01*
X514302Y794383D01*
X514372Y794372D01*
X514442Y794357D01*
X514511Y794338D01*
X514579Y794315D01*
X514645Y794289D01*
X514710Y794260D01*
X514774Y794227D01*
X514835Y794191D01*
X514895Y794151D01*
X514952Y794109D01*
X515007Y794063D01*
X515060Y794015D01*
X515109Y793964D01*
X515156Y793910D01*
X515200Y793854D01*
X515241Y793795D01*
X515279Y793735D01*
X515314Y793672D01*
X515345Y793608D01*
X515373Y793542D01*
X515397Y793475D01*
X515418Y793407D01*
X515435Y793337D01*
X515448Y793267D01*
X515457Y793197D01*
X515463Y793125D01*
X515465Y793054D01*
X515465Y791714D01*
X515463Y791623D01*
X515457Y791532D01*
X515448Y791442D01*
X515434Y791351D01*
X515417Y791262D01*
X515396Y791174D01*
X515371Y791086D01*
X515342Y790999D01*
X515310Y790914D01*
X515275Y790830D01*
X515235Y790748D01*
X515193Y790668D01*
X515147Y790589D01*
X515097Y790513D01*
X515045Y790439D01*
X514989Y790366D01*
X514930Y790297D01*
X514869Y790230D01*
X514804Y790165D01*
X514737Y790104D01*
X514668Y790045D01*
X514595Y789989D01*
X514521Y789937D01*
X514445Y789887D01*
X514366Y789841D01*
X514286Y789799D01*
X514204Y789759D01*
X514120Y789724D01*
X514035Y789692D01*
X513948Y789663D01*
X513860Y789638D01*
X513772Y789617D01*
X513683Y789600D01*
X513592Y789586D01*
X513502Y789577D01*
X513411Y789571D01*
X513320Y789569D01*
D13*
X361300Y802650D02*
X354950Y796300D01*
X342250Y796300D01*
X335900Y802650D01*
X335900Y815350D02*
X342250Y821700D01*
X354950Y821700D01*
X361300Y815350D01*
X393050Y796300D02*
X405750Y796300D01*
X393050Y796300D02*
X386700Y802650D01*
X386700Y815350D02*
X393050Y821700D01*
X386700Y802650D02*
X380350Y796300D01*
X367650Y796300D01*
X361300Y802650D01*
X361300Y815350D02*
X367650Y821700D01*
X380350Y821700D01*
X386700Y815350D01*
X412100Y815350D02*
X412100Y802650D01*
X405750Y796300D01*
X412100Y815350D02*
X405750Y821700D01*
X393050Y821700D01*
X335900Y815350D02*
X335900Y802650D01*
D12*
X400350Y794395D02*
X400350Y790641D01*
X400349Y790641D02*
X400347Y790576D01*
X400341Y790512D01*
X400331Y790448D01*
X400318Y790384D01*
X400300Y790322D01*
X400279Y790261D01*
X400255Y790201D01*
X400226Y790143D01*
X400194Y790086D01*
X400159Y790032D01*
X400121Y789980D01*
X400079Y789930D01*
X400035Y789883D01*
X399988Y789839D01*
X399938Y789797D01*
X399886Y789759D01*
X399832Y789724D01*
X399775Y789692D01*
X399717Y789663D01*
X399657Y789639D01*
X399596Y789618D01*
X399534Y789600D01*
X399470Y789587D01*
X399406Y789577D01*
X399342Y789571D01*
X399277Y789569D01*
X398741Y789569D01*
X403298Y793323D02*
X404638Y794395D01*
X404638Y789569D01*
X403298Y789569D02*
X405979Y789569D01*
X408784Y791982D02*
X408786Y792102D01*
X408791Y792222D01*
X408800Y792342D01*
X408813Y792462D01*
X408829Y792581D01*
X408849Y792700D01*
X408873Y792818D01*
X408900Y792935D01*
X408930Y793051D01*
X408964Y793166D01*
X409002Y793281D01*
X409043Y793394D01*
X409087Y793505D01*
X409135Y793616D01*
X409186Y793725D01*
X409207Y793782D01*
X409233Y793838D01*
X409261Y793893D01*
X409293Y793945D01*
X409329Y793996D01*
X409367Y794044D01*
X409408Y794090D01*
X409452Y794133D01*
X409498Y794173D01*
X409547Y794210D01*
X409599Y794244D01*
X409652Y794275D01*
X409707Y794303D01*
X409763Y794327D01*
X409821Y794348D01*
X409880Y794365D01*
X409940Y794378D01*
X410001Y794387D01*
X410063Y794393D01*
X410124Y794395D01*
X410185Y794393D01*
X410247Y794387D01*
X410308Y794378D01*
X410368Y794365D01*
X410427Y794348D01*
X410485Y794327D01*
X410541Y794303D01*
X410596Y794275D01*
X410649Y794244D01*
X410701Y794210D01*
X410750Y794173D01*
X410796Y794133D01*
X410840Y794090D01*
X410881Y794044D01*
X410919Y793996D01*
X410955Y793945D01*
X410987Y793893D01*
X411015Y793838D01*
X411041Y793782D01*
X411062Y793725D01*
X411063Y793725D02*
X411114Y793616D01*
X411162Y793505D01*
X411206Y793394D01*
X411247Y793281D01*
X411285Y793166D01*
X411319Y793051D01*
X411349Y792935D01*
X411376Y792818D01*
X411400Y792700D01*
X411420Y792581D01*
X411436Y792462D01*
X411449Y792342D01*
X411458Y792222D01*
X411463Y792102D01*
X411465Y791982D01*
X408784Y791982D02*
X408786Y791862D01*
X408791Y791742D01*
X408800Y791622D01*
X408813Y791502D01*
X408829Y791383D01*
X408849Y791264D01*
X408873Y791146D01*
X408900Y791029D01*
X408930Y790913D01*
X408964Y790798D01*
X409002Y790683D01*
X409043Y790570D01*
X409087Y790459D01*
X409135Y790348D01*
X409186Y790239D01*
X409207Y790182D01*
X409233Y790126D01*
X409261Y790071D01*
X409293Y790019D01*
X409329Y789968D01*
X409367Y789920D01*
X409408Y789874D01*
X409452Y789831D01*
X409498Y789791D01*
X409547Y789754D01*
X409599Y789720D01*
X409652Y789689D01*
X409707Y789661D01*
X409763Y789637D01*
X409821Y789616D01*
X409880Y789599D01*
X409940Y789586D01*
X410001Y789577D01*
X410063Y789571D01*
X410124Y789569D01*
X411063Y790239D02*
X411114Y790348D01*
X411162Y790459D01*
X411206Y790570D01*
X411247Y790683D01*
X411285Y790798D01*
X411319Y790913D01*
X411349Y791029D01*
X411376Y791146D01*
X411400Y791264D01*
X411420Y791383D01*
X411436Y791502D01*
X411449Y791622D01*
X411458Y791742D01*
X411463Y791862D01*
X411465Y791982D01*
X411062Y790239D02*
X411041Y790182D01*
X411015Y790126D01*
X410987Y790071D01*
X410955Y790019D01*
X410919Y789968D01*
X410881Y789920D01*
X410840Y789874D01*
X410796Y789831D01*
X410749Y789791D01*
X410701Y789754D01*
X410649Y789720D01*
X410596Y789689D01*
X410541Y789661D01*
X410485Y789637D01*
X410427Y789616D01*
X410368Y789599D01*
X410308Y789586D01*
X410247Y789577D01*
X410185Y789571D01*
X410124Y789569D01*
X409052Y790641D02*
X411197Y793323D01*
D13*
X257300Y802650D02*
X250950Y796300D01*
X238250Y796300D01*
X231900Y802650D01*
X231900Y815350D02*
X238250Y821700D01*
X250950Y821700D01*
X257300Y815350D01*
X289050Y796300D02*
X301750Y796300D01*
X289050Y796300D02*
X282700Y802650D01*
X282700Y815350D02*
X289050Y821700D01*
X282700Y802650D02*
X276350Y796300D01*
X263650Y796300D01*
X257300Y802650D01*
X257300Y815350D02*
X263650Y821700D01*
X276350Y821700D01*
X282700Y815350D01*
X308100Y815350D02*
X308100Y802650D01*
X301750Y796300D01*
X308100Y815350D02*
X301750Y821700D01*
X289050Y821700D01*
X231900Y815350D02*
X231900Y802650D01*
D12*
X298914Y792871D02*
X298914Y789117D01*
X298913Y789117D02*
X298911Y789052D01*
X298905Y788988D01*
X298895Y788924D01*
X298882Y788860D01*
X298864Y788798D01*
X298843Y788737D01*
X298819Y788677D01*
X298790Y788619D01*
X298758Y788562D01*
X298723Y788508D01*
X298685Y788456D01*
X298643Y788406D01*
X298599Y788359D01*
X298552Y788315D01*
X298502Y788273D01*
X298450Y788235D01*
X298396Y788200D01*
X298339Y788168D01*
X298281Y788139D01*
X298221Y788115D01*
X298160Y788094D01*
X298098Y788076D01*
X298034Y788063D01*
X297970Y788053D01*
X297906Y788047D01*
X297841Y788045D01*
X297305Y788045D01*
X301862Y791799D02*
X303202Y792871D01*
X303202Y788045D01*
X301862Y788045D02*
X304543Y788045D01*
X307348Y791799D02*
X308688Y792871D01*
X308688Y788045D01*
X307348Y788045D02*
X310029Y788045D01*
D13*
X870950Y796300D02*
X877300Y802650D01*
X870950Y796300D02*
X858250Y796300D01*
X851900Y802650D01*
X851900Y815350D02*
X858250Y821700D01*
X870950Y821700D01*
X877300Y815350D01*
X909050Y796300D02*
X921750Y796300D01*
X909050Y796300D02*
X902700Y802650D01*
X902700Y815350D02*
X909050Y821700D01*
X902700Y802650D02*
X896350Y796300D01*
X883650Y796300D01*
X877300Y802650D01*
X877300Y815350D02*
X883650Y821700D01*
X896350Y821700D01*
X902700Y815350D01*
X928100Y815350D02*
X928100Y802650D01*
X921750Y796300D01*
X928100Y815350D02*
X921750Y821700D01*
X909050Y821700D01*
X851900Y815350D02*
X851900Y802650D01*
D12*
X916350Y794395D02*
X916350Y790641D01*
X916349Y790641D02*
X916347Y790576D01*
X916341Y790512D01*
X916331Y790448D01*
X916318Y790384D01*
X916300Y790322D01*
X916279Y790261D01*
X916255Y790201D01*
X916226Y790143D01*
X916194Y790086D01*
X916159Y790032D01*
X916121Y789980D01*
X916079Y789930D01*
X916035Y789883D01*
X915988Y789839D01*
X915938Y789797D01*
X915886Y789759D01*
X915832Y789724D01*
X915775Y789692D01*
X915717Y789663D01*
X915657Y789639D01*
X915596Y789618D01*
X915534Y789600D01*
X915470Y789587D01*
X915406Y789577D01*
X915342Y789571D01*
X915277Y789569D01*
X914741Y789569D01*
X919298Y793323D02*
X920638Y794395D01*
X920638Y789569D01*
X919298Y789569D02*
X921979Y789569D01*
X926259Y794395D02*
X926327Y794393D01*
X926394Y794387D01*
X926461Y794378D01*
X926528Y794365D01*
X926593Y794348D01*
X926658Y794327D01*
X926721Y794303D01*
X926783Y794275D01*
X926843Y794244D01*
X926901Y794210D01*
X926957Y794172D01*
X927012Y794132D01*
X927063Y794088D01*
X927112Y794041D01*
X927159Y793992D01*
X927203Y793941D01*
X927243Y793886D01*
X927281Y793830D01*
X927315Y793772D01*
X927346Y793712D01*
X927374Y793650D01*
X927398Y793587D01*
X927419Y793522D01*
X927436Y793457D01*
X927449Y793390D01*
X927458Y793323D01*
X927464Y793256D01*
X927466Y793188D01*
X926259Y794395D02*
X926181Y794393D01*
X926103Y794387D01*
X926026Y794377D01*
X925949Y794364D01*
X925873Y794346D01*
X925798Y794325D01*
X925724Y794300D01*
X925652Y794271D01*
X925581Y794239D01*
X925512Y794203D01*
X925444Y794164D01*
X925379Y794121D01*
X925316Y794075D01*
X925255Y794026D01*
X925197Y793974D01*
X925142Y793919D01*
X925089Y793862D01*
X925040Y793802D01*
X924993Y793739D01*
X924950Y793675D01*
X924910Y793608D01*
X924873Y793539D01*
X924840Y793468D01*
X924810Y793396D01*
X924784Y793323D01*
X927063Y792250D02*
X927112Y792299D01*
X927159Y792351D01*
X927202Y792406D01*
X927243Y792463D01*
X927281Y792522D01*
X927315Y792583D01*
X927346Y792646D01*
X927374Y792710D01*
X927398Y792776D01*
X927418Y792842D01*
X927435Y792910D01*
X927448Y792979D01*
X927457Y793048D01*
X927463Y793118D01*
X927465Y793188D01*
X927063Y792250D02*
X924784Y789569D01*
X927465Y789569D01*
D13*
X773300Y802650D02*
X766950Y796300D01*
X754250Y796300D01*
X747900Y802650D01*
X747900Y815350D02*
X754250Y821700D01*
X766950Y821700D01*
X773300Y815350D01*
X805050Y796300D02*
X817750Y796300D01*
X805050Y796300D02*
X798700Y802650D01*
X798700Y815350D02*
X805050Y821700D01*
X798700Y802650D02*
X792350Y796300D01*
X779650Y796300D01*
X773300Y802650D01*
X773300Y815350D02*
X779650Y821700D01*
X792350Y821700D01*
X798700Y815350D01*
X824100Y815350D02*
X824100Y802650D01*
X817750Y796300D01*
X824100Y815350D02*
X817750Y821700D01*
X805050Y821700D01*
X747900Y815350D02*
X747900Y802650D01*
D12*
X812350Y794395D02*
X812350Y790641D01*
X812349Y790641D02*
X812347Y790576D01*
X812341Y790512D01*
X812331Y790448D01*
X812318Y790384D01*
X812300Y790322D01*
X812279Y790261D01*
X812255Y790201D01*
X812226Y790143D01*
X812194Y790086D01*
X812159Y790032D01*
X812121Y789980D01*
X812079Y789930D01*
X812035Y789883D01*
X811988Y789839D01*
X811938Y789797D01*
X811886Y789759D01*
X811832Y789724D01*
X811775Y789692D01*
X811717Y789663D01*
X811657Y789639D01*
X811596Y789618D01*
X811534Y789600D01*
X811470Y789587D01*
X811406Y789577D01*
X811342Y789571D01*
X811277Y789569D01*
X810741Y789569D01*
X815298Y793323D02*
X816638Y794395D01*
X816638Y789569D01*
X815298Y789569D02*
X817979Y789569D01*
X820784Y789569D02*
X822124Y789569D01*
X822195Y789571D01*
X822267Y789577D01*
X822337Y789586D01*
X822407Y789599D01*
X822477Y789616D01*
X822545Y789637D01*
X822612Y789661D01*
X822678Y789689D01*
X822742Y789720D01*
X822805Y789755D01*
X822865Y789793D01*
X822924Y789834D01*
X822980Y789878D01*
X823034Y789925D01*
X823085Y789974D01*
X823133Y790027D01*
X823179Y790082D01*
X823221Y790139D01*
X823261Y790199D01*
X823297Y790260D01*
X823330Y790324D01*
X823359Y790389D01*
X823385Y790455D01*
X823408Y790523D01*
X823427Y790592D01*
X823442Y790662D01*
X823453Y790732D01*
X823461Y790803D01*
X823465Y790874D01*
X823465Y790946D01*
X823461Y791017D01*
X823453Y791088D01*
X823442Y791158D01*
X823427Y791228D01*
X823408Y791297D01*
X823385Y791365D01*
X823359Y791431D01*
X823330Y791496D01*
X823297Y791560D01*
X823261Y791621D01*
X823221Y791681D01*
X823179Y791738D01*
X823133Y791793D01*
X823085Y791846D01*
X823034Y791895D01*
X822980Y791942D01*
X822924Y791986D01*
X822865Y792027D01*
X822805Y792065D01*
X822742Y792100D01*
X822678Y792131D01*
X822612Y792159D01*
X822545Y792183D01*
X822477Y792204D01*
X822407Y792221D01*
X822337Y792234D01*
X822267Y792243D01*
X822195Y792249D01*
X822124Y792251D01*
X822393Y794395D02*
X820784Y794395D01*
X822393Y794395D02*
X822458Y794393D01*
X822522Y794387D01*
X822586Y794377D01*
X822650Y794364D01*
X822712Y794346D01*
X822773Y794325D01*
X822833Y794301D01*
X822891Y794272D01*
X822948Y794240D01*
X823002Y794205D01*
X823054Y794167D01*
X823104Y794125D01*
X823151Y794081D01*
X823195Y794034D01*
X823237Y793984D01*
X823275Y793932D01*
X823310Y793878D01*
X823342Y793821D01*
X823371Y793763D01*
X823395Y793703D01*
X823416Y793642D01*
X823434Y793580D01*
X823447Y793516D01*
X823457Y793452D01*
X823463Y793388D01*
X823465Y793323D01*
X823463Y793258D01*
X823457Y793194D01*
X823447Y793130D01*
X823434Y793066D01*
X823416Y793004D01*
X823395Y792943D01*
X823371Y792883D01*
X823342Y792825D01*
X823310Y792768D01*
X823275Y792714D01*
X823237Y792662D01*
X823195Y792612D01*
X823151Y792565D01*
X823104Y792521D01*
X823054Y792479D01*
X823002Y792441D01*
X822948Y792406D01*
X822891Y792374D01*
X822833Y792345D01*
X822773Y792321D01*
X822712Y792300D01*
X822650Y792282D01*
X822586Y792269D01*
X822522Y792259D01*
X822458Y792253D01*
X822393Y792251D01*
X822393Y792250D02*
X821320Y792250D01*
D13*
X669300Y802650D02*
X662950Y796300D01*
X650250Y796300D01*
X643900Y802650D01*
X643900Y815350D02*
X650250Y821700D01*
X662950Y821700D01*
X669300Y815350D01*
X701050Y796300D02*
X713750Y796300D01*
X701050Y796300D02*
X694700Y802650D01*
X694700Y815350D02*
X701050Y821700D01*
X694700Y802650D02*
X688350Y796300D01*
X675650Y796300D01*
X669300Y802650D01*
X669300Y815350D02*
X675650Y821700D01*
X688350Y821700D01*
X694700Y815350D01*
X720100Y815350D02*
X720100Y802650D01*
X713750Y796300D01*
X720100Y815350D02*
X713750Y821700D01*
X701050Y821700D01*
X643900Y815350D02*
X643900Y802650D01*
D12*
X708350Y794395D02*
X708350Y790641D01*
X708349Y790641D02*
X708347Y790576D01*
X708341Y790512D01*
X708331Y790448D01*
X708318Y790384D01*
X708300Y790322D01*
X708279Y790261D01*
X708255Y790201D01*
X708226Y790143D01*
X708194Y790086D01*
X708159Y790032D01*
X708121Y789980D01*
X708079Y789930D01*
X708035Y789883D01*
X707988Y789839D01*
X707938Y789797D01*
X707886Y789759D01*
X707832Y789724D01*
X707775Y789692D01*
X707717Y789663D01*
X707657Y789639D01*
X707596Y789618D01*
X707534Y789600D01*
X707470Y789587D01*
X707406Y789577D01*
X707342Y789571D01*
X707277Y789569D01*
X706741Y789569D01*
X711298Y793323D02*
X712638Y794395D01*
X712638Y789569D01*
X711298Y789569D02*
X713979Y789569D01*
X716784Y790641D02*
X717856Y794395D01*
X716784Y790641D02*
X719465Y790641D01*
X718661Y791714D02*
X718661Y789569D01*
D13*
X958430Y906700D02*
X958430Y957500D01*
X966050Y957500D01*
X973670Y957500D01*
X973670Y906700D01*
X966050Y906700D01*
X958430Y906700D01*
X966050Y957500D02*
X966050Y960040D01*
X966050Y906700D02*
X966050Y904160D01*
D12*
X975829Y928048D02*
X980655Y928048D01*
X975829Y928048D02*
X975829Y929389D01*
X975831Y929460D01*
X975837Y929532D01*
X975846Y929602D01*
X975859Y929672D01*
X975876Y929742D01*
X975897Y929810D01*
X975921Y929877D01*
X975949Y929943D01*
X975980Y930007D01*
X976015Y930070D01*
X976053Y930130D01*
X976094Y930189D01*
X976138Y930245D01*
X976185Y930299D01*
X976234Y930350D01*
X976287Y930398D01*
X976342Y930444D01*
X976399Y930486D01*
X976459Y930526D01*
X976520Y930562D01*
X976584Y930595D01*
X976649Y930624D01*
X976715Y930650D01*
X976783Y930673D01*
X976852Y930692D01*
X976922Y930707D01*
X976992Y930718D01*
X977063Y930726D01*
X977134Y930730D01*
X977206Y930730D01*
X977277Y930726D01*
X977348Y930718D01*
X977418Y930707D01*
X977488Y930692D01*
X977557Y930673D01*
X977625Y930650D01*
X977691Y930624D01*
X977756Y930595D01*
X977820Y930562D01*
X977881Y930526D01*
X977941Y930486D01*
X977998Y930444D01*
X978053Y930398D01*
X978106Y930350D01*
X978155Y930299D01*
X978202Y930245D01*
X978246Y930189D01*
X978287Y930130D01*
X978325Y930070D01*
X978360Y930007D01*
X978391Y929943D01*
X978419Y929877D01*
X978443Y929810D01*
X978464Y929742D01*
X978481Y929672D01*
X978494Y929602D01*
X978503Y929532D01*
X978509Y929460D01*
X978511Y929389D01*
X978510Y929389D02*
X978510Y928048D01*
X978510Y929657D02*
X980655Y930729D01*
X976365Y933471D02*
X975829Y933471D01*
X975829Y936152D01*
X980655Y934811D01*
D13*
X958430Y843300D02*
X958430Y792500D01*
X958430Y843300D02*
X966050Y843300D01*
X973670Y843300D01*
X973670Y792500D01*
X966050Y792500D01*
X958430Y792500D01*
X966050Y843300D02*
X966050Y845840D01*
X966050Y792500D02*
X966050Y789960D01*
D12*
X953914Y809811D02*
X953843Y809813D01*
X953771Y809819D01*
X953701Y809828D01*
X953631Y809841D01*
X953561Y809858D01*
X953493Y809879D01*
X953426Y809903D01*
X953360Y809931D01*
X953296Y809962D01*
X953233Y809997D01*
X953173Y810035D01*
X953114Y810076D01*
X953058Y810120D01*
X953004Y810167D01*
X952953Y810216D01*
X952905Y810269D01*
X952859Y810324D01*
X952817Y810381D01*
X952777Y810441D01*
X952741Y810502D01*
X952708Y810566D01*
X952679Y810631D01*
X952653Y810697D01*
X952630Y810765D01*
X952611Y810834D01*
X952596Y810904D01*
X952585Y810974D01*
X952577Y811045D01*
X952573Y811116D01*
X952573Y811188D01*
X952577Y811259D01*
X952585Y811330D01*
X952596Y811400D01*
X952611Y811470D01*
X952630Y811539D01*
X952653Y811607D01*
X952679Y811673D01*
X952708Y811738D01*
X952741Y811802D01*
X952777Y811863D01*
X952817Y811923D01*
X952859Y811980D01*
X952905Y812035D01*
X952953Y812088D01*
X953004Y812137D01*
X953058Y812184D01*
X953114Y812228D01*
X953173Y812269D01*
X953233Y812307D01*
X953296Y812342D01*
X953360Y812373D01*
X953426Y812401D01*
X953493Y812425D01*
X953561Y812446D01*
X953631Y812463D01*
X953701Y812476D01*
X953771Y812485D01*
X953843Y812491D01*
X953914Y812493D01*
X953985Y812491D01*
X954057Y812485D01*
X954127Y812476D01*
X954197Y812463D01*
X954267Y812446D01*
X954335Y812425D01*
X954402Y812401D01*
X954468Y812373D01*
X954532Y812342D01*
X954595Y812307D01*
X954655Y812269D01*
X954714Y812228D01*
X954770Y812184D01*
X954824Y812137D01*
X954875Y812088D01*
X954923Y812035D01*
X954969Y811980D01*
X955011Y811923D01*
X955051Y811863D01*
X955087Y811802D01*
X955120Y811738D01*
X955149Y811673D01*
X955175Y811607D01*
X955198Y811539D01*
X955217Y811470D01*
X955232Y811400D01*
X955243Y811330D01*
X955251Y811259D01*
X955255Y811188D01*
X955255Y811116D01*
X955251Y811045D01*
X955243Y810974D01*
X955232Y810904D01*
X955217Y810834D01*
X955198Y810765D01*
X955175Y810697D01*
X955149Y810631D01*
X955120Y810566D01*
X955087Y810502D01*
X955051Y810441D01*
X955011Y810381D01*
X954969Y810324D01*
X954923Y810269D01*
X954875Y810216D01*
X954824Y810167D01*
X954770Y810120D01*
X954714Y810076D01*
X954655Y810035D01*
X954595Y809997D01*
X954532Y809962D01*
X954468Y809931D01*
X954402Y809903D01*
X954335Y809879D01*
X954267Y809858D01*
X954197Y809841D01*
X954127Y809828D01*
X954057Y809819D01*
X953985Y809813D01*
X953914Y809811D01*
X951501Y810080D02*
X951436Y810082D01*
X951372Y810088D01*
X951308Y810098D01*
X951244Y810111D01*
X951182Y810129D01*
X951121Y810150D01*
X951061Y810174D01*
X951003Y810203D01*
X950946Y810235D01*
X950892Y810270D01*
X950840Y810308D01*
X950790Y810350D01*
X950743Y810394D01*
X950699Y810441D01*
X950657Y810491D01*
X950619Y810543D01*
X950584Y810597D01*
X950552Y810654D01*
X950523Y810712D01*
X950499Y810772D01*
X950478Y810833D01*
X950460Y810895D01*
X950447Y810959D01*
X950437Y811023D01*
X950431Y811087D01*
X950429Y811152D01*
X950431Y811217D01*
X950437Y811281D01*
X950447Y811345D01*
X950460Y811409D01*
X950478Y811471D01*
X950499Y811532D01*
X950523Y811592D01*
X950552Y811650D01*
X950584Y811707D01*
X950619Y811761D01*
X950657Y811813D01*
X950699Y811863D01*
X950743Y811910D01*
X950790Y811954D01*
X950840Y811996D01*
X950892Y812034D01*
X950946Y812069D01*
X951003Y812101D01*
X951061Y812130D01*
X951121Y812154D01*
X951182Y812175D01*
X951244Y812193D01*
X951308Y812206D01*
X951372Y812216D01*
X951436Y812222D01*
X951501Y812224D01*
X951566Y812222D01*
X951630Y812216D01*
X951694Y812206D01*
X951758Y812193D01*
X951820Y812175D01*
X951881Y812154D01*
X951941Y812130D01*
X951999Y812101D01*
X952056Y812069D01*
X952110Y812034D01*
X952162Y811996D01*
X952212Y811954D01*
X952259Y811910D01*
X952303Y811863D01*
X952345Y811813D01*
X952383Y811761D01*
X952418Y811707D01*
X952450Y811650D01*
X952479Y811592D01*
X952503Y811532D01*
X952524Y811471D01*
X952542Y811409D01*
X952555Y811345D01*
X952565Y811281D01*
X952571Y811217D01*
X952573Y811152D01*
X952571Y811087D01*
X952565Y811023D01*
X952555Y810959D01*
X952542Y810895D01*
X952524Y810833D01*
X952503Y810772D01*
X952479Y810712D01*
X952450Y810654D01*
X952418Y810597D01*
X952383Y810543D01*
X952345Y810491D01*
X952303Y810441D01*
X952259Y810394D01*
X952212Y810350D01*
X952162Y810308D01*
X952110Y810270D01*
X952056Y810235D01*
X951999Y810203D01*
X951941Y810174D01*
X951881Y810150D01*
X951820Y810129D01*
X951758Y810111D01*
X951694Y810098D01*
X951630Y810088D01*
X951566Y810082D01*
X951501Y810080D01*
X954987Y814858D02*
X955255Y814858D01*
X954987Y814858D02*
X954987Y815126D01*
X955255Y815126D01*
X955255Y814858D01*
X950429Y818967D02*
X950431Y819035D01*
X950437Y819102D01*
X950446Y819169D01*
X950459Y819236D01*
X950476Y819301D01*
X950497Y819366D01*
X950521Y819429D01*
X950549Y819491D01*
X950580Y819551D01*
X950614Y819609D01*
X950652Y819665D01*
X950692Y819720D01*
X950736Y819771D01*
X950783Y819820D01*
X950832Y819867D01*
X950883Y819911D01*
X950938Y819951D01*
X950994Y819989D01*
X951052Y820023D01*
X951112Y820054D01*
X951174Y820082D01*
X951237Y820106D01*
X951302Y820127D01*
X951367Y820144D01*
X951434Y820157D01*
X951501Y820166D01*
X951568Y820172D01*
X951636Y820174D01*
X950429Y818967D02*
X950431Y818889D01*
X950437Y818811D01*
X950447Y818734D01*
X950460Y818657D01*
X950478Y818581D01*
X950499Y818506D01*
X950524Y818432D01*
X950553Y818360D01*
X950585Y818289D01*
X950621Y818220D01*
X950660Y818152D01*
X950703Y818087D01*
X950749Y818024D01*
X950798Y817963D01*
X950850Y817905D01*
X950905Y817850D01*
X950962Y817797D01*
X951022Y817748D01*
X951085Y817701D01*
X951150Y817658D01*
X951216Y817618D01*
X951285Y817581D01*
X951356Y817548D01*
X951428Y817518D01*
X951502Y817492D01*
X952574Y819771D02*
X952525Y819820D01*
X952473Y819867D01*
X952418Y819910D01*
X952361Y819951D01*
X952302Y819989D01*
X952241Y820023D01*
X952178Y820054D01*
X952114Y820082D01*
X952048Y820106D01*
X951982Y820126D01*
X951914Y820143D01*
X951845Y820156D01*
X951776Y820165D01*
X951706Y820171D01*
X951636Y820173D01*
X952574Y819771D02*
X955255Y817492D01*
X955255Y820173D01*
X955255Y823308D02*
X950429Y823308D01*
X950429Y825989D02*
X953378Y823308D01*
X952306Y824380D02*
X955255Y825989D01*
D11*
X193668Y820150D02*
X187318Y813800D01*
X193668Y832850D02*
X187318Y839200D01*
X193668Y845550D01*
X193668Y858250D02*
X187318Y864600D01*
X193668Y870950D01*
X193668Y883650D02*
X187318Y890000D01*
X193668Y896350D01*
X193668Y909050D02*
X187318Y915400D01*
X193668Y921750D01*
X193668Y934450D02*
X187318Y940800D01*
X193668Y947150D01*
X193668Y959850D02*
X187318Y966200D01*
X187318Y813800D02*
X149218Y813800D01*
X142868Y820150D01*
X142868Y832850D01*
X149218Y839200D01*
X142868Y845550D01*
X142868Y858250D01*
X149218Y864600D01*
X142868Y870950D01*
X142868Y883650D01*
X149218Y890000D01*
X142868Y896350D01*
X142868Y909050D01*
X149218Y915400D01*
X142868Y921750D01*
X142868Y934450D01*
X149218Y940800D01*
X142868Y947150D01*
X142868Y959850D01*
X149218Y966200D01*
X142868Y972550D01*
X142868Y985250D01*
X149218Y991600D01*
X142868Y997950D01*
X142868Y1010650D01*
X149218Y1017000D01*
X187318Y1017000D02*
X193668Y1010650D01*
X193668Y997950D02*
X187318Y991600D01*
X193668Y985250D01*
X193668Y972550D02*
X187318Y966200D01*
X187318Y839200D02*
X149218Y839200D01*
X149218Y864600D02*
X187318Y864600D01*
X187318Y890000D02*
X149218Y890000D01*
X149218Y915400D02*
X187318Y915400D01*
X187318Y940800D02*
X149218Y940800D01*
X149218Y966200D02*
X187318Y966200D01*
X187318Y991600D02*
X149218Y991600D01*
X149218Y1017000D02*
X187318Y1017000D01*
X193668Y1010650D02*
X193668Y997950D01*
X193668Y985250D02*
X193668Y972550D01*
X193668Y959850D02*
X193668Y947150D01*
X193668Y934450D02*
X193668Y921750D01*
X193668Y909050D02*
X193668Y896350D01*
X193668Y883650D02*
X193668Y870950D01*
X193668Y858250D02*
X193668Y845550D01*
X193668Y826500D02*
X193668Y820150D01*
X193668Y826500D02*
X193668Y832850D01*
D12*
X193668Y826500D02*
X206368Y813800D01*
X193668Y826500D02*
X206368Y839200D01*
D15*
X220366Y815747D02*
X220366Y807958D01*
X215822Y820799D02*
X213226Y824045D01*
X224910Y824045D01*
X224910Y827290D02*
X224910Y820799D01*
X213226Y835799D02*
X213228Y835906D01*
X213234Y836012D01*
X213244Y836118D01*
X213257Y836224D01*
X213275Y836330D01*
X213296Y836434D01*
X213321Y836538D01*
X213350Y836641D01*
X213382Y836742D01*
X213419Y836842D01*
X213459Y836941D01*
X213502Y837039D01*
X213549Y837135D01*
X213600Y837229D01*
X213654Y837321D01*
X213711Y837411D01*
X213771Y837499D01*
X213835Y837584D01*
X213902Y837667D01*
X213972Y837748D01*
X214044Y837826D01*
X214120Y837902D01*
X214198Y837974D01*
X214279Y838044D01*
X214362Y838111D01*
X214447Y838175D01*
X214535Y838235D01*
X214625Y838292D01*
X214717Y838346D01*
X214811Y838397D01*
X214907Y838444D01*
X215005Y838487D01*
X215104Y838527D01*
X215204Y838564D01*
X215305Y838596D01*
X215408Y838625D01*
X215512Y838650D01*
X215616Y838671D01*
X215722Y838689D01*
X215828Y838702D01*
X215934Y838712D01*
X216040Y838718D01*
X216147Y838720D01*
X213226Y835799D02*
X213228Y835678D01*
X213234Y835557D01*
X213244Y835437D01*
X213257Y835316D01*
X213275Y835197D01*
X213296Y835077D01*
X213321Y834959D01*
X213350Y834842D01*
X213383Y834725D01*
X213419Y834610D01*
X213460Y834496D01*
X213503Y834383D01*
X213551Y834271D01*
X213602Y834162D01*
X213657Y834054D01*
X213715Y833947D01*
X213776Y833843D01*
X213841Y833741D01*
X213909Y833641D01*
X213980Y833543D01*
X214054Y833447D01*
X214131Y833354D01*
X214212Y833264D01*
X214295Y833176D01*
X214381Y833091D01*
X214470Y833008D01*
X214561Y832929D01*
X214655Y832852D01*
X214751Y832779D01*
X214849Y832709D01*
X214950Y832642D01*
X215053Y832578D01*
X215158Y832518D01*
X215265Y832460D01*
X215373Y832407D01*
X215483Y832357D01*
X215595Y832311D01*
X215708Y832268D01*
X215823Y832229D01*
X218419Y837746D02*
X218341Y837825D01*
X218261Y837901D01*
X218178Y837974D01*
X218092Y838044D01*
X218005Y838111D01*
X217914Y838175D01*
X217822Y838235D01*
X217728Y838293D01*
X217631Y838347D01*
X217533Y838397D01*
X217433Y838444D01*
X217332Y838488D01*
X217229Y838528D01*
X217124Y838564D01*
X217019Y838596D01*
X216912Y838625D01*
X216805Y838650D01*
X216696Y838672D01*
X216587Y838689D01*
X216478Y838703D01*
X216368Y838712D01*
X216257Y838718D01*
X216147Y838720D01*
X218419Y837747D02*
X224910Y832229D01*
X224910Y838720D01*
D12*
X142708Y1024435D02*
X134453Y1024435D01*
X142708Y1024435D02*
X142819Y1024437D01*
X142929Y1024443D01*
X143040Y1024452D01*
X143150Y1024466D01*
X143259Y1024483D01*
X143368Y1024504D01*
X143476Y1024529D01*
X143583Y1024558D01*
X143689Y1024590D01*
X143794Y1024626D01*
X143897Y1024666D01*
X143999Y1024709D01*
X144100Y1024756D01*
X144199Y1024807D01*
X144295Y1024860D01*
X144390Y1024917D01*
X144483Y1024978D01*
X144574Y1025041D01*
X144663Y1025108D01*
X144749Y1025178D01*
X144832Y1025251D01*
X144914Y1025326D01*
X144992Y1025404D01*
X145067Y1025486D01*
X145140Y1025569D01*
X145210Y1025655D01*
X145277Y1025744D01*
X145340Y1025835D01*
X145401Y1025928D01*
X145458Y1026023D01*
X145511Y1026119D01*
X145562Y1026218D01*
X145609Y1026319D01*
X145652Y1026421D01*
X145692Y1026524D01*
X145728Y1026629D01*
X145760Y1026735D01*
X145789Y1026842D01*
X145814Y1026950D01*
X145835Y1027059D01*
X145852Y1027168D01*
X145866Y1027278D01*
X145875Y1027389D01*
X145881Y1027499D01*
X145883Y1027610D01*
X145881Y1027721D01*
X145875Y1027831D01*
X145866Y1027942D01*
X145852Y1028052D01*
X145835Y1028161D01*
X145814Y1028270D01*
X145789Y1028378D01*
X145760Y1028485D01*
X145728Y1028591D01*
X145692Y1028696D01*
X145652Y1028799D01*
X145609Y1028901D01*
X145562Y1029002D01*
X145511Y1029101D01*
X145458Y1029197D01*
X145401Y1029292D01*
X145340Y1029385D01*
X145277Y1029476D01*
X145210Y1029565D01*
X145140Y1029651D01*
X145067Y1029734D01*
X144992Y1029816D01*
X144914Y1029894D01*
X144832Y1029969D01*
X144749Y1030042D01*
X144663Y1030112D01*
X144574Y1030179D01*
X144483Y1030242D01*
X144390Y1030303D01*
X144296Y1030360D01*
X144199Y1030413D01*
X144100Y1030464D01*
X143999Y1030511D01*
X143897Y1030554D01*
X143794Y1030594D01*
X143689Y1030630D01*
X143583Y1030662D01*
X143476Y1030691D01*
X143368Y1030716D01*
X143259Y1030737D01*
X143150Y1030754D01*
X143040Y1030768D01*
X142929Y1030777D01*
X142819Y1030783D01*
X142708Y1030785D01*
X134453Y1030785D01*
X134453Y1038659D02*
X145883Y1038659D01*
X140168Y1038659D02*
X139216Y1037072D01*
X139216Y1037071D02*
X139169Y1036998D01*
X139120Y1036927D01*
X139067Y1036858D01*
X139011Y1036792D01*
X138952Y1036728D01*
X138891Y1036667D01*
X138827Y1036609D01*
X138760Y1036554D01*
X138690Y1036502D01*
X138619Y1036454D01*
X138545Y1036408D01*
X138469Y1036366D01*
X138391Y1036328D01*
X138312Y1036293D01*
X138231Y1036262D01*
X138149Y1036235D01*
X138066Y1036211D01*
X137981Y1036191D01*
X137896Y1036175D01*
X137810Y1036163D01*
X137724Y1036155D01*
X137638Y1036151D01*
X137551Y1036150D01*
X137464Y1036154D01*
X137378Y1036162D01*
X137292Y1036173D01*
X137207Y1036189D01*
X137123Y1036208D01*
X137039Y1036231D01*
X136957Y1036258D01*
X136876Y1036289D01*
X136796Y1036324D01*
X136719Y1036361D01*
X136643Y1036403D01*
X136568Y1036448D01*
X136497Y1036496D01*
X136427Y1036548D01*
X136360Y1036602D01*
X136295Y1036660D01*
X136233Y1036720D01*
X136174Y1036784D01*
X136118Y1036850D01*
X136064Y1036918D01*
X136015Y1036989D01*
X135968Y1037062D01*
X135925Y1037137D01*
X135885Y1037214D01*
X135849Y1037292D01*
X135816Y1037373D01*
X135787Y1037454D01*
X135762Y1037537D01*
X135740Y1037621D01*
X135723Y1037706D01*
X135723Y1037707D02*
X135700Y1037844D01*
X135680Y1037983D01*
X135665Y1038121D01*
X135653Y1038260D01*
X135645Y1038400D01*
X135642Y1038539D01*
X135641Y1038679D01*
X135645Y1038818D01*
X135653Y1038957D01*
X135664Y1039096D01*
X135680Y1039235D01*
X135699Y1039373D01*
X135722Y1039511D01*
X135749Y1039648D01*
X135780Y1039784D01*
X135814Y1039919D01*
X135852Y1040053D01*
X135894Y1040187D01*
X135940Y1040318D01*
X135989Y1040449D01*
X136042Y1040578D01*
X136098Y1040706D01*
X136158Y1040832D01*
X136221Y1040956D01*
X136288Y1041079D01*
X136358Y1041199D01*
X140168Y1038659D02*
X141121Y1040247D01*
X141120Y1040247D02*
X141167Y1040320D01*
X141216Y1040391D01*
X141269Y1040460D01*
X141325Y1040526D01*
X141384Y1040590D01*
X141445Y1040651D01*
X141509Y1040709D01*
X141576Y1040764D01*
X141646Y1040816D01*
X141717Y1040864D01*
X141791Y1040910D01*
X141867Y1040952D01*
X141945Y1040990D01*
X142024Y1041025D01*
X142105Y1041056D01*
X142187Y1041083D01*
X142270Y1041107D01*
X142355Y1041127D01*
X142440Y1041143D01*
X142526Y1041155D01*
X142612Y1041163D01*
X142698Y1041167D01*
X142785Y1041168D01*
X142872Y1041164D01*
X142958Y1041156D01*
X143044Y1041145D01*
X143129Y1041129D01*
X143213Y1041110D01*
X143297Y1041087D01*
X143379Y1041060D01*
X143460Y1041029D01*
X143540Y1040994D01*
X143617Y1040957D01*
X143693Y1040915D01*
X143768Y1040870D01*
X143839Y1040822D01*
X143909Y1040770D01*
X143976Y1040716D01*
X144041Y1040658D01*
X144103Y1040598D01*
X144162Y1040534D01*
X144218Y1040468D01*
X144272Y1040400D01*
X144321Y1040329D01*
X144368Y1040256D01*
X144411Y1040181D01*
X144451Y1040104D01*
X144487Y1040026D01*
X144520Y1039945D01*
X144549Y1039864D01*
X144574Y1039781D01*
X144596Y1039697D01*
X144613Y1039612D01*
X144613Y1039611D02*
X144636Y1039474D01*
X144656Y1039335D01*
X144671Y1039197D01*
X144683Y1039058D01*
X144691Y1038918D01*
X144694Y1038779D01*
X144695Y1038639D01*
X144691Y1038500D01*
X144683Y1038361D01*
X144672Y1038222D01*
X144656Y1038083D01*
X144637Y1037945D01*
X144614Y1037807D01*
X144587Y1037670D01*
X144556Y1037534D01*
X144522Y1037399D01*
X144484Y1037265D01*
X144442Y1037131D01*
X144396Y1037000D01*
X144347Y1036869D01*
X144294Y1036740D01*
X144238Y1036612D01*
X144178Y1036486D01*
X144115Y1036362D01*
X144048Y1036239D01*
X143978Y1036119D01*
X136993Y1046152D02*
X134453Y1049327D01*
X145883Y1049327D01*
X145883Y1046152D02*
X145883Y1052502D01*
D13*
X467430Y959245D02*
X482000Y959245D01*
X529000Y957975D02*
X532000Y957975D01*
X568570Y874725D02*
X568570Y836245D01*
X467430Y907375D02*
X467430Y959245D01*
X568570Y959245D02*
X568570Y907365D01*
X467430Y874725D02*
X467430Y836245D01*
X568570Y836245D01*
X568270Y959245D02*
X554000Y959245D01*
X507000Y957975D02*
X504000Y957975D01*
D12*
X510948Y833190D02*
X512556Y828364D01*
X514165Y833190D01*
X516949Y833190D02*
X516949Y828364D01*
X516949Y833190D02*
X518289Y833190D01*
X518360Y833188D01*
X518432Y833182D01*
X518502Y833173D01*
X518572Y833160D01*
X518642Y833143D01*
X518710Y833122D01*
X518777Y833098D01*
X518843Y833070D01*
X518907Y833039D01*
X518970Y833004D01*
X519030Y832966D01*
X519089Y832925D01*
X519145Y832881D01*
X519199Y832834D01*
X519250Y832785D01*
X519298Y832732D01*
X519344Y832677D01*
X519386Y832620D01*
X519426Y832560D01*
X519462Y832499D01*
X519495Y832435D01*
X519524Y832370D01*
X519550Y832304D01*
X519573Y832236D01*
X519592Y832167D01*
X519607Y832097D01*
X519618Y832027D01*
X519626Y831956D01*
X519630Y831885D01*
X519630Y831813D01*
X519626Y831742D01*
X519618Y831671D01*
X519607Y831601D01*
X519592Y831531D01*
X519573Y831462D01*
X519550Y831394D01*
X519524Y831328D01*
X519495Y831263D01*
X519462Y831199D01*
X519426Y831138D01*
X519386Y831078D01*
X519344Y831021D01*
X519298Y830966D01*
X519250Y830913D01*
X519199Y830864D01*
X519145Y830817D01*
X519089Y830773D01*
X519030Y830732D01*
X518970Y830694D01*
X518907Y830659D01*
X518843Y830628D01*
X518777Y830600D01*
X518710Y830576D01*
X518642Y830555D01*
X518572Y830538D01*
X518502Y830525D01*
X518432Y830516D01*
X518360Y830510D01*
X518289Y830508D01*
X518289Y830509D02*
X516949Y830509D01*
X518557Y830509D02*
X519630Y828364D01*
X522371Y832118D02*
X523712Y833190D01*
X523712Y828364D01*
X525052Y828364D02*
X522371Y828364D01*
D13*
X358000Y959245D02*
X343430Y959245D01*
X405000Y957975D02*
X408000Y957975D01*
X444570Y874725D02*
X444570Y836245D01*
X343430Y907375D02*
X343430Y959245D01*
X444570Y959245D02*
X444570Y907365D01*
X343430Y874725D02*
X343430Y836245D01*
X444570Y836245D01*
X444270Y959245D02*
X430000Y959245D01*
X383000Y957975D02*
X380000Y957975D01*
D12*
X386948Y833190D02*
X388556Y828364D01*
X390165Y833190D01*
X392949Y833190D02*
X392949Y828364D01*
X392949Y833190D02*
X394289Y833190D01*
X394360Y833188D01*
X394432Y833182D01*
X394502Y833173D01*
X394572Y833160D01*
X394642Y833143D01*
X394710Y833122D01*
X394777Y833098D01*
X394843Y833070D01*
X394907Y833039D01*
X394970Y833004D01*
X395030Y832966D01*
X395089Y832925D01*
X395145Y832881D01*
X395199Y832834D01*
X395250Y832785D01*
X395298Y832732D01*
X395344Y832677D01*
X395386Y832620D01*
X395426Y832560D01*
X395462Y832499D01*
X395495Y832435D01*
X395524Y832370D01*
X395550Y832304D01*
X395573Y832236D01*
X395592Y832167D01*
X395607Y832097D01*
X395618Y832027D01*
X395626Y831956D01*
X395630Y831885D01*
X395630Y831813D01*
X395626Y831742D01*
X395618Y831671D01*
X395607Y831601D01*
X395592Y831531D01*
X395573Y831462D01*
X395550Y831394D01*
X395524Y831328D01*
X395495Y831263D01*
X395462Y831199D01*
X395426Y831138D01*
X395386Y831078D01*
X395344Y831021D01*
X395298Y830966D01*
X395250Y830913D01*
X395199Y830864D01*
X395145Y830817D01*
X395089Y830773D01*
X395030Y830732D01*
X394970Y830694D01*
X394907Y830659D01*
X394843Y830628D01*
X394777Y830600D01*
X394710Y830576D01*
X394642Y830555D01*
X394572Y830538D01*
X394502Y830525D01*
X394432Y830516D01*
X394360Y830510D01*
X394289Y830508D01*
X394289Y830509D02*
X392949Y830509D01*
X394557Y830509D02*
X395630Y828364D01*
X399846Y833190D02*
X399914Y833188D01*
X399981Y833182D01*
X400048Y833173D01*
X400115Y833160D01*
X400180Y833143D01*
X400245Y833122D01*
X400308Y833098D01*
X400370Y833070D01*
X400430Y833039D01*
X400488Y833005D01*
X400544Y832967D01*
X400599Y832927D01*
X400650Y832883D01*
X400699Y832836D01*
X400746Y832787D01*
X400790Y832736D01*
X400830Y832681D01*
X400868Y832625D01*
X400902Y832567D01*
X400933Y832507D01*
X400961Y832445D01*
X400985Y832382D01*
X401006Y832317D01*
X401023Y832252D01*
X401036Y832185D01*
X401045Y832118D01*
X401051Y832051D01*
X401053Y831983D01*
X399846Y833190D02*
X399768Y833188D01*
X399690Y833182D01*
X399613Y833172D01*
X399536Y833159D01*
X399460Y833141D01*
X399385Y833120D01*
X399311Y833095D01*
X399239Y833066D01*
X399168Y833034D01*
X399099Y832998D01*
X399031Y832959D01*
X398966Y832916D01*
X398903Y832870D01*
X398842Y832821D01*
X398784Y832769D01*
X398729Y832714D01*
X398676Y832657D01*
X398627Y832597D01*
X398580Y832534D01*
X398537Y832470D01*
X398497Y832403D01*
X398460Y832334D01*
X398427Y832263D01*
X398397Y832191D01*
X398371Y832118D01*
X400651Y831045D02*
X400700Y831094D01*
X400747Y831146D01*
X400790Y831201D01*
X400831Y831258D01*
X400869Y831317D01*
X400903Y831378D01*
X400934Y831441D01*
X400962Y831505D01*
X400986Y831571D01*
X401006Y831637D01*
X401023Y831705D01*
X401036Y831774D01*
X401045Y831843D01*
X401051Y831913D01*
X401053Y831983D01*
X400650Y831045D02*
X398371Y828364D01*
X401052Y828364D01*
D13*
X234000Y959245D02*
X219430Y959245D01*
X281000Y957975D02*
X284000Y957975D01*
X320570Y874725D02*
X320570Y836245D01*
X219430Y907375D02*
X219430Y959245D01*
X320570Y959245D02*
X320570Y907365D01*
X219430Y874725D02*
X219430Y836245D01*
X320570Y836245D01*
X320270Y959245D02*
X306000Y959245D01*
X259000Y957975D02*
X256000Y957975D01*
D12*
X262948Y833190D02*
X264556Y828364D01*
X266165Y833190D01*
X268949Y833190D02*
X268949Y828364D01*
X268949Y833190D02*
X270289Y833190D01*
X270360Y833188D01*
X270432Y833182D01*
X270502Y833173D01*
X270572Y833160D01*
X270642Y833143D01*
X270710Y833122D01*
X270777Y833098D01*
X270843Y833070D01*
X270907Y833039D01*
X270970Y833004D01*
X271030Y832966D01*
X271089Y832925D01*
X271145Y832881D01*
X271199Y832834D01*
X271250Y832785D01*
X271298Y832732D01*
X271344Y832677D01*
X271386Y832620D01*
X271426Y832560D01*
X271462Y832499D01*
X271495Y832435D01*
X271524Y832370D01*
X271550Y832304D01*
X271573Y832236D01*
X271592Y832167D01*
X271607Y832097D01*
X271618Y832027D01*
X271626Y831956D01*
X271630Y831885D01*
X271630Y831813D01*
X271626Y831742D01*
X271618Y831671D01*
X271607Y831601D01*
X271592Y831531D01*
X271573Y831462D01*
X271550Y831394D01*
X271524Y831328D01*
X271495Y831263D01*
X271462Y831199D01*
X271426Y831138D01*
X271386Y831078D01*
X271344Y831021D01*
X271298Y830966D01*
X271250Y830913D01*
X271199Y830864D01*
X271145Y830817D01*
X271089Y830773D01*
X271030Y830732D01*
X270970Y830694D01*
X270907Y830659D01*
X270843Y830628D01*
X270777Y830600D01*
X270710Y830576D01*
X270642Y830555D01*
X270572Y830538D01*
X270502Y830525D01*
X270432Y830516D01*
X270360Y830510D01*
X270289Y830508D01*
X270289Y830509D02*
X268949Y830509D01*
X270557Y830509D02*
X271630Y828364D01*
X274371Y828364D02*
X275712Y828364D01*
X275783Y828366D01*
X275855Y828372D01*
X275925Y828381D01*
X275995Y828394D01*
X276065Y828411D01*
X276133Y828432D01*
X276200Y828456D01*
X276266Y828484D01*
X276330Y828515D01*
X276393Y828550D01*
X276453Y828588D01*
X276512Y828629D01*
X276568Y828673D01*
X276622Y828720D01*
X276673Y828769D01*
X276721Y828822D01*
X276767Y828877D01*
X276809Y828934D01*
X276849Y828994D01*
X276885Y829055D01*
X276918Y829119D01*
X276947Y829184D01*
X276973Y829250D01*
X276996Y829318D01*
X277015Y829387D01*
X277030Y829457D01*
X277041Y829527D01*
X277049Y829598D01*
X277053Y829669D01*
X277053Y829741D01*
X277049Y829812D01*
X277041Y829883D01*
X277030Y829953D01*
X277015Y830023D01*
X276996Y830092D01*
X276973Y830160D01*
X276947Y830226D01*
X276918Y830291D01*
X276885Y830355D01*
X276849Y830416D01*
X276809Y830476D01*
X276767Y830533D01*
X276721Y830588D01*
X276673Y830641D01*
X276622Y830690D01*
X276568Y830737D01*
X276512Y830781D01*
X276453Y830822D01*
X276393Y830860D01*
X276330Y830895D01*
X276266Y830926D01*
X276200Y830954D01*
X276133Y830978D01*
X276065Y830999D01*
X275995Y831016D01*
X275925Y831029D01*
X275855Y831038D01*
X275783Y831044D01*
X275712Y831046D01*
X275980Y833190D02*
X274371Y833190D01*
X275980Y833190D02*
X276045Y833188D01*
X276109Y833182D01*
X276173Y833172D01*
X276237Y833159D01*
X276299Y833141D01*
X276360Y833120D01*
X276420Y833096D01*
X276478Y833067D01*
X276535Y833035D01*
X276589Y833000D01*
X276641Y832962D01*
X276691Y832920D01*
X276738Y832876D01*
X276782Y832829D01*
X276824Y832779D01*
X276862Y832727D01*
X276897Y832673D01*
X276929Y832616D01*
X276958Y832558D01*
X276982Y832498D01*
X277003Y832437D01*
X277021Y832375D01*
X277034Y832311D01*
X277044Y832247D01*
X277050Y832183D01*
X277052Y832118D01*
X277050Y832053D01*
X277044Y831989D01*
X277034Y831925D01*
X277021Y831861D01*
X277003Y831799D01*
X276982Y831738D01*
X276958Y831678D01*
X276929Y831620D01*
X276897Y831563D01*
X276862Y831509D01*
X276824Y831457D01*
X276782Y831407D01*
X276738Y831360D01*
X276691Y831316D01*
X276641Y831274D01*
X276589Y831236D01*
X276535Y831201D01*
X276478Y831169D01*
X276420Y831140D01*
X276360Y831116D01*
X276299Y831095D01*
X276237Y831077D01*
X276173Y831064D01*
X276109Y831054D01*
X276045Y831048D01*
X275980Y831046D01*
X275980Y831045D02*
X274908Y831045D01*
D13*
X591430Y959245D02*
X606000Y959245D01*
X653000Y957975D02*
X656000Y957975D01*
X692570Y874725D02*
X692570Y836245D01*
X591430Y907375D02*
X591430Y959245D01*
X692570Y959245D02*
X692570Y907365D01*
X591430Y874725D02*
X591430Y836245D01*
X692570Y836245D01*
X692270Y959245D02*
X678000Y959245D01*
X631000Y957975D02*
X628000Y957975D01*
D12*
X634948Y833190D02*
X636556Y828364D01*
X638165Y833190D01*
X640949Y833190D02*
X640949Y828364D01*
X640949Y833190D02*
X642289Y833190D01*
X642360Y833188D01*
X642432Y833182D01*
X642502Y833173D01*
X642572Y833160D01*
X642642Y833143D01*
X642710Y833122D01*
X642777Y833098D01*
X642843Y833070D01*
X642907Y833039D01*
X642970Y833004D01*
X643030Y832966D01*
X643089Y832925D01*
X643145Y832881D01*
X643199Y832834D01*
X643250Y832785D01*
X643298Y832732D01*
X643344Y832677D01*
X643386Y832620D01*
X643426Y832560D01*
X643462Y832499D01*
X643495Y832435D01*
X643524Y832370D01*
X643550Y832304D01*
X643573Y832236D01*
X643592Y832167D01*
X643607Y832097D01*
X643618Y832027D01*
X643626Y831956D01*
X643630Y831885D01*
X643630Y831813D01*
X643626Y831742D01*
X643618Y831671D01*
X643607Y831601D01*
X643592Y831531D01*
X643573Y831462D01*
X643550Y831394D01*
X643524Y831328D01*
X643495Y831263D01*
X643462Y831199D01*
X643426Y831138D01*
X643386Y831078D01*
X643344Y831021D01*
X643298Y830966D01*
X643250Y830913D01*
X643199Y830864D01*
X643145Y830817D01*
X643089Y830773D01*
X643030Y830732D01*
X642970Y830694D01*
X642907Y830659D01*
X642843Y830628D01*
X642777Y830600D01*
X642710Y830576D01*
X642642Y830555D01*
X642572Y830538D01*
X642502Y830525D01*
X642432Y830516D01*
X642360Y830510D01*
X642289Y830508D01*
X642289Y830509D02*
X640949Y830509D01*
X642557Y830509D02*
X643630Y828364D01*
X646371Y829436D02*
X647444Y833190D01*
X646371Y829436D02*
X649052Y829436D01*
X648248Y830509D02*
X648248Y828364D01*
D13*
X715430Y959245D02*
X730000Y959245D01*
X777000Y957975D02*
X780000Y957975D01*
X816570Y874725D02*
X816570Y836245D01*
X715430Y907375D02*
X715430Y959245D01*
X816570Y959245D02*
X816570Y907365D01*
X715430Y874725D02*
X715430Y836245D01*
X816570Y836245D01*
X816270Y959245D02*
X802000Y959245D01*
X755000Y957975D02*
X752000Y957975D01*
D12*
X758948Y833190D02*
X760556Y828364D01*
X762165Y833190D01*
X764949Y833190D02*
X764949Y828364D01*
X764949Y833190D02*
X766289Y833190D01*
X766360Y833188D01*
X766432Y833182D01*
X766502Y833173D01*
X766572Y833160D01*
X766642Y833143D01*
X766710Y833122D01*
X766777Y833098D01*
X766843Y833070D01*
X766907Y833039D01*
X766970Y833004D01*
X767030Y832966D01*
X767089Y832925D01*
X767145Y832881D01*
X767199Y832834D01*
X767250Y832785D01*
X767298Y832732D01*
X767344Y832677D01*
X767386Y832620D01*
X767426Y832560D01*
X767462Y832499D01*
X767495Y832435D01*
X767524Y832370D01*
X767550Y832304D01*
X767573Y832236D01*
X767592Y832167D01*
X767607Y832097D01*
X767618Y832027D01*
X767626Y831956D01*
X767630Y831885D01*
X767630Y831813D01*
X767626Y831742D01*
X767618Y831671D01*
X767607Y831601D01*
X767592Y831531D01*
X767573Y831462D01*
X767550Y831394D01*
X767524Y831328D01*
X767495Y831263D01*
X767462Y831199D01*
X767426Y831138D01*
X767386Y831078D01*
X767344Y831021D01*
X767298Y830966D01*
X767250Y830913D01*
X767199Y830864D01*
X767145Y830817D01*
X767089Y830773D01*
X767030Y830732D01*
X766970Y830694D01*
X766907Y830659D01*
X766843Y830628D01*
X766777Y830600D01*
X766710Y830576D01*
X766642Y830555D01*
X766572Y830538D01*
X766502Y830525D01*
X766432Y830516D01*
X766360Y830510D01*
X766289Y830508D01*
X766289Y830509D02*
X764949Y830509D01*
X766557Y830509D02*
X767630Y828364D01*
X770371Y828364D02*
X771980Y828364D01*
X772045Y828366D01*
X772109Y828372D01*
X772173Y828382D01*
X772237Y828395D01*
X772299Y828413D01*
X772360Y828434D01*
X772420Y828458D01*
X772478Y828487D01*
X772535Y828519D01*
X772589Y828554D01*
X772641Y828592D01*
X772691Y828634D01*
X772738Y828678D01*
X772782Y828725D01*
X772824Y828775D01*
X772862Y828827D01*
X772897Y828881D01*
X772929Y828938D01*
X772958Y828996D01*
X772982Y829056D01*
X773003Y829117D01*
X773021Y829179D01*
X773034Y829243D01*
X773044Y829307D01*
X773050Y829371D01*
X773052Y829436D01*
X773052Y829973D01*
X773050Y830038D01*
X773044Y830102D01*
X773034Y830166D01*
X773021Y830230D01*
X773003Y830292D01*
X772982Y830353D01*
X772958Y830413D01*
X772929Y830471D01*
X772897Y830528D01*
X772862Y830582D01*
X772824Y830634D01*
X772782Y830684D01*
X772738Y830731D01*
X772691Y830775D01*
X772641Y830817D01*
X772589Y830855D01*
X772535Y830890D01*
X772478Y830922D01*
X772420Y830951D01*
X772360Y830975D01*
X772299Y830996D01*
X772237Y831014D01*
X772173Y831027D01*
X772109Y831037D01*
X772045Y831043D01*
X771980Y831045D01*
X770371Y831045D01*
X770371Y833190D01*
X773052Y833190D01*
D13*
X839430Y959245D02*
X854000Y959245D01*
X901000Y957975D02*
X904000Y957975D01*
X940570Y874725D02*
X940570Y836245D01*
X839430Y907375D02*
X839430Y959245D01*
X940570Y959245D02*
X940570Y907365D01*
X839430Y874725D02*
X839430Y836245D01*
X940570Y836245D01*
X940270Y959245D02*
X926000Y959245D01*
X879000Y957975D02*
X876000Y957975D01*
D12*
X882948Y833190D02*
X884556Y828364D01*
X886165Y833190D01*
X888949Y833190D02*
X888949Y828364D01*
X888949Y833190D02*
X890289Y833190D01*
X890360Y833188D01*
X890432Y833182D01*
X890502Y833173D01*
X890572Y833160D01*
X890642Y833143D01*
X890710Y833122D01*
X890777Y833098D01*
X890843Y833070D01*
X890907Y833039D01*
X890970Y833004D01*
X891030Y832966D01*
X891089Y832925D01*
X891145Y832881D01*
X891199Y832834D01*
X891250Y832785D01*
X891298Y832732D01*
X891344Y832677D01*
X891386Y832620D01*
X891426Y832560D01*
X891462Y832499D01*
X891495Y832435D01*
X891524Y832370D01*
X891550Y832304D01*
X891573Y832236D01*
X891592Y832167D01*
X891607Y832097D01*
X891618Y832027D01*
X891626Y831956D01*
X891630Y831885D01*
X891630Y831813D01*
X891626Y831742D01*
X891618Y831671D01*
X891607Y831601D01*
X891592Y831531D01*
X891573Y831462D01*
X891550Y831394D01*
X891524Y831328D01*
X891495Y831263D01*
X891462Y831199D01*
X891426Y831138D01*
X891386Y831078D01*
X891344Y831021D01*
X891298Y830966D01*
X891250Y830913D01*
X891199Y830864D01*
X891145Y830817D01*
X891089Y830773D01*
X891030Y830732D01*
X890970Y830694D01*
X890907Y830659D01*
X890843Y830628D01*
X890777Y830600D01*
X890710Y830576D01*
X890642Y830555D01*
X890572Y830538D01*
X890502Y830525D01*
X890432Y830516D01*
X890360Y830510D01*
X890289Y830508D01*
X890289Y830509D02*
X888949Y830509D01*
X890557Y830509D02*
X891630Y828364D01*
X894371Y832654D02*
X894371Y833190D01*
X897052Y833190D01*
X895712Y828364D01*
D13*
X189050Y805400D02*
X150950Y805400D01*
D16*
X150163Y806238D02*
X151535Y804409D01*
X151534Y804409D02*
X150943Y803950D01*
X150363Y803477D01*
X149795Y802990D01*
X149239Y802489D01*
X148696Y801975D01*
X148165Y801448D01*
X147647Y800908D01*
X147142Y800355D01*
X146652Y799790D01*
X146175Y799213D01*
X145712Y798625D01*
X145264Y798026D01*
X144831Y797415D01*
X144412Y796795D01*
X144010Y796164D01*
X143622Y795524D01*
X143250Y794875D01*
X142895Y794216D01*
X142555Y793549D01*
X142232Y792874D01*
X141926Y792191D01*
X141636Y791501D01*
X141363Y790805D01*
X141108Y790101D01*
X140870Y789392D01*
X140649Y788677D01*
X140445Y787957D01*
X140260Y787232D01*
X140092Y786503D01*
X139942Y785769D01*
X139810Y785033D01*
X139696Y784293D01*
X139600Y783551D01*
X139522Y782807D01*
X139462Y782061D01*
X139421Y781314D01*
X139398Y780566D01*
X139394Y779817D01*
X139407Y779069D01*
X139439Y778321D01*
X139489Y777575D01*
X139558Y776830D01*
X139644Y776086D01*
X139749Y775345D01*
X139872Y774607D01*
X140013Y773872D01*
X140171Y773141D01*
X140348Y772414D01*
X140542Y771691D01*
X140754Y770973D01*
X140984Y770261D01*
X141231Y769555D01*
X141495Y768854D01*
X141776Y768161D01*
X142073Y767474D01*
X142388Y766795D01*
X142719Y766124D01*
X143066Y765461D01*
X143430Y764807D01*
X143809Y764162D01*
X144204Y763527D01*
X144615Y762901D01*
X145040Y762285D01*
X145481Y761680D01*
X145936Y761086D01*
X146406Y760504D01*
X146890Y759933D01*
X147387Y759374D01*
X147898Y758827D01*
X148422Y758293D01*
X148959Y757772D01*
X149509Y757264D01*
X150071Y756770D01*
X150645Y756290D01*
X151230Y755824D01*
X151827Y755372D01*
X152435Y754935D01*
X153053Y754513D01*
X153681Y754106D01*
X154319Y753715D01*
X154966Y753340D01*
X155622Y752980D01*
X156287Y752637D01*
X156960Y752310D01*
X157641Y751999D01*
X158329Y751705D01*
X159025Y751429D01*
X159726Y751169D01*
X160434Y750926D01*
X161148Y750701D01*
X161867Y750493D01*
X162591Y750303D01*
X163319Y750131D01*
X164051Y749977D01*
X164787Y749840D01*
X165526Y749722D01*
X166268Y749621D01*
X167011Y749539D01*
X167757Y749475D01*
X168504Y749430D01*
X169252Y749402D01*
X170000Y749393D01*
X170748Y749402D01*
X171496Y749430D01*
X172243Y749475D01*
X172989Y749539D01*
X173732Y749621D01*
X174474Y749722D01*
X175213Y749840D01*
X175949Y749977D01*
X176681Y750131D01*
X177409Y750303D01*
X178133Y750493D01*
X178852Y750701D01*
X179566Y750926D01*
X180274Y751169D01*
X180975Y751429D01*
X181671Y751705D01*
X182359Y751999D01*
X183040Y752310D01*
X183713Y752637D01*
X184378Y752980D01*
X185034Y753340D01*
X185681Y753715D01*
X186319Y754106D01*
X186947Y754513D01*
X187565Y754935D01*
X188173Y755372D01*
X188770Y755824D01*
X189355Y756290D01*
X189929Y756770D01*
X190491Y757264D01*
X191041Y757772D01*
X191578Y758293D01*
X192102Y758827D01*
X192613Y759374D01*
X193110Y759933D01*
X193594Y760504D01*
X194064Y761086D01*
X194519Y761680D01*
X194960Y762285D01*
X195385Y762901D01*
X195796Y763527D01*
X196191Y764162D01*
X196570Y764807D01*
X196934Y765461D01*
X197281Y766124D01*
X197612Y766795D01*
X197927Y767474D01*
X198224Y768161D01*
X198505Y768854D01*
X198769Y769555D01*
X199016Y770261D01*
X199246Y770973D01*
X199458Y771691D01*
X199652Y772414D01*
X199829Y773141D01*
X199987Y773872D01*
X200128Y774607D01*
X200251Y775345D01*
X200356Y776086D01*
X200442Y776830D01*
X200511Y777575D01*
X200561Y778321D01*
X200593Y779069D01*
X200606Y779817D01*
X200602Y780566D01*
X200579Y781314D01*
X200538Y782061D01*
X200478Y782807D01*
X200400Y783551D01*
X200304Y784293D01*
X200190Y785033D01*
X200058Y785769D01*
X199908Y786503D01*
X199740Y787232D01*
X199555Y787957D01*
X199351Y788677D01*
X199130Y789392D01*
X198892Y790101D01*
X198637Y790805D01*
X198364Y791501D01*
X198074Y792191D01*
X197768Y792874D01*
X197445Y793549D01*
X197105Y794216D01*
X196750Y794875D01*
X196378Y795524D01*
X195990Y796164D01*
X195588Y796795D01*
X195169Y797415D01*
X194736Y798026D01*
X194288Y798625D01*
X193825Y799213D01*
X193348Y799790D01*
X192858Y800355D01*
X192353Y800908D01*
X191835Y801448D01*
X191304Y801975D01*
X190761Y802489D01*
X190205Y802990D01*
X189637Y803477D01*
X189057Y803950D01*
X188466Y804409D01*
X189837Y806238D01*
X190473Y805745D01*
X191096Y805237D01*
X191707Y804713D01*
X192305Y804175D01*
X192889Y803623D01*
X193460Y803056D01*
X194017Y802476D01*
X194559Y801882D01*
X195087Y801275D01*
X195599Y800655D01*
X196097Y800023D01*
X196579Y799379D01*
X197044Y798723D01*
X197494Y798056D01*
X197927Y797378D01*
X198344Y796690D01*
X198744Y795992D01*
X199126Y795285D01*
X199491Y794568D01*
X199838Y793843D01*
X200168Y793109D01*
X200479Y792367D01*
X200773Y791618D01*
X201048Y790863D01*
X201304Y790100D01*
X201542Y789332D01*
X201760Y788558D01*
X201960Y787779D01*
X202141Y786995D01*
X202302Y786207D01*
X202444Y785415D01*
X202567Y784620D01*
X202670Y783823D01*
X202754Y783023D01*
X202818Y782221D01*
X202862Y781418D01*
X202887Y780614D01*
X202892Y779810D01*
X202878Y779005D01*
X202844Y778202D01*
X202790Y777399D01*
X202717Y776598D01*
X202624Y775799D01*
X202511Y775003D01*
X202379Y774210D01*
X202228Y773420D01*
X202058Y772634D01*
X201868Y771852D01*
X201659Y771075D01*
X201431Y770304D01*
X201185Y769538D01*
X200920Y768779D01*
X200636Y768026D01*
X200334Y767281D01*
X200014Y766543D01*
X199676Y765813D01*
X199320Y765091D01*
X198947Y764379D01*
X198556Y763676D01*
X198149Y762983D01*
X197724Y762299D01*
X197283Y761627D01*
X196826Y760965D01*
X196352Y760315D01*
X195863Y759677D01*
X195359Y759050D01*
X194839Y758436D01*
X194304Y757836D01*
X193755Y757248D01*
X193191Y756674D01*
X192614Y756114D01*
X192023Y755568D01*
X191419Y755037D01*
X190803Y754521D01*
X190173Y754020D01*
X189532Y753534D01*
X188879Y753064D01*
X188215Y752611D01*
X187540Y752174D01*
X186854Y751753D01*
X186159Y751349D01*
X185453Y750963D01*
X184739Y750594D01*
X184015Y750242D01*
X183283Y749908D01*
X182544Y749593D01*
X181796Y749295D01*
X181042Y749016D01*
X180281Y748755D01*
X179514Y748513D01*
X178741Y748290D01*
X177963Y748086D01*
X177181Y747900D01*
X176394Y747734D01*
X175603Y747588D01*
X174809Y747460D01*
X174012Y747353D01*
X173212Y747264D01*
X172411Y747195D01*
X171608Y747146D01*
X170804Y747117D01*
X170000Y747107D01*
X169196Y747117D01*
X168392Y747146D01*
X167589Y747195D01*
X166788Y747264D01*
X165988Y747353D01*
X165191Y747460D01*
X164397Y747588D01*
X163606Y747734D01*
X162819Y747900D01*
X162037Y748086D01*
X161259Y748290D01*
X160486Y748513D01*
X159719Y748755D01*
X158958Y749016D01*
X158204Y749295D01*
X157456Y749593D01*
X156717Y749908D01*
X155985Y750242D01*
X155261Y750594D01*
X154547Y750963D01*
X153841Y751349D01*
X153146Y751753D01*
X152460Y752174D01*
X151785Y752611D01*
X151121Y753064D01*
X150468Y753534D01*
X149827Y754020D01*
X149197Y754521D01*
X148581Y755037D01*
X147977Y755568D01*
X147386Y756114D01*
X146809Y756674D01*
X146245Y757248D01*
X145696Y757836D01*
X145161Y758436D01*
X144641Y759050D01*
X144137Y759677D01*
X143648Y760315D01*
X143174Y760965D01*
X142717Y761627D01*
X142276Y762299D01*
X141851Y762983D01*
X141444Y763676D01*
X141053Y764379D01*
X140680Y765091D01*
X140324Y765813D01*
X139986Y766543D01*
X139666Y767281D01*
X139364Y768026D01*
X139080Y768779D01*
X138815Y769538D01*
X138569Y770304D01*
X138341Y771075D01*
X138132Y771852D01*
X137942Y772634D01*
X137772Y773420D01*
X137621Y774210D01*
X137489Y775003D01*
X137376Y775799D01*
X137283Y776598D01*
X137210Y777399D01*
X137156Y778202D01*
X137122Y779005D01*
X137108Y779810D01*
X137113Y780614D01*
X137138Y781418D01*
X137182Y782221D01*
X137246Y783023D01*
X137330Y783823D01*
X137433Y784620D01*
X137556Y785415D01*
X137698Y786207D01*
X137859Y786995D01*
X138040Y787779D01*
X138240Y788558D01*
X138458Y789332D01*
X138696Y790100D01*
X138952Y790863D01*
X139227Y791618D01*
X139521Y792367D01*
X139832Y793109D01*
X140162Y793843D01*
X140509Y794568D01*
X140874Y795285D01*
X141256Y795992D01*
X141656Y796690D01*
X142073Y797378D01*
X142506Y798056D01*
X142956Y798723D01*
X143421Y799379D01*
X143903Y800023D01*
X144401Y800655D01*
X144913Y801275D01*
X145441Y801882D01*
X145983Y802476D01*
X146540Y803056D01*
X147111Y803623D01*
X147695Y804175D01*
X148293Y804713D01*
X148904Y805237D01*
X149527Y805745D01*
X150163Y806238D01*
X150307Y806046D01*
X149676Y805557D01*
X149057Y805052D01*
X148451Y804533D01*
X147857Y803998D01*
X147277Y803450D01*
X146711Y802887D01*
X146158Y802311D01*
X145620Y801721D01*
X145096Y801119D01*
X144587Y800503D01*
X144093Y799876D01*
X143615Y799237D01*
X143152Y798586D01*
X142706Y797924D01*
X142276Y797251D01*
X141862Y796568D01*
X141466Y795875D01*
X141086Y795173D01*
X140724Y794461D01*
X140379Y793741D01*
X140052Y793013D01*
X139743Y792276D01*
X139452Y791533D01*
X139179Y790783D01*
X138924Y790026D01*
X138688Y789263D01*
X138471Y788495D01*
X138273Y787721D01*
X138094Y786943D01*
X137933Y786161D01*
X137792Y785375D01*
X137671Y784586D01*
X137568Y783794D01*
X137485Y783000D01*
X137421Y782204D01*
X137377Y781407D01*
X137353Y780609D01*
X137348Y779810D01*
X137362Y779012D01*
X137396Y778214D01*
X137449Y777418D01*
X137522Y776623D01*
X137614Y775830D01*
X137726Y775039D01*
X137857Y774251D01*
X138007Y773467D01*
X138176Y772687D01*
X138365Y771911D01*
X138572Y771140D01*
X138798Y770374D01*
X139043Y769614D01*
X139306Y768860D01*
X139588Y768113D01*
X139887Y767373D01*
X140205Y766640D01*
X140541Y765916D01*
X140894Y765200D01*
X141264Y764493D01*
X141652Y763795D01*
X142057Y763106D01*
X142478Y762428D01*
X142916Y761761D01*
X143370Y761104D01*
X143840Y760458D01*
X144326Y759825D01*
X144827Y759203D01*
X145343Y758594D01*
X145873Y757997D01*
X146419Y757414D01*
X146978Y756844D01*
X147551Y756288D01*
X148138Y755746D01*
X148737Y755219D01*
X149349Y754706D01*
X149974Y754209D01*
X150611Y753727D01*
X151259Y753261D01*
X151918Y752811D01*
X152588Y752377D01*
X153269Y751959D01*
X153960Y751558D01*
X154660Y751175D01*
X155369Y750808D01*
X156087Y750459D01*
X156814Y750128D01*
X157548Y749814D01*
X158290Y749519D01*
X159039Y749242D01*
X159794Y748983D01*
X160555Y748743D01*
X161322Y748521D01*
X162095Y748318D01*
X162872Y748135D01*
X163653Y747970D01*
X164438Y747824D01*
X165226Y747698D01*
X166018Y747591D01*
X166811Y747503D01*
X167607Y747435D01*
X168404Y747386D01*
X169202Y747357D01*
X170000Y747347D01*
X170798Y747357D01*
X171596Y747386D01*
X172393Y747435D01*
X173189Y747503D01*
X173982Y747591D01*
X174774Y747698D01*
X175562Y747824D01*
X176347Y747970D01*
X177128Y748135D01*
X177905Y748318D01*
X178678Y748521D01*
X179445Y748743D01*
X180206Y748983D01*
X180961Y749242D01*
X181710Y749519D01*
X182452Y749814D01*
X183186Y750128D01*
X183913Y750459D01*
X184631Y750808D01*
X185340Y751175D01*
X186040Y751558D01*
X186731Y751959D01*
X187412Y752377D01*
X188082Y752811D01*
X188741Y753261D01*
X189389Y753727D01*
X190026Y754209D01*
X190651Y754706D01*
X191263Y755219D01*
X191862Y755746D01*
X192449Y756288D01*
X193022Y756844D01*
X193581Y757414D01*
X194127Y757997D01*
X194657Y758594D01*
X195173Y759203D01*
X195674Y759825D01*
X196160Y760458D01*
X196630Y761104D01*
X197084Y761761D01*
X197522Y762428D01*
X197943Y763106D01*
X198348Y763795D01*
X198736Y764493D01*
X199106Y765200D01*
X199459Y765916D01*
X199795Y766640D01*
X200113Y767373D01*
X200412Y768113D01*
X200694Y768860D01*
X200957Y769614D01*
X201202Y770374D01*
X201428Y771140D01*
X201635Y771911D01*
X201824Y772687D01*
X201993Y773467D01*
X202143Y774251D01*
X202274Y775039D01*
X202386Y775830D01*
X202478Y776623D01*
X202551Y777418D01*
X202604Y778214D01*
X202638Y779012D01*
X202652Y779810D01*
X202647Y780609D01*
X202623Y781407D01*
X202579Y782204D01*
X202515Y783000D01*
X202432Y783794D01*
X202329Y784586D01*
X202208Y785375D01*
X202067Y786161D01*
X201906Y786943D01*
X201727Y787721D01*
X201529Y788495D01*
X201312Y789263D01*
X201076Y790026D01*
X200821Y790783D01*
X200548Y791533D01*
X200257Y792276D01*
X199948Y793013D01*
X199621Y793741D01*
X199276Y794461D01*
X198914Y795173D01*
X198534Y795875D01*
X198138Y796568D01*
X197724Y797251D01*
X197294Y797924D01*
X196848Y798586D01*
X196385Y799237D01*
X195907Y799876D01*
X195413Y800503D01*
X194904Y801119D01*
X194380Y801721D01*
X193842Y802311D01*
X193289Y802887D01*
X192723Y803450D01*
X192143Y803998D01*
X191549Y804533D01*
X190943Y805052D01*
X190324Y805557D01*
X189693Y806046D01*
X189549Y805854D01*
X190176Y805368D01*
X190790Y804867D01*
X191392Y804352D01*
X191981Y803821D01*
X192556Y803277D01*
X193119Y802718D01*
X193667Y802146D01*
X194202Y801561D01*
X194722Y800963D01*
X195227Y800352D01*
X195717Y799729D01*
X196192Y799095D01*
X196651Y798448D01*
X197094Y797791D01*
X197521Y797124D01*
X197931Y796445D01*
X198325Y795758D01*
X198702Y795060D01*
X199061Y794354D01*
X199404Y793639D01*
X199728Y792916D01*
X200035Y792186D01*
X200324Y791448D01*
X200595Y790703D01*
X200848Y789951D01*
X201082Y789194D01*
X201297Y788432D01*
X201494Y787664D01*
X201672Y786891D01*
X201831Y786115D01*
X201971Y785335D01*
X202092Y784552D01*
X202194Y783766D01*
X202276Y782977D01*
X202339Y782187D01*
X202383Y781396D01*
X202407Y780604D01*
X202412Y779811D01*
X202398Y779019D01*
X202364Y778227D01*
X202311Y777436D01*
X202239Y776647D01*
X202147Y775860D01*
X202037Y775075D01*
X201907Y774293D01*
X201758Y773515D01*
X201589Y772740D01*
X201403Y771970D01*
X201197Y771204D01*
X200972Y770444D01*
X200730Y769690D01*
X200468Y768942D01*
X200189Y768200D01*
X199891Y767465D01*
X199576Y766738D01*
X199243Y766019D01*
X198892Y765308D01*
X198524Y764606D01*
X198139Y763913D01*
X197738Y763230D01*
X197319Y762557D01*
X196885Y761894D01*
X196434Y761242D01*
X195967Y760602D01*
X195485Y759973D01*
X194988Y759355D01*
X194476Y758751D01*
X193949Y758159D01*
X193408Y757580D01*
X192853Y757014D01*
X192284Y756462D01*
X191702Y755924D01*
X191106Y755401D01*
X190499Y754892D01*
X189879Y754398D01*
X189247Y753920D01*
X188603Y753457D01*
X187949Y753010D01*
X187284Y752580D01*
X186608Y752165D01*
X185922Y751767D01*
X185227Y751387D01*
X184523Y751023D01*
X183810Y750676D01*
X183089Y750347D01*
X182360Y750036D01*
X181624Y749743D01*
X180881Y749468D01*
X180131Y749211D01*
X179375Y748972D01*
X178614Y748752D01*
X177847Y748551D01*
X177076Y748369D01*
X176300Y748205D01*
X175521Y748061D01*
X174738Y747935D01*
X173953Y747829D01*
X173165Y747742D01*
X172376Y747674D01*
X171585Y747626D01*
X170793Y747597D01*
X170000Y747587D01*
X169207Y747597D01*
X168415Y747626D01*
X167624Y747674D01*
X166835Y747742D01*
X166047Y747829D01*
X165262Y747935D01*
X164479Y748061D01*
X163700Y748205D01*
X162924Y748369D01*
X162153Y748551D01*
X161386Y748752D01*
X160625Y748972D01*
X159869Y749211D01*
X159119Y749468D01*
X158376Y749743D01*
X157640Y750036D01*
X156911Y750347D01*
X156190Y750676D01*
X155477Y751023D01*
X154773Y751387D01*
X154078Y751767D01*
X153392Y752165D01*
X152716Y752580D01*
X152051Y753010D01*
X151397Y753457D01*
X150753Y753920D01*
X150121Y754398D01*
X149501Y754892D01*
X148894Y755401D01*
X148298Y755924D01*
X147716Y756462D01*
X147147Y757014D01*
X146592Y757580D01*
X146051Y758159D01*
X145524Y758751D01*
X145012Y759355D01*
X144515Y759973D01*
X144033Y760602D01*
X143566Y761242D01*
X143115Y761894D01*
X142681Y762557D01*
X142262Y763230D01*
X141861Y763913D01*
X141476Y764606D01*
X141108Y765308D01*
X140757Y766019D01*
X140424Y766738D01*
X140109Y767465D01*
X139811Y768200D01*
X139532Y768942D01*
X139270Y769690D01*
X139028Y770444D01*
X138803Y771204D01*
X138597Y771970D01*
X138411Y772740D01*
X138242Y773515D01*
X138093Y774293D01*
X137963Y775075D01*
X137853Y775860D01*
X137761Y776647D01*
X137689Y777436D01*
X137636Y778227D01*
X137602Y779019D01*
X137588Y779811D01*
X137593Y780604D01*
X137617Y781396D01*
X137661Y782187D01*
X137724Y782977D01*
X137806Y783766D01*
X137908Y784552D01*
X138029Y785335D01*
X138169Y786115D01*
X138328Y786891D01*
X138506Y787664D01*
X138703Y788432D01*
X138918Y789194D01*
X139152Y789951D01*
X139405Y790703D01*
X139676Y791448D01*
X139965Y792186D01*
X140272Y792916D01*
X140596Y793639D01*
X140939Y794354D01*
X141298Y795060D01*
X141675Y795758D01*
X142069Y796445D01*
X142479Y797124D01*
X142906Y797791D01*
X143349Y798448D01*
X143808Y799095D01*
X144283Y799729D01*
X144773Y800352D01*
X145278Y800963D01*
X145798Y801561D01*
X146333Y802146D01*
X146881Y802718D01*
X147444Y803277D01*
X148019Y803821D01*
X148608Y804352D01*
X149210Y804867D01*
X149824Y805368D01*
X150451Y805854D01*
X150595Y805662D01*
X149973Y805180D01*
X149363Y804683D01*
X148766Y804171D01*
X148182Y803644D01*
X147610Y803104D01*
X147052Y802549D01*
X146507Y801982D01*
X145977Y801401D01*
X145461Y800807D01*
X144959Y800201D01*
X144473Y799582D01*
X144002Y798952D01*
X143546Y798311D01*
X143106Y797659D01*
X142683Y796996D01*
X142275Y796323D01*
X141884Y795640D01*
X141510Y794948D01*
X141154Y794247D01*
X140814Y793538D01*
X140492Y792820D01*
X140187Y792095D01*
X139900Y791362D01*
X139631Y790623D01*
X139381Y789877D01*
X139148Y789125D01*
X138934Y788368D01*
X138739Y787606D01*
X138562Y786840D01*
X138405Y786069D01*
X138266Y785295D01*
X138146Y784517D01*
X138045Y783737D01*
X137963Y782955D01*
X137900Y782170D01*
X137857Y781385D01*
X137833Y780599D01*
X137828Y779812D01*
X137842Y779025D01*
X137875Y778239D01*
X137928Y777455D01*
X138000Y776671D01*
X138091Y775890D01*
X138201Y775111D01*
X138330Y774335D01*
X138478Y773562D01*
X138645Y772793D01*
X138830Y772029D01*
X139034Y771269D01*
X139257Y770515D01*
X139498Y769766D01*
X139757Y769023D01*
X140035Y768287D01*
X140330Y767558D01*
X140643Y766836D01*
X140974Y766122D01*
X141322Y765417D01*
X141687Y764720D01*
X142069Y764032D01*
X142468Y763354D01*
X142883Y762686D01*
X143315Y762028D01*
X143762Y761381D01*
X144225Y760745D01*
X144704Y760121D01*
X145197Y759508D01*
X145706Y758908D01*
X146229Y758320D01*
X146766Y757745D01*
X147317Y757184D01*
X147881Y756636D01*
X148459Y756102D01*
X149050Y755583D01*
X149653Y755078D01*
X150269Y754588D01*
X150896Y754113D01*
X151535Y753654D01*
X152184Y753210D01*
X152845Y752782D01*
X153515Y752371D01*
X154196Y751976D01*
X154886Y751598D01*
X155585Y751237D01*
X156292Y750893D01*
X157008Y750567D01*
X157731Y750258D01*
X158462Y749967D01*
X159200Y749694D01*
X159944Y749439D01*
X160694Y749202D01*
X161450Y748984D01*
X162211Y748784D01*
X162977Y748603D01*
X163746Y748441D01*
X164520Y748297D01*
X165297Y748173D01*
X166076Y748067D01*
X166858Y747981D01*
X167642Y747914D01*
X168427Y747865D01*
X169213Y747837D01*
X170000Y747827D01*
X170787Y747837D01*
X171573Y747865D01*
X172358Y747914D01*
X173142Y747981D01*
X173924Y748067D01*
X174703Y748173D01*
X175480Y748297D01*
X176254Y748441D01*
X177023Y748603D01*
X177789Y748784D01*
X178550Y748984D01*
X179306Y749202D01*
X180056Y749439D01*
X180800Y749694D01*
X181538Y749967D01*
X182269Y750258D01*
X182992Y750567D01*
X183708Y750893D01*
X184415Y751237D01*
X185114Y751598D01*
X185804Y751976D01*
X186485Y752371D01*
X187155Y752782D01*
X187816Y753210D01*
X188465Y753654D01*
X189104Y754113D01*
X189731Y754588D01*
X190347Y755078D01*
X190950Y755583D01*
X191541Y756102D01*
X192119Y756636D01*
X192683Y757184D01*
X193234Y757745D01*
X193771Y758320D01*
X194294Y758908D01*
X194803Y759508D01*
X195296Y760121D01*
X195775Y760745D01*
X196238Y761381D01*
X196685Y762028D01*
X197117Y762686D01*
X197532Y763354D01*
X197931Y764032D01*
X198313Y764720D01*
X198678Y765417D01*
X199026Y766122D01*
X199357Y766836D01*
X199670Y767558D01*
X199965Y768287D01*
X200243Y769023D01*
X200502Y769766D01*
X200743Y770515D01*
X200966Y771269D01*
X201170Y772029D01*
X201355Y772793D01*
X201522Y773562D01*
X201670Y774335D01*
X201799Y775111D01*
X201909Y775890D01*
X202000Y776671D01*
X202072Y777455D01*
X202125Y778239D01*
X202158Y779025D01*
X202172Y779812D01*
X202167Y780599D01*
X202143Y781385D01*
X202100Y782170D01*
X202037Y782955D01*
X201955Y783737D01*
X201854Y784517D01*
X201734Y785295D01*
X201595Y786069D01*
X201438Y786840D01*
X201261Y787606D01*
X201066Y788368D01*
X200852Y789125D01*
X200619Y789877D01*
X200369Y790623D01*
X200100Y791362D01*
X199813Y792095D01*
X199508Y792820D01*
X199186Y793538D01*
X198846Y794247D01*
X198490Y794948D01*
X198116Y795640D01*
X197725Y796323D01*
X197317Y796996D01*
X196894Y797659D01*
X196454Y798311D01*
X195998Y798952D01*
X195527Y799582D01*
X195041Y800201D01*
X194539Y800807D01*
X194023Y801401D01*
X193493Y801982D01*
X192948Y802549D01*
X192390Y803104D01*
X191818Y803644D01*
X191234Y804171D01*
X190637Y804683D01*
X190027Y805180D01*
X189405Y805662D01*
X189261Y805470D01*
X189878Y804991D01*
X190483Y804498D01*
X191076Y803990D01*
X191656Y803467D01*
X192224Y802931D01*
X192778Y802381D01*
X193318Y801817D01*
X193845Y801240D01*
X194357Y800651D01*
X194854Y800049D01*
X195337Y799436D01*
X195805Y798810D01*
X196257Y798174D01*
X196693Y797526D01*
X197114Y796869D01*
X197518Y796201D01*
X197906Y795523D01*
X198277Y794836D01*
X198632Y794140D01*
X198969Y793436D01*
X199289Y792724D01*
X199591Y792004D01*
X199876Y791277D01*
X200142Y790543D01*
X200391Y789803D01*
X200622Y789057D01*
X200834Y788305D01*
X201028Y787549D01*
X201203Y786788D01*
X201360Y786023D01*
X201498Y785255D01*
X201617Y784483D01*
X201717Y783709D01*
X201798Y782932D01*
X201860Y782154D01*
X201903Y781374D01*
X201927Y780594D01*
X201932Y779813D01*
X201918Y779032D01*
X201885Y778252D01*
X201833Y777473D01*
X201762Y776695D01*
X201671Y775920D01*
X201562Y775147D01*
X201434Y774376D01*
X201287Y773610D01*
X201121Y772847D01*
X200937Y772088D01*
X200735Y771334D01*
X200513Y770585D01*
X200274Y769842D01*
X200017Y769105D01*
X199741Y768374D01*
X199448Y767650D01*
X199137Y766934D01*
X198809Y766225D01*
X198464Y765525D01*
X198101Y764834D01*
X197722Y764151D01*
X197326Y763478D01*
X196914Y762815D01*
X196486Y762162D01*
X196042Y761520D01*
X195582Y760888D01*
X195108Y760269D01*
X194618Y759661D01*
X194113Y759065D01*
X193594Y758482D01*
X193061Y757911D01*
X192514Y757354D01*
X191953Y756810D01*
X191380Y756280D01*
X190793Y755765D01*
X190195Y755264D01*
X189584Y754777D01*
X188961Y754306D01*
X188327Y753850D01*
X187683Y753410D01*
X187027Y752985D01*
X186362Y752577D01*
X185686Y752185D01*
X185001Y751810D01*
X184308Y751452D01*
X183606Y751110D01*
X182895Y750786D01*
X182177Y750480D01*
X181452Y750191D01*
X180719Y749920D01*
X179981Y749667D01*
X179236Y749432D01*
X178486Y749215D01*
X177731Y749017D01*
X176971Y748837D01*
X176207Y748676D01*
X175439Y748534D01*
X174668Y748410D01*
X173894Y748305D01*
X173118Y748220D01*
X172340Y748153D01*
X171561Y748105D01*
X170781Y748077D01*
X170000Y748067D01*
X169219Y748077D01*
X168439Y748105D01*
X167660Y748153D01*
X166882Y748220D01*
X166106Y748305D01*
X165332Y748410D01*
X164561Y748534D01*
X163793Y748676D01*
X163029Y748837D01*
X162269Y749017D01*
X161514Y749215D01*
X160764Y749432D01*
X160019Y749667D01*
X159281Y749920D01*
X158548Y750191D01*
X157823Y750480D01*
X157105Y750786D01*
X156394Y751110D01*
X155692Y751452D01*
X154999Y751810D01*
X154314Y752185D01*
X153638Y752577D01*
X152973Y752985D01*
X152317Y753410D01*
X151673Y753850D01*
X151039Y754306D01*
X150416Y754777D01*
X149805Y755264D01*
X149207Y755765D01*
X148620Y756280D01*
X148047Y756810D01*
X147486Y757354D01*
X146939Y757911D01*
X146406Y758482D01*
X145887Y759065D01*
X145382Y759661D01*
X144892Y760269D01*
X144418Y760888D01*
X143958Y761520D01*
X143514Y762162D01*
X143086Y762815D01*
X142674Y763478D01*
X142278Y764151D01*
X141899Y764834D01*
X141536Y765525D01*
X141191Y766225D01*
X140863Y766934D01*
X140552Y767650D01*
X140259Y768374D01*
X139983Y769105D01*
X139726Y769842D01*
X139487Y770585D01*
X139265Y771334D01*
X139063Y772088D01*
X138879Y772847D01*
X138713Y773610D01*
X138566Y774376D01*
X138438Y775147D01*
X138329Y775920D01*
X138238Y776695D01*
X138167Y777473D01*
X138115Y778252D01*
X138082Y779032D01*
X138068Y779813D01*
X138073Y780594D01*
X138097Y781374D01*
X138140Y782154D01*
X138202Y782932D01*
X138283Y783709D01*
X138383Y784483D01*
X138502Y785255D01*
X138640Y786023D01*
X138797Y786788D01*
X138972Y787549D01*
X139166Y788305D01*
X139378Y789057D01*
X139609Y789803D01*
X139858Y790543D01*
X140124Y791277D01*
X140409Y792004D01*
X140711Y792724D01*
X141031Y793436D01*
X141368Y794140D01*
X141723Y794836D01*
X142094Y795523D01*
X142482Y796201D01*
X142886Y796869D01*
X143307Y797526D01*
X143743Y798174D01*
X144195Y798810D01*
X144663Y799436D01*
X145146Y800049D01*
X145643Y800651D01*
X146155Y801240D01*
X146682Y801817D01*
X147222Y802381D01*
X147776Y802931D01*
X148344Y803467D01*
X148924Y803990D01*
X149517Y804498D01*
X150122Y804991D01*
X150739Y805470D01*
X150883Y805278D01*
X150270Y804803D01*
X149670Y804313D01*
X149082Y803809D01*
X148506Y803290D01*
X147943Y802758D01*
X147393Y802212D01*
X146857Y801652D01*
X146334Y801080D01*
X145826Y800495D01*
X145332Y799898D01*
X144853Y799289D01*
X144389Y798668D01*
X143940Y798037D01*
X143507Y797394D01*
X143089Y796741D01*
X142688Y796078D01*
X142303Y795406D01*
X141935Y794724D01*
X141583Y794033D01*
X141249Y793334D01*
X140931Y792627D01*
X140631Y791913D01*
X140349Y791191D01*
X140084Y790463D01*
X139837Y789728D01*
X139608Y788988D01*
X139398Y788242D01*
X139205Y787492D01*
X139031Y786736D01*
X138876Y785977D01*
X138739Y785214D01*
X138621Y784449D01*
X138521Y783680D01*
X138441Y782909D01*
X138379Y782137D01*
X138336Y781363D01*
X138312Y780589D01*
X138308Y779814D01*
X138322Y779039D01*
X138355Y778265D01*
X138406Y777491D01*
X138477Y776720D01*
X138567Y775950D01*
X138675Y775183D01*
X138802Y774418D01*
X138948Y773657D01*
X139113Y772900D01*
X139295Y772147D01*
X139497Y771398D01*
X139716Y770655D01*
X139954Y769918D01*
X140209Y769186D01*
X140482Y768461D01*
X140773Y767743D01*
X141082Y767032D01*
X141407Y766329D01*
X141750Y765634D01*
X142110Y764947D01*
X142486Y764270D01*
X142879Y763602D01*
X143288Y762944D01*
X143713Y762296D01*
X144154Y761658D01*
X144610Y761032D01*
X145081Y760417D01*
X145568Y759813D01*
X146068Y759222D01*
X146584Y758643D01*
X147113Y758077D01*
X147656Y757524D01*
X148212Y756984D01*
X148781Y756458D01*
X149363Y755947D01*
X149957Y755449D01*
X150564Y754967D01*
X151181Y754499D01*
X151810Y754046D01*
X152450Y753609D01*
X153101Y753188D01*
X153762Y752783D01*
X154432Y752394D01*
X155111Y752022D01*
X155800Y751666D01*
X156497Y751327D01*
X157202Y751006D01*
X157915Y750702D01*
X158635Y750415D01*
X159361Y750146D01*
X160094Y749895D01*
X160833Y749662D01*
X161578Y749447D01*
X162327Y749250D01*
X163082Y749071D01*
X163840Y748911D01*
X164602Y748770D01*
X165367Y748647D01*
X166135Y748544D01*
X166905Y748458D01*
X167677Y748392D01*
X168451Y748345D01*
X169225Y748316D01*
X170000Y748307D01*
X170775Y748316D01*
X171549Y748345D01*
X172323Y748392D01*
X173095Y748458D01*
X173865Y748544D01*
X174633Y748647D01*
X175398Y748770D01*
X176160Y748911D01*
X176918Y749071D01*
X177673Y749250D01*
X178422Y749447D01*
X179167Y749662D01*
X179906Y749895D01*
X180639Y750146D01*
X181365Y750415D01*
X182085Y750702D01*
X182798Y751006D01*
X183503Y751327D01*
X184200Y751666D01*
X184889Y752022D01*
X185568Y752394D01*
X186238Y752783D01*
X186899Y753188D01*
X187550Y753609D01*
X188190Y754046D01*
X188819Y754499D01*
X189436Y754967D01*
X190043Y755449D01*
X190637Y755947D01*
X191219Y756458D01*
X191788Y756984D01*
X192344Y757524D01*
X192887Y758077D01*
X193416Y758643D01*
X193932Y759222D01*
X194432Y759813D01*
X194919Y760417D01*
X195390Y761032D01*
X195846Y761658D01*
X196287Y762296D01*
X196712Y762944D01*
X197121Y763602D01*
X197514Y764270D01*
X197890Y764947D01*
X198250Y765634D01*
X198593Y766329D01*
X198918Y767032D01*
X199227Y767743D01*
X199518Y768461D01*
X199791Y769186D01*
X200046Y769918D01*
X200284Y770655D01*
X200503Y771398D01*
X200705Y772147D01*
X200887Y772900D01*
X201052Y773657D01*
X201198Y774418D01*
X201325Y775183D01*
X201433Y775950D01*
X201523Y776720D01*
X201594Y777491D01*
X201645Y778265D01*
X201678Y779039D01*
X201692Y779814D01*
X201688Y780589D01*
X201664Y781363D01*
X201621Y782137D01*
X201559Y782909D01*
X201479Y783680D01*
X201379Y784449D01*
X201261Y785214D01*
X201124Y785977D01*
X200969Y786736D01*
X200795Y787492D01*
X200602Y788242D01*
X200392Y788988D01*
X200163Y789728D01*
X199916Y790463D01*
X199651Y791191D01*
X199369Y791913D01*
X199069Y792627D01*
X198751Y793334D01*
X198417Y794033D01*
X198065Y794724D01*
X197697Y795406D01*
X197312Y796078D01*
X196911Y796741D01*
X196493Y797394D01*
X196060Y798037D01*
X195611Y798668D01*
X195147Y799289D01*
X194668Y799898D01*
X194174Y800495D01*
X193666Y801080D01*
X193143Y801652D01*
X192607Y802212D01*
X192057Y802758D01*
X191494Y803290D01*
X190918Y803809D01*
X190330Y804313D01*
X189730Y804803D01*
X189117Y805278D01*
X188973Y805086D01*
X189581Y804615D01*
X190177Y804129D01*
X190761Y803628D01*
X191332Y803113D01*
X191891Y802585D01*
X192437Y802043D01*
X192969Y801488D01*
X193487Y800920D01*
X193992Y800339D01*
X194482Y799747D01*
X194957Y799142D01*
X195418Y798526D01*
X195863Y797899D01*
X196293Y797262D01*
X196707Y796614D01*
X197105Y795956D01*
X197487Y795288D01*
X197853Y794612D01*
X198202Y793926D01*
X198534Y793233D01*
X198849Y792531D01*
X199147Y791822D01*
X199427Y791106D01*
X199690Y790383D01*
X199935Y789654D01*
X200162Y788919D01*
X200371Y788179D01*
X200562Y787434D01*
X200734Y786685D01*
X200889Y785931D01*
X201024Y785174D01*
X201142Y784414D01*
X201240Y783652D01*
X201320Y782887D01*
X201381Y782120D01*
X201424Y781352D01*
X201448Y780583D01*
X201452Y779814D01*
X201439Y779046D01*
X201406Y778277D01*
X201354Y777510D01*
X201284Y776744D01*
X201195Y775980D01*
X201087Y775219D01*
X200961Y774460D01*
X200817Y773705D01*
X200653Y772953D01*
X200472Y772206D01*
X200272Y771463D01*
X200055Y770726D01*
X199819Y769993D01*
X199565Y769267D01*
X199294Y768548D01*
X199005Y767835D01*
X198699Y767129D01*
X198376Y766432D01*
X198036Y765742D01*
X197679Y765061D01*
X197305Y764389D01*
X196915Y763726D01*
X196509Y763072D01*
X196088Y762429D01*
X195650Y761797D01*
X195197Y761175D01*
X194730Y760565D01*
X194247Y759966D01*
X193750Y759379D01*
X193239Y758805D01*
X192714Y758243D01*
X192175Y757694D01*
X191623Y757158D01*
X191058Y756637D01*
X190481Y756129D01*
X189891Y755635D01*
X189289Y755156D01*
X188676Y754692D01*
X188052Y754243D01*
X187416Y753809D01*
X186771Y753391D01*
X186115Y752989D01*
X185450Y752603D01*
X184776Y752234D01*
X184092Y751881D01*
X183401Y751545D01*
X182701Y751225D01*
X181994Y750923D01*
X181279Y750639D01*
X180558Y750372D01*
X179830Y750123D01*
X179097Y749891D01*
X178358Y749678D01*
X177614Y749483D01*
X176866Y749306D01*
X176113Y749147D01*
X175357Y749007D01*
X174598Y748885D01*
X173836Y748782D01*
X173071Y748697D01*
X172305Y748632D01*
X171538Y748585D01*
X170769Y748556D01*
X170000Y748547D01*
X169231Y748556D01*
X168462Y748585D01*
X167695Y748632D01*
X166929Y748697D01*
X166164Y748782D01*
X165402Y748885D01*
X164643Y749007D01*
X163887Y749147D01*
X163134Y749306D01*
X162386Y749483D01*
X161642Y749678D01*
X160903Y749891D01*
X160170Y750123D01*
X159442Y750372D01*
X158721Y750639D01*
X158006Y750923D01*
X157299Y751225D01*
X156599Y751545D01*
X155908Y751881D01*
X155224Y752234D01*
X154550Y752603D01*
X153885Y752989D01*
X153229Y753391D01*
X152584Y753809D01*
X151948Y754243D01*
X151324Y754692D01*
X150711Y755156D01*
X150109Y755635D01*
X149519Y756129D01*
X148942Y756637D01*
X148377Y757158D01*
X147825Y757694D01*
X147286Y758243D01*
X146761Y758805D01*
X146250Y759379D01*
X145753Y759966D01*
X145270Y760565D01*
X144803Y761175D01*
X144350Y761797D01*
X143912Y762429D01*
X143491Y763072D01*
X143085Y763726D01*
X142695Y764389D01*
X142321Y765061D01*
X141964Y765742D01*
X141624Y766432D01*
X141301Y767129D01*
X140995Y767835D01*
X140706Y768548D01*
X140435Y769267D01*
X140181Y769993D01*
X139945Y770726D01*
X139728Y771463D01*
X139528Y772206D01*
X139347Y772953D01*
X139183Y773705D01*
X139039Y774460D01*
X138913Y775219D01*
X138805Y775980D01*
X138716Y776744D01*
X138646Y777510D01*
X138594Y778277D01*
X138561Y779046D01*
X138548Y779814D01*
X138552Y780583D01*
X138576Y781352D01*
X138619Y782120D01*
X138680Y782887D01*
X138760Y783652D01*
X138858Y784414D01*
X138976Y785174D01*
X139111Y785931D01*
X139266Y786685D01*
X139438Y787434D01*
X139629Y788179D01*
X139838Y788919D01*
X140065Y789654D01*
X140310Y790383D01*
X140573Y791106D01*
X140853Y791822D01*
X141151Y792531D01*
X141466Y793233D01*
X141798Y793926D01*
X142147Y794612D01*
X142513Y795288D01*
X142895Y795956D01*
X143293Y796614D01*
X143707Y797262D01*
X144137Y797899D01*
X144582Y798526D01*
X145043Y799142D01*
X145518Y799747D01*
X146008Y800339D01*
X146513Y800920D01*
X147031Y801488D01*
X147563Y802043D01*
X148109Y802585D01*
X148668Y803113D01*
X149239Y803628D01*
X149823Y804129D01*
X150419Y804615D01*
X151027Y805086D01*
X151171Y804894D01*
X150568Y804426D01*
X149976Y803944D01*
X149397Y803447D01*
X148830Y802936D01*
X148275Y802412D01*
X147734Y801874D01*
X147206Y801323D01*
X146691Y800760D01*
X146191Y800183D01*
X145704Y799595D01*
X145233Y798995D01*
X144776Y798384D01*
X144334Y797762D01*
X143907Y797129D01*
X143496Y796486D01*
X143101Y795833D01*
X142722Y795171D01*
X142359Y794499D01*
X142013Y793819D01*
X141683Y793131D01*
X141371Y792435D01*
X141075Y791731D01*
X140797Y791020D01*
X140536Y790303D01*
X140293Y789580D01*
X140068Y788850D01*
X139861Y788116D01*
X139671Y787377D01*
X139500Y786633D01*
X139347Y785885D01*
X139212Y785134D01*
X139096Y784380D01*
X138998Y783623D01*
X138919Y782864D01*
X138858Y782103D01*
X138816Y781341D01*
X138792Y780578D01*
X138788Y779815D01*
X138801Y779052D01*
X138834Y778290D01*
X138885Y777528D01*
X138955Y776768D01*
X139043Y776010D01*
X139150Y775255D01*
X139275Y774502D01*
X139419Y773752D01*
X139581Y773006D01*
X139761Y772265D01*
X139959Y771528D01*
X140175Y770796D01*
X140409Y770069D01*
X140661Y769349D01*
X140930Y768635D01*
X141216Y767927D01*
X141520Y767227D01*
X141841Y766535D01*
X142178Y765850D01*
X142533Y765174D01*
X142903Y764507D01*
X143290Y763849D01*
X143693Y763201D01*
X144112Y762563D01*
X144546Y761935D01*
X144995Y761318D01*
X145459Y760713D01*
X145938Y760118D01*
X146431Y759536D01*
X146939Y758966D01*
X147460Y758408D01*
X147994Y757864D01*
X148542Y757332D01*
X149103Y756815D01*
X149676Y756311D01*
X150261Y755821D01*
X150858Y755345D01*
X151467Y754885D01*
X152086Y754439D01*
X152717Y754009D01*
X153357Y753594D01*
X154008Y753195D01*
X154668Y752812D01*
X155337Y752445D01*
X156015Y752095D01*
X156702Y751762D01*
X157396Y751445D01*
X158098Y751145D01*
X158807Y750863D01*
X159523Y750598D01*
X160245Y750351D01*
X160973Y750121D01*
X161706Y749909D01*
X162444Y749715D01*
X163187Y749540D01*
X163933Y749382D01*
X164684Y749243D01*
X165437Y749122D01*
X166194Y749020D01*
X166952Y748936D01*
X167712Y748871D01*
X168474Y748824D01*
X169237Y748796D01*
X170000Y748787D01*
X170763Y748796D01*
X171526Y748824D01*
X172288Y748871D01*
X173048Y748936D01*
X173806Y749020D01*
X174563Y749122D01*
X175316Y749243D01*
X176067Y749382D01*
X176813Y749540D01*
X177556Y749715D01*
X178294Y749909D01*
X179027Y750121D01*
X179755Y750351D01*
X180477Y750598D01*
X181193Y750863D01*
X181902Y751145D01*
X182604Y751445D01*
X183298Y751762D01*
X183985Y752095D01*
X184663Y752445D01*
X185332Y752812D01*
X185992Y753195D01*
X186643Y753594D01*
X187283Y754009D01*
X187914Y754439D01*
X188533Y754885D01*
X189142Y755345D01*
X189739Y755821D01*
X190324Y756311D01*
X190897Y756815D01*
X191458Y757332D01*
X192006Y757864D01*
X192540Y758408D01*
X193061Y758966D01*
X193569Y759536D01*
X194062Y760118D01*
X194541Y760713D01*
X195005Y761318D01*
X195454Y761935D01*
X195888Y762563D01*
X196307Y763201D01*
X196710Y763849D01*
X197097Y764507D01*
X197467Y765174D01*
X197822Y765850D01*
X198159Y766535D01*
X198480Y767227D01*
X198784Y767927D01*
X199070Y768635D01*
X199339Y769349D01*
X199591Y770069D01*
X199825Y770796D01*
X200041Y771528D01*
X200239Y772265D01*
X200419Y773006D01*
X200581Y773752D01*
X200725Y774502D01*
X200850Y775255D01*
X200957Y776010D01*
X201045Y776768D01*
X201115Y777528D01*
X201166Y778290D01*
X201199Y779052D01*
X201212Y779815D01*
X201208Y780578D01*
X201184Y781341D01*
X201142Y782103D01*
X201081Y782864D01*
X201002Y783623D01*
X200904Y784380D01*
X200788Y785134D01*
X200653Y785885D01*
X200500Y786633D01*
X200329Y787377D01*
X200139Y788116D01*
X199932Y788850D01*
X199707Y789580D01*
X199464Y790303D01*
X199203Y791020D01*
X198925Y791731D01*
X198629Y792435D01*
X198317Y793131D01*
X197987Y793819D01*
X197641Y794499D01*
X197278Y795171D01*
X196899Y795833D01*
X196504Y796486D01*
X196093Y797129D01*
X195666Y797762D01*
X195224Y798384D01*
X194767Y798995D01*
X194296Y799595D01*
X193809Y800183D01*
X193309Y800760D01*
X192794Y801323D01*
X192266Y801874D01*
X191725Y802412D01*
X191170Y802936D01*
X190603Y803447D01*
X190024Y803944D01*
X189432Y804426D01*
X188829Y804894D01*
X188685Y804702D01*
X189284Y804238D01*
X189870Y803759D01*
X190445Y803266D01*
X191008Y802759D01*
X191558Y802239D01*
X192095Y801705D01*
X192620Y801159D01*
X193130Y800599D01*
X193627Y800028D01*
X194109Y799444D01*
X194577Y798849D01*
X195031Y798242D01*
X195469Y797625D01*
X195893Y796997D01*
X196301Y796359D01*
X196693Y795711D01*
X197069Y795053D01*
X197429Y794387D01*
X197772Y793712D01*
X198099Y793029D01*
X198409Y792338D01*
X198703Y791640D01*
X198979Y790935D01*
X199237Y790223D01*
X199478Y789505D01*
X199702Y788782D01*
X199908Y788053D01*
X200096Y787319D01*
X200266Y786581D01*
X200418Y785839D01*
X200551Y785094D01*
X200667Y784346D01*
X200764Y783595D01*
X200842Y782841D01*
X200903Y782086D01*
X200944Y781330D01*
X200968Y780573D01*
X200972Y779816D01*
X200959Y779059D01*
X200926Y778302D01*
X200876Y777547D01*
X200806Y776793D01*
X200719Y776040D01*
X200613Y775290D01*
X200489Y774543D01*
X200346Y773800D01*
X200185Y773060D01*
X200007Y772324D01*
X199810Y771592D01*
X199596Y770866D01*
X199363Y770145D01*
X199114Y769430D01*
X198847Y768722D01*
X198562Y768020D01*
X198261Y767325D01*
X197942Y766638D01*
X197607Y765959D01*
X197256Y765288D01*
X196888Y764626D01*
X196504Y763973D01*
X196104Y763330D01*
X195689Y762697D01*
X195258Y762074D01*
X194813Y761462D01*
X194352Y760861D01*
X193877Y760271D01*
X193387Y759693D01*
X192884Y759127D01*
X192367Y758574D01*
X191836Y758034D01*
X191293Y757507D01*
X190736Y756993D01*
X190168Y756493D01*
X189587Y756007D01*
X188994Y755535D01*
X188391Y755078D01*
X187776Y754636D01*
X187150Y754209D01*
X186515Y753797D01*
X185869Y753401D01*
X185214Y753021D01*
X184550Y752657D01*
X183877Y752310D01*
X183196Y751979D01*
X182507Y751664D01*
X181810Y751367D01*
X181107Y751087D01*
X180397Y750824D01*
X179680Y750579D01*
X178958Y750351D01*
X178230Y750141D01*
X177498Y749948D01*
X176761Y749774D01*
X176020Y749618D01*
X175275Y749480D01*
X174528Y749360D01*
X173777Y749258D01*
X173024Y749175D01*
X172270Y749110D01*
X171514Y749064D01*
X170757Y749036D01*
X170000Y749027D01*
X169243Y749036D01*
X168486Y749064D01*
X167730Y749110D01*
X166976Y749175D01*
X166223Y749258D01*
X165472Y749360D01*
X164725Y749480D01*
X163980Y749618D01*
X163239Y749774D01*
X162502Y749948D01*
X161770Y750141D01*
X161042Y750351D01*
X160320Y750579D01*
X159603Y750824D01*
X158893Y751087D01*
X158190Y751367D01*
X157493Y751664D01*
X156804Y751979D01*
X156123Y752310D01*
X155450Y752657D01*
X154786Y753021D01*
X154131Y753401D01*
X153485Y753797D01*
X152850Y754209D01*
X152224Y754636D01*
X151609Y755078D01*
X151006Y755535D01*
X150413Y756007D01*
X149832Y756493D01*
X149264Y756993D01*
X148707Y757507D01*
X148164Y758034D01*
X147633Y758574D01*
X147116Y759127D01*
X146613Y759693D01*
X146123Y760271D01*
X145648Y760861D01*
X145187Y761462D01*
X144742Y762074D01*
X144311Y762697D01*
X143896Y763330D01*
X143496Y763973D01*
X143112Y764626D01*
X142744Y765288D01*
X142393Y765959D01*
X142058Y766638D01*
X141739Y767325D01*
X141438Y768020D01*
X141153Y768722D01*
X140886Y769430D01*
X140637Y770145D01*
X140404Y770866D01*
X140190Y771592D01*
X139993Y772324D01*
X139815Y773060D01*
X139654Y773800D01*
X139511Y774543D01*
X139387Y775290D01*
X139281Y776040D01*
X139194Y776793D01*
X139124Y777547D01*
X139074Y778302D01*
X139041Y779059D01*
X139028Y779816D01*
X139032Y780573D01*
X139056Y781330D01*
X139097Y782086D01*
X139158Y782841D01*
X139236Y783595D01*
X139333Y784346D01*
X139449Y785094D01*
X139582Y785839D01*
X139734Y786581D01*
X139904Y787319D01*
X140092Y788053D01*
X140298Y788782D01*
X140522Y789505D01*
X140763Y790223D01*
X141021Y790935D01*
X141297Y791640D01*
X141591Y792338D01*
X141901Y793029D01*
X142228Y793712D01*
X142571Y794387D01*
X142931Y795053D01*
X143307Y795711D01*
X143699Y796359D01*
X144107Y796997D01*
X144531Y797625D01*
X144969Y798242D01*
X145423Y798849D01*
X145891Y799444D01*
X146373Y800028D01*
X146870Y800599D01*
X147380Y801159D01*
X147905Y801705D01*
X148442Y802239D01*
X148992Y802759D01*
X149555Y803266D01*
X150130Y803759D01*
X150716Y804238D01*
X151315Y804702D01*
X151459Y804510D01*
X150865Y804049D01*
X150283Y803574D01*
X149712Y803085D01*
X149154Y802582D01*
X148608Y802066D01*
X148075Y801536D01*
X147555Y800994D01*
X147049Y800439D01*
X146556Y799872D01*
X146077Y799293D01*
X145612Y798702D01*
X145162Y798100D01*
X144727Y797487D01*
X144307Y796864D01*
X143903Y796231D01*
X143514Y795588D01*
X143141Y794936D01*
X142783Y794275D01*
X142443Y793605D01*
X142118Y792928D01*
X141810Y792242D01*
X141520Y791549D01*
X141246Y790849D01*
X140989Y790143D01*
X140750Y789431D01*
X140528Y788713D01*
X140324Y787990D01*
X140137Y787262D01*
X139969Y786530D01*
X139818Y785793D01*
X139685Y785054D01*
X139571Y784311D01*
X139475Y783566D01*
X139397Y782819D01*
X139337Y782070D01*
X139295Y781319D01*
X139272Y780568D01*
X139268Y779817D01*
X139281Y779066D01*
X139313Y778315D01*
X139364Y777565D01*
X139432Y776817D01*
X139519Y776070D01*
X139624Y775326D01*
X139748Y774585D01*
X139889Y773847D01*
X140049Y773113D01*
X140226Y772383D01*
X140421Y771657D01*
X140634Y770936D01*
X140864Y770221D01*
X141112Y769512D01*
X141377Y768809D01*
X141659Y768112D01*
X141958Y767423D01*
X142274Y766741D01*
X142607Y766067D01*
X142955Y765402D01*
X143320Y764745D01*
X143701Y764097D01*
X144098Y763459D01*
X144510Y762831D01*
X144938Y762213D01*
X145380Y761605D01*
X145837Y761009D01*
X146309Y760424D01*
X146794Y759850D01*
X147294Y759289D01*
X147807Y758740D01*
X148333Y758204D01*
X148873Y757681D01*
X149425Y757171D01*
X149989Y756675D01*
X150565Y756192D01*
X151153Y755724D01*
X151752Y755271D01*
X152362Y754832D01*
X152983Y754408D01*
X153614Y754000D01*
X154254Y753607D01*
X154904Y753230D01*
X155563Y752869D01*
X156231Y752524D01*
X156907Y752196D01*
X157590Y751884D01*
X158281Y751589D01*
X158979Y751311D01*
X159684Y751050D01*
X160395Y750807D01*
X161112Y750580D01*
X161833Y750372D01*
X162560Y750181D01*
X163291Y750008D01*
X164027Y749853D01*
X164766Y749716D01*
X165508Y749597D01*
X166252Y749496D01*
X166999Y749414D01*
X167748Y749350D01*
X168498Y749304D01*
X169249Y749276D01*
X170000Y749267D01*
X170751Y749276D01*
X171502Y749304D01*
X172252Y749350D01*
X173001Y749414D01*
X173748Y749496D01*
X174492Y749597D01*
X175234Y749716D01*
X175973Y749853D01*
X176709Y750008D01*
X177440Y750181D01*
X178167Y750372D01*
X178888Y750580D01*
X179605Y750807D01*
X180316Y751050D01*
X181021Y751311D01*
X181719Y751589D01*
X182410Y751884D01*
X183093Y752196D01*
X183769Y752524D01*
X184437Y752869D01*
X185096Y753230D01*
X185746Y753607D01*
X186386Y754000D01*
X187017Y754408D01*
X187638Y754832D01*
X188248Y755271D01*
X188847Y755724D01*
X189435Y756192D01*
X190011Y756675D01*
X190575Y757171D01*
X191127Y757681D01*
X191667Y758204D01*
X192193Y758740D01*
X192706Y759289D01*
X193206Y759850D01*
X193691Y760424D01*
X194163Y761009D01*
X194620Y761605D01*
X195062Y762213D01*
X195490Y762831D01*
X195902Y763459D01*
X196299Y764097D01*
X196680Y764745D01*
X197045Y765402D01*
X197393Y766067D01*
X197726Y766741D01*
X198042Y767423D01*
X198341Y768112D01*
X198623Y768809D01*
X198888Y769512D01*
X199136Y770221D01*
X199366Y770936D01*
X199579Y771657D01*
X199774Y772383D01*
X199951Y773113D01*
X200111Y773847D01*
X200252Y774585D01*
X200376Y775326D01*
X200481Y776070D01*
X200568Y776817D01*
X200636Y777565D01*
X200687Y778315D01*
X200719Y779066D01*
X200732Y779817D01*
X200728Y780568D01*
X200705Y781319D01*
X200663Y782070D01*
X200603Y782819D01*
X200525Y783566D01*
X200429Y784311D01*
X200315Y785054D01*
X200182Y785793D01*
X200031Y786530D01*
X199863Y787262D01*
X199676Y787990D01*
X199472Y788713D01*
X199250Y789431D01*
X199011Y790143D01*
X198754Y790849D01*
X198480Y791549D01*
X198190Y792242D01*
X197882Y792928D01*
X197557Y793605D01*
X197217Y794275D01*
X196859Y794936D01*
X196486Y795588D01*
X196097Y796231D01*
X195693Y796864D01*
X195273Y797487D01*
X194838Y798100D01*
X194388Y798702D01*
X193923Y799293D01*
X193444Y799872D01*
X192951Y800439D01*
X192445Y800994D01*
X191925Y801536D01*
X191392Y802066D01*
X190846Y802582D01*
X190288Y803085D01*
X189717Y803574D01*
X189135Y804049D01*
X188541Y804510D01*
D11*
X144600Y780000D02*
X144608Y780623D01*
X144631Y781246D01*
X144669Y781869D01*
X144722Y782490D01*
X144791Y783109D01*
X144875Y783727D01*
X144974Y784342D01*
X145088Y784955D01*
X145217Y785565D01*
X145361Y786172D01*
X145520Y786775D01*
X145694Y787373D01*
X145882Y787968D01*
X146085Y788557D01*
X146302Y789141D01*
X146533Y789720D01*
X146779Y790293D01*
X147039Y790860D01*
X147312Y791420D01*
X147599Y791973D01*
X147900Y792520D01*
X148214Y793058D01*
X148541Y793589D01*
X148881Y794111D01*
X149233Y794626D01*
X149599Y795131D01*
X149976Y795627D01*
X150366Y796114D01*
X150767Y796591D01*
X151180Y797058D01*
X151604Y797514D01*
X152039Y797961D01*
X152486Y798396D01*
X152942Y798820D01*
X153409Y799233D01*
X153886Y799634D01*
X154373Y800024D01*
X154869Y800401D01*
X155374Y800767D01*
X155889Y801119D01*
X156411Y801459D01*
X156942Y801786D01*
X157480Y802100D01*
X158027Y802401D01*
X158580Y802688D01*
X159140Y802961D01*
X159707Y803221D01*
X160280Y803467D01*
X160859Y803698D01*
X161443Y803915D01*
X162032Y804118D01*
X162627Y804306D01*
X163225Y804480D01*
X163828Y804639D01*
X164435Y804783D01*
X165045Y804912D01*
X165658Y805026D01*
X166273Y805125D01*
X166891Y805209D01*
X167510Y805278D01*
X168131Y805331D01*
X168754Y805369D01*
X169377Y805392D01*
X170000Y805400D01*
X170623Y805392D01*
X171246Y805369D01*
X171869Y805331D01*
X172490Y805278D01*
X173109Y805209D01*
X173727Y805125D01*
X174342Y805026D01*
X174955Y804912D01*
X175565Y804783D01*
X176172Y804639D01*
X176775Y804480D01*
X177373Y804306D01*
X177968Y804118D01*
X178557Y803915D01*
X179141Y803698D01*
X179720Y803467D01*
X180293Y803221D01*
X180860Y802961D01*
X181420Y802688D01*
X181973Y802401D01*
X182520Y802100D01*
X183058Y801786D01*
X183589Y801459D01*
X184111Y801119D01*
X184626Y800767D01*
X185131Y800401D01*
X185627Y800024D01*
X186114Y799634D01*
X186591Y799233D01*
X187058Y798820D01*
X187514Y798396D01*
X187961Y797961D01*
X188396Y797514D01*
X188820Y797058D01*
X189233Y796591D01*
X189634Y796114D01*
X190024Y795627D01*
X190401Y795131D01*
X190767Y794626D01*
X191119Y794111D01*
X191459Y793589D01*
X191786Y793058D01*
X192100Y792520D01*
X192401Y791973D01*
X192688Y791420D01*
X192961Y790860D01*
X193221Y790293D01*
X193467Y789720D01*
X193698Y789141D01*
X193915Y788557D01*
X194118Y787968D01*
X194306Y787373D01*
X194480Y786775D01*
X194639Y786172D01*
X194783Y785565D01*
X194912Y784955D01*
X195026Y784342D01*
X195125Y783727D01*
X195209Y783109D01*
X195278Y782490D01*
X195331Y781869D01*
X195369Y781246D01*
X195392Y780623D01*
X195400Y780000D01*
X195392Y779377D01*
X195369Y778754D01*
X195331Y778131D01*
X195278Y777510D01*
X195209Y776891D01*
X195125Y776273D01*
X195026Y775658D01*
X194912Y775045D01*
X194783Y774435D01*
X194639Y773828D01*
X194480Y773225D01*
X194306Y772627D01*
X194118Y772032D01*
X193915Y771443D01*
X193698Y770859D01*
X193467Y770280D01*
X193221Y769707D01*
X192961Y769140D01*
X192688Y768580D01*
X192401Y768027D01*
X192100Y767480D01*
X191786Y766942D01*
X191459Y766411D01*
X191119Y765889D01*
X190767Y765374D01*
X190401Y764869D01*
X190024Y764373D01*
X189634Y763886D01*
X189233Y763409D01*
X188820Y762942D01*
X188396Y762486D01*
X187961Y762039D01*
X187514Y761604D01*
X187058Y761180D01*
X186591Y760767D01*
X186114Y760366D01*
X185627Y759976D01*
X185131Y759599D01*
X184626Y759233D01*
X184111Y758881D01*
X183589Y758541D01*
X183058Y758214D01*
X182520Y757900D01*
X181973Y757599D01*
X181420Y757312D01*
X180860Y757039D01*
X180293Y756779D01*
X179720Y756533D01*
X179141Y756302D01*
X178557Y756085D01*
X177968Y755882D01*
X177373Y755694D01*
X176775Y755520D01*
X176172Y755361D01*
X175565Y755217D01*
X174955Y755088D01*
X174342Y754974D01*
X173727Y754875D01*
X173109Y754791D01*
X172490Y754722D01*
X171869Y754669D01*
X171246Y754631D01*
X170623Y754608D01*
X170000Y754600D01*
X169377Y754608D01*
X168754Y754631D01*
X168131Y754669D01*
X167510Y754722D01*
X166891Y754791D01*
X166273Y754875D01*
X165658Y754974D01*
X165045Y755088D01*
X164435Y755217D01*
X163828Y755361D01*
X163225Y755520D01*
X162627Y755694D01*
X162032Y755882D01*
X161443Y756085D01*
X160859Y756302D01*
X160280Y756533D01*
X159707Y756779D01*
X159140Y757039D01*
X158580Y757312D01*
X158027Y757599D01*
X157480Y757900D01*
X156942Y758214D01*
X156411Y758541D01*
X155889Y758881D01*
X155374Y759233D01*
X154869Y759599D01*
X154373Y759976D01*
X153886Y760366D01*
X153409Y760767D01*
X152942Y761180D01*
X152486Y761604D01*
X152039Y762039D01*
X151604Y762486D01*
X151180Y762942D01*
X150767Y763409D01*
X150366Y763886D01*
X149976Y764373D01*
X149599Y764869D01*
X149233Y765374D01*
X148881Y765889D01*
X148541Y766411D01*
X148214Y766942D01*
X147900Y767480D01*
X147599Y768027D01*
X147312Y768580D01*
X147039Y769140D01*
X146779Y769707D01*
X146533Y770280D01*
X146302Y770859D01*
X146085Y771443D01*
X145882Y772032D01*
X145694Y772627D01*
X145520Y773225D01*
X145361Y773828D01*
X145217Y774435D01*
X145088Y775045D01*
X144974Y775658D01*
X144875Y776273D01*
X144791Y776891D01*
X144722Y777510D01*
X144669Y778131D01*
X144631Y778754D01*
X144608Y779377D01*
X144600Y780000D01*
D12*
X135456Y775825D02*
X130630Y775825D01*
X130630Y777165D01*
X130632Y777235D01*
X130637Y777305D01*
X130647Y777375D01*
X130659Y777444D01*
X130676Y777512D01*
X130696Y777579D01*
X130719Y777646D01*
X130746Y777710D01*
X130776Y777774D01*
X130810Y777836D01*
X130846Y777895D01*
X130886Y777953D01*
X130929Y778009D01*
X130974Y778062D01*
X131023Y778113D01*
X131074Y778162D01*
X131127Y778207D01*
X131183Y778250D01*
X131241Y778290D01*
X131301Y778326D01*
X131362Y778360D01*
X131426Y778390D01*
X131490Y778417D01*
X131557Y778440D01*
X131624Y778460D01*
X131692Y778477D01*
X131761Y778489D01*
X131831Y778499D01*
X131901Y778504D01*
X131971Y778506D01*
X134115Y778506D01*
X134185Y778504D01*
X134255Y778499D01*
X134325Y778489D01*
X134394Y778477D01*
X134462Y778460D01*
X134529Y778440D01*
X134596Y778417D01*
X134660Y778390D01*
X134724Y778360D01*
X134786Y778326D01*
X134845Y778290D01*
X134903Y778250D01*
X134959Y778207D01*
X135012Y778162D01*
X135063Y778113D01*
X135112Y778062D01*
X135157Y778009D01*
X135200Y777953D01*
X135240Y777895D01*
X135276Y777835D01*
X135310Y777774D01*
X135340Y777710D01*
X135367Y777646D01*
X135390Y777579D01*
X135410Y777512D01*
X135427Y777444D01*
X135439Y777375D01*
X135449Y777305D01*
X135454Y777235D01*
X135456Y777165D01*
X135456Y775825D01*
X130630Y782969D02*
X130632Y783037D01*
X130638Y783104D01*
X130647Y783171D01*
X130660Y783238D01*
X130677Y783303D01*
X130698Y783368D01*
X130722Y783431D01*
X130750Y783493D01*
X130781Y783553D01*
X130815Y783611D01*
X130853Y783667D01*
X130893Y783722D01*
X130937Y783773D01*
X130984Y783822D01*
X131033Y783869D01*
X131084Y783913D01*
X131139Y783953D01*
X131195Y783991D01*
X131253Y784025D01*
X131313Y784056D01*
X131375Y784084D01*
X131438Y784108D01*
X131503Y784129D01*
X131568Y784146D01*
X131635Y784159D01*
X131702Y784168D01*
X131769Y784174D01*
X131837Y784176D01*
X130630Y782969D02*
X130632Y782891D01*
X130638Y782813D01*
X130648Y782736D01*
X130661Y782659D01*
X130679Y782583D01*
X130700Y782508D01*
X130725Y782434D01*
X130754Y782362D01*
X130786Y782291D01*
X130822Y782222D01*
X130861Y782154D01*
X130904Y782089D01*
X130950Y782026D01*
X130999Y781965D01*
X131051Y781907D01*
X131106Y781852D01*
X131163Y781799D01*
X131223Y781750D01*
X131286Y781703D01*
X131351Y781660D01*
X131417Y781620D01*
X131486Y781583D01*
X131557Y781550D01*
X131629Y781520D01*
X131703Y781494D01*
X132775Y783773D02*
X132726Y783822D01*
X132674Y783869D01*
X132619Y783912D01*
X132562Y783953D01*
X132503Y783991D01*
X132442Y784025D01*
X132379Y784056D01*
X132315Y784084D01*
X132249Y784108D01*
X132183Y784128D01*
X132115Y784145D01*
X132046Y784158D01*
X131977Y784167D01*
X131907Y784173D01*
X131837Y784175D01*
X132775Y783773D02*
X135456Y781494D01*
X135456Y784175D01*
D13*
X240910Y764900D02*
X291710Y764900D01*
X240910Y764900D02*
X240910Y772520D01*
X240910Y780140D01*
X291710Y780140D01*
X291710Y772520D01*
X291710Y764900D01*
X240910Y772520D02*
X238370Y772520D01*
X291710Y772520D02*
X294250Y772520D01*
D12*
X252271Y756899D02*
X250662Y756899D01*
X252271Y756899D02*
X252336Y756901D01*
X252400Y756907D01*
X252464Y756917D01*
X252528Y756930D01*
X252590Y756948D01*
X252651Y756969D01*
X252711Y756993D01*
X252769Y757022D01*
X252826Y757054D01*
X252880Y757089D01*
X252932Y757127D01*
X252982Y757169D01*
X253029Y757213D01*
X253073Y757260D01*
X253115Y757310D01*
X253153Y757362D01*
X253188Y757416D01*
X253220Y757473D01*
X253249Y757531D01*
X253273Y757591D01*
X253294Y757652D01*
X253312Y757714D01*
X253325Y757778D01*
X253335Y757842D01*
X253341Y757906D01*
X253343Y757971D01*
X253343Y758508D01*
X253341Y758573D01*
X253335Y758637D01*
X253325Y758701D01*
X253312Y758765D01*
X253294Y758827D01*
X253273Y758888D01*
X253249Y758948D01*
X253220Y759006D01*
X253188Y759063D01*
X253153Y759117D01*
X253115Y759169D01*
X253073Y759219D01*
X253029Y759266D01*
X252982Y759310D01*
X252932Y759352D01*
X252880Y759390D01*
X252826Y759425D01*
X252769Y759457D01*
X252711Y759486D01*
X252651Y759510D01*
X252590Y759531D01*
X252528Y759549D01*
X252464Y759562D01*
X252400Y759572D01*
X252336Y759578D01*
X252271Y759580D01*
X250662Y759580D01*
X250662Y761725D01*
X253343Y761725D01*
X256149Y760653D02*
X257489Y761725D01*
X257489Y756899D01*
X256149Y756899D02*
X258830Y756899D01*
X261635Y759312D02*
X261637Y759432D01*
X261642Y759552D01*
X261651Y759672D01*
X261664Y759792D01*
X261680Y759911D01*
X261700Y760030D01*
X261724Y760148D01*
X261751Y760265D01*
X261781Y760381D01*
X261815Y760496D01*
X261853Y760611D01*
X261894Y760724D01*
X261938Y760835D01*
X261986Y760946D01*
X262037Y761055D01*
X262038Y761055D02*
X262059Y761112D01*
X262085Y761168D01*
X262113Y761223D01*
X262145Y761275D01*
X262181Y761326D01*
X262219Y761374D01*
X262260Y761420D01*
X262304Y761463D01*
X262350Y761503D01*
X262399Y761540D01*
X262451Y761574D01*
X262504Y761605D01*
X262559Y761633D01*
X262615Y761657D01*
X262673Y761678D01*
X262732Y761695D01*
X262792Y761708D01*
X262853Y761717D01*
X262915Y761723D01*
X262976Y761725D01*
X263037Y761723D01*
X263099Y761717D01*
X263160Y761708D01*
X263220Y761695D01*
X263279Y761678D01*
X263337Y761657D01*
X263393Y761633D01*
X263448Y761605D01*
X263501Y761574D01*
X263553Y761540D01*
X263602Y761503D01*
X263648Y761463D01*
X263692Y761420D01*
X263733Y761374D01*
X263771Y761326D01*
X263807Y761275D01*
X263839Y761223D01*
X263867Y761168D01*
X263893Y761112D01*
X263914Y761055D01*
X263965Y760946D01*
X264013Y760835D01*
X264057Y760724D01*
X264098Y760611D01*
X264136Y760496D01*
X264170Y760381D01*
X264200Y760265D01*
X264227Y760148D01*
X264251Y760030D01*
X264271Y759911D01*
X264287Y759792D01*
X264300Y759672D01*
X264309Y759552D01*
X264314Y759432D01*
X264316Y759312D01*
X261635Y759312D02*
X261637Y759192D01*
X261642Y759072D01*
X261651Y758952D01*
X261664Y758832D01*
X261680Y758713D01*
X261700Y758594D01*
X261724Y758476D01*
X261751Y758359D01*
X261781Y758243D01*
X261815Y758128D01*
X261853Y758013D01*
X261894Y757900D01*
X261938Y757789D01*
X261986Y757678D01*
X262037Y757569D01*
X262038Y757569D02*
X262059Y757512D01*
X262085Y757456D01*
X262113Y757401D01*
X262145Y757349D01*
X262181Y757298D01*
X262219Y757250D01*
X262260Y757204D01*
X262304Y757161D01*
X262350Y757121D01*
X262399Y757084D01*
X262451Y757050D01*
X262504Y757019D01*
X262559Y756991D01*
X262615Y756967D01*
X262673Y756946D01*
X262732Y756929D01*
X262792Y756916D01*
X262853Y756907D01*
X262915Y756901D01*
X262976Y756899D01*
X263914Y757569D02*
X263965Y757678D01*
X264013Y757789D01*
X264057Y757900D01*
X264098Y758013D01*
X264136Y758128D01*
X264170Y758243D01*
X264200Y758359D01*
X264227Y758476D01*
X264251Y758594D01*
X264271Y758713D01*
X264287Y758832D01*
X264300Y758952D01*
X264309Y759072D01*
X264314Y759192D01*
X264316Y759312D01*
X263914Y757569D02*
X263893Y757512D01*
X263867Y757456D01*
X263839Y757401D01*
X263807Y757349D01*
X263771Y757298D01*
X263733Y757250D01*
X263692Y757204D01*
X263648Y757161D01*
X263601Y757121D01*
X263553Y757084D01*
X263501Y757050D01*
X263448Y757019D01*
X263393Y756991D01*
X263337Y756967D01*
X263279Y756946D01*
X263220Y756929D01*
X263160Y756916D01*
X263099Y756907D01*
X263037Y756901D01*
X262976Y756899D01*
X261903Y757971D02*
X264048Y760653D01*
X267121Y760384D02*
X267121Y758240D01*
X267121Y760384D02*
X267123Y760455D01*
X267129Y760527D01*
X267138Y760597D01*
X267151Y760667D01*
X267168Y760737D01*
X267189Y760805D01*
X267213Y760872D01*
X267241Y760938D01*
X267272Y761002D01*
X267307Y761065D01*
X267345Y761125D01*
X267386Y761184D01*
X267430Y761240D01*
X267477Y761294D01*
X267526Y761345D01*
X267579Y761393D01*
X267634Y761439D01*
X267691Y761481D01*
X267751Y761521D01*
X267812Y761557D01*
X267876Y761590D01*
X267941Y761619D01*
X268007Y761645D01*
X268075Y761668D01*
X268144Y761687D01*
X268214Y761702D01*
X268284Y761713D01*
X268355Y761721D01*
X268426Y761725D01*
X268498Y761725D01*
X268569Y761721D01*
X268640Y761713D01*
X268710Y761702D01*
X268780Y761687D01*
X268849Y761668D01*
X268917Y761645D01*
X268983Y761619D01*
X269048Y761590D01*
X269112Y761557D01*
X269173Y761521D01*
X269233Y761481D01*
X269290Y761439D01*
X269345Y761393D01*
X269398Y761345D01*
X269447Y761294D01*
X269494Y761240D01*
X269538Y761184D01*
X269579Y761125D01*
X269617Y761065D01*
X269652Y761002D01*
X269683Y760938D01*
X269711Y760872D01*
X269735Y760805D01*
X269756Y760737D01*
X269773Y760667D01*
X269786Y760597D01*
X269795Y760527D01*
X269801Y760455D01*
X269803Y760384D01*
X269802Y760384D02*
X269802Y758240D01*
X269803Y758240D02*
X269801Y758169D01*
X269795Y758097D01*
X269786Y758027D01*
X269773Y757957D01*
X269756Y757887D01*
X269735Y757819D01*
X269711Y757752D01*
X269683Y757686D01*
X269652Y757622D01*
X269617Y757559D01*
X269579Y757499D01*
X269538Y757440D01*
X269494Y757384D01*
X269447Y757330D01*
X269398Y757279D01*
X269345Y757231D01*
X269290Y757185D01*
X269233Y757143D01*
X269173Y757103D01*
X269112Y757067D01*
X269048Y757034D01*
X268983Y757005D01*
X268917Y756979D01*
X268849Y756956D01*
X268780Y756937D01*
X268710Y756922D01*
X268640Y756911D01*
X268569Y756903D01*
X268498Y756899D01*
X268426Y756899D01*
X268355Y756903D01*
X268284Y756911D01*
X268214Y756922D01*
X268144Y756937D01*
X268075Y756956D01*
X268007Y756979D01*
X267941Y757005D01*
X267876Y757034D01*
X267812Y757067D01*
X267751Y757103D01*
X267691Y757143D01*
X267634Y757185D01*
X267579Y757231D01*
X267526Y757279D01*
X267477Y757330D01*
X267430Y757384D01*
X267386Y757440D01*
X267345Y757499D01*
X267307Y757559D01*
X267272Y757622D01*
X267241Y757686D01*
X267213Y757752D01*
X267189Y757819D01*
X267168Y757887D01*
X267151Y757957D01*
X267138Y758027D01*
X267129Y758097D01*
X267123Y758169D01*
X267121Y758240D01*
X272791Y756899D02*
X272791Y761725D01*
X272791Y759580D02*
X275472Y759580D01*
X275472Y761725D02*
X275472Y756899D01*
X278740Y756899D02*
X278740Y761725D01*
X280349Y759044D01*
X281958Y761725D01*
X281958Y756899D01*
D13*
X963650Y617220D02*
X976350Y617220D01*
X963650Y617220D02*
X957300Y623570D01*
X957300Y636270D02*
X963650Y642620D01*
X957300Y623570D02*
X950950Y617220D01*
X938250Y617220D01*
X931900Y623570D01*
X931900Y636270D02*
X938250Y642620D01*
X950950Y642620D01*
X957300Y636270D01*
X982700Y636270D02*
X982700Y623570D01*
X976350Y617220D01*
X982700Y636270D02*
X976350Y642620D01*
X963650Y642620D01*
X931900Y636270D02*
X931900Y623570D01*
D12*
X976436Y615315D02*
X976436Y611561D01*
X976434Y611496D01*
X976428Y611432D01*
X976418Y611368D01*
X976405Y611304D01*
X976387Y611242D01*
X976366Y611181D01*
X976342Y611121D01*
X976313Y611063D01*
X976281Y611006D01*
X976246Y610952D01*
X976208Y610900D01*
X976166Y610850D01*
X976122Y610803D01*
X976075Y610759D01*
X976025Y610717D01*
X975973Y610679D01*
X975919Y610644D01*
X975862Y610612D01*
X975804Y610583D01*
X975744Y610559D01*
X975683Y610538D01*
X975621Y610520D01*
X975557Y610507D01*
X975493Y610497D01*
X975429Y610491D01*
X975364Y610489D01*
X974827Y610489D01*
X979384Y614243D02*
X980724Y615315D01*
X980724Y610489D01*
X979384Y610489D02*
X982065Y610489D01*
D13*
X291280Y598490D02*
X291280Y641990D01*
X291280Y598490D02*
X407580Y598490D01*
X407580Y641990D01*
X291280Y641990D01*
X247000Y655000D02*
X247000Y676000D01*
X193000Y655000D02*
X140000Y655000D01*
X240000Y655000D02*
X247000Y655000D01*
X247000Y745000D02*
X140000Y745000D01*
X247000Y745000D02*
X247000Y724000D01*
X140000Y745000D02*
X140000Y655000D01*
D12*
X132677Y701966D02*
X128923Y701966D01*
X132677Y701965D02*
X132742Y701963D01*
X132806Y701957D01*
X132870Y701947D01*
X132934Y701934D01*
X132996Y701916D01*
X133057Y701895D01*
X133117Y701871D01*
X133175Y701842D01*
X133232Y701810D01*
X133286Y701775D01*
X133338Y701737D01*
X133388Y701695D01*
X133435Y701651D01*
X133479Y701604D01*
X133521Y701554D01*
X133559Y701502D01*
X133594Y701448D01*
X133626Y701391D01*
X133655Y701333D01*
X133679Y701273D01*
X133700Y701212D01*
X133718Y701150D01*
X133731Y701086D01*
X133741Y701022D01*
X133747Y700958D01*
X133749Y700893D01*
X133749Y700357D01*
X129995Y704914D02*
X128923Y706254D01*
X133749Y706254D01*
X133749Y704914D02*
X133749Y707595D01*
X133749Y710400D02*
X133749Y712009D01*
X133747Y712074D01*
X133741Y712138D01*
X133731Y712202D01*
X133718Y712266D01*
X133700Y712328D01*
X133679Y712389D01*
X133655Y712449D01*
X133626Y712507D01*
X133594Y712564D01*
X133559Y712618D01*
X133521Y712670D01*
X133479Y712720D01*
X133435Y712767D01*
X133388Y712811D01*
X133338Y712853D01*
X133286Y712891D01*
X133232Y712926D01*
X133175Y712958D01*
X133117Y712987D01*
X133057Y713011D01*
X132996Y713032D01*
X132934Y713050D01*
X132870Y713063D01*
X132806Y713073D01*
X132742Y713079D01*
X132677Y713081D01*
X132140Y713081D01*
X132075Y713079D01*
X132011Y713073D01*
X131947Y713063D01*
X131883Y713050D01*
X131821Y713032D01*
X131760Y713011D01*
X131700Y712987D01*
X131642Y712958D01*
X131585Y712926D01*
X131531Y712891D01*
X131479Y712853D01*
X131429Y712811D01*
X131382Y712767D01*
X131338Y712720D01*
X131296Y712670D01*
X131258Y712618D01*
X131223Y712564D01*
X131191Y712507D01*
X131162Y712449D01*
X131138Y712389D01*
X131117Y712328D01*
X131099Y712266D01*
X131086Y712202D01*
X131076Y712138D01*
X131070Y712074D01*
X131068Y712009D01*
X131068Y710400D01*
X128923Y710400D01*
X128923Y713081D01*
M02*
