M48
;GenerationSoftware,Autodesk,EAGLE,9.6.2*%
;CreationDate,2022-08-28T10:18:51Z*%
FMAT,2
ICI,OFF
METRIC,TZ,000.000
T5C0.770
T4C0.813
T3C0.900
T2C1.016
T1C1.300
%
G90
M71
T1
X31480Y77470
X25680Y77470
X28480Y72670
T2
X25400Y104140
X27940Y104140
X36830Y104140
X39370Y104140
X48260Y104140
X50800Y104140
X53340Y88900
X50800Y88900
X41910Y88900
X48260Y88900
X39370Y88900
X36830Y88900
X30480Y88900
X27940Y88900
X25400Y88900
X87630Y88900
X85090Y88900
X82550Y88900
X76200Y88900
X73660Y88900
X71120Y88900
X64770Y88900
X62230Y88900
X59690Y88900
X53340Y93980
X50800Y93980
X48260Y93980
X41910Y93980
X39370Y93980
X36830Y93980
X30480Y93980
X27940Y93980
X25400Y93980
X85090Y93980
X74930Y104140
X82550Y93980
X76200Y93980
X73660Y93980
X71120Y93980
X64770Y93980
X62230Y93980
X59690Y93980
X96520Y57150
X93980Y57150
X63500Y104140
X60960Y104140
X87630Y93980
X72390Y104140
X85090Y104140
X87630Y104140
T3
X101600Y85090
X93980Y85090
X101600Y104140
X93980Y100330
X101600Y100330
X93980Y104140
X93980Y96520
X101600Y96520
X93980Y74930
X93980Y78740
X101600Y78740
X101600Y92710
X93980Y92710
X101600Y88900
X93980Y88900
X101600Y74930
T4
X113030Y55880
X20320Y55880
X20320Y105410
X83820Y62230
X68580Y62230
X76200Y62230
X76200Y57150
X83820Y57150
X68580Y57150
X43180Y62230
X43180Y57150
X35560Y62230
X27940Y62230
X27940Y57150
X35560Y57150
X113030Y105410
T5
X59850Y77470
X59850Y72390
X59850Y69850
X59850Y67310
X59850Y64770
X51910Y64770
X51910Y67310
X51910Y69850
X59850Y74930
X51910Y77470
X51910Y72390
X51910Y74930
X51910Y80010
X59850Y80010
M30