M48
;GenerationSoftware,Autodesk,EAGLE,9.6.2*%
;CreationDate,2022-09-16T13:22:49Z*%
FMAT,2
ICI,OFF
METRIC,TZ,000.000
T9C0.770
T8C0.813
T7C0.900
T6C1.000
T5C1.016
T4C2.000
T3C2.300
T2C2.997
T1C6.000
%
G90
M71
T1
X95873Y72016
T2
X21700Y65300
X18700Y70000
X24700Y70000
T3
X14000Y105000
X14000Y62000
X101000Y62000
X101000Y105000
T4
X59800Y89097
X68600Y89097
X22600Y89097
X31400Y89097
X35000Y89097
X43800Y89097
X47400Y89097
X56200Y89097
X84600Y89097
X72200Y89097
X93400Y89097
X81000Y89097
T5
X68200Y80900
X65660Y80900
X18097Y82650
X15557Y82650
X18097Y85190
X15557Y85190
X18097Y87730
X15557Y87730
X18097Y90270
X15557Y90270
X18097Y92810
X15557Y92810
X18097Y95350
X15557Y95350
X18097Y97890
X15557Y97890
X18097Y100430
X15557Y100430
X97000Y62992
X94460Y62992
X32403Y62024
X34943Y62024
X37483Y62024
X97000Y65992
X94460Y65992
X63873Y103746
X61333Y103746
X75984Y104000
X73444Y104000
X86249Y103759
X88789Y103759
X24400Y103632
X26940Y103632
X36322Y103521
X38862Y103521
X49394Y103740
X51934Y103740
X50340Y80900
X47800Y80900
X45260Y80900
X39940Y80900
X37400Y80900
X34860Y80900
X29540Y80900
X27000Y80900
X24460Y80900
X91540Y80900
X89000Y80900
X86460Y80900
X81140Y80900
X78600Y80900
X76060Y80900
X70740Y80900
T6
X66700Y96097
X64200Y96097
X61700Y96097
X79100Y96097
X76600Y96097
X51800Y96097
X49300Y96097
X74100Y96097
X29500Y96097
X91500Y96097
X41900Y96097
X39400Y96097
X89000Y96097
X86500Y96097
X54300Y96097
X36900Y96097
X27000Y96097
X24500Y96097
T7
X50980Y100495
X96605Y97020
X62980Y100495
X70600Y100495
X96605Y85600
X83600Y100495
X88980Y100605
X58600Y100495
X22821Y77252
X45600Y100495
X37980Y100495
X33600Y100495
X75980Y100495
X96600Y100605
X25980Y100495
X96605Y77980
X30441Y77252
X96605Y89400
T8
X85820Y72230
X85820Y67150
X78200Y72230
X78200Y67150
X70580Y67150
X45180Y72230
X45180Y67150
X29940Y67150
X29940Y72230
X17000Y76730
X70580Y72230
X37560Y67150
X37560Y72230
X17000Y79270
T9
X54037Y80010
X54037Y74930
X54037Y72390
X54037Y67310
X54037Y64770
X61977Y64770
X61977Y69850
X61977Y72390
X61977Y74930
X61977Y77470
X61977Y80010
X61977Y67310
X54037Y69850
X54037Y77470
M30