G04 EAGLE Gerber RS-274X export*
G75*
%MOMM*%
%FSLAX34Y34*%
%LPD*%
%INBottom Copper*%
%IPPOS*%
%AMOC8*
5,1,8,0,0,1.08239X$1,22.5*%
G01*
%ADD10P,1.732040X8X292.500000*%
%ADD11C,1.950000*%
%ADD12C,1.879600*%
%ADD13R,1.278000X1.278000*%
%ADD14C,1.278000*%
%ADD15C,0.152400*%


D10*
X838200Y622300D03*
X838200Y571500D03*
D11*
X314800Y774700D03*
X256800Y774700D03*
X284800Y726700D03*
D12*
X939800Y965200D03*
X1016000Y965200D03*
D13*
X519100Y800100D03*
D14*
X519100Y774700D03*
X519100Y749300D03*
X519100Y723900D03*
X519100Y698500D03*
X519100Y673100D03*
X519100Y647700D03*
X598500Y647700D03*
X598500Y673100D03*
X598500Y698500D03*
X598500Y723900D03*
X598500Y749300D03*
X598500Y774700D03*
X598500Y800100D03*
D10*
X762000Y622300D03*
X762000Y571500D03*
X685800Y622300D03*
X685800Y571500D03*
X431800Y622300D03*
X431800Y571500D03*
X355600Y622300D03*
X355600Y571500D03*
X279400Y622300D03*
X279400Y571500D03*
D12*
X939800Y1003300D03*
X1016000Y1003300D03*
X939800Y1041400D03*
X1016000Y1041400D03*
X939800Y850900D03*
X1016000Y850900D03*
X939800Y889000D03*
X1016000Y889000D03*
X939800Y927100D03*
X1016000Y927100D03*
X965200Y571500D03*
X939800Y571500D03*
X635000Y1041400D03*
X609600Y1041400D03*
X749300Y1041400D03*
X723900Y1041400D03*
X850900Y1041400D03*
X876300Y1041400D03*
X254000Y1041400D03*
X279400Y1041400D03*
X368300Y1041400D03*
X393700Y1041400D03*
X482600Y1041400D03*
X508000Y1041400D03*
X533400Y889000D03*
X508000Y889000D03*
X482600Y889000D03*
X419100Y889000D03*
X393700Y889000D03*
X368300Y889000D03*
X304800Y889000D03*
X279400Y889000D03*
X254000Y889000D03*
X876300Y889000D03*
X850900Y889000D03*
X825500Y889000D03*
X762000Y889000D03*
X736600Y889000D03*
X711200Y889000D03*
X647700Y889000D03*
X622300Y889000D03*
X596900Y889000D03*
X533400Y939800D03*
X508000Y939800D03*
X482600Y939800D03*
X419100Y939800D03*
X393700Y939800D03*
X368300Y939800D03*
X304800Y939800D03*
X279400Y939800D03*
X254000Y939800D03*
X876300Y939800D03*
X850900Y939800D03*
X825500Y939800D03*
X762000Y939800D03*
X736600Y939800D03*
X711200Y939800D03*
X647700Y939800D03*
X622300Y939800D03*
X596900Y939800D03*
X1016000Y787400D03*
X939800Y787400D03*
X939800Y749300D03*
X1016000Y749300D03*
D15*
X279400Y571500D02*
X228600Y571500D01*
X506400Y647700D02*
X519100Y647700D01*
X506400Y647700D02*
X481000Y622300D01*
X481000Y571500D01*
X622300Y850900D02*
X622700Y851300D01*
X622300Y850900D02*
X596900Y850900D01*
X622300Y850900D02*
X711200Y850900D01*
X749300Y850900D02*
X749700Y851300D01*
X368700Y851300D02*
X368300Y850900D01*
X355600Y571500D02*
X279400Y571500D01*
X355600Y571500D02*
X431800Y571500D01*
X481000Y571500D02*
X685800Y571500D01*
X481000Y571500D02*
X431800Y571500D01*
X685800Y571500D02*
X762000Y571500D01*
X838200Y571500D01*
X825500Y850900D02*
X901700Y850900D01*
X825500Y850900D02*
X749300Y850900D01*
X711200Y850900D01*
X228600Y670500D02*
X228600Y571500D01*
X368700Y850900D02*
X368700Y851300D01*
X368700Y850900D02*
X254000Y850900D01*
X495300Y850900D02*
X495700Y851300D01*
X495300Y850900D02*
X368700Y850900D01*
X495700Y851300D02*
X520300Y851300D01*
X622700Y851300D01*
X825500Y850900D02*
X825500Y889000D01*
X711200Y889000D02*
X711200Y850900D01*
X596900Y850900D02*
X596900Y889000D01*
X520300Y851300D02*
X482600Y889000D01*
X368300Y889000D02*
X368300Y850900D01*
X254000Y850900D02*
X254000Y889000D01*
X254000Y939800D01*
X368300Y939800D02*
X368300Y889000D01*
X482600Y889000D02*
X482600Y939800D01*
X596900Y939800D02*
X596900Y889000D01*
X711200Y889000D02*
X711200Y939800D01*
X825500Y939800D02*
X825500Y889000D01*
X284800Y746700D02*
X256800Y774700D01*
X284800Y746700D02*
X284800Y726700D01*
X901700Y749300D02*
X901700Y850900D01*
X901700Y749300D02*
X939800Y749300D01*
X284800Y726700D02*
X228600Y670500D01*
X838200Y571500D02*
X939800Y571500D01*
X256800Y774700D02*
X256800Y848100D01*
X254000Y850900D01*
X901700Y1003300D02*
X939800Y965200D01*
X901700Y1003300D02*
X673100Y1003300D01*
X635000Y1041400D01*
X611200Y838200D02*
X611200Y812800D01*
X598500Y800100D01*
X327500Y838200D02*
X314800Y825500D01*
X314800Y774700D01*
X327500Y838200D02*
X611200Y838200D01*
X838200Y647700D02*
X838200Y622300D01*
X838200Y647700D02*
X711200Y774700D01*
X598500Y774700D01*
X519100Y698500D02*
X493700Y698500D01*
X431800Y636600D02*
X431800Y622300D01*
X431800Y636600D02*
X493700Y698500D01*
X469900Y749300D02*
X355600Y635000D01*
X355600Y622300D01*
X469900Y749300D02*
X519100Y749300D01*
X519100Y800100D02*
X444500Y800100D01*
X279400Y635000D01*
X279400Y622300D01*
X914400Y1003300D02*
X939800Y1003300D01*
X914400Y1003300D02*
X901700Y1016000D01*
X774700Y1016000D01*
X749300Y1041400D01*
X876300Y1041400D02*
X939800Y1041400D01*
X927100Y957580D02*
X927100Y939800D01*
X939800Y927100D01*
X927100Y957580D02*
X894080Y990600D01*
X558800Y990600D01*
X508000Y1041400D01*
X914400Y952500D02*
X914400Y914400D01*
X939800Y889000D01*
X914400Y952500D02*
X889000Y977900D01*
X457200Y977900D01*
X393700Y1041400D01*
X355600Y965200D02*
X279400Y1041400D01*
X355600Y965200D02*
X889000Y965200D01*
X901700Y952500D01*
X901700Y889000D01*
X939800Y850900D01*
X635000Y673100D02*
X598500Y673100D01*
X635000Y673100D02*
X685800Y622300D01*
X660400Y723900D02*
X598500Y723900D01*
X660400Y723900D02*
X762000Y622300D01*
M02*
