G04 EAGLE Gerber RS-274X export*
G75*
%MOMM*%
%FSLAX34Y34*%
%LPD*%
%INBottom Copper*%
%IPPOS*%
%AMOC8*
5,1,8,0,0,1.08239X$1,22.5*%
G01*
%ADD10C,0.177800*%
%ADD11C,0.101600*%
%ADD12C,0.076200*%
%ADD13P,1.732040X8X292.500000*%
%ADD14C,1.879600*%
%ADD15R,1.278000X1.278000*%
%ADD16C,1.278000*%
%ADD17P,2.034460X8X112.500000*%
%ADD18R,1.879600X1.879600*%
%ADD19P,3.247170X8X112.500000*%
%ADD20C,4.318000*%
%ADD21C,0.152400*%


D10*
X904807Y625809D02*
X904807Y645875D01*
X910381Y645875D02*
X899233Y645875D01*
X892461Y645875D02*
X892461Y625809D01*
X892461Y636957D02*
X881313Y636957D01*
X881313Y645875D02*
X881313Y625809D01*
X872658Y625809D02*
X863739Y625809D01*
X872658Y625809D02*
X872658Y645875D01*
X863739Y645875D01*
X865969Y636957D02*
X872658Y636957D01*
X846733Y645875D02*
X846733Y625809D01*
X846733Y645875D02*
X841159Y645875D01*
X841011Y645873D01*
X840862Y645867D01*
X840714Y645857D01*
X840567Y645843D01*
X840419Y645826D01*
X840272Y645804D01*
X840126Y645778D01*
X839981Y645749D01*
X839836Y645716D01*
X839692Y645679D01*
X839550Y645638D01*
X839408Y645593D01*
X839268Y645544D01*
X839129Y645492D01*
X838992Y645436D01*
X838856Y645377D01*
X838721Y645314D01*
X838589Y645247D01*
X838458Y645177D01*
X838329Y645103D01*
X838202Y645026D01*
X838078Y644946D01*
X837955Y644862D01*
X837835Y644775D01*
X837717Y644685D01*
X837601Y644592D01*
X837488Y644496D01*
X837378Y644397D01*
X837270Y644295D01*
X837165Y644190D01*
X837063Y644082D01*
X836964Y643972D01*
X836868Y643859D01*
X836775Y643743D01*
X836685Y643625D01*
X836598Y643505D01*
X836514Y643382D01*
X836434Y643258D01*
X836357Y643131D01*
X836283Y643002D01*
X836213Y642871D01*
X836146Y642739D01*
X836083Y642604D01*
X836024Y642468D01*
X835968Y642331D01*
X835916Y642192D01*
X835867Y642052D01*
X835822Y641910D01*
X835781Y641768D01*
X835744Y641624D01*
X835711Y641479D01*
X835682Y641334D01*
X835656Y641188D01*
X835634Y641041D01*
X835617Y640893D01*
X835603Y640746D01*
X835593Y640598D01*
X835587Y640449D01*
X835585Y640301D01*
X835585Y631383D01*
X835587Y631235D01*
X835593Y631086D01*
X835603Y630938D01*
X835617Y630791D01*
X835634Y630643D01*
X835656Y630496D01*
X835682Y630350D01*
X835711Y630205D01*
X835744Y630060D01*
X835781Y629916D01*
X835822Y629774D01*
X835867Y629632D01*
X835916Y629492D01*
X835968Y629353D01*
X836024Y629216D01*
X836083Y629080D01*
X836146Y628945D01*
X836213Y628813D01*
X836283Y628682D01*
X836357Y628553D01*
X836434Y628426D01*
X836514Y628302D01*
X836598Y628179D01*
X836685Y628059D01*
X836775Y627941D01*
X836868Y627825D01*
X836964Y627712D01*
X837063Y627602D01*
X837165Y627494D01*
X837270Y627389D01*
X837378Y627287D01*
X837488Y627188D01*
X837601Y627092D01*
X837717Y626999D01*
X837835Y626909D01*
X837955Y626822D01*
X838078Y626738D01*
X838202Y626658D01*
X838329Y626581D01*
X838458Y626507D01*
X838589Y626437D01*
X838721Y626370D01*
X838856Y626307D01*
X838992Y626248D01*
X839129Y626192D01*
X839268Y626140D01*
X839408Y626091D01*
X839550Y626046D01*
X839692Y626005D01*
X839836Y625968D01*
X839981Y625935D01*
X840126Y625906D01*
X840272Y625880D01*
X840419Y625858D01*
X840567Y625841D01*
X840714Y625827D01*
X840862Y625817D01*
X841011Y625811D01*
X841159Y625809D01*
X846733Y625809D01*
X825710Y625809D02*
X825710Y645875D01*
X827940Y625809D02*
X823481Y625809D01*
X823481Y645875D02*
X827940Y645875D01*
X812027Y625809D02*
X807568Y625809D01*
X812027Y625809D02*
X812159Y625811D01*
X812291Y625817D01*
X812423Y625827D01*
X812554Y625840D01*
X812685Y625858D01*
X812816Y625879D01*
X812945Y625905D01*
X813074Y625934D01*
X813202Y625967D01*
X813329Y626003D01*
X813455Y626044D01*
X813580Y626088D01*
X813703Y626136D01*
X813825Y626187D01*
X813945Y626242D01*
X814063Y626301D01*
X814180Y626363D01*
X814295Y626429D01*
X814407Y626497D01*
X814518Y626570D01*
X814627Y626645D01*
X814733Y626724D01*
X814837Y626805D01*
X814938Y626890D01*
X815037Y626978D01*
X815133Y627069D01*
X815226Y627162D01*
X815317Y627258D01*
X815405Y627357D01*
X815490Y627458D01*
X815571Y627562D01*
X815650Y627669D01*
X815725Y627777D01*
X815798Y627888D01*
X815866Y628000D01*
X815932Y628115D01*
X815994Y628232D01*
X816053Y628350D01*
X816108Y628470D01*
X816159Y628592D01*
X816207Y628715D01*
X816251Y628840D01*
X816292Y628966D01*
X816328Y629093D01*
X816361Y629221D01*
X816390Y629350D01*
X816416Y629479D01*
X816437Y629610D01*
X816455Y629741D01*
X816468Y629872D01*
X816478Y630004D01*
X816484Y630136D01*
X816486Y630268D01*
X816486Y641416D01*
X816484Y641548D01*
X816478Y641680D01*
X816468Y641812D01*
X816455Y641943D01*
X816437Y642074D01*
X816416Y642205D01*
X816390Y642334D01*
X816361Y642463D01*
X816328Y642591D01*
X816292Y642718D01*
X816251Y642844D01*
X816207Y642969D01*
X816159Y643092D01*
X816108Y643214D01*
X816053Y643334D01*
X815994Y643452D01*
X815932Y643569D01*
X815866Y643684D01*
X815798Y643796D01*
X815725Y643907D01*
X815650Y644015D01*
X815571Y644122D01*
X815490Y644226D01*
X815405Y644327D01*
X815317Y644426D01*
X815226Y644522D01*
X815133Y644615D01*
X815037Y644706D01*
X814938Y644794D01*
X814837Y644878D01*
X814733Y644960D01*
X814627Y645039D01*
X814518Y645114D01*
X814407Y645186D01*
X814295Y645255D01*
X814180Y645321D01*
X814063Y645383D01*
X813945Y645442D01*
X813825Y645497D01*
X813703Y645548D01*
X813580Y645596D01*
X813455Y645640D01*
X813329Y645681D01*
X813202Y645717D01*
X813074Y645750D01*
X812946Y645779D01*
X812816Y645805D01*
X812685Y645826D01*
X812554Y645844D01*
X812423Y645857D01*
X812291Y645867D01*
X812159Y645873D01*
X812027Y645875D01*
X807568Y645875D01*
X800358Y625809D02*
X791440Y625809D01*
X800358Y625809D02*
X800358Y645875D01*
X791440Y645875D01*
X793670Y636957D02*
X800358Y636957D01*
D11*
X910762Y618636D02*
X910762Y605428D01*
X910762Y612766D02*
X903424Y612766D01*
X903424Y618636D02*
X903424Y605428D01*
X897083Y605428D02*
X891213Y605428D01*
X897083Y605428D02*
X897083Y618636D01*
X891213Y618636D01*
X892680Y612766D02*
X897083Y612766D01*
X887173Y605428D02*
X878367Y618636D01*
X887173Y618636D02*
X878367Y605428D01*
X862834Y605428D02*
X862727Y605430D01*
X862620Y605436D01*
X862513Y605446D01*
X862407Y605459D01*
X862301Y605477D01*
X862196Y605498D01*
X862092Y605523D01*
X861988Y605552D01*
X861886Y605585D01*
X861786Y605622D01*
X861686Y605662D01*
X861588Y605706D01*
X861492Y605753D01*
X861398Y605804D01*
X861305Y605858D01*
X861215Y605915D01*
X861126Y605976D01*
X861040Y606040D01*
X860957Y606107D01*
X860875Y606177D01*
X860797Y606250D01*
X860721Y606326D01*
X860648Y606404D01*
X860578Y606486D01*
X860511Y606569D01*
X860447Y606655D01*
X860386Y606744D01*
X860329Y606834D01*
X860275Y606927D01*
X860224Y607021D01*
X860177Y607117D01*
X860133Y607215D01*
X860093Y607315D01*
X860056Y607415D01*
X860023Y607517D01*
X859994Y607621D01*
X859969Y607725D01*
X859948Y607830D01*
X859930Y607936D01*
X859917Y608042D01*
X859907Y608149D01*
X859901Y608256D01*
X859899Y608363D01*
X862834Y605428D02*
X862987Y605430D01*
X863140Y605436D01*
X863293Y605445D01*
X863445Y605458D01*
X863597Y605475D01*
X863749Y605496D01*
X863900Y605520D01*
X864050Y605548D01*
X864200Y605580D01*
X864348Y605616D01*
X864496Y605655D01*
X864643Y605698D01*
X864789Y605744D01*
X864933Y605794D01*
X865077Y605848D01*
X865219Y605905D01*
X865359Y605966D01*
X865498Y606030D01*
X865635Y606097D01*
X865771Y606168D01*
X865905Y606242D01*
X866037Y606319D01*
X866167Y606400D01*
X866295Y606484D01*
X866421Y606571D01*
X866544Y606661D01*
X866666Y606754D01*
X866785Y606850D01*
X866901Y606949D01*
X867016Y607050D01*
X867127Y607155D01*
X867236Y607262D01*
X866870Y615701D02*
X866868Y615808D01*
X866862Y615915D01*
X866852Y616022D01*
X866839Y616128D01*
X866821Y616234D01*
X866800Y616339D01*
X866775Y616443D01*
X866746Y616547D01*
X866713Y616649D01*
X866676Y616749D01*
X866636Y616849D01*
X866592Y616947D01*
X866545Y617043D01*
X866494Y617137D01*
X866440Y617230D01*
X866383Y617320D01*
X866322Y617409D01*
X866258Y617495D01*
X866191Y617578D01*
X866121Y617660D01*
X866048Y617738D01*
X865972Y617814D01*
X865894Y617887D01*
X865812Y617957D01*
X865729Y618024D01*
X865643Y618088D01*
X865554Y618149D01*
X865464Y618206D01*
X865371Y618260D01*
X865277Y618311D01*
X865181Y618358D01*
X865083Y618402D01*
X864983Y618442D01*
X864883Y618479D01*
X864781Y618512D01*
X864677Y618541D01*
X864573Y618566D01*
X864468Y618587D01*
X864362Y618605D01*
X864256Y618618D01*
X864149Y618628D01*
X864042Y618634D01*
X863935Y618636D01*
X863787Y618634D01*
X863640Y618628D01*
X863493Y618618D01*
X863346Y618604D01*
X863199Y618587D01*
X863054Y618565D01*
X862908Y618539D01*
X862764Y618510D01*
X862620Y618477D01*
X862477Y618439D01*
X862335Y618398D01*
X862195Y618354D01*
X862055Y618305D01*
X861917Y618253D01*
X861781Y618197D01*
X861646Y618137D01*
X861513Y618074D01*
X861381Y618007D01*
X861251Y617937D01*
X861123Y617864D01*
X860998Y617786D01*
X860874Y617706D01*
X860752Y617622D01*
X860633Y617535D01*
X865402Y613133D02*
X865493Y613189D01*
X865582Y613248D01*
X865669Y613310D01*
X865753Y613375D01*
X865836Y613443D01*
X865915Y613514D01*
X865992Y613588D01*
X866066Y613665D01*
X866138Y613744D01*
X866206Y613826D01*
X866272Y613910D01*
X866335Y613997D01*
X866394Y614085D01*
X866450Y614176D01*
X866503Y614269D01*
X866553Y614363D01*
X866599Y614459D01*
X866642Y614557D01*
X866681Y614656D01*
X866717Y614757D01*
X866749Y614859D01*
X866777Y614962D01*
X866801Y615066D01*
X866822Y615170D01*
X866839Y615276D01*
X866853Y615381D01*
X866862Y615488D01*
X866868Y615594D01*
X866870Y615701D01*
X861367Y610931D02*
X861276Y610875D01*
X861187Y610816D01*
X861100Y610754D01*
X861016Y610689D01*
X860933Y610621D01*
X860854Y610550D01*
X860777Y610476D01*
X860703Y610399D01*
X860631Y610320D01*
X860563Y610238D01*
X860497Y610154D01*
X860434Y610067D01*
X860375Y609979D01*
X860319Y609888D01*
X860266Y609795D01*
X860216Y609701D01*
X860170Y609605D01*
X860127Y609507D01*
X860088Y609408D01*
X860052Y609307D01*
X860020Y609205D01*
X859992Y609102D01*
X859968Y608998D01*
X859947Y608894D01*
X859930Y608788D01*
X859916Y608683D01*
X859907Y608576D01*
X859901Y608470D01*
X859899Y608363D01*
X861366Y610931D02*
X865402Y613133D01*
X854155Y614967D02*
X854155Y609097D01*
X854155Y614967D02*
X854153Y615087D01*
X854147Y615207D01*
X854137Y615327D01*
X854124Y615446D01*
X854106Y615565D01*
X854085Y615683D01*
X854059Y615800D01*
X854030Y615917D01*
X853997Y616032D01*
X853960Y616146D01*
X853920Y616259D01*
X853876Y616371D01*
X853828Y616481D01*
X853777Y616590D01*
X853722Y616697D01*
X853663Y616802D01*
X853602Y616904D01*
X853537Y617005D01*
X853468Y617104D01*
X853397Y617201D01*
X853322Y617295D01*
X853245Y617386D01*
X853164Y617475D01*
X853080Y617561D01*
X852994Y617645D01*
X852905Y617726D01*
X852814Y617803D01*
X852720Y617878D01*
X852623Y617949D01*
X852524Y618018D01*
X852423Y618083D01*
X852321Y618144D01*
X852216Y618203D01*
X852109Y618258D01*
X852000Y618309D01*
X851890Y618357D01*
X851778Y618401D01*
X851665Y618441D01*
X851551Y618478D01*
X851436Y618511D01*
X851319Y618540D01*
X851202Y618566D01*
X851084Y618587D01*
X850965Y618605D01*
X850846Y618618D01*
X850726Y618628D01*
X850606Y618634D01*
X850486Y618636D01*
X850366Y618634D01*
X850246Y618628D01*
X850126Y618618D01*
X850007Y618605D01*
X849888Y618587D01*
X849770Y618566D01*
X849653Y618540D01*
X849536Y618511D01*
X849421Y618478D01*
X849307Y618441D01*
X849194Y618401D01*
X849082Y618357D01*
X848972Y618309D01*
X848863Y618258D01*
X848756Y618203D01*
X848652Y618144D01*
X848549Y618083D01*
X848448Y618018D01*
X848349Y617949D01*
X848252Y617878D01*
X848158Y617803D01*
X848067Y617726D01*
X847978Y617645D01*
X847892Y617561D01*
X847808Y617475D01*
X847727Y617386D01*
X847650Y617295D01*
X847575Y617201D01*
X847504Y617104D01*
X847435Y617005D01*
X847370Y616904D01*
X847309Y616802D01*
X847250Y616697D01*
X847195Y616590D01*
X847144Y616481D01*
X847096Y616371D01*
X847052Y616259D01*
X847012Y616146D01*
X846975Y616032D01*
X846942Y615917D01*
X846913Y615800D01*
X846887Y615683D01*
X846866Y615565D01*
X846848Y615446D01*
X846835Y615327D01*
X846825Y615207D01*
X846819Y615087D01*
X846817Y614967D01*
X846817Y609097D01*
X846819Y608977D01*
X846825Y608857D01*
X846835Y608737D01*
X846848Y608618D01*
X846866Y608499D01*
X846887Y608381D01*
X846913Y608264D01*
X846942Y608147D01*
X846975Y608032D01*
X847012Y607918D01*
X847052Y607805D01*
X847096Y607693D01*
X847144Y607583D01*
X847195Y607474D01*
X847250Y607367D01*
X847309Y607263D01*
X847370Y607160D01*
X847435Y607059D01*
X847504Y606960D01*
X847575Y606863D01*
X847650Y606769D01*
X847727Y606678D01*
X847808Y606589D01*
X847892Y606503D01*
X847978Y606419D01*
X848067Y606338D01*
X848158Y606261D01*
X848252Y606186D01*
X848349Y606115D01*
X848448Y606046D01*
X848549Y605981D01*
X848652Y605920D01*
X848756Y605861D01*
X848863Y605806D01*
X848972Y605755D01*
X849082Y605707D01*
X849194Y605663D01*
X849307Y605623D01*
X849421Y605586D01*
X849536Y605553D01*
X849653Y605524D01*
X849770Y605498D01*
X849888Y605477D01*
X850007Y605459D01*
X850126Y605446D01*
X850246Y605436D01*
X850366Y605430D01*
X850486Y605428D01*
X850606Y605430D01*
X850726Y605436D01*
X850846Y605446D01*
X850965Y605459D01*
X851084Y605477D01*
X851202Y605498D01*
X851319Y605524D01*
X851436Y605553D01*
X851551Y605586D01*
X851665Y605623D01*
X851778Y605663D01*
X851890Y605707D01*
X852000Y605755D01*
X852109Y605806D01*
X852216Y605861D01*
X852321Y605920D01*
X852423Y605981D01*
X852524Y606046D01*
X852623Y606115D01*
X852720Y606186D01*
X852814Y606261D01*
X852905Y606338D01*
X852994Y606419D01*
X853080Y606503D01*
X853164Y606589D01*
X853245Y606678D01*
X853322Y606769D01*
X853397Y606863D01*
X853468Y606960D01*
X853537Y607059D01*
X853602Y607160D01*
X853663Y607263D01*
X853722Y607367D01*
X853777Y607474D01*
X853828Y607583D01*
X853876Y607693D01*
X853920Y607805D01*
X853960Y607918D01*
X853997Y608032D01*
X854030Y608147D01*
X854059Y608264D01*
X854085Y608381D01*
X854106Y608499D01*
X854124Y608618D01*
X854137Y608737D01*
X854147Y608857D01*
X854153Y608977D01*
X854155Y609097D01*
X848284Y608363D02*
X845349Y605428D01*
X841207Y609097D02*
X841207Y618636D01*
X841207Y609097D02*
X841205Y608977D01*
X841199Y608857D01*
X841189Y608737D01*
X841176Y608618D01*
X841158Y608499D01*
X841137Y608381D01*
X841111Y608264D01*
X841082Y608147D01*
X841049Y608032D01*
X841012Y607918D01*
X840972Y607805D01*
X840928Y607693D01*
X840880Y607583D01*
X840829Y607474D01*
X840774Y607367D01*
X840715Y607263D01*
X840654Y607160D01*
X840589Y607059D01*
X840520Y606960D01*
X840449Y606863D01*
X840374Y606769D01*
X840297Y606678D01*
X840216Y606589D01*
X840132Y606503D01*
X840046Y606419D01*
X839957Y606338D01*
X839866Y606261D01*
X839772Y606186D01*
X839675Y606115D01*
X839576Y606046D01*
X839475Y605981D01*
X839373Y605920D01*
X839268Y605861D01*
X839161Y605806D01*
X839052Y605755D01*
X838942Y605707D01*
X838830Y605663D01*
X838717Y605623D01*
X838603Y605586D01*
X838488Y605553D01*
X838371Y605524D01*
X838254Y605498D01*
X838136Y605477D01*
X838017Y605459D01*
X837898Y605446D01*
X837778Y605436D01*
X837658Y605430D01*
X837538Y605428D01*
X837418Y605430D01*
X837298Y605436D01*
X837178Y605446D01*
X837059Y605459D01*
X836940Y605477D01*
X836822Y605498D01*
X836705Y605524D01*
X836588Y605553D01*
X836473Y605586D01*
X836359Y605623D01*
X836246Y605663D01*
X836134Y605707D01*
X836024Y605755D01*
X835915Y605806D01*
X835808Y605861D01*
X835704Y605920D01*
X835601Y605981D01*
X835500Y606046D01*
X835401Y606115D01*
X835304Y606186D01*
X835210Y606261D01*
X835119Y606338D01*
X835030Y606419D01*
X834944Y606503D01*
X834860Y606589D01*
X834779Y606678D01*
X834702Y606769D01*
X834627Y606863D01*
X834556Y606960D01*
X834487Y607059D01*
X834422Y607160D01*
X834361Y607263D01*
X834302Y607367D01*
X834247Y607474D01*
X834196Y607583D01*
X834148Y607693D01*
X834104Y607805D01*
X834064Y607918D01*
X834027Y608032D01*
X833994Y608147D01*
X833965Y608264D01*
X833939Y608381D01*
X833918Y608499D01*
X833900Y608618D01*
X833887Y608737D01*
X833877Y608857D01*
X833871Y608977D01*
X833869Y609097D01*
X833869Y618636D01*
X824310Y618636D02*
X828712Y605428D01*
X819907Y605428D02*
X824310Y618636D01*
X821008Y608730D02*
X827612Y608730D01*
X814672Y605428D02*
X814672Y618636D01*
X811003Y618636D01*
X810883Y618634D01*
X810763Y618628D01*
X810643Y618618D01*
X810524Y618605D01*
X810405Y618587D01*
X810287Y618566D01*
X810170Y618540D01*
X810053Y618511D01*
X809938Y618478D01*
X809824Y618441D01*
X809711Y618401D01*
X809599Y618357D01*
X809489Y618309D01*
X809380Y618258D01*
X809273Y618203D01*
X809169Y618144D01*
X809066Y618083D01*
X808965Y618018D01*
X808866Y617949D01*
X808769Y617878D01*
X808675Y617803D01*
X808584Y617726D01*
X808495Y617645D01*
X808409Y617561D01*
X808325Y617475D01*
X808244Y617386D01*
X808167Y617295D01*
X808092Y617201D01*
X808021Y617104D01*
X807952Y617005D01*
X807887Y616904D01*
X807826Y616802D01*
X807767Y616697D01*
X807712Y616590D01*
X807661Y616481D01*
X807613Y616371D01*
X807569Y616259D01*
X807529Y616146D01*
X807492Y616032D01*
X807459Y615917D01*
X807430Y615800D01*
X807404Y615683D01*
X807383Y615565D01*
X807365Y615446D01*
X807352Y615327D01*
X807342Y615207D01*
X807336Y615087D01*
X807334Y614967D01*
X807336Y614847D01*
X807342Y614727D01*
X807352Y614607D01*
X807365Y614488D01*
X807383Y614369D01*
X807404Y614251D01*
X807430Y614134D01*
X807459Y614017D01*
X807492Y613902D01*
X807529Y613788D01*
X807569Y613675D01*
X807613Y613563D01*
X807661Y613453D01*
X807712Y613344D01*
X807767Y613237D01*
X807826Y613133D01*
X807887Y613030D01*
X807952Y612929D01*
X808021Y612830D01*
X808092Y612733D01*
X808167Y612639D01*
X808244Y612548D01*
X808325Y612459D01*
X808409Y612373D01*
X808495Y612289D01*
X808584Y612208D01*
X808675Y612131D01*
X808769Y612056D01*
X808866Y611985D01*
X808965Y611916D01*
X809066Y611851D01*
X809169Y611790D01*
X809273Y611731D01*
X809380Y611676D01*
X809489Y611625D01*
X809599Y611577D01*
X809711Y611533D01*
X809824Y611493D01*
X809938Y611456D01*
X810053Y611423D01*
X810170Y611394D01*
X810287Y611368D01*
X810405Y611347D01*
X810524Y611329D01*
X810643Y611316D01*
X810763Y611306D01*
X810883Y611300D01*
X811003Y611298D01*
X814672Y611298D01*
X810270Y611298D02*
X807334Y605428D01*
X801498Y605428D02*
X795628Y605428D01*
X801498Y605428D02*
X801498Y618636D01*
X795628Y618636D01*
X797095Y612766D02*
X801498Y612766D01*
X791348Y618636D02*
X788413Y605428D01*
X785478Y614233D01*
X782543Y605428D01*
X779608Y618636D01*
X770970Y618636D02*
X775372Y605428D01*
X766567Y605428D02*
X770970Y618636D01*
X767668Y608730D02*
X774272Y608730D01*
X762571Y618636D02*
X758168Y605428D01*
X753765Y618636D01*
X748585Y605428D02*
X742715Y605428D01*
X748585Y605428D02*
X748585Y618636D01*
X742715Y618636D01*
X744182Y612766D02*
X748585Y612766D01*
X731113Y614967D02*
X731113Y609097D01*
X731113Y614967D02*
X731111Y615087D01*
X731105Y615207D01*
X731095Y615327D01*
X731082Y615446D01*
X731064Y615565D01*
X731043Y615683D01*
X731017Y615800D01*
X730988Y615917D01*
X730955Y616032D01*
X730918Y616146D01*
X730878Y616259D01*
X730834Y616371D01*
X730786Y616481D01*
X730735Y616590D01*
X730680Y616697D01*
X730621Y616802D01*
X730560Y616904D01*
X730495Y617005D01*
X730426Y617104D01*
X730355Y617201D01*
X730280Y617295D01*
X730203Y617386D01*
X730122Y617475D01*
X730038Y617561D01*
X729952Y617645D01*
X729863Y617726D01*
X729772Y617803D01*
X729678Y617878D01*
X729581Y617949D01*
X729482Y618018D01*
X729381Y618083D01*
X729279Y618144D01*
X729174Y618203D01*
X729067Y618258D01*
X728958Y618309D01*
X728848Y618357D01*
X728736Y618401D01*
X728623Y618441D01*
X728509Y618478D01*
X728394Y618511D01*
X728277Y618540D01*
X728160Y618566D01*
X728042Y618587D01*
X727923Y618605D01*
X727804Y618618D01*
X727684Y618628D01*
X727564Y618634D01*
X727444Y618636D01*
X727324Y618634D01*
X727204Y618628D01*
X727084Y618618D01*
X726965Y618605D01*
X726846Y618587D01*
X726728Y618566D01*
X726611Y618540D01*
X726494Y618511D01*
X726379Y618478D01*
X726265Y618441D01*
X726152Y618401D01*
X726040Y618357D01*
X725930Y618309D01*
X725821Y618258D01*
X725714Y618203D01*
X725610Y618144D01*
X725507Y618083D01*
X725406Y618018D01*
X725307Y617949D01*
X725210Y617878D01*
X725116Y617803D01*
X725025Y617726D01*
X724936Y617645D01*
X724850Y617561D01*
X724766Y617475D01*
X724685Y617386D01*
X724608Y617295D01*
X724533Y617201D01*
X724462Y617104D01*
X724393Y617005D01*
X724328Y616904D01*
X724267Y616802D01*
X724208Y616697D01*
X724153Y616590D01*
X724102Y616481D01*
X724054Y616371D01*
X724010Y616259D01*
X723970Y616146D01*
X723933Y616032D01*
X723900Y615917D01*
X723871Y615800D01*
X723845Y615683D01*
X723824Y615565D01*
X723806Y615446D01*
X723793Y615327D01*
X723783Y615207D01*
X723777Y615087D01*
X723775Y614967D01*
X723775Y609097D01*
X723777Y608977D01*
X723783Y608857D01*
X723793Y608737D01*
X723806Y608618D01*
X723824Y608499D01*
X723845Y608381D01*
X723871Y608264D01*
X723900Y608147D01*
X723933Y608032D01*
X723970Y607918D01*
X724010Y607805D01*
X724054Y607693D01*
X724102Y607583D01*
X724153Y607474D01*
X724208Y607367D01*
X724267Y607263D01*
X724328Y607160D01*
X724393Y607059D01*
X724462Y606960D01*
X724533Y606863D01*
X724608Y606769D01*
X724685Y606678D01*
X724766Y606589D01*
X724850Y606503D01*
X724936Y606419D01*
X725025Y606338D01*
X725116Y606261D01*
X725210Y606186D01*
X725307Y606115D01*
X725406Y606046D01*
X725507Y605981D01*
X725610Y605920D01*
X725714Y605861D01*
X725821Y605806D01*
X725930Y605755D01*
X726040Y605707D01*
X726152Y605663D01*
X726265Y605623D01*
X726379Y605586D01*
X726494Y605553D01*
X726611Y605524D01*
X726728Y605498D01*
X726846Y605477D01*
X726965Y605459D01*
X727084Y605446D01*
X727204Y605436D01*
X727324Y605430D01*
X727444Y605428D01*
X727564Y605430D01*
X727684Y605436D01*
X727804Y605446D01*
X727923Y605459D01*
X728042Y605477D01*
X728160Y605498D01*
X728277Y605524D01*
X728394Y605553D01*
X728509Y605586D01*
X728623Y605623D01*
X728736Y605663D01*
X728848Y605707D01*
X728958Y605755D01*
X729067Y605806D01*
X729174Y605861D01*
X729279Y605920D01*
X729381Y605981D01*
X729482Y606046D01*
X729581Y606115D01*
X729678Y606186D01*
X729772Y606261D01*
X729863Y606338D01*
X729952Y606419D01*
X730038Y606503D01*
X730122Y606589D01*
X730203Y606678D01*
X730280Y606769D01*
X730355Y606863D01*
X730426Y606960D01*
X730495Y607059D01*
X730560Y607160D01*
X730621Y607263D01*
X730680Y607367D01*
X730735Y607474D01*
X730786Y607583D01*
X730834Y607693D01*
X730878Y607805D01*
X730918Y607918D01*
X730955Y608032D01*
X730988Y608147D01*
X731017Y608264D01*
X731043Y608381D01*
X731064Y608499D01*
X731082Y608618D01*
X731095Y608737D01*
X731105Y608857D01*
X731111Y608977D01*
X731113Y609097D01*
X714336Y605428D02*
X714229Y605430D01*
X714122Y605436D01*
X714015Y605446D01*
X713909Y605459D01*
X713803Y605477D01*
X713698Y605498D01*
X713594Y605523D01*
X713490Y605552D01*
X713388Y605585D01*
X713288Y605622D01*
X713188Y605662D01*
X713090Y605706D01*
X712994Y605753D01*
X712900Y605804D01*
X712807Y605858D01*
X712717Y605915D01*
X712628Y605976D01*
X712542Y606040D01*
X712459Y606107D01*
X712377Y606177D01*
X712299Y606250D01*
X712223Y606326D01*
X712150Y606404D01*
X712080Y606486D01*
X712013Y606569D01*
X711949Y606655D01*
X711888Y606744D01*
X711831Y606834D01*
X711777Y606927D01*
X711726Y607021D01*
X711679Y607117D01*
X711635Y607215D01*
X711595Y607315D01*
X711558Y607415D01*
X711525Y607517D01*
X711496Y607621D01*
X711471Y607725D01*
X711450Y607830D01*
X711432Y607936D01*
X711419Y608042D01*
X711409Y608149D01*
X711403Y608256D01*
X711401Y608363D01*
X714336Y605428D02*
X714489Y605430D01*
X714642Y605436D01*
X714795Y605445D01*
X714947Y605458D01*
X715099Y605475D01*
X715251Y605496D01*
X715402Y605520D01*
X715552Y605548D01*
X715702Y605580D01*
X715850Y605616D01*
X715998Y605655D01*
X716145Y605698D01*
X716291Y605744D01*
X716435Y605794D01*
X716579Y605848D01*
X716721Y605905D01*
X716861Y605966D01*
X717000Y606030D01*
X717137Y606097D01*
X717273Y606168D01*
X717407Y606242D01*
X717539Y606319D01*
X717669Y606400D01*
X717797Y606484D01*
X717923Y606571D01*
X718046Y606661D01*
X718168Y606754D01*
X718287Y606850D01*
X718403Y606949D01*
X718518Y607050D01*
X718629Y607155D01*
X718738Y607262D01*
X718371Y615701D02*
X718369Y615808D01*
X718363Y615915D01*
X718353Y616022D01*
X718340Y616128D01*
X718322Y616234D01*
X718301Y616339D01*
X718276Y616443D01*
X718247Y616547D01*
X718214Y616649D01*
X718177Y616749D01*
X718137Y616849D01*
X718093Y616947D01*
X718046Y617043D01*
X717995Y617137D01*
X717941Y617230D01*
X717884Y617320D01*
X717823Y617409D01*
X717759Y617495D01*
X717692Y617578D01*
X717622Y617660D01*
X717549Y617738D01*
X717473Y617814D01*
X717395Y617887D01*
X717313Y617957D01*
X717230Y618024D01*
X717144Y618088D01*
X717055Y618149D01*
X716965Y618206D01*
X716872Y618260D01*
X716778Y618311D01*
X716682Y618358D01*
X716584Y618402D01*
X716484Y618442D01*
X716384Y618479D01*
X716282Y618512D01*
X716178Y618541D01*
X716074Y618566D01*
X715969Y618587D01*
X715863Y618605D01*
X715757Y618618D01*
X715650Y618628D01*
X715543Y618634D01*
X715436Y618636D01*
X715288Y618634D01*
X715141Y618628D01*
X714994Y618618D01*
X714847Y618604D01*
X714700Y618587D01*
X714555Y618565D01*
X714409Y618539D01*
X714265Y618510D01*
X714121Y618477D01*
X713978Y618439D01*
X713836Y618398D01*
X713696Y618354D01*
X713556Y618305D01*
X713418Y618253D01*
X713282Y618197D01*
X713147Y618137D01*
X713014Y618074D01*
X712882Y618007D01*
X712752Y617937D01*
X712624Y617864D01*
X712499Y617786D01*
X712375Y617706D01*
X712253Y617622D01*
X712134Y617535D01*
X716903Y613133D02*
X716994Y613189D01*
X717083Y613248D01*
X717170Y613310D01*
X717254Y613375D01*
X717337Y613443D01*
X717416Y613514D01*
X717493Y613588D01*
X717567Y613665D01*
X717639Y613744D01*
X717707Y613826D01*
X717773Y613910D01*
X717836Y613997D01*
X717895Y614085D01*
X717951Y614176D01*
X718004Y614269D01*
X718054Y614363D01*
X718100Y614459D01*
X718143Y614557D01*
X718182Y614656D01*
X718218Y614757D01*
X718250Y614859D01*
X718278Y614962D01*
X718302Y615066D01*
X718323Y615170D01*
X718340Y615276D01*
X718354Y615381D01*
X718363Y615488D01*
X718369Y615594D01*
X718371Y615701D01*
X712869Y610931D02*
X712778Y610875D01*
X712689Y610816D01*
X712602Y610754D01*
X712518Y610689D01*
X712435Y610621D01*
X712356Y610550D01*
X712279Y610476D01*
X712205Y610399D01*
X712133Y610320D01*
X712065Y610238D01*
X711999Y610154D01*
X711936Y610067D01*
X711877Y609979D01*
X711821Y609888D01*
X711768Y609795D01*
X711718Y609701D01*
X711672Y609605D01*
X711629Y609507D01*
X711590Y609408D01*
X711554Y609307D01*
X711522Y609205D01*
X711494Y609102D01*
X711470Y608998D01*
X711449Y608894D01*
X711432Y608788D01*
X711418Y608683D01*
X711409Y608576D01*
X711403Y608470D01*
X711401Y608363D01*
X712868Y610931D02*
X716904Y613133D01*
X703464Y605428D02*
X700528Y605428D01*
X703464Y605428D02*
X703571Y605430D01*
X703678Y605436D01*
X703785Y605446D01*
X703891Y605459D01*
X703997Y605477D01*
X704102Y605498D01*
X704206Y605523D01*
X704310Y605552D01*
X704412Y605585D01*
X704512Y605622D01*
X704612Y605662D01*
X704710Y605706D01*
X704806Y605753D01*
X704900Y605804D01*
X704993Y605858D01*
X705083Y605915D01*
X705172Y605976D01*
X705258Y606040D01*
X705341Y606107D01*
X705423Y606177D01*
X705501Y606250D01*
X705577Y606326D01*
X705650Y606404D01*
X705720Y606486D01*
X705787Y606569D01*
X705851Y606655D01*
X705912Y606744D01*
X705969Y606834D01*
X706023Y606927D01*
X706074Y607021D01*
X706122Y607117D01*
X706165Y607215D01*
X706205Y607315D01*
X706242Y607415D01*
X706275Y607517D01*
X706304Y607621D01*
X706329Y607725D01*
X706350Y607830D01*
X706368Y607936D01*
X706381Y608042D01*
X706391Y608149D01*
X706397Y608256D01*
X706399Y608363D01*
X706399Y615701D01*
X706397Y615808D01*
X706391Y615915D01*
X706381Y616022D01*
X706368Y616128D01*
X706350Y616234D01*
X706329Y616339D01*
X706304Y616443D01*
X706275Y616547D01*
X706242Y616649D01*
X706205Y616749D01*
X706165Y616849D01*
X706121Y616947D01*
X706074Y617043D01*
X706023Y617137D01*
X705969Y617230D01*
X705912Y617320D01*
X705851Y617409D01*
X705787Y617495D01*
X705720Y617578D01*
X705650Y617660D01*
X705577Y617738D01*
X705501Y617814D01*
X705423Y617887D01*
X705341Y617957D01*
X705258Y618024D01*
X705172Y618088D01*
X705083Y618149D01*
X704993Y618206D01*
X704900Y618260D01*
X704806Y618311D01*
X704710Y618358D01*
X704612Y618402D01*
X704513Y618442D01*
X704412Y618479D01*
X704310Y618512D01*
X704206Y618541D01*
X704102Y618566D01*
X703997Y618587D01*
X703891Y618605D01*
X703785Y618618D01*
X703678Y618628D01*
X703571Y618634D01*
X703464Y618636D01*
X700528Y618636D01*
X694587Y618636D02*
X694587Y605428D01*
X696054Y605428D02*
X693119Y605428D01*
X693119Y618636D02*
X696054Y618636D01*
X687564Y618636D02*
X687564Y605428D01*
X681694Y605428D01*
X676469Y605428D02*
X676469Y618636D01*
X676469Y605428D02*
X670599Y605428D01*
X666559Y605428D02*
X662156Y618636D01*
X657754Y605428D01*
X658854Y608730D02*
X665458Y608730D01*
X650208Y605428D02*
X650208Y618636D01*
X653877Y618636D02*
X646539Y618636D01*
X641929Y614967D02*
X641929Y609097D01*
X641929Y614967D02*
X641927Y615087D01*
X641921Y615207D01*
X641911Y615327D01*
X641898Y615446D01*
X641880Y615565D01*
X641859Y615683D01*
X641833Y615800D01*
X641804Y615917D01*
X641771Y616032D01*
X641734Y616146D01*
X641694Y616259D01*
X641650Y616371D01*
X641602Y616481D01*
X641551Y616590D01*
X641496Y616697D01*
X641437Y616802D01*
X641376Y616904D01*
X641311Y617005D01*
X641242Y617104D01*
X641171Y617201D01*
X641096Y617295D01*
X641019Y617386D01*
X640938Y617475D01*
X640854Y617561D01*
X640768Y617645D01*
X640679Y617726D01*
X640588Y617803D01*
X640494Y617878D01*
X640397Y617949D01*
X640298Y618018D01*
X640197Y618083D01*
X640095Y618144D01*
X639990Y618203D01*
X639883Y618258D01*
X639774Y618309D01*
X639664Y618357D01*
X639552Y618401D01*
X639439Y618441D01*
X639325Y618478D01*
X639210Y618511D01*
X639093Y618540D01*
X638976Y618566D01*
X638858Y618587D01*
X638739Y618605D01*
X638620Y618618D01*
X638500Y618628D01*
X638380Y618634D01*
X638260Y618636D01*
X638140Y618634D01*
X638020Y618628D01*
X637900Y618618D01*
X637781Y618605D01*
X637662Y618587D01*
X637544Y618566D01*
X637427Y618540D01*
X637310Y618511D01*
X637195Y618478D01*
X637081Y618441D01*
X636968Y618401D01*
X636856Y618357D01*
X636746Y618309D01*
X636637Y618258D01*
X636530Y618203D01*
X636426Y618144D01*
X636323Y618083D01*
X636222Y618018D01*
X636123Y617949D01*
X636026Y617878D01*
X635932Y617803D01*
X635841Y617726D01*
X635752Y617645D01*
X635666Y617561D01*
X635582Y617475D01*
X635501Y617386D01*
X635424Y617295D01*
X635349Y617201D01*
X635278Y617104D01*
X635209Y617005D01*
X635144Y616904D01*
X635083Y616802D01*
X635024Y616697D01*
X634969Y616590D01*
X634918Y616481D01*
X634870Y616371D01*
X634826Y616259D01*
X634786Y616146D01*
X634749Y616032D01*
X634716Y615917D01*
X634687Y615800D01*
X634661Y615683D01*
X634640Y615565D01*
X634622Y615446D01*
X634609Y615327D01*
X634599Y615207D01*
X634593Y615087D01*
X634591Y614967D01*
X634591Y609097D01*
X634593Y608977D01*
X634599Y608857D01*
X634609Y608737D01*
X634622Y608618D01*
X634640Y608499D01*
X634661Y608381D01*
X634687Y608264D01*
X634716Y608147D01*
X634749Y608032D01*
X634786Y607918D01*
X634826Y607805D01*
X634870Y607693D01*
X634918Y607583D01*
X634969Y607474D01*
X635024Y607367D01*
X635083Y607263D01*
X635144Y607160D01*
X635209Y607059D01*
X635278Y606960D01*
X635349Y606863D01*
X635424Y606769D01*
X635501Y606678D01*
X635582Y606589D01*
X635666Y606503D01*
X635752Y606419D01*
X635841Y606338D01*
X635932Y606261D01*
X636026Y606186D01*
X636123Y606115D01*
X636222Y606046D01*
X636323Y605981D01*
X636426Y605920D01*
X636530Y605861D01*
X636637Y605806D01*
X636746Y605755D01*
X636856Y605707D01*
X636968Y605663D01*
X637081Y605623D01*
X637195Y605586D01*
X637310Y605553D01*
X637427Y605524D01*
X637544Y605498D01*
X637662Y605477D01*
X637781Y605459D01*
X637900Y605446D01*
X638020Y605436D01*
X638140Y605430D01*
X638260Y605428D01*
X638380Y605430D01*
X638500Y605436D01*
X638620Y605446D01*
X638739Y605459D01*
X638858Y605477D01*
X638976Y605498D01*
X639093Y605524D01*
X639210Y605553D01*
X639325Y605586D01*
X639439Y605623D01*
X639552Y605663D01*
X639664Y605707D01*
X639774Y605755D01*
X639883Y605806D01*
X639990Y605861D01*
X640095Y605920D01*
X640197Y605981D01*
X640298Y606046D01*
X640397Y606115D01*
X640494Y606186D01*
X640588Y606261D01*
X640679Y606338D01*
X640768Y606419D01*
X640854Y606503D01*
X640938Y606589D01*
X641019Y606678D01*
X641096Y606769D01*
X641171Y606863D01*
X641242Y606960D01*
X641311Y607059D01*
X641376Y607160D01*
X641437Y607263D01*
X641496Y607367D01*
X641551Y607474D01*
X641602Y607583D01*
X641650Y607693D01*
X641694Y607805D01*
X641734Y607918D01*
X641771Y608032D01*
X641804Y608147D01*
X641833Y608264D01*
X641859Y608381D01*
X641880Y608499D01*
X641898Y608618D01*
X641911Y608737D01*
X641921Y608857D01*
X641927Y608977D01*
X641929Y609097D01*
X628623Y605428D02*
X628623Y618636D01*
X624954Y618636D01*
X624834Y618634D01*
X624714Y618628D01*
X624594Y618618D01*
X624475Y618605D01*
X624356Y618587D01*
X624238Y618566D01*
X624121Y618540D01*
X624004Y618511D01*
X623889Y618478D01*
X623775Y618441D01*
X623662Y618401D01*
X623550Y618357D01*
X623440Y618309D01*
X623331Y618258D01*
X623224Y618203D01*
X623120Y618144D01*
X623017Y618083D01*
X622916Y618018D01*
X622817Y617949D01*
X622720Y617878D01*
X622626Y617803D01*
X622535Y617726D01*
X622446Y617645D01*
X622360Y617561D01*
X622276Y617475D01*
X622195Y617386D01*
X622118Y617295D01*
X622043Y617201D01*
X621972Y617104D01*
X621903Y617005D01*
X621838Y616904D01*
X621777Y616802D01*
X621718Y616697D01*
X621663Y616590D01*
X621612Y616481D01*
X621564Y616371D01*
X621520Y616259D01*
X621480Y616146D01*
X621443Y616032D01*
X621410Y615917D01*
X621381Y615800D01*
X621355Y615683D01*
X621334Y615565D01*
X621316Y615446D01*
X621303Y615327D01*
X621293Y615207D01*
X621287Y615087D01*
X621285Y614967D01*
X621287Y614847D01*
X621293Y614727D01*
X621303Y614607D01*
X621316Y614488D01*
X621334Y614369D01*
X621355Y614251D01*
X621381Y614134D01*
X621410Y614017D01*
X621443Y613902D01*
X621480Y613788D01*
X621520Y613675D01*
X621564Y613563D01*
X621612Y613453D01*
X621663Y613344D01*
X621718Y613237D01*
X621777Y613133D01*
X621838Y613030D01*
X621903Y612929D01*
X621972Y612830D01*
X622043Y612733D01*
X622118Y612639D01*
X622195Y612548D01*
X622276Y612459D01*
X622360Y612373D01*
X622446Y612289D01*
X622535Y612208D01*
X622626Y612131D01*
X622720Y612056D01*
X622817Y611985D01*
X622916Y611916D01*
X623017Y611851D01*
X623120Y611790D01*
X623224Y611731D01*
X623331Y611676D01*
X623440Y611625D01*
X623550Y611577D01*
X623662Y611533D01*
X623775Y611493D01*
X623889Y611456D01*
X624004Y611423D01*
X624121Y611394D01*
X624238Y611368D01*
X624356Y611347D01*
X624475Y611329D01*
X624594Y611316D01*
X624714Y611306D01*
X624834Y611300D01*
X624954Y611298D01*
X628623Y611298D01*
X624220Y611298D02*
X621285Y605428D01*
D12*
X779399Y638523D02*
X779399Y645889D01*
X777353Y645889D01*
X777264Y645887D01*
X777175Y645881D01*
X777086Y645871D01*
X776998Y645858D01*
X776910Y645841D01*
X776823Y645819D01*
X776738Y645794D01*
X776653Y645766D01*
X776570Y645733D01*
X776488Y645697D01*
X776408Y645658D01*
X776330Y645615D01*
X776254Y645569D01*
X776179Y645519D01*
X776107Y645466D01*
X776038Y645410D01*
X775971Y645351D01*
X775906Y645290D01*
X775845Y645225D01*
X775786Y645158D01*
X775730Y645089D01*
X775677Y645017D01*
X775627Y644942D01*
X775581Y644866D01*
X775538Y644788D01*
X775499Y644708D01*
X775463Y644626D01*
X775430Y644543D01*
X775402Y644458D01*
X775377Y644373D01*
X775355Y644286D01*
X775338Y644198D01*
X775325Y644110D01*
X775315Y644021D01*
X775309Y643932D01*
X775307Y643843D01*
X775307Y640569D01*
X775309Y640480D01*
X775315Y640391D01*
X775325Y640302D01*
X775338Y640214D01*
X775355Y640126D01*
X775377Y640039D01*
X775402Y639954D01*
X775430Y639869D01*
X775463Y639786D01*
X775499Y639704D01*
X775538Y639624D01*
X775581Y639546D01*
X775627Y639470D01*
X775677Y639395D01*
X775730Y639323D01*
X775786Y639254D01*
X775845Y639187D01*
X775906Y639122D01*
X775971Y639061D01*
X776038Y639002D01*
X776107Y638946D01*
X776179Y638893D01*
X776254Y638843D01*
X776330Y638797D01*
X776408Y638754D01*
X776488Y638715D01*
X776570Y638679D01*
X776653Y638646D01*
X776738Y638618D01*
X776823Y638593D01*
X776910Y638571D01*
X776998Y638554D01*
X777086Y638541D01*
X777175Y638531D01*
X777264Y638525D01*
X777353Y638523D01*
X779399Y638523D01*
X771580Y638523D02*
X768307Y638523D01*
X771580Y638523D02*
X771580Y645889D01*
X768307Y645889D01*
X769125Y642615D02*
X771580Y642615D01*
X763289Y638523D02*
X763211Y638525D01*
X763133Y638530D01*
X763056Y638540D01*
X762979Y638553D01*
X762903Y638569D01*
X762828Y638589D01*
X762754Y638613D01*
X762681Y638640D01*
X762609Y638671D01*
X762539Y638705D01*
X762471Y638742D01*
X762404Y638783D01*
X762339Y638827D01*
X762277Y638873D01*
X762217Y638923D01*
X762159Y638975D01*
X762104Y639030D01*
X762052Y639088D01*
X762002Y639148D01*
X761956Y639210D01*
X761912Y639275D01*
X761871Y639341D01*
X761834Y639410D01*
X761800Y639480D01*
X761769Y639552D01*
X761742Y639625D01*
X761718Y639699D01*
X761698Y639774D01*
X761682Y639850D01*
X761669Y639927D01*
X761659Y640004D01*
X761654Y640082D01*
X761652Y640160D01*
X763289Y638523D02*
X763403Y638525D01*
X763516Y638530D01*
X763630Y638540D01*
X763743Y638553D01*
X763855Y638570D01*
X763967Y638590D01*
X764078Y638614D01*
X764189Y638642D01*
X764298Y638673D01*
X764406Y638708D01*
X764513Y638747D01*
X764619Y638789D01*
X764723Y638834D01*
X764826Y638883D01*
X764927Y638936D01*
X765026Y638991D01*
X765124Y639050D01*
X765219Y639112D01*
X765312Y639177D01*
X765404Y639245D01*
X765492Y639316D01*
X765579Y639390D01*
X765663Y639467D01*
X765744Y639546D01*
X765540Y644252D02*
X765538Y644330D01*
X765533Y644408D01*
X765523Y644485D01*
X765510Y644562D01*
X765494Y644638D01*
X765474Y644713D01*
X765450Y644787D01*
X765423Y644860D01*
X765392Y644932D01*
X765358Y645002D01*
X765321Y645071D01*
X765280Y645137D01*
X765236Y645202D01*
X765190Y645264D01*
X765140Y645324D01*
X765088Y645382D01*
X765033Y645437D01*
X764975Y645489D01*
X764915Y645539D01*
X764853Y645585D01*
X764788Y645629D01*
X764722Y645670D01*
X764653Y645707D01*
X764583Y645741D01*
X764511Y645772D01*
X764438Y645799D01*
X764364Y645823D01*
X764289Y645843D01*
X764213Y645859D01*
X764136Y645872D01*
X764059Y645882D01*
X763981Y645887D01*
X763903Y645889D01*
X763793Y645887D01*
X763684Y645881D01*
X763574Y645871D01*
X763466Y645858D01*
X763357Y645840D01*
X763250Y645819D01*
X763143Y645793D01*
X763037Y645764D01*
X762932Y645732D01*
X762829Y645695D01*
X762727Y645655D01*
X762626Y645611D01*
X762527Y645563D01*
X762430Y645513D01*
X762335Y645458D01*
X762242Y645400D01*
X762151Y645339D01*
X762062Y645275D01*
X764721Y642819D02*
X764788Y642861D01*
X764853Y642905D01*
X764915Y642953D01*
X764975Y643003D01*
X765033Y643056D01*
X765088Y643112D01*
X765140Y643171D01*
X765190Y643231D01*
X765237Y643295D01*
X765280Y643360D01*
X765321Y643427D01*
X765358Y643496D01*
X765392Y643567D01*
X765423Y643639D01*
X765450Y643713D01*
X765474Y643787D01*
X765494Y643863D01*
X765510Y643940D01*
X765523Y644017D01*
X765533Y644095D01*
X765538Y644174D01*
X765540Y644252D01*
X762470Y641592D02*
X762404Y641551D01*
X762339Y641506D01*
X762277Y641459D01*
X762217Y641408D01*
X762159Y641355D01*
X762104Y641299D01*
X762051Y641241D01*
X762002Y641180D01*
X761955Y641117D01*
X761912Y641052D01*
X761871Y640985D01*
X761834Y640916D01*
X761800Y640845D01*
X761769Y640773D01*
X761742Y640699D01*
X761718Y640624D01*
X761698Y640549D01*
X761682Y640472D01*
X761669Y640395D01*
X761659Y640317D01*
X761654Y640238D01*
X761652Y640160D01*
X762470Y641592D02*
X764721Y642820D01*
X758090Y645889D02*
X758090Y638523D01*
X758908Y638523D02*
X757271Y638523D01*
X757271Y645889D02*
X758908Y645889D01*
X751175Y642615D02*
X749947Y642615D01*
X749947Y638523D01*
X752403Y638523D01*
X752481Y638525D01*
X752559Y638530D01*
X752636Y638540D01*
X752713Y638553D01*
X752789Y638569D01*
X752864Y638589D01*
X752938Y638613D01*
X753011Y638640D01*
X753083Y638671D01*
X753153Y638705D01*
X753222Y638742D01*
X753288Y638783D01*
X753353Y638827D01*
X753415Y638873D01*
X753475Y638923D01*
X753533Y638975D01*
X753588Y639030D01*
X753640Y639088D01*
X753690Y639148D01*
X753736Y639210D01*
X753780Y639275D01*
X753821Y639342D01*
X753858Y639410D01*
X753892Y639480D01*
X753923Y639552D01*
X753950Y639625D01*
X753974Y639699D01*
X753994Y639774D01*
X754010Y639850D01*
X754023Y639927D01*
X754033Y640004D01*
X754038Y640082D01*
X754040Y640160D01*
X754040Y644252D01*
X754038Y644330D01*
X754033Y644408D01*
X754023Y644485D01*
X754010Y644562D01*
X753994Y644638D01*
X753974Y644713D01*
X753950Y644787D01*
X753923Y644860D01*
X753892Y644932D01*
X753858Y645002D01*
X753821Y645071D01*
X753780Y645137D01*
X753736Y645202D01*
X753690Y645264D01*
X753640Y645324D01*
X753588Y645382D01*
X753533Y645437D01*
X753475Y645489D01*
X753415Y645539D01*
X753353Y645585D01*
X753288Y645629D01*
X753222Y645670D01*
X753153Y645707D01*
X753083Y645741D01*
X753011Y645772D01*
X752938Y645799D01*
X752864Y645823D01*
X752789Y645843D01*
X752713Y645859D01*
X752636Y645872D01*
X752559Y645882D01*
X752481Y645887D01*
X752403Y645889D01*
X749947Y645889D01*
X746237Y645889D02*
X746237Y638523D01*
X742145Y638523D02*
X746237Y645889D01*
X742145Y645889D02*
X742145Y638523D01*
X734415Y642615D02*
X732369Y642615D01*
X732280Y642613D01*
X732191Y642607D01*
X732102Y642597D01*
X732014Y642584D01*
X731926Y642567D01*
X731839Y642545D01*
X731754Y642520D01*
X731669Y642492D01*
X731586Y642459D01*
X731504Y642423D01*
X731424Y642384D01*
X731346Y642341D01*
X731270Y642295D01*
X731195Y642245D01*
X731123Y642192D01*
X731054Y642136D01*
X730987Y642077D01*
X730922Y642016D01*
X730861Y641951D01*
X730802Y641884D01*
X730746Y641815D01*
X730693Y641743D01*
X730643Y641668D01*
X730597Y641592D01*
X730554Y641514D01*
X730515Y641434D01*
X730479Y641352D01*
X730446Y641269D01*
X730418Y641184D01*
X730393Y641099D01*
X730371Y641012D01*
X730354Y640924D01*
X730341Y640836D01*
X730331Y640747D01*
X730325Y640658D01*
X730323Y640569D01*
X730325Y640480D01*
X730331Y640391D01*
X730341Y640302D01*
X730354Y640214D01*
X730371Y640126D01*
X730393Y640039D01*
X730418Y639954D01*
X730446Y639869D01*
X730479Y639786D01*
X730515Y639704D01*
X730554Y639624D01*
X730597Y639546D01*
X730643Y639470D01*
X730693Y639395D01*
X730746Y639323D01*
X730802Y639254D01*
X730861Y639187D01*
X730922Y639122D01*
X730987Y639061D01*
X731054Y639002D01*
X731123Y638946D01*
X731195Y638893D01*
X731270Y638843D01*
X731346Y638797D01*
X731424Y638754D01*
X731504Y638715D01*
X731586Y638679D01*
X731669Y638646D01*
X731754Y638618D01*
X731839Y638593D01*
X731926Y638571D01*
X732014Y638554D01*
X732102Y638541D01*
X732191Y638531D01*
X732280Y638525D01*
X732369Y638523D01*
X734415Y638523D01*
X734415Y645889D01*
X732369Y645889D01*
X732290Y645887D01*
X732211Y645881D01*
X732132Y645872D01*
X732054Y645859D01*
X731977Y645841D01*
X731901Y645821D01*
X731826Y645796D01*
X731752Y645768D01*
X731679Y645737D01*
X731608Y645701D01*
X731539Y645663D01*
X731472Y645621D01*
X731407Y645576D01*
X731344Y645528D01*
X731283Y645477D01*
X731226Y645423D01*
X731170Y645367D01*
X731118Y645308D01*
X731068Y645246D01*
X731022Y645182D01*
X730978Y645116D01*
X730938Y645048D01*
X730902Y644978D01*
X730868Y644906D01*
X730838Y644832D01*
X730812Y644758D01*
X730789Y644682D01*
X730771Y644605D01*
X730755Y644528D01*
X730744Y644449D01*
X730736Y644371D01*
X730732Y644292D01*
X730732Y644212D01*
X730736Y644133D01*
X730744Y644055D01*
X730755Y643976D01*
X730771Y643899D01*
X730789Y643822D01*
X730812Y643746D01*
X730838Y643672D01*
X730868Y643598D01*
X730902Y643526D01*
X730938Y643456D01*
X730978Y643388D01*
X731022Y643322D01*
X731068Y643258D01*
X731118Y643196D01*
X731170Y643137D01*
X731226Y643081D01*
X731283Y643027D01*
X731344Y642976D01*
X731407Y642928D01*
X731472Y642883D01*
X731539Y642841D01*
X731608Y642803D01*
X731679Y642767D01*
X731752Y642736D01*
X731826Y642708D01*
X731901Y642683D01*
X731977Y642663D01*
X732054Y642645D01*
X732132Y642632D01*
X732211Y642623D01*
X732290Y642617D01*
X732369Y642615D01*
X727870Y645889D02*
X725415Y642411D01*
X722960Y645889D01*
X725415Y642411D02*
X725415Y638523D01*
X776944Y633697D02*
X776944Y627968D01*
X776946Y627890D01*
X776951Y627812D01*
X776961Y627735D01*
X776974Y627658D01*
X776990Y627582D01*
X777010Y627507D01*
X777034Y627433D01*
X777061Y627360D01*
X777092Y627288D01*
X777126Y627218D01*
X777163Y627150D01*
X777204Y627083D01*
X777248Y627018D01*
X777294Y626956D01*
X777344Y626896D01*
X777396Y626838D01*
X777451Y626783D01*
X777509Y626731D01*
X777569Y626681D01*
X777631Y626635D01*
X777696Y626591D01*
X777763Y626550D01*
X777831Y626513D01*
X777901Y626479D01*
X777973Y626448D01*
X778046Y626421D01*
X778120Y626397D01*
X778195Y626377D01*
X778271Y626361D01*
X778348Y626348D01*
X778425Y626338D01*
X778503Y626333D01*
X778581Y626331D01*
X779399Y626331D01*
X772926Y626331D02*
X772926Y633697D01*
X773745Y626331D02*
X772108Y626331D01*
X772108Y633697D02*
X773745Y633697D01*
X769529Y633697D02*
X767074Y630219D01*
X764619Y633697D01*
X767074Y630219D02*
X767074Y626331D01*
X761805Y628377D02*
X761805Y631651D01*
X761803Y631740D01*
X761797Y631829D01*
X761787Y631918D01*
X761774Y632006D01*
X761757Y632094D01*
X761735Y632181D01*
X761710Y632266D01*
X761682Y632351D01*
X761649Y632434D01*
X761613Y632516D01*
X761574Y632596D01*
X761531Y632674D01*
X761485Y632750D01*
X761435Y632825D01*
X761382Y632897D01*
X761326Y632966D01*
X761267Y633033D01*
X761206Y633098D01*
X761141Y633159D01*
X761074Y633218D01*
X761005Y633274D01*
X760933Y633327D01*
X760858Y633377D01*
X760782Y633423D01*
X760704Y633466D01*
X760624Y633505D01*
X760542Y633541D01*
X760459Y633574D01*
X760374Y633602D01*
X760289Y633627D01*
X760202Y633649D01*
X760114Y633666D01*
X760026Y633679D01*
X759937Y633689D01*
X759848Y633695D01*
X759759Y633697D01*
X759670Y633695D01*
X759581Y633689D01*
X759492Y633679D01*
X759404Y633666D01*
X759316Y633649D01*
X759229Y633627D01*
X759144Y633602D01*
X759059Y633574D01*
X758976Y633541D01*
X758894Y633505D01*
X758814Y633466D01*
X758736Y633423D01*
X758660Y633377D01*
X758585Y633327D01*
X758513Y633274D01*
X758444Y633218D01*
X758377Y633159D01*
X758312Y633098D01*
X758251Y633033D01*
X758192Y632966D01*
X758136Y632897D01*
X758083Y632825D01*
X758033Y632750D01*
X757987Y632674D01*
X757944Y632596D01*
X757905Y632516D01*
X757869Y632434D01*
X757836Y632351D01*
X757808Y632266D01*
X757783Y632181D01*
X757761Y632094D01*
X757744Y632006D01*
X757731Y631918D01*
X757721Y631829D01*
X757715Y631740D01*
X757713Y631651D01*
X757713Y628377D01*
X757715Y628288D01*
X757721Y628199D01*
X757731Y628110D01*
X757744Y628022D01*
X757761Y627934D01*
X757783Y627847D01*
X757808Y627762D01*
X757836Y627677D01*
X757869Y627594D01*
X757905Y627512D01*
X757944Y627432D01*
X757987Y627354D01*
X758033Y627278D01*
X758083Y627203D01*
X758136Y627131D01*
X758192Y627062D01*
X758251Y626995D01*
X758312Y626930D01*
X758377Y626869D01*
X758444Y626810D01*
X758513Y626754D01*
X758585Y626701D01*
X758660Y626651D01*
X758736Y626605D01*
X758814Y626562D01*
X758894Y626523D01*
X758976Y626487D01*
X759059Y626454D01*
X759144Y626426D01*
X759229Y626401D01*
X759316Y626379D01*
X759404Y626362D01*
X759492Y626349D01*
X759581Y626339D01*
X759670Y626333D01*
X759759Y626331D01*
X759848Y626333D01*
X759937Y626339D01*
X760026Y626349D01*
X760114Y626362D01*
X760202Y626379D01*
X760289Y626401D01*
X760374Y626426D01*
X760459Y626454D01*
X760542Y626487D01*
X760624Y626523D01*
X760704Y626562D01*
X760782Y626605D01*
X760858Y626651D01*
X760933Y626701D01*
X761005Y626754D01*
X761074Y626810D01*
X761141Y626869D01*
X761206Y626930D01*
X761267Y626995D01*
X761326Y627062D01*
X761382Y627131D01*
X761435Y627203D01*
X761485Y627278D01*
X761531Y627354D01*
X761574Y627432D01*
X761613Y627512D01*
X761649Y627594D01*
X761682Y627677D01*
X761710Y627762D01*
X761735Y627847D01*
X761757Y627934D01*
X761774Y628022D01*
X761787Y628110D01*
X761797Y628199D01*
X761803Y628288D01*
X761805Y628377D01*
X754246Y626331D02*
X754246Y633697D01*
X750154Y626331D01*
X750154Y633697D01*
X743579Y630423D02*
X742351Y630423D01*
X742351Y626331D01*
X744806Y626331D01*
X744884Y626333D01*
X744962Y626338D01*
X745039Y626348D01*
X745116Y626361D01*
X745192Y626377D01*
X745267Y626397D01*
X745341Y626421D01*
X745414Y626448D01*
X745486Y626479D01*
X745556Y626513D01*
X745625Y626550D01*
X745691Y626591D01*
X745756Y626635D01*
X745818Y626681D01*
X745878Y626731D01*
X745936Y626783D01*
X745991Y626838D01*
X746043Y626896D01*
X746093Y626956D01*
X746139Y627018D01*
X746183Y627083D01*
X746224Y627150D01*
X746261Y627218D01*
X746295Y627288D01*
X746326Y627360D01*
X746353Y627433D01*
X746377Y627507D01*
X746397Y627582D01*
X746413Y627658D01*
X746426Y627735D01*
X746436Y627812D01*
X746441Y627890D01*
X746443Y627968D01*
X746443Y632060D01*
X746441Y632138D01*
X746436Y632216D01*
X746426Y632293D01*
X746413Y632370D01*
X746397Y632446D01*
X746377Y632521D01*
X746353Y632595D01*
X746326Y632668D01*
X746295Y632740D01*
X746261Y632810D01*
X746224Y632879D01*
X746183Y632945D01*
X746139Y633010D01*
X746093Y633072D01*
X746043Y633132D01*
X745991Y633190D01*
X745936Y633245D01*
X745878Y633297D01*
X745818Y633347D01*
X745756Y633393D01*
X745691Y633437D01*
X745625Y633478D01*
X745556Y633515D01*
X745486Y633549D01*
X745414Y633580D01*
X745341Y633607D01*
X745267Y633631D01*
X745192Y633651D01*
X745116Y633667D01*
X745039Y633680D01*
X744962Y633690D01*
X744884Y633695D01*
X744806Y633697D01*
X742351Y633697D01*
X734621Y633697D02*
X734621Y626331D01*
X734621Y633697D02*
X732575Y633697D01*
X732486Y633695D01*
X732397Y633689D01*
X732308Y633679D01*
X732220Y633666D01*
X732132Y633649D01*
X732045Y633627D01*
X731960Y633602D01*
X731875Y633574D01*
X731792Y633541D01*
X731710Y633505D01*
X731630Y633466D01*
X731552Y633423D01*
X731476Y633377D01*
X731401Y633327D01*
X731329Y633274D01*
X731260Y633218D01*
X731193Y633159D01*
X731128Y633098D01*
X731067Y633033D01*
X731008Y632966D01*
X730952Y632897D01*
X730899Y632825D01*
X730849Y632750D01*
X730803Y632674D01*
X730760Y632596D01*
X730721Y632516D01*
X730685Y632434D01*
X730652Y632351D01*
X730624Y632266D01*
X730599Y632181D01*
X730577Y632094D01*
X730560Y632006D01*
X730547Y631918D01*
X730537Y631829D01*
X730531Y631740D01*
X730529Y631651D01*
X730531Y631562D01*
X730537Y631473D01*
X730547Y631384D01*
X730560Y631296D01*
X730577Y631208D01*
X730599Y631121D01*
X730624Y631036D01*
X730652Y630951D01*
X730685Y630868D01*
X730721Y630786D01*
X730760Y630706D01*
X730803Y630628D01*
X730849Y630552D01*
X730899Y630477D01*
X730952Y630405D01*
X731008Y630336D01*
X731067Y630269D01*
X731128Y630204D01*
X731193Y630143D01*
X731260Y630084D01*
X731329Y630028D01*
X731401Y629975D01*
X731476Y629925D01*
X731552Y629879D01*
X731630Y629836D01*
X731710Y629797D01*
X731792Y629761D01*
X731875Y629728D01*
X731960Y629700D01*
X732045Y629675D01*
X732132Y629653D01*
X732220Y629636D01*
X732308Y629623D01*
X732397Y629613D01*
X732486Y629607D01*
X732575Y629605D01*
X734621Y629605D01*
X728077Y626331D02*
X725621Y633697D01*
X723166Y626331D01*
X723780Y628173D02*
X727463Y628173D01*
X720057Y626331D02*
X720057Y633697D01*
X718011Y633697D01*
X717922Y633695D01*
X717833Y633689D01*
X717744Y633679D01*
X717656Y633666D01*
X717568Y633649D01*
X717481Y633627D01*
X717396Y633602D01*
X717311Y633574D01*
X717228Y633541D01*
X717146Y633505D01*
X717066Y633466D01*
X716988Y633423D01*
X716912Y633377D01*
X716837Y633327D01*
X716765Y633274D01*
X716696Y633218D01*
X716629Y633159D01*
X716564Y633098D01*
X716503Y633033D01*
X716444Y632966D01*
X716388Y632897D01*
X716335Y632825D01*
X716285Y632750D01*
X716239Y632674D01*
X716196Y632596D01*
X716157Y632516D01*
X716121Y632434D01*
X716088Y632351D01*
X716060Y632266D01*
X716035Y632181D01*
X716013Y632094D01*
X715996Y632006D01*
X715983Y631918D01*
X715973Y631829D01*
X715967Y631740D01*
X715965Y631651D01*
X715967Y631562D01*
X715973Y631473D01*
X715983Y631384D01*
X715996Y631296D01*
X716013Y631208D01*
X716035Y631121D01*
X716060Y631036D01*
X716088Y630951D01*
X716121Y630868D01*
X716157Y630786D01*
X716196Y630706D01*
X716239Y630628D01*
X716285Y630552D01*
X716335Y630477D01*
X716388Y630405D01*
X716444Y630336D01*
X716503Y630269D01*
X716564Y630204D01*
X716629Y630143D01*
X716696Y630084D01*
X716765Y630028D01*
X716837Y629975D01*
X716912Y629925D01*
X716988Y629879D01*
X717066Y629836D01*
X717146Y629797D01*
X717228Y629761D01*
X717311Y629728D01*
X717396Y629700D01*
X717481Y629675D01*
X717568Y629653D01*
X717656Y629636D01*
X717744Y629623D01*
X717833Y629613D01*
X717922Y629607D01*
X718011Y629605D01*
X720057Y629605D01*
X717602Y629605D02*
X715965Y626331D01*
X712432Y626331D02*
X712432Y633697D01*
X708339Y633697D02*
X712432Y629196D01*
X710795Y630832D02*
X708339Y626331D01*
X699326Y633698D02*
X699241Y633696D01*
X699156Y633690D01*
X699072Y633680D01*
X698988Y633667D01*
X698904Y633649D01*
X698822Y633628D01*
X698741Y633603D01*
X698661Y633574D01*
X698582Y633541D01*
X698505Y633505D01*
X698430Y633465D01*
X698356Y633422D01*
X698285Y633376D01*
X698216Y633326D01*
X698149Y633273D01*
X698085Y633217D01*
X698024Y633158D01*
X697965Y633097D01*
X697909Y633033D01*
X697856Y632966D01*
X697806Y632897D01*
X697760Y632826D01*
X697717Y632752D01*
X697677Y632677D01*
X697641Y632600D01*
X697608Y632521D01*
X697579Y632441D01*
X697554Y632360D01*
X697533Y632278D01*
X697515Y632194D01*
X697502Y632110D01*
X697492Y632026D01*
X697486Y631941D01*
X697484Y631856D01*
X699326Y633697D02*
X699422Y633695D01*
X699518Y633689D01*
X699613Y633679D01*
X699708Y633666D01*
X699803Y633648D01*
X699896Y633627D01*
X699989Y633602D01*
X700080Y633573D01*
X700171Y633541D01*
X700260Y633505D01*
X700347Y633465D01*
X700433Y633422D01*
X700517Y633376D01*
X700599Y633326D01*
X700679Y633272D01*
X700756Y633216D01*
X700831Y633156D01*
X700904Y633094D01*
X700974Y633028D01*
X701042Y632960D01*
X701107Y632889D01*
X701168Y632816D01*
X701227Y632740D01*
X701283Y632661D01*
X701335Y632581D01*
X701384Y632498D01*
X701430Y632414D01*
X701472Y632328D01*
X701510Y632240D01*
X701545Y632151D01*
X701577Y632060D01*
X698098Y630424D02*
X698038Y630483D01*
X697981Y630545D01*
X697926Y630609D01*
X697875Y630676D01*
X697826Y630745D01*
X697780Y630815D01*
X697737Y630888D01*
X697697Y630962D01*
X697661Y631038D01*
X697628Y631116D01*
X697598Y631195D01*
X697571Y631275D01*
X697548Y631356D01*
X697529Y631438D01*
X697513Y631520D01*
X697500Y631604D01*
X697491Y631688D01*
X697486Y631772D01*
X697484Y631856D01*
X698098Y630423D02*
X701577Y626331D01*
X697484Y626331D01*
X694261Y630014D02*
X694259Y630167D01*
X694253Y630320D01*
X694244Y630472D01*
X694230Y630625D01*
X694213Y630777D01*
X694192Y630928D01*
X694167Y631079D01*
X694138Y631229D01*
X694106Y631379D01*
X694069Y631527D01*
X694029Y631675D01*
X693986Y631822D01*
X693938Y631967D01*
X693887Y632111D01*
X693833Y632254D01*
X693774Y632396D01*
X693713Y632535D01*
X693647Y632674D01*
X693621Y632744D01*
X693591Y632813D01*
X693559Y632881D01*
X693522Y632947D01*
X693483Y633011D01*
X693440Y633073D01*
X693395Y633132D01*
X693346Y633190D01*
X693295Y633244D01*
X693241Y633297D01*
X693184Y633346D01*
X693125Y633393D01*
X693064Y633436D01*
X693001Y633477D01*
X692936Y633514D01*
X692869Y633549D01*
X692800Y633579D01*
X692730Y633607D01*
X692659Y633630D01*
X692587Y633651D01*
X692514Y633667D01*
X692440Y633680D01*
X692365Y633690D01*
X692290Y633695D01*
X692215Y633697D01*
X692140Y633695D01*
X692065Y633690D01*
X691990Y633680D01*
X691916Y633667D01*
X691843Y633651D01*
X691771Y633630D01*
X691700Y633607D01*
X691630Y633579D01*
X691561Y633549D01*
X691494Y633514D01*
X691429Y633477D01*
X691366Y633436D01*
X691305Y633393D01*
X691246Y633346D01*
X691189Y633297D01*
X691135Y633244D01*
X691084Y633190D01*
X691036Y633132D01*
X690990Y633073D01*
X690947Y633011D01*
X690908Y632947D01*
X690872Y632881D01*
X690839Y632814D01*
X690809Y632744D01*
X690783Y632674D01*
X690718Y632536D01*
X690656Y632396D01*
X690598Y632254D01*
X690543Y632111D01*
X690492Y631967D01*
X690444Y631822D01*
X690401Y631675D01*
X690361Y631528D01*
X690324Y631379D01*
X690292Y631229D01*
X690263Y631079D01*
X690238Y630928D01*
X690217Y630777D01*
X690200Y630625D01*
X690186Y630472D01*
X690177Y630320D01*
X690171Y630167D01*
X690169Y630014D01*
X694262Y630014D02*
X694260Y629861D01*
X694254Y629708D01*
X694245Y629555D01*
X694231Y629403D01*
X694214Y629251D01*
X694193Y629100D01*
X694168Y628949D01*
X694139Y628798D01*
X694107Y628649D01*
X694070Y628500D01*
X694030Y628353D01*
X693987Y628206D01*
X693939Y628061D01*
X693888Y627916D01*
X693833Y627774D01*
X693775Y627632D01*
X693713Y627492D01*
X693648Y627354D01*
X693647Y627354D02*
X693621Y627284D01*
X693591Y627214D01*
X693559Y627147D01*
X693522Y627081D01*
X693483Y627017D01*
X693440Y626955D01*
X693394Y626896D01*
X693346Y626838D01*
X693295Y626784D01*
X693241Y626731D01*
X693184Y626682D01*
X693125Y626635D01*
X693064Y626592D01*
X693001Y626551D01*
X692936Y626514D01*
X692869Y626479D01*
X692800Y626449D01*
X692730Y626421D01*
X692659Y626398D01*
X692587Y626377D01*
X692514Y626361D01*
X692440Y626348D01*
X692365Y626338D01*
X692290Y626333D01*
X692215Y626331D01*
X690783Y627354D02*
X690718Y627492D01*
X690656Y627632D01*
X690598Y627774D01*
X690543Y627917D01*
X690492Y628061D01*
X690444Y628206D01*
X690401Y628353D01*
X690361Y628501D01*
X690324Y628649D01*
X690292Y628799D01*
X690263Y628949D01*
X690238Y629100D01*
X690217Y629251D01*
X690200Y629403D01*
X690186Y629556D01*
X690177Y629708D01*
X690171Y629861D01*
X690169Y630014D01*
X690783Y627354D02*
X690809Y627283D01*
X690839Y627214D01*
X690872Y627147D01*
X690908Y627081D01*
X690947Y627017D01*
X690990Y626955D01*
X691036Y626896D01*
X691084Y626838D01*
X691135Y626784D01*
X691189Y626731D01*
X691246Y626682D01*
X691305Y626635D01*
X691366Y626592D01*
X691429Y626551D01*
X691494Y626514D01*
X691561Y626479D01*
X691630Y626449D01*
X691700Y626421D01*
X691771Y626398D01*
X691843Y626377D01*
X691916Y626361D01*
X691990Y626348D01*
X692065Y626338D01*
X692140Y626333D01*
X692215Y626331D01*
X693852Y627968D02*
X690578Y632060D01*
X684695Y633698D02*
X684610Y633696D01*
X684525Y633690D01*
X684441Y633680D01*
X684357Y633667D01*
X684273Y633649D01*
X684191Y633628D01*
X684110Y633603D01*
X684030Y633574D01*
X683951Y633541D01*
X683874Y633505D01*
X683799Y633465D01*
X683725Y633422D01*
X683654Y633376D01*
X683585Y633326D01*
X683518Y633273D01*
X683454Y633217D01*
X683393Y633158D01*
X683334Y633097D01*
X683278Y633033D01*
X683225Y632966D01*
X683175Y632897D01*
X683129Y632826D01*
X683086Y632752D01*
X683046Y632677D01*
X683010Y632600D01*
X682977Y632521D01*
X682948Y632441D01*
X682923Y632360D01*
X682902Y632278D01*
X682884Y632194D01*
X682871Y632110D01*
X682861Y632026D01*
X682855Y631941D01*
X682853Y631856D01*
X684695Y633697D02*
X684791Y633695D01*
X684887Y633689D01*
X684982Y633679D01*
X685077Y633666D01*
X685172Y633648D01*
X685265Y633627D01*
X685358Y633602D01*
X685449Y633573D01*
X685540Y633541D01*
X685629Y633505D01*
X685716Y633465D01*
X685802Y633422D01*
X685886Y633376D01*
X685968Y633326D01*
X686048Y633272D01*
X686125Y633216D01*
X686200Y633156D01*
X686273Y633094D01*
X686343Y633028D01*
X686411Y632960D01*
X686476Y632889D01*
X686537Y632816D01*
X686596Y632740D01*
X686652Y632661D01*
X686704Y632581D01*
X686753Y632498D01*
X686799Y632414D01*
X686841Y632328D01*
X686879Y632240D01*
X686914Y632151D01*
X686946Y632060D01*
X683468Y630424D02*
X683408Y630483D01*
X683351Y630545D01*
X683296Y630609D01*
X683245Y630676D01*
X683196Y630745D01*
X683150Y630815D01*
X683107Y630888D01*
X683067Y630962D01*
X683031Y631038D01*
X682998Y631116D01*
X682968Y631195D01*
X682941Y631275D01*
X682918Y631356D01*
X682899Y631438D01*
X682883Y631520D01*
X682870Y631604D01*
X682861Y631688D01*
X682856Y631772D01*
X682854Y631856D01*
X683468Y630423D02*
X686946Y626331D01*
X682854Y626331D01*
X675538Y631856D02*
X675540Y631941D01*
X675546Y632026D01*
X675556Y632110D01*
X675569Y632194D01*
X675587Y632278D01*
X675608Y632360D01*
X675633Y632441D01*
X675662Y632521D01*
X675695Y632600D01*
X675731Y632677D01*
X675771Y632752D01*
X675814Y632826D01*
X675860Y632897D01*
X675910Y632966D01*
X675963Y633033D01*
X676019Y633097D01*
X676078Y633158D01*
X676139Y633217D01*
X676203Y633273D01*
X676270Y633326D01*
X676339Y633376D01*
X676410Y633422D01*
X676484Y633465D01*
X676559Y633505D01*
X676636Y633541D01*
X676715Y633574D01*
X676795Y633603D01*
X676876Y633628D01*
X676958Y633649D01*
X677042Y633667D01*
X677126Y633680D01*
X677210Y633690D01*
X677295Y633696D01*
X677380Y633698D01*
X677380Y633697D02*
X677476Y633695D01*
X677572Y633689D01*
X677667Y633679D01*
X677762Y633666D01*
X677857Y633648D01*
X677950Y633627D01*
X678043Y633602D01*
X678134Y633573D01*
X678225Y633541D01*
X678314Y633505D01*
X678401Y633465D01*
X678487Y633422D01*
X678571Y633376D01*
X678653Y633326D01*
X678733Y633272D01*
X678810Y633216D01*
X678885Y633156D01*
X678958Y633094D01*
X679028Y633028D01*
X679096Y632960D01*
X679161Y632889D01*
X679222Y632816D01*
X679281Y632740D01*
X679337Y632661D01*
X679389Y632581D01*
X679438Y632498D01*
X679484Y632414D01*
X679526Y632328D01*
X679564Y632240D01*
X679599Y632151D01*
X679631Y632060D01*
X676153Y630424D02*
X676093Y630483D01*
X676036Y630545D01*
X675981Y630609D01*
X675930Y630676D01*
X675881Y630745D01*
X675835Y630815D01*
X675792Y630888D01*
X675752Y630962D01*
X675716Y631038D01*
X675683Y631116D01*
X675653Y631195D01*
X675626Y631275D01*
X675603Y631356D01*
X675584Y631438D01*
X675568Y631520D01*
X675555Y631604D01*
X675546Y631688D01*
X675541Y631772D01*
X675539Y631856D01*
X676153Y630423D02*
X679631Y626331D01*
X675539Y626331D01*
X666368Y626331D02*
X668824Y633697D01*
X663913Y633697D02*
X666368Y626331D01*
X661099Y632060D02*
X659053Y633697D01*
X659053Y626331D01*
X661099Y626331D02*
X657007Y626331D01*
X654137Y626331D02*
X654137Y626740D01*
X653728Y626740D01*
X653728Y626331D01*
X654137Y626331D01*
X650858Y630014D02*
X650856Y630167D01*
X650850Y630320D01*
X650841Y630472D01*
X650827Y630625D01*
X650810Y630777D01*
X650789Y630928D01*
X650764Y631079D01*
X650735Y631229D01*
X650703Y631379D01*
X650666Y631527D01*
X650626Y631675D01*
X650583Y631822D01*
X650535Y631967D01*
X650484Y632111D01*
X650430Y632254D01*
X650371Y632396D01*
X650310Y632535D01*
X650244Y632674D01*
X650218Y632744D01*
X650188Y632813D01*
X650156Y632881D01*
X650119Y632947D01*
X650080Y633011D01*
X650037Y633073D01*
X649992Y633132D01*
X649943Y633190D01*
X649892Y633244D01*
X649838Y633297D01*
X649781Y633346D01*
X649722Y633393D01*
X649661Y633436D01*
X649598Y633477D01*
X649533Y633514D01*
X649466Y633549D01*
X649397Y633579D01*
X649327Y633607D01*
X649256Y633630D01*
X649184Y633651D01*
X649111Y633667D01*
X649037Y633680D01*
X648962Y633690D01*
X648887Y633695D01*
X648812Y633697D01*
X648737Y633695D01*
X648662Y633690D01*
X648587Y633680D01*
X648513Y633667D01*
X648440Y633651D01*
X648368Y633630D01*
X648297Y633607D01*
X648227Y633579D01*
X648158Y633549D01*
X648091Y633514D01*
X648026Y633477D01*
X647963Y633436D01*
X647902Y633393D01*
X647843Y633346D01*
X647786Y633297D01*
X647732Y633244D01*
X647681Y633190D01*
X647633Y633132D01*
X647587Y633073D01*
X647544Y633011D01*
X647505Y632947D01*
X647469Y632881D01*
X647436Y632814D01*
X647406Y632744D01*
X647380Y632674D01*
X647315Y632536D01*
X647253Y632396D01*
X647195Y632254D01*
X647140Y632111D01*
X647089Y631967D01*
X647041Y631822D01*
X646998Y631675D01*
X646958Y631528D01*
X646921Y631379D01*
X646889Y631229D01*
X646860Y631079D01*
X646835Y630928D01*
X646814Y630777D01*
X646797Y630625D01*
X646783Y630472D01*
X646774Y630320D01*
X646768Y630167D01*
X646766Y630014D01*
X650858Y630014D02*
X650856Y629861D01*
X650850Y629708D01*
X650841Y629555D01*
X650827Y629403D01*
X650810Y629251D01*
X650789Y629100D01*
X650764Y628949D01*
X650735Y628798D01*
X650703Y628649D01*
X650666Y628500D01*
X650626Y628353D01*
X650583Y628206D01*
X650535Y628061D01*
X650484Y627916D01*
X650429Y627774D01*
X650371Y627632D01*
X650309Y627492D01*
X650244Y627354D01*
X650218Y627284D01*
X650188Y627214D01*
X650156Y627147D01*
X650119Y627081D01*
X650080Y627017D01*
X650037Y626955D01*
X649991Y626896D01*
X649943Y626838D01*
X649892Y626784D01*
X649838Y626731D01*
X649781Y626682D01*
X649722Y626635D01*
X649661Y626592D01*
X649598Y626551D01*
X649533Y626514D01*
X649466Y626479D01*
X649397Y626449D01*
X649327Y626421D01*
X649256Y626398D01*
X649184Y626377D01*
X649111Y626361D01*
X649037Y626348D01*
X648962Y626338D01*
X648887Y626333D01*
X648812Y626331D01*
X647380Y627354D02*
X647315Y627492D01*
X647253Y627632D01*
X647195Y627774D01*
X647140Y627917D01*
X647089Y628061D01*
X647041Y628206D01*
X646998Y628353D01*
X646958Y628501D01*
X646921Y628649D01*
X646889Y628799D01*
X646860Y628949D01*
X646835Y629100D01*
X646814Y629251D01*
X646797Y629403D01*
X646783Y629556D01*
X646774Y629708D01*
X646768Y629861D01*
X646766Y630014D01*
X647380Y627354D02*
X647406Y627283D01*
X647436Y627214D01*
X647469Y627147D01*
X647505Y627081D01*
X647544Y627017D01*
X647587Y626955D01*
X647633Y626896D01*
X647681Y626838D01*
X647732Y626784D01*
X647786Y626731D01*
X647843Y626682D01*
X647902Y626635D01*
X647963Y626592D01*
X648026Y626551D01*
X648091Y626514D01*
X648158Y626479D01*
X648227Y626449D01*
X648297Y626421D01*
X648368Y626398D01*
X648440Y626377D01*
X648513Y626361D01*
X648587Y626348D01*
X648662Y626338D01*
X648737Y626333D01*
X648812Y626331D01*
X650449Y627968D02*
X647175Y632060D01*
X643543Y632060D02*
X641497Y633697D01*
X641497Y626331D01*
X643543Y626331D02*
X639450Y626331D01*
X1006345Y920123D02*
X1006345Y922169D01*
X1006343Y922258D01*
X1006337Y922347D01*
X1006327Y922436D01*
X1006314Y922524D01*
X1006297Y922612D01*
X1006275Y922699D01*
X1006250Y922784D01*
X1006222Y922869D01*
X1006189Y922952D01*
X1006153Y923034D01*
X1006114Y923114D01*
X1006071Y923192D01*
X1006025Y923268D01*
X1005975Y923343D01*
X1005922Y923415D01*
X1005866Y923484D01*
X1005807Y923551D01*
X1005746Y923616D01*
X1005681Y923677D01*
X1005614Y923736D01*
X1005545Y923792D01*
X1005473Y923845D01*
X1005398Y923895D01*
X1005322Y923941D01*
X1005244Y923984D01*
X1005164Y924023D01*
X1005082Y924059D01*
X1004999Y924092D01*
X1004914Y924120D01*
X1004829Y924145D01*
X1004742Y924167D01*
X1004654Y924184D01*
X1004566Y924197D01*
X1004477Y924207D01*
X1004388Y924213D01*
X1004299Y924215D01*
X1004210Y924213D01*
X1004121Y924207D01*
X1004032Y924197D01*
X1003944Y924184D01*
X1003856Y924167D01*
X1003769Y924145D01*
X1003684Y924120D01*
X1003599Y924092D01*
X1003516Y924059D01*
X1003434Y924023D01*
X1003354Y923984D01*
X1003276Y923941D01*
X1003200Y923895D01*
X1003125Y923845D01*
X1003053Y923792D01*
X1002984Y923736D01*
X1002917Y923677D01*
X1002852Y923616D01*
X1002791Y923551D01*
X1002732Y923484D01*
X1002676Y923415D01*
X1002623Y923343D01*
X1002573Y923268D01*
X1002527Y923192D01*
X1002484Y923114D01*
X1002445Y923034D01*
X1002409Y922952D01*
X1002376Y922869D01*
X1002348Y922784D01*
X1002323Y922699D01*
X1002301Y922612D01*
X1002284Y922524D01*
X1002271Y922436D01*
X1002261Y922347D01*
X1002255Y922258D01*
X1002253Y922169D01*
X1002253Y920123D01*
X1009619Y920123D01*
X1009619Y922169D01*
X1009617Y922248D01*
X1009611Y922327D01*
X1009602Y922406D01*
X1009589Y922484D01*
X1009571Y922561D01*
X1009551Y922637D01*
X1009526Y922712D01*
X1009498Y922786D01*
X1009467Y922859D01*
X1009431Y922930D01*
X1009393Y922999D01*
X1009351Y923066D01*
X1009306Y923131D01*
X1009258Y923194D01*
X1009207Y923255D01*
X1009153Y923312D01*
X1009097Y923368D01*
X1009038Y923420D01*
X1008976Y923470D01*
X1008912Y923516D01*
X1008846Y923560D01*
X1008778Y923600D01*
X1008708Y923636D01*
X1008636Y923670D01*
X1008562Y923700D01*
X1008488Y923726D01*
X1008412Y923749D01*
X1008335Y923767D01*
X1008258Y923783D01*
X1008179Y923794D01*
X1008101Y923802D01*
X1008022Y923806D01*
X1007942Y923806D01*
X1007863Y923802D01*
X1007785Y923794D01*
X1007706Y923783D01*
X1007629Y923767D01*
X1007552Y923749D01*
X1007476Y923726D01*
X1007402Y923700D01*
X1007328Y923670D01*
X1007256Y923636D01*
X1007186Y923600D01*
X1007118Y923560D01*
X1007052Y923516D01*
X1006988Y923470D01*
X1006926Y923420D01*
X1006867Y923368D01*
X1006811Y923312D01*
X1006757Y923255D01*
X1006706Y923194D01*
X1006658Y923131D01*
X1006613Y923066D01*
X1006571Y922999D01*
X1006533Y922930D01*
X1006497Y922859D01*
X1006466Y922786D01*
X1006438Y922712D01*
X1006413Y922637D01*
X1006393Y922561D01*
X1006375Y922484D01*
X1006362Y922406D01*
X1006353Y922327D01*
X1006347Y922248D01*
X1006345Y922169D01*
X1007573Y927076D02*
X1004299Y927076D01*
X1007573Y927077D02*
X1007662Y927079D01*
X1007751Y927085D01*
X1007840Y927095D01*
X1007928Y927108D01*
X1008016Y927125D01*
X1008103Y927147D01*
X1008188Y927172D01*
X1008273Y927200D01*
X1008356Y927233D01*
X1008438Y927269D01*
X1008518Y927308D01*
X1008596Y927351D01*
X1008672Y927397D01*
X1008747Y927447D01*
X1008819Y927500D01*
X1008888Y927556D01*
X1008955Y927615D01*
X1009020Y927676D01*
X1009081Y927741D01*
X1009140Y927808D01*
X1009196Y927877D01*
X1009249Y927949D01*
X1009299Y928024D01*
X1009345Y928100D01*
X1009388Y928178D01*
X1009427Y928258D01*
X1009463Y928340D01*
X1009496Y928423D01*
X1009524Y928508D01*
X1009549Y928593D01*
X1009571Y928680D01*
X1009588Y928768D01*
X1009601Y928856D01*
X1009611Y928945D01*
X1009617Y929034D01*
X1009619Y929123D01*
X1009617Y929212D01*
X1009611Y929301D01*
X1009601Y929390D01*
X1009588Y929478D01*
X1009571Y929566D01*
X1009549Y929653D01*
X1009524Y929738D01*
X1009496Y929823D01*
X1009463Y929906D01*
X1009427Y929988D01*
X1009388Y930068D01*
X1009345Y930146D01*
X1009299Y930222D01*
X1009249Y930297D01*
X1009196Y930369D01*
X1009140Y930438D01*
X1009081Y930505D01*
X1009020Y930570D01*
X1008955Y930631D01*
X1008888Y930690D01*
X1008819Y930746D01*
X1008747Y930799D01*
X1008672Y930849D01*
X1008596Y930895D01*
X1008518Y930938D01*
X1008438Y930977D01*
X1008356Y931013D01*
X1008273Y931046D01*
X1008188Y931074D01*
X1008103Y931099D01*
X1008016Y931121D01*
X1007928Y931138D01*
X1007840Y931151D01*
X1007751Y931161D01*
X1007662Y931167D01*
X1007573Y931169D01*
X1004299Y931169D01*
X1004210Y931167D01*
X1004121Y931161D01*
X1004032Y931151D01*
X1003944Y931138D01*
X1003856Y931121D01*
X1003769Y931099D01*
X1003684Y931074D01*
X1003599Y931046D01*
X1003516Y931013D01*
X1003434Y930977D01*
X1003354Y930938D01*
X1003276Y930895D01*
X1003200Y930849D01*
X1003125Y930799D01*
X1003053Y930746D01*
X1002984Y930690D01*
X1002917Y930631D01*
X1002852Y930570D01*
X1002791Y930505D01*
X1002732Y930438D01*
X1002676Y930369D01*
X1002623Y930297D01*
X1002573Y930222D01*
X1002527Y930146D01*
X1002484Y930068D01*
X1002445Y929988D01*
X1002409Y929906D01*
X1002376Y929823D01*
X1002348Y929738D01*
X1002323Y929653D01*
X1002301Y929566D01*
X1002284Y929478D01*
X1002271Y929390D01*
X1002261Y929301D01*
X1002255Y929212D01*
X1002253Y929123D01*
X1002255Y929034D01*
X1002261Y928945D01*
X1002271Y928856D01*
X1002284Y928768D01*
X1002301Y928680D01*
X1002323Y928593D01*
X1002348Y928508D01*
X1002376Y928423D01*
X1002409Y928340D01*
X1002445Y928258D01*
X1002484Y928178D01*
X1002527Y928100D01*
X1002573Y928024D01*
X1002623Y927949D01*
X1002676Y927877D01*
X1002732Y927808D01*
X1002791Y927741D01*
X1002852Y927676D01*
X1002917Y927615D01*
X1002984Y927556D01*
X1003053Y927500D01*
X1003125Y927447D01*
X1003200Y927397D01*
X1003276Y927351D01*
X1003354Y927308D01*
X1003434Y927269D01*
X1003516Y927233D01*
X1003599Y927200D01*
X1003684Y927172D01*
X1003769Y927147D01*
X1003856Y927125D01*
X1003944Y927108D01*
X1004032Y927095D01*
X1004121Y927085D01*
X1004210Y927079D01*
X1004299Y927077D01*
X1002253Y935950D02*
X1009619Y935950D01*
X1009619Y933904D02*
X1009619Y937996D01*
X1009619Y942290D02*
X1002253Y942290D01*
X1009619Y940244D02*
X1009619Y944336D01*
X1007573Y947071D02*
X1004299Y947071D01*
X1007573Y947071D02*
X1007662Y947073D01*
X1007751Y947079D01*
X1007840Y947089D01*
X1007928Y947102D01*
X1008016Y947119D01*
X1008103Y947141D01*
X1008188Y947166D01*
X1008273Y947194D01*
X1008356Y947227D01*
X1008438Y947263D01*
X1008518Y947302D01*
X1008596Y947345D01*
X1008672Y947391D01*
X1008747Y947441D01*
X1008819Y947494D01*
X1008888Y947550D01*
X1008955Y947609D01*
X1009020Y947670D01*
X1009081Y947735D01*
X1009140Y947802D01*
X1009196Y947871D01*
X1009249Y947943D01*
X1009299Y948018D01*
X1009345Y948094D01*
X1009388Y948172D01*
X1009427Y948252D01*
X1009463Y948334D01*
X1009496Y948417D01*
X1009524Y948502D01*
X1009549Y948587D01*
X1009571Y948674D01*
X1009588Y948762D01*
X1009601Y948850D01*
X1009611Y948939D01*
X1009617Y949028D01*
X1009619Y949117D01*
X1009617Y949206D01*
X1009611Y949295D01*
X1009601Y949384D01*
X1009588Y949472D01*
X1009571Y949560D01*
X1009549Y949647D01*
X1009524Y949732D01*
X1009496Y949817D01*
X1009463Y949900D01*
X1009427Y949982D01*
X1009388Y950062D01*
X1009345Y950140D01*
X1009299Y950216D01*
X1009249Y950291D01*
X1009196Y950363D01*
X1009140Y950432D01*
X1009081Y950499D01*
X1009020Y950564D01*
X1008955Y950625D01*
X1008888Y950684D01*
X1008819Y950740D01*
X1008747Y950793D01*
X1008672Y950843D01*
X1008596Y950889D01*
X1008518Y950932D01*
X1008438Y950971D01*
X1008356Y951007D01*
X1008273Y951040D01*
X1008188Y951068D01*
X1008103Y951093D01*
X1008016Y951115D01*
X1007928Y951132D01*
X1007840Y951145D01*
X1007751Y951155D01*
X1007662Y951161D01*
X1007573Y951163D01*
X1007573Y951164D02*
X1004299Y951164D01*
X1004299Y951163D02*
X1004210Y951161D01*
X1004121Y951155D01*
X1004032Y951145D01*
X1003944Y951132D01*
X1003856Y951115D01*
X1003769Y951093D01*
X1003684Y951068D01*
X1003599Y951040D01*
X1003516Y951007D01*
X1003434Y950971D01*
X1003354Y950932D01*
X1003276Y950889D01*
X1003200Y950843D01*
X1003125Y950793D01*
X1003053Y950740D01*
X1002984Y950684D01*
X1002917Y950625D01*
X1002852Y950564D01*
X1002791Y950499D01*
X1002732Y950432D01*
X1002676Y950363D01*
X1002623Y950291D01*
X1002573Y950216D01*
X1002527Y950140D01*
X1002484Y950062D01*
X1002445Y949982D01*
X1002409Y949900D01*
X1002376Y949817D01*
X1002348Y949732D01*
X1002323Y949647D01*
X1002301Y949560D01*
X1002284Y949472D01*
X1002271Y949384D01*
X1002261Y949295D01*
X1002255Y949206D01*
X1002253Y949117D01*
X1002255Y949028D01*
X1002261Y948939D01*
X1002271Y948850D01*
X1002284Y948762D01*
X1002301Y948674D01*
X1002323Y948587D01*
X1002348Y948502D01*
X1002376Y948417D01*
X1002409Y948334D01*
X1002445Y948252D01*
X1002484Y948172D01*
X1002527Y948094D01*
X1002573Y948018D01*
X1002623Y947943D01*
X1002676Y947871D01*
X1002732Y947802D01*
X1002791Y947735D01*
X1002852Y947670D01*
X1002917Y947609D01*
X1002984Y947550D01*
X1003053Y947494D01*
X1003125Y947441D01*
X1003200Y947391D01*
X1003276Y947345D01*
X1003354Y947302D01*
X1003434Y947263D01*
X1003516Y947227D01*
X1003599Y947194D01*
X1003684Y947166D01*
X1003769Y947141D01*
X1003856Y947119D01*
X1003944Y947102D01*
X1004032Y947089D01*
X1004121Y947079D01*
X1004210Y947073D01*
X1004299Y947071D01*
X1002253Y954709D02*
X1009619Y954709D01*
X1005527Y957164D01*
X1009619Y959620D01*
X1002253Y959620D01*
X1002253Y969278D02*
X1002255Y969356D01*
X1002260Y969434D01*
X1002270Y969511D01*
X1002283Y969588D01*
X1002299Y969664D01*
X1002319Y969739D01*
X1002343Y969813D01*
X1002370Y969886D01*
X1002401Y969958D01*
X1002435Y970028D01*
X1002472Y970097D01*
X1002513Y970163D01*
X1002557Y970228D01*
X1002603Y970290D01*
X1002653Y970350D01*
X1002705Y970408D01*
X1002760Y970463D01*
X1002818Y970515D01*
X1002878Y970565D01*
X1002940Y970611D01*
X1003005Y970655D01*
X1003072Y970696D01*
X1003140Y970733D01*
X1003210Y970767D01*
X1003282Y970798D01*
X1003355Y970825D01*
X1003429Y970849D01*
X1003504Y970869D01*
X1003580Y970885D01*
X1003657Y970898D01*
X1003734Y970908D01*
X1003812Y970913D01*
X1003890Y970915D01*
X1002253Y969278D02*
X1002255Y969164D01*
X1002260Y969051D01*
X1002270Y968937D01*
X1002283Y968824D01*
X1002300Y968712D01*
X1002320Y968600D01*
X1002344Y968489D01*
X1002372Y968378D01*
X1002403Y968269D01*
X1002438Y968161D01*
X1002477Y968054D01*
X1002519Y967948D01*
X1002564Y967844D01*
X1002613Y967741D01*
X1002666Y967640D01*
X1002721Y967541D01*
X1002780Y967443D01*
X1002842Y967348D01*
X1002907Y967255D01*
X1002975Y967163D01*
X1003046Y967075D01*
X1003120Y966988D01*
X1003197Y966904D01*
X1003276Y966823D01*
X1007982Y967027D02*
X1008060Y967029D01*
X1008138Y967034D01*
X1008215Y967044D01*
X1008292Y967057D01*
X1008368Y967073D01*
X1008443Y967093D01*
X1008517Y967117D01*
X1008590Y967144D01*
X1008662Y967175D01*
X1008732Y967209D01*
X1008801Y967246D01*
X1008867Y967287D01*
X1008932Y967331D01*
X1008994Y967377D01*
X1009054Y967427D01*
X1009112Y967479D01*
X1009167Y967534D01*
X1009219Y967592D01*
X1009269Y967652D01*
X1009315Y967714D01*
X1009359Y967779D01*
X1009400Y967846D01*
X1009437Y967914D01*
X1009471Y967984D01*
X1009502Y968056D01*
X1009529Y968129D01*
X1009553Y968203D01*
X1009573Y968278D01*
X1009589Y968354D01*
X1009602Y968431D01*
X1009612Y968508D01*
X1009617Y968586D01*
X1009619Y968664D01*
X1009617Y968774D01*
X1009611Y968883D01*
X1009601Y968993D01*
X1009588Y969101D01*
X1009570Y969210D01*
X1009549Y969317D01*
X1009523Y969424D01*
X1009494Y969530D01*
X1009462Y969635D01*
X1009425Y969738D01*
X1009385Y969840D01*
X1009341Y969941D01*
X1009293Y970040D01*
X1009243Y970137D01*
X1009188Y970232D01*
X1009130Y970325D01*
X1009069Y970416D01*
X1009005Y970505D01*
X1006549Y967845D02*
X1006591Y967778D01*
X1006635Y967713D01*
X1006683Y967651D01*
X1006733Y967591D01*
X1006786Y967533D01*
X1006842Y967478D01*
X1006901Y967426D01*
X1006961Y967376D01*
X1007025Y967329D01*
X1007090Y967286D01*
X1007157Y967245D01*
X1007226Y967208D01*
X1007297Y967174D01*
X1007369Y967143D01*
X1007443Y967116D01*
X1007517Y967092D01*
X1007593Y967072D01*
X1007670Y967056D01*
X1007747Y967043D01*
X1007825Y967033D01*
X1007904Y967028D01*
X1007982Y967026D01*
X1005322Y970096D02*
X1005280Y970162D01*
X1005236Y970227D01*
X1005189Y970289D01*
X1005138Y970349D01*
X1005085Y970407D01*
X1005029Y970462D01*
X1004971Y970515D01*
X1004910Y970564D01*
X1004847Y970611D01*
X1004782Y970654D01*
X1004715Y970695D01*
X1004646Y970732D01*
X1004575Y970766D01*
X1004503Y970797D01*
X1004429Y970824D01*
X1004354Y970848D01*
X1004279Y970868D01*
X1004202Y970884D01*
X1004125Y970897D01*
X1004047Y970907D01*
X1003968Y970912D01*
X1003890Y970914D01*
X1005322Y970096D02*
X1006550Y967845D01*
X1009619Y974477D02*
X1002253Y974477D01*
X1002253Y975295D02*
X1002253Y973658D01*
X1009619Y973658D02*
X1009619Y975295D01*
X1009619Y978527D02*
X1002253Y978527D01*
X1009619Y978527D02*
X1009619Y980573D01*
X1009617Y980662D01*
X1009611Y980751D01*
X1009601Y980840D01*
X1009588Y980928D01*
X1009571Y981016D01*
X1009549Y981103D01*
X1009524Y981188D01*
X1009496Y981273D01*
X1009463Y981356D01*
X1009427Y981438D01*
X1009388Y981518D01*
X1009345Y981596D01*
X1009299Y981672D01*
X1009249Y981747D01*
X1009196Y981819D01*
X1009140Y981888D01*
X1009081Y981955D01*
X1009020Y982020D01*
X1008955Y982081D01*
X1008888Y982140D01*
X1008819Y982196D01*
X1008747Y982249D01*
X1008672Y982299D01*
X1008596Y982345D01*
X1008518Y982388D01*
X1008438Y982427D01*
X1008356Y982463D01*
X1008273Y982496D01*
X1008188Y982524D01*
X1008103Y982549D01*
X1008016Y982571D01*
X1007928Y982588D01*
X1007840Y982601D01*
X1007751Y982611D01*
X1007662Y982617D01*
X1007573Y982619D01*
X1004299Y982619D01*
X1004210Y982617D01*
X1004121Y982611D01*
X1004032Y982601D01*
X1003944Y982588D01*
X1003856Y982571D01*
X1003769Y982549D01*
X1003684Y982524D01*
X1003599Y982496D01*
X1003516Y982463D01*
X1003434Y982427D01*
X1003354Y982388D01*
X1003276Y982345D01*
X1003200Y982299D01*
X1003125Y982249D01*
X1003053Y982196D01*
X1002984Y982140D01*
X1002917Y982081D01*
X1002852Y982020D01*
X1002791Y981955D01*
X1002732Y981888D01*
X1002676Y981819D01*
X1002623Y981747D01*
X1002573Y981672D01*
X1002527Y981596D01*
X1002484Y981518D01*
X1002445Y981438D01*
X1002409Y981356D01*
X1002376Y981273D01*
X1002348Y981188D01*
X1002323Y981103D01*
X1002301Y981016D01*
X1002284Y980928D01*
X1002271Y980840D01*
X1002261Y980751D01*
X1002255Y980662D01*
X1002253Y980573D01*
X1002253Y978527D01*
X1002253Y986345D02*
X1002253Y989619D01*
X1002253Y986345D02*
X1009619Y986345D01*
X1009619Y989619D01*
X1006345Y988801D02*
X1006345Y986345D01*
D13*
X858200Y722300D03*
X858200Y671500D03*
D14*
X629800Y1004950D03*
X706000Y1004950D03*
D15*
X540370Y800100D03*
D16*
X540370Y774700D03*
X540370Y749300D03*
X540370Y723900D03*
X540370Y698500D03*
X540370Y673100D03*
X540370Y647700D03*
X619770Y647700D03*
X619770Y673100D03*
X619770Y698500D03*
X619770Y723900D03*
X619770Y749300D03*
X619770Y774700D03*
X619770Y800100D03*
D13*
X782000Y722300D03*
X782000Y671500D03*
X705800Y722300D03*
X705800Y671500D03*
X451800Y722300D03*
X451800Y671500D03*
X375600Y722300D03*
X375600Y671500D03*
X299400Y722300D03*
X299400Y671500D03*
D14*
X759800Y1004950D03*
X836000Y1004950D03*
X889800Y1006050D03*
X966000Y1006050D03*
X259800Y1004950D03*
X336000Y1004950D03*
X379800Y1004950D03*
X456000Y1004950D03*
X509800Y1004950D03*
X586000Y1004950D03*
X970000Y659920D03*
X944600Y659920D03*
X638730Y1037460D03*
X613330Y1037460D03*
X759840Y1040000D03*
X734440Y1040000D03*
X862490Y1037590D03*
X887890Y1037590D03*
X244000Y1036320D03*
X269400Y1036320D03*
X363220Y1035210D03*
X388620Y1035210D03*
X493940Y1037400D03*
X519340Y1037400D03*
X503400Y809000D03*
X478000Y809000D03*
X452600Y809000D03*
X399400Y809000D03*
X374000Y809000D03*
X348600Y809000D03*
X295400Y809000D03*
X270000Y809000D03*
X244600Y809000D03*
X915400Y809000D03*
X890000Y809000D03*
X864600Y809000D03*
X811400Y809000D03*
X786000Y809000D03*
X760600Y809000D03*
X707400Y809000D03*
X682000Y809000D03*
X656600Y809000D03*
X966050Y894000D03*
X966050Y970200D03*
X966050Y779800D03*
X966050Y856000D03*
D17*
X180968Y826500D03*
X155568Y826500D03*
X180968Y851900D03*
X155568Y851900D03*
X180968Y877300D03*
X155568Y877300D03*
X180968Y902700D03*
X155568Y902700D03*
X180968Y928100D03*
X155568Y928100D03*
X180968Y953500D03*
X155568Y953500D03*
X180968Y978900D03*
X155568Y978900D03*
X180968Y1004300D03*
X155568Y1004300D03*
D18*
X543000Y960975D03*
X518000Y960975D03*
X493000Y960975D03*
D19*
X562000Y890975D03*
X474000Y890975D03*
D18*
X419000Y960975D03*
X394000Y960975D03*
X369000Y960975D03*
D19*
X438000Y890975D03*
X350000Y890975D03*
D18*
X295000Y960975D03*
X270000Y960975D03*
X245000Y960975D03*
D19*
X314000Y890975D03*
X226000Y890975D03*
D18*
X667000Y960975D03*
X642000Y960975D03*
X617000Y960975D03*
D19*
X686000Y890975D03*
X598000Y890975D03*
D18*
X791000Y960975D03*
X766000Y960975D03*
X741000Y960975D03*
D19*
X810000Y890975D03*
X722000Y890975D03*
D18*
X915000Y960975D03*
X890000Y960975D03*
X865000Y960975D03*
D19*
X934000Y890975D03*
X846000Y890975D03*
D14*
X170000Y767300D03*
X170000Y792700D03*
X304410Y772520D03*
X228210Y772520D03*
X970000Y629920D03*
X944600Y629920D03*
X324030Y620240D03*
X349430Y620240D03*
X374830Y620240D03*
D20*
X247000Y700000D03*
X187000Y700000D03*
X217000Y653000D03*
D21*
X375600Y671500D02*
X451800Y671500D01*
X705800Y671500D02*
X782000Y671500D01*
X858200Y671500D01*
X348600Y807200D02*
X348600Y809000D01*
X348600Y870000D01*
X452600Y870000D02*
X452600Y809000D01*
X656600Y809000D02*
X656600Y870000D01*
X760600Y870000D02*
X760600Y809000D01*
X858200Y671500D02*
X880000Y671500D01*
X180968Y877300D02*
X155568Y877300D01*
X155568Y902700D02*
X180968Y902700D01*
X155568Y877300D02*
X155568Y851900D01*
X180968Y851900D01*
X180968Y877300D01*
X155568Y902700D02*
X155408Y902540D01*
X760600Y870000D02*
X770000Y870000D01*
X760600Y870000D02*
X656600Y870000D01*
X640000Y870000D01*
X565150Y870000D01*
X522600Y870000D01*
X452600Y870000D01*
X400000Y870000D01*
X348600Y870000D01*
X516570Y671500D02*
X540370Y647700D01*
X516570Y671500D02*
X451800Y671500D01*
X879850Y671650D02*
X880000Y671500D01*
X879850Y671650D02*
X879850Y749300D01*
X522600Y900575D02*
X493000Y930175D01*
X493000Y960975D01*
X522600Y900575D02*
X522600Y870000D01*
X349000Y809400D02*
X348600Y809000D01*
X369000Y930000D02*
X369000Y960975D01*
X617000Y930975D02*
X640000Y907975D01*
X617000Y930975D02*
X617000Y960975D01*
X640000Y907975D02*
X640000Y870000D01*
X741000Y930430D02*
X770000Y901430D01*
X741000Y930430D02*
X741000Y960975D01*
X770000Y901430D02*
X770000Y870000D01*
X320000Y870000D02*
X270000Y870000D01*
X320000Y870000D02*
X348600Y870000D01*
X965147Y779800D02*
X966050Y779800D01*
X400000Y899000D02*
X369000Y930000D01*
X400000Y899000D02*
X400000Y870000D01*
X245000Y809400D02*
X244600Y809000D01*
X245000Y809400D02*
X245000Y810000D01*
X245000Y850000D01*
X245000Y925000D02*
X245000Y960975D01*
X245000Y925000D02*
X270000Y900000D01*
X270000Y870000D01*
X864600Y910000D02*
X864600Y960000D01*
X864600Y809000D02*
X864600Y780000D01*
X864600Y764550D01*
X879850Y749300D01*
X265000Y870000D02*
X245000Y850000D01*
X265000Y870000D02*
X270000Y870000D01*
X770000Y870000D02*
X864600Y870000D01*
X864600Y809000D01*
X870000Y904600D02*
X864600Y910000D01*
X870000Y904600D02*
X870000Y870000D01*
X864600Y870000D01*
X865000Y960400D02*
X865000Y960975D01*
X865000Y960400D02*
X864600Y960000D01*
X565150Y672480D02*
X540370Y647700D01*
X565150Y672480D02*
X565150Y870000D01*
X245000Y810000D02*
X200000Y810000D01*
X155568Y877300D02*
X155568Y902700D01*
X944600Y630643D02*
X944601Y630642D01*
X944600Y659920D02*
X933020Y671500D01*
X880000Y671500D01*
X944600Y659920D02*
X944600Y630643D01*
X964947Y780000D02*
X864600Y780000D01*
X964947Y780000D02*
X965147Y779800D01*
X200000Y832868D02*
X180968Y851900D01*
X200000Y832868D02*
X200000Y810000D01*
X944600Y630643D02*
X944600Y629920D01*
X180968Y877300D02*
X180968Y902700D01*
X320000Y870000D02*
X320000Y788110D01*
X304410Y772520D01*
X304410Y764410D01*
X280000Y740000D01*
X280000Y690000D01*
X298500Y671500D01*
X299400Y671500D02*
X375600Y671500D01*
X200000Y810000D02*
X160000Y810000D01*
X150000Y800000D01*
X150000Y720000D01*
X170000Y700000D02*
X187000Y700000D01*
X170000Y700000D02*
X150000Y720000D01*
X187000Y700000D02*
X187000Y683000D01*
X217000Y653000D01*
X629800Y1004950D02*
X629800Y1018530D01*
X638730Y1027460D02*
X638730Y1037460D01*
X638730Y1027460D02*
X629800Y1018530D01*
X858200Y727700D02*
X858200Y722300D01*
X858200Y727700D02*
X811200Y774700D01*
X619770Y774700D01*
X540370Y698500D02*
X516570Y722300D01*
X451800Y722300D01*
X399900Y749300D02*
X375600Y725000D01*
X375600Y722300D01*
X399900Y749300D02*
X540370Y749300D01*
X510370Y770100D02*
X540370Y800100D01*
X510370Y770100D02*
X344500Y770100D01*
X299400Y725000D01*
X299400Y722300D01*
X759800Y1004950D02*
X759800Y1020310D01*
X759840Y1020350D02*
X759840Y1040000D01*
X759840Y1020350D02*
X759800Y1020310D01*
X887890Y1007590D02*
X889800Y1007590D01*
X887890Y1007590D02*
X887890Y1037590D01*
X889800Y1007590D02*
X889800Y1006050D01*
X509800Y1004950D02*
X509800Y1020400D01*
X519340Y1029940D02*
X519340Y1037400D01*
X519340Y1029940D02*
X509800Y1020400D01*
X379800Y1020040D02*
X379800Y1004950D01*
X388620Y1028860D02*
X388620Y1035210D01*
X388620Y1028860D02*
X379800Y1020040D01*
X259800Y1019260D02*
X259800Y1004950D01*
X269400Y1028860D02*
X269400Y1036320D01*
X269400Y1028860D02*
X259800Y1019260D01*
X619770Y673100D02*
X669770Y723100D01*
X705000Y723100D02*
X705800Y722300D01*
X705000Y723100D02*
X669770Y723100D01*
X639770Y743900D02*
X760400Y743900D01*
X639770Y743900D02*
X619770Y723900D01*
X760400Y743900D02*
X782000Y722300D01*
X970000Y659920D02*
X1000922Y690842D01*
X970000Y659920D02*
X970000Y629920D01*
X966050Y873810D02*
X966050Y894000D01*
X966050Y873810D02*
X966050Y856000D01*
X966050Y873810D02*
X990000Y873810D01*
X1000922Y862888D01*
X1000922Y690842D01*
X190180Y772520D02*
X170000Y792700D01*
X190180Y772520D02*
X228210Y772520D01*
X130000Y902532D02*
X155568Y928100D01*
X336020Y633650D02*
X349430Y620240D01*
X336020Y633650D02*
X250000Y633650D01*
X130000Y690000D02*
X130000Y902532D01*
X200000Y620000D02*
X236350Y620000D01*
X250000Y633650D01*
X200000Y620000D02*
X130000Y690000D01*
X374830Y620240D02*
X375070Y620000D01*
X570000Y620000D01*
X600000Y650000D02*
X600000Y790000D01*
X610100Y800100D02*
X619770Y800100D01*
X600000Y650000D02*
X570000Y620000D01*
X600000Y790000D02*
X610100Y800100D01*
X216774Y720526D02*
X170000Y767300D01*
X216774Y720526D02*
X216774Y692650D01*
X259424Y650000D01*
X350000Y650000D01*
X374830Y625170D01*
X374830Y620240D01*
M02*
