G04 EAGLE Gerber RS-274X export*
G75*
%MOMM*%
%FSLAX34Y34*%
%LPD*%
%INSilkscreen Top*%
%IPPOS*%
%AMOC8*
5,1,8,0,0,1.08239X$1,22.5*%
G01*
%ADD10C,0.304800*%
%ADD11C,0.152400*%
%ADD12C,0.127000*%
%ADD13C,0.203200*%
%ADD14C,0.200000*%
%ADD15C,0.101600*%


D10*
X844550Y599948D02*
X838200Y599948D01*
X831850Y599948D01*
D11*
X838200Y599948D02*
X838200Y612140D01*
D10*
X838200Y593598D02*
X844550Y593598D01*
X838200Y593598D02*
X831850Y593598D01*
D11*
X838200Y593598D02*
X838200Y581660D01*
X861060Y633730D02*
X815340Y633730D01*
X812800Y631190D02*
X812800Y562610D01*
X815340Y560070D02*
X861060Y560070D01*
X863600Y562610D02*
X863600Y631190D01*
X863600Y562610D02*
X863598Y562510D01*
X863592Y562411D01*
X863582Y562311D01*
X863569Y562213D01*
X863551Y562114D01*
X863530Y562017D01*
X863505Y561921D01*
X863476Y561825D01*
X863443Y561731D01*
X863407Y561638D01*
X863367Y561547D01*
X863323Y561457D01*
X863276Y561369D01*
X863226Y561283D01*
X863172Y561199D01*
X863115Y561117D01*
X863055Y561038D01*
X862991Y560960D01*
X862925Y560886D01*
X862856Y560814D01*
X862784Y560745D01*
X862710Y560679D01*
X862632Y560615D01*
X862553Y560555D01*
X862471Y560498D01*
X862387Y560444D01*
X862301Y560394D01*
X862213Y560347D01*
X862123Y560303D01*
X862032Y560263D01*
X861939Y560227D01*
X861845Y560194D01*
X861749Y560165D01*
X861653Y560140D01*
X861556Y560119D01*
X861457Y560101D01*
X861359Y560088D01*
X861259Y560078D01*
X861160Y560072D01*
X861060Y560070D01*
X815340Y560070D02*
X815240Y560072D01*
X815141Y560078D01*
X815041Y560088D01*
X814943Y560101D01*
X814844Y560119D01*
X814747Y560140D01*
X814651Y560165D01*
X814555Y560194D01*
X814461Y560227D01*
X814368Y560263D01*
X814277Y560303D01*
X814187Y560347D01*
X814099Y560394D01*
X814013Y560444D01*
X813929Y560498D01*
X813847Y560555D01*
X813768Y560615D01*
X813690Y560679D01*
X813616Y560745D01*
X813544Y560814D01*
X813475Y560886D01*
X813409Y560960D01*
X813345Y561038D01*
X813285Y561117D01*
X813228Y561199D01*
X813174Y561283D01*
X813124Y561369D01*
X813077Y561457D01*
X813033Y561547D01*
X812993Y561638D01*
X812957Y561731D01*
X812924Y561825D01*
X812895Y561921D01*
X812870Y562017D01*
X812849Y562114D01*
X812831Y562213D01*
X812818Y562311D01*
X812808Y562411D01*
X812802Y562510D01*
X812800Y562610D01*
X812800Y631190D02*
X812802Y631290D01*
X812808Y631389D01*
X812818Y631489D01*
X812831Y631587D01*
X812849Y631686D01*
X812870Y631783D01*
X812895Y631879D01*
X812924Y631975D01*
X812957Y632069D01*
X812993Y632162D01*
X813033Y632253D01*
X813077Y632343D01*
X813124Y632431D01*
X813174Y632517D01*
X813228Y632601D01*
X813285Y632683D01*
X813345Y632762D01*
X813409Y632840D01*
X813475Y632914D01*
X813544Y632986D01*
X813616Y633055D01*
X813690Y633121D01*
X813768Y633185D01*
X813847Y633245D01*
X813929Y633302D01*
X814013Y633356D01*
X814099Y633406D01*
X814187Y633453D01*
X814277Y633497D01*
X814368Y633537D01*
X814461Y633573D01*
X814555Y633606D01*
X814651Y633635D01*
X814747Y633660D01*
X814844Y633681D01*
X814943Y633699D01*
X815041Y633712D01*
X815141Y633722D01*
X815240Y633728D01*
X815340Y633730D01*
X861060Y633730D02*
X861160Y633728D01*
X861259Y633722D01*
X861359Y633712D01*
X861457Y633699D01*
X861556Y633681D01*
X861653Y633660D01*
X861749Y633635D01*
X861845Y633606D01*
X861939Y633573D01*
X862032Y633537D01*
X862123Y633497D01*
X862213Y633453D01*
X862301Y633406D01*
X862387Y633356D01*
X862471Y633302D01*
X862553Y633245D01*
X862632Y633185D01*
X862710Y633121D01*
X862784Y633055D01*
X862856Y632986D01*
X862925Y632914D01*
X862991Y632840D01*
X863055Y632762D01*
X863115Y632683D01*
X863172Y632601D01*
X863226Y632517D01*
X863276Y632431D01*
X863323Y632343D01*
X863367Y632253D01*
X863407Y632162D01*
X863443Y632069D01*
X863476Y631975D01*
X863505Y631879D01*
X863530Y631783D01*
X863551Y631686D01*
X863569Y631587D01*
X863582Y631489D01*
X863592Y631389D01*
X863598Y631290D01*
X863600Y631190D01*
D12*
X878205Y610833D02*
X878205Y608293D01*
X878203Y608193D01*
X878197Y608094D01*
X878187Y607994D01*
X878174Y607896D01*
X878156Y607797D01*
X878135Y607700D01*
X878110Y607604D01*
X878081Y607508D01*
X878048Y607414D01*
X878012Y607321D01*
X877972Y607230D01*
X877928Y607140D01*
X877881Y607052D01*
X877831Y606966D01*
X877777Y606882D01*
X877720Y606800D01*
X877660Y606721D01*
X877596Y606643D01*
X877530Y606569D01*
X877461Y606497D01*
X877389Y606428D01*
X877315Y606362D01*
X877237Y606298D01*
X877158Y606238D01*
X877076Y606181D01*
X876992Y606127D01*
X876906Y606077D01*
X876818Y606030D01*
X876728Y605986D01*
X876637Y605946D01*
X876544Y605910D01*
X876450Y605877D01*
X876354Y605848D01*
X876258Y605823D01*
X876161Y605802D01*
X876062Y605784D01*
X875964Y605771D01*
X875864Y605761D01*
X875765Y605755D01*
X875665Y605753D01*
X869315Y605753D01*
X869215Y605755D01*
X869116Y605761D01*
X869016Y605771D01*
X868918Y605784D01*
X868819Y605802D01*
X868722Y605823D01*
X868626Y605848D01*
X868530Y605877D01*
X868436Y605910D01*
X868343Y605946D01*
X868252Y605986D01*
X868162Y606030D01*
X868074Y606077D01*
X867988Y606127D01*
X867904Y606181D01*
X867822Y606238D01*
X867743Y606298D01*
X867665Y606362D01*
X867591Y606428D01*
X867519Y606497D01*
X867450Y606569D01*
X867384Y606643D01*
X867320Y606721D01*
X867260Y606800D01*
X867203Y606882D01*
X867149Y606966D01*
X867099Y607052D01*
X867052Y607140D01*
X867008Y607230D01*
X866968Y607321D01*
X866932Y607414D01*
X866899Y607508D01*
X866870Y607604D01*
X866845Y607700D01*
X866824Y607797D01*
X866806Y607896D01*
X866793Y607994D01*
X866783Y608094D01*
X866777Y608193D01*
X866775Y608293D01*
X866775Y610833D01*
X869315Y615315D02*
X866775Y618490D01*
X878205Y618490D01*
X878205Y615315D02*
X878205Y621665D01*
D13*
X323800Y729700D02*
X323800Y765700D01*
X272800Y729700D02*
X213800Y729700D01*
X296800Y729700D02*
X323800Y729700D01*
X323800Y819700D02*
X213800Y819700D01*
X323800Y819700D02*
X323800Y783700D01*
X213800Y819700D02*
X213800Y729700D01*
D12*
X191079Y796884D02*
X187325Y796884D01*
X191079Y796884D02*
X191144Y796882D01*
X191208Y796876D01*
X191272Y796866D01*
X191336Y796853D01*
X191398Y796835D01*
X191459Y796814D01*
X191519Y796790D01*
X191577Y796761D01*
X191634Y796729D01*
X191688Y796694D01*
X191740Y796656D01*
X191790Y796614D01*
X191837Y796570D01*
X191881Y796523D01*
X191923Y796473D01*
X191961Y796421D01*
X191996Y796367D01*
X192028Y796310D01*
X192057Y796252D01*
X192081Y796192D01*
X192102Y796131D01*
X192120Y796069D01*
X192133Y796005D01*
X192143Y795941D01*
X192149Y795877D01*
X192151Y795812D01*
X192151Y795275D01*
X188397Y799832D02*
X187325Y801172D01*
X192151Y801172D01*
X192151Y799832D02*
X192151Y802513D01*
D13*
X952500Y972820D02*
X1003300Y972820D01*
X1003300Y965200D01*
X1003300Y957580D01*
X952500Y957580D01*
X952500Y965200D01*
X952500Y972820D01*
X1003300Y965200D02*
X1005840Y965200D01*
X952500Y965200D02*
X949960Y965200D01*
D12*
X973848Y975995D02*
X973848Y980821D01*
X975189Y980821D01*
X975260Y980819D01*
X975332Y980813D01*
X975402Y980804D01*
X975472Y980791D01*
X975542Y980774D01*
X975610Y980753D01*
X975677Y980729D01*
X975743Y980701D01*
X975807Y980670D01*
X975870Y980635D01*
X975930Y980597D01*
X975989Y980556D01*
X976045Y980512D01*
X976099Y980465D01*
X976150Y980416D01*
X976198Y980363D01*
X976244Y980308D01*
X976286Y980251D01*
X976326Y980191D01*
X976362Y980130D01*
X976395Y980066D01*
X976424Y980001D01*
X976450Y979935D01*
X976473Y979867D01*
X976492Y979798D01*
X976507Y979728D01*
X976518Y979658D01*
X976526Y979587D01*
X976530Y979516D01*
X976530Y979444D01*
X976526Y979373D01*
X976518Y979302D01*
X976507Y979232D01*
X976492Y979162D01*
X976473Y979093D01*
X976450Y979025D01*
X976424Y978959D01*
X976395Y978894D01*
X976362Y978830D01*
X976326Y978769D01*
X976286Y978709D01*
X976244Y978652D01*
X976198Y978597D01*
X976150Y978544D01*
X976099Y978495D01*
X976045Y978448D01*
X975989Y978404D01*
X975930Y978363D01*
X975870Y978325D01*
X975807Y978290D01*
X975743Y978259D01*
X975677Y978231D01*
X975610Y978207D01*
X975542Y978186D01*
X975472Y978169D01*
X975402Y978156D01*
X975332Y978147D01*
X975260Y978141D01*
X975189Y978139D01*
X975189Y978140D02*
X973848Y978140D01*
X975457Y978140D02*
X976529Y975995D01*
X979271Y978676D02*
X980879Y978676D01*
X980944Y978674D01*
X981008Y978668D01*
X981072Y978658D01*
X981136Y978645D01*
X981198Y978627D01*
X981259Y978606D01*
X981319Y978582D01*
X981377Y978553D01*
X981434Y978521D01*
X981488Y978486D01*
X981540Y978448D01*
X981590Y978406D01*
X981637Y978362D01*
X981681Y978315D01*
X981723Y978265D01*
X981761Y978213D01*
X981796Y978159D01*
X981828Y978102D01*
X981857Y978044D01*
X981881Y977984D01*
X981902Y977923D01*
X981920Y977861D01*
X981933Y977797D01*
X981943Y977733D01*
X981949Y977669D01*
X981951Y977604D01*
X981952Y977604D02*
X981952Y977336D01*
X981950Y977265D01*
X981944Y977193D01*
X981935Y977123D01*
X981922Y977053D01*
X981905Y976983D01*
X981884Y976915D01*
X981860Y976848D01*
X981832Y976782D01*
X981801Y976718D01*
X981766Y976655D01*
X981728Y976595D01*
X981687Y976536D01*
X981643Y976480D01*
X981596Y976426D01*
X981547Y976375D01*
X981494Y976327D01*
X981439Y976281D01*
X981382Y976239D01*
X981322Y976199D01*
X981261Y976163D01*
X981197Y976130D01*
X981132Y976101D01*
X981066Y976075D01*
X980998Y976052D01*
X980929Y976033D01*
X980859Y976018D01*
X980789Y976007D01*
X980718Y975999D01*
X980647Y975995D01*
X980575Y975995D01*
X980504Y975999D01*
X980433Y976007D01*
X980363Y976018D01*
X980293Y976033D01*
X980224Y976052D01*
X980156Y976075D01*
X980090Y976101D01*
X980025Y976130D01*
X979961Y976163D01*
X979900Y976199D01*
X979840Y976239D01*
X979783Y976281D01*
X979728Y976327D01*
X979675Y976375D01*
X979626Y976426D01*
X979579Y976480D01*
X979535Y976536D01*
X979494Y976595D01*
X979456Y976655D01*
X979421Y976718D01*
X979390Y976782D01*
X979362Y976848D01*
X979338Y976915D01*
X979317Y976983D01*
X979300Y977053D01*
X979287Y977123D01*
X979278Y977193D01*
X979272Y977265D01*
X979270Y977336D01*
X979271Y977336D02*
X979271Y978676D01*
X979273Y978767D01*
X979279Y978858D01*
X979288Y978948D01*
X979302Y979039D01*
X979319Y979128D01*
X979340Y979216D01*
X979365Y979304D01*
X979394Y979391D01*
X979426Y979476D01*
X979461Y979560D01*
X979501Y979642D01*
X979543Y979722D01*
X979589Y979801D01*
X979639Y979877D01*
X979691Y979951D01*
X979747Y980024D01*
X979806Y980093D01*
X979867Y980160D01*
X979932Y980225D01*
X979999Y980286D01*
X980068Y980345D01*
X980140Y980401D01*
X980215Y980453D01*
X980291Y980503D01*
X980370Y980549D01*
X980450Y980591D01*
X980532Y980631D01*
X980616Y980666D01*
X980701Y980698D01*
X980788Y980727D01*
X980875Y980752D01*
X980964Y980773D01*
X981053Y980790D01*
X981144Y980804D01*
X981234Y980813D01*
X981325Y980819D01*
X981416Y980821D01*
D14*
X507250Y800100D02*
X507252Y800163D01*
X507258Y800225D01*
X507268Y800287D01*
X507281Y800349D01*
X507299Y800409D01*
X507320Y800468D01*
X507345Y800526D01*
X507374Y800582D01*
X507406Y800636D01*
X507441Y800688D01*
X507479Y800737D01*
X507521Y800785D01*
X507565Y800829D01*
X507613Y800871D01*
X507662Y800909D01*
X507714Y800944D01*
X507768Y800976D01*
X507824Y801005D01*
X507882Y801030D01*
X507941Y801051D01*
X508001Y801069D01*
X508063Y801082D01*
X508125Y801092D01*
X508187Y801098D01*
X508250Y801100D01*
X508313Y801098D01*
X508375Y801092D01*
X508437Y801082D01*
X508499Y801069D01*
X508559Y801051D01*
X508618Y801030D01*
X508676Y801005D01*
X508732Y800976D01*
X508786Y800944D01*
X508838Y800909D01*
X508887Y800871D01*
X508935Y800829D01*
X508979Y800785D01*
X509021Y800737D01*
X509059Y800688D01*
X509094Y800636D01*
X509126Y800582D01*
X509155Y800526D01*
X509180Y800468D01*
X509201Y800409D01*
X509219Y800349D01*
X509232Y800287D01*
X509242Y800225D01*
X509248Y800163D01*
X509250Y800100D01*
X509248Y800037D01*
X509242Y799975D01*
X509232Y799913D01*
X509219Y799851D01*
X509201Y799791D01*
X509180Y799732D01*
X509155Y799674D01*
X509126Y799618D01*
X509094Y799564D01*
X509059Y799512D01*
X509021Y799463D01*
X508979Y799415D01*
X508935Y799371D01*
X508887Y799329D01*
X508838Y799291D01*
X508786Y799256D01*
X508732Y799224D01*
X508676Y799195D01*
X508618Y799170D01*
X508559Y799149D01*
X508499Y799131D01*
X508437Y799118D01*
X508375Y799108D01*
X508313Y799102D01*
X508250Y799100D01*
X508187Y799102D01*
X508125Y799108D01*
X508063Y799118D01*
X508001Y799131D01*
X507941Y799149D01*
X507882Y799170D01*
X507824Y799195D01*
X507768Y799224D01*
X507714Y799256D01*
X507662Y799291D01*
X507613Y799329D01*
X507565Y799371D01*
X507521Y799415D01*
X507479Y799463D01*
X507441Y799512D01*
X507406Y799564D01*
X507374Y799618D01*
X507345Y799674D01*
X507320Y799732D01*
X507299Y799791D01*
X507281Y799851D01*
X507268Y799913D01*
X507258Y799975D01*
X507252Y800037D01*
X507250Y800100D01*
D12*
X525800Y809150D02*
X525800Y822350D01*
X591800Y822350D01*
X591800Y809150D01*
X591800Y638650D02*
X591800Y625450D01*
X525800Y625450D01*
X525800Y638650D01*
D15*
X520578Y851704D02*
X520578Y860142D01*
X520578Y851704D02*
X520580Y851591D01*
X520586Y851478D01*
X520596Y851365D01*
X520610Y851252D01*
X520627Y851140D01*
X520649Y851029D01*
X520674Y850919D01*
X520704Y850809D01*
X520737Y850701D01*
X520774Y850594D01*
X520814Y850488D01*
X520859Y850384D01*
X520907Y850281D01*
X520958Y850180D01*
X521013Y850081D01*
X521071Y849984D01*
X521133Y849889D01*
X521198Y849796D01*
X521266Y849706D01*
X521337Y849618D01*
X521412Y849532D01*
X521489Y849449D01*
X521569Y849369D01*
X521652Y849292D01*
X521738Y849217D01*
X521826Y849146D01*
X521916Y849078D01*
X522009Y849013D01*
X522104Y848951D01*
X522201Y848893D01*
X522300Y848838D01*
X522401Y848787D01*
X522504Y848739D01*
X522608Y848694D01*
X522714Y848654D01*
X522821Y848617D01*
X522929Y848584D01*
X523039Y848554D01*
X523149Y848529D01*
X523260Y848507D01*
X523372Y848490D01*
X523485Y848476D01*
X523598Y848466D01*
X523711Y848460D01*
X523824Y848458D01*
X523937Y848460D01*
X524050Y848466D01*
X524163Y848476D01*
X524276Y848490D01*
X524388Y848507D01*
X524499Y848529D01*
X524609Y848554D01*
X524719Y848584D01*
X524827Y848617D01*
X524934Y848654D01*
X525040Y848694D01*
X525144Y848739D01*
X525247Y848787D01*
X525348Y848838D01*
X525447Y848893D01*
X525544Y848951D01*
X525639Y849013D01*
X525732Y849078D01*
X525822Y849146D01*
X525910Y849217D01*
X525996Y849292D01*
X526079Y849369D01*
X526159Y849449D01*
X526236Y849532D01*
X526311Y849618D01*
X526382Y849706D01*
X526450Y849796D01*
X526515Y849889D01*
X526577Y849984D01*
X526635Y850081D01*
X526690Y850180D01*
X526741Y850281D01*
X526789Y850384D01*
X526834Y850488D01*
X526874Y850594D01*
X526911Y850701D01*
X526944Y850809D01*
X526974Y850919D01*
X526999Y851029D01*
X527021Y851140D01*
X527038Y851252D01*
X527052Y851365D01*
X527062Y851478D01*
X527068Y851591D01*
X527070Y851704D01*
X527069Y851704D02*
X527069Y860142D01*
X532389Y857546D02*
X535635Y860142D01*
X535635Y848458D01*
X538880Y848458D02*
X532389Y848458D01*
D10*
X762000Y599948D02*
X768350Y599948D01*
X762000Y599948D02*
X755650Y599948D01*
D11*
X762000Y599948D02*
X762000Y612140D01*
D10*
X762000Y593598D02*
X768350Y593598D01*
X762000Y593598D02*
X755650Y593598D01*
D11*
X762000Y593598D02*
X762000Y581660D01*
X784860Y633730D02*
X739140Y633730D01*
X736600Y631190D02*
X736600Y562610D01*
X739140Y560070D02*
X784860Y560070D01*
X787400Y562610D02*
X787400Y631190D01*
X787400Y562610D02*
X787398Y562510D01*
X787392Y562411D01*
X787382Y562311D01*
X787369Y562213D01*
X787351Y562114D01*
X787330Y562017D01*
X787305Y561921D01*
X787276Y561825D01*
X787243Y561731D01*
X787207Y561638D01*
X787167Y561547D01*
X787123Y561457D01*
X787076Y561369D01*
X787026Y561283D01*
X786972Y561199D01*
X786915Y561117D01*
X786855Y561038D01*
X786791Y560960D01*
X786725Y560886D01*
X786656Y560814D01*
X786584Y560745D01*
X786510Y560679D01*
X786432Y560615D01*
X786353Y560555D01*
X786271Y560498D01*
X786187Y560444D01*
X786101Y560394D01*
X786013Y560347D01*
X785923Y560303D01*
X785832Y560263D01*
X785739Y560227D01*
X785645Y560194D01*
X785549Y560165D01*
X785453Y560140D01*
X785356Y560119D01*
X785257Y560101D01*
X785159Y560088D01*
X785059Y560078D01*
X784960Y560072D01*
X784860Y560070D01*
X739140Y560070D02*
X739040Y560072D01*
X738941Y560078D01*
X738841Y560088D01*
X738743Y560101D01*
X738644Y560119D01*
X738547Y560140D01*
X738451Y560165D01*
X738355Y560194D01*
X738261Y560227D01*
X738168Y560263D01*
X738077Y560303D01*
X737987Y560347D01*
X737899Y560394D01*
X737813Y560444D01*
X737729Y560498D01*
X737647Y560555D01*
X737568Y560615D01*
X737490Y560679D01*
X737416Y560745D01*
X737344Y560814D01*
X737275Y560886D01*
X737209Y560960D01*
X737145Y561038D01*
X737085Y561117D01*
X737028Y561199D01*
X736974Y561283D01*
X736924Y561369D01*
X736877Y561457D01*
X736833Y561547D01*
X736793Y561638D01*
X736757Y561731D01*
X736724Y561825D01*
X736695Y561921D01*
X736670Y562017D01*
X736649Y562114D01*
X736631Y562213D01*
X736618Y562311D01*
X736608Y562411D01*
X736602Y562510D01*
X736600Y562610D01*
X736600Y631190D02*
X736602Y631290D01*
X736608Y631389D01*
X736618Y631489D01*
X736631Y631587D01*
X736649Y631686D01*
X736670Y631783D01*
X736695Y631879D01*
X736724Y631975D01*
X736757Y632069D01*
X736793Y632162D01*
X736833Y632253D01*
X736877Y632343D01*
X736924Y632431D01*
X736974Y632517D01*
X737028Y632601D01*
X737085Y632683D01*
X737145Y632762D01*
X737209Y632840D01*
X737275Y632914D01*
X737344Y632986D01*
X737416Y633055D01*
X737490Y633121D01*
X737568Y633185D01*
X737647Y633245D01*
X737729Y633302D01*
X737813Y633356D01*
X737899Y633406D01*
X737987Y633453D01*
X738077Y633497D01*
X738168Y633537D01*
X738261Y633573D01*
X738355Y633606D01*
X738451Y633635D01*
X738547Y633660D01*
X738644Y633681D01*
X738743Y633699D01*
X738841Y633712D01*
X738941Y633722D01*
X739040Y633728D01*
X739140Y633730D01*
X784860Y633730D02*
X784960Y633728D01*
X785059Y633722D01*
X785159Y633712D01*
X785257Y633699D01*
X785356Y633681D01*
X785453Y633660D01*
X785549Y633635D01*
X785645Y633606D01*
X785739Y633573D01*
X785832Y633537D01*
X785923Y633497D01*
X786013Y633453D01*
X786101Y633406D01*
X786187Y633356D01*
X786271Y633302D01*
X786353Y633245D01*
X786432Y633185D01*
X786510Y633121D01*
X786584Y633055D01*
X786656Y632986D01*
X786725Y632914D01*
X786791Y632840D01*
X786855Y632762D01*
X786915Y632683D01*
X786972Y632601D01*
X787026Y632517D01*
X787076Y632431D01*
X787123Y632343D01*
X787167Y632253D01*
X787207Y632162D01*
X787243Y632069D01*
X787276Y631975D01*
X787305Y631879D01*
X787330Y631783D01*
X787351Y631686D01*
X787369Y631587D01*
X787382Y631489D01*
X787392Y631389D01*
X787398Y631290D01*
X787400Y631190D01*
D12*
X802005Y610833D02*
X802005Y608293D01*
X802003Y608193D01*
X801997Y608094D01*
X801987Y607994D01*
X801974Y607896D01*
X801956Y607797D01*
X801935Y607700D01*
X801910Y607604D01*
X801881Y607508D01*
X801848Y607414D01*
X801812Y607321D01*
X801772Y607230D01*
X801728Y607140D01*
X801681Y607052D01*
X801631Y606966D01*
X801577Y606882D01*
X801520Y606800D01*
X801460Y606721D01*
X801396Y606643D01*
X801330Y606569D01*
X801261Y606497D01*
X801189Y606428D01*
X801115Y606362D01*
X801037Y606298D01*
X800958Y606238D01*
X800876Y606181D01*
X800792Y606127D01*
X800706Y606077D01*
X800618Y606030D01*
X800528Y605986D01*
X800437Y605946D01*
X800344Y605910D01*
X800250Y605877D01*
X800154Y605848D01*
X800058Y605823D01*
X799961Y605802D01*
X799862Y605784D01*
X799764Y605771D01*
X799664Y605761D01*
X799565Y605755D01*
X799465Y605753D01*
X793115Y605753D01*
X793015Y605755D01*
X792916Y605761D01*
X792816Y605771D01*
X792718Y605784D01*
X792619Y605802D01*
X792522Y605823D01*
X792426Y605848D01*
X792330Y605877D01*
X792236Y605910D01*
X792143Y605946D01*
X792052Y605986D01*
X791962Y606030D01*
X791874Y606077D01*
X791788Y606127D01*
X791704Y606181D01*
X791622Y606238D01*
X791543Y606298D01*
X791465Y606362D01*
X791391Y606428D01*
X791319Y606497D01*
X791250Y606569D01*
X791184Y606643D01*
X791120Y606721D01*
X791060Y606800D01*
X791003Y606882D01*
X790949Y606966D01*
X790899Y607052D01*
X790852Y607140D01*
X790808Y607230D01*
X790768Y607321D01*
X790732Y607414D01*
X790699Y607508D01*
X790670Y607604D01*
X790645Y607700D01*
X790624Y607797D01*
X790606Y607896D01*
X790593Y607994D01*
X790583Y608094D01*
X790577Y608193D01*
X790575Y608293D01*
X790575Y610833D01*
X790575Y618808D02*
X790577Y618912D01*
X790583Y619017D01*
X790592Y619121D01*
X790605Y619224D01*
X790623Y619327D01*
X790643Y619429D01*
X790668Y619531D01*
X790696Y619631D01*
X790728Y619731D01*
X790764Y619829D01*
X790803Y619926D01*
X790845Y620021D01*
X790891Y620115D01*
X790941Y620207D01*
X790993Y620297D01*
X791049Y620385D01*
X791109Y620471D01*
X791171Y620555D01*
X791236Y620636D01*
X791304Y620715D01*
X791376Y620792D01*
X791449Y620865D01*
X791526Y620937D01*
X791605Y621005D01*
X791686Y621070D01*
X791770Y621132D01*
X791856Y621192D01*
X791944Y621248D01*
X792034Y621300D01*
X792126Y621350D01*
X792220Y621396D01*
X792315Y621438D01*
X792412Y621477D01*
X792510Y621513D01*
X792610Y621545D01*
X792710Y621573D01*
X792812Y621598D01*
X792914Y621618D01*
X793017Y621636D01*
X793120Y621649D01*
X793224Y621658D01*
X793329Y621664D01*
X793433Y621666D01*
X790575Y618808D02*
X790577Y618690D01*
X790583Y618571D01*
X790592Y618453D01*
X790605Y618336D01*
X790623Y618219D01*
X790643Y618102D01*
X790668Y617986D01*
X790696Y617871D01*
X790729Y617758D01*
X790764Y617645D01*
X790804Y617533D01*
X790846Y617423D01*
X790893Y617314D01*
X790943Y617206D01*
X790996Y617101D01*
X791053Y616997D01*
X791113Y616895D01*
X791176Y616795D01*
X791243Y616697D01*
X791312Y616601D01*
X791385Y616508D01*
X791461Y616417D01*
X791539Y616328D01*
X791621Y616242D01*
X791705Y616159D01*
X791791Y616078D01*
X791881Y616001D01*
X791972Y615926D01*
X792066Y615854D01*
X792163Y615785D01*
X792261Y615720D01*
X792362Y615657D01*
X792465Y615598D01*
X792569Y615542D01*
X792675Y615490D01*
X792783Y615441D01*
X792892Y615396D01*
X793003Y615354D01*
X793115Y615316D01*
X795655Y620713D02*
X795580Y620789D01*
X795501Y620864D01*
X795420Y620935D01*
X795336Y621004D01*
X795250Y621069D01*
X795162Y621131D01*
X795072Y621191D01*
X794980Y621247D01*
X794885Y621300D01*
X794789Y621349D01*
X794691Y621395D01*
X794592Y621438D01*
X794491Y621477D01*
X794389Y621512D01*
X794286Y621544D01*
X794182Y621572D01*
X794077Y621597D01*
X793970Y621618D01*
X793864Y621635D01*
X793757Y621648D01*
X793649Y621657D01*
X793541Y621663D01*
X793433Y621665D01*
X795655Y620713D02*
X802005Y615315D01*
X802005Y621665D01*
D10*
X692150Y599948D02*
X685800Y599948D01*
X679450Y599948D01*
D11*
X685800Y599948D02*
X685800Y612140D01*
D10*
X685800Y593598D02*
X692150Y593598D01*
X685800Y593598D02*
X679450Y593598D01*
D11*
X685800Y593598D02*
X685800Y581660D01*
X708660Y633730D02*
X662940Y633730D01*
X660400Y631190D02*
X660400Y562610D01*
X662940Y560070D02*
X708660Y560070D01*
X711200Y562610D02*
X711200Y631190D01*
X711200Y562610D02*
X711198Y562510D01*
X711192Y562411D01*
X711182Y562311D01*
X711169Y562213D01*
X711151Y562114D01*
X711130Y562017D01*
X711105Y561921D01*
X711076Y561825D01*
X711043Y561731D01*
X711007Y561638D01*
X710967Y561547D01*
X710923Y561457D01*
X710876Y561369D01*
X710826Y561283D01*
X710772Y561199D01*
X710715Y561117D01*
X710655Y561038D01*
X710591Y560960D01*
X710525Y560886D01*
X710456Y560814D01*
X710384Y560745D01*
X710310Y560679D01*
X710232Y560615D01*
X710153Y560555D01*
X710071Y560498D01*
X709987Y560444D01*
X709901Y560394D01*
X709813Y560347D01*
X709723Y560303D01*
X709632Y560263D01*
X709539Y560227D01*
X709445Y560194D01*
X709349Y560165D01*
X709253Y560140D01*
X709156Y560119D01*
X709057Y560101D01*
X708959Y560088D01*
X708859Y560078D01*
X708760Y560072D01*
X708660Y560070D01*
X662940Y560070D02*
X662840Y560072D01*
X662741Y560078D01*
X662641Y560088D01*
X662543Y560101D01*
X662444Y560119D01*
X662347Y560140D01*
X662251Y560165D01*
X662155Y560194D01*
X662061Y560227D01*
X661968Y560263D01*
X661877Y560303D01*
X661787Y560347D01*
X661699Y560394D01*
X661613Y560444D01*
X661529Y560498D01*
X661447Y560555D01*
X661368Y560615D01*
X661290Y560679D01*
X661216Y560745D01*
X661144Y560814D01*
X661075Y560886D01*
X661009Y560960D01*
X660945Y561038D01*
X660885Y561117D01*
X660828Y561199D01*
X660774Y561283D01*
X660724Y561369D01*
X660677Y561457D01*
X660633Y561547D01*
X660593Y561638D01*
X660557Y561731D01*
X660524Y561825D01*
X660495Y561921D01*
X660470Y562017D01*
X660449Y562114D01*
X660431Y562213D01*
X660418Y562311D01*
X660408Y562411D01*
X660402Y562510D01*
X660400Y562610D01*
X660400Y631190D02*
X660402Y631290D01*
X660408Y631389D01*
X660418Y631489D01*
X660431Y631587D01*
X660449Y631686D01*
X660470Y631783D01*
X660495Y631879D01*
X660524Y631975D01*
X660557Y632069D01*
X660593Y632162D01*
X660633Y632253D01*
X660677Y632343D01*
X660724Y632431D01*
X660774Y632517D01*
X660828Y632601D01*
X660885Y632683D01*
X660945Y632762D01*
X661009Y632840D01*
X661075Y632914D01*
X661144Y632986D01*
X661216Y633055D01*
X661290Y633121D01*
X661368Y633185D01*
X661447Y633245D01*
X661529Y633302D01*
X661613Y633356D01*
X661699Y633406D01*
X661787Y633453D01*
X661877Y633497D01*
X661968Y633537D01*
X662061Y633573D01*
X662155Y633606D01*
X662251Y633635D01*
X662347Y633660D01*
X662444Y633681D01*
X662543Y633699D01*
X662641Y633712D01*
X662741Y633722D01*
X662840Y633728D01*
X662940Y633730D01*
X708660Y633730D02*
X708760Y633728D01*
X708859Y633722D01*
X708959Y633712D01*
X709057Y633699D01*
X709156Y633681D01*
X709253Y633660D01*
X709349Y633635D01*
X709445Y633606D01*
X709539Y633573D01*
X709632Y633537D01*
X709723Y633497D01*
X709813Y633453D01*
X709901Y633406D01*
X709987Y633356D01*
X710071Y633302D01*
X710153Y633245D01*
X710232Y633185D01*
X710310Y633121D01*
X710384Y633055D01*
X710456Y632986D01*
X710525Y632914D01*
X710591Y632840D01*
X710655Y632762D01*
X710715Y632683D01*
X710772Y632601D01*
X710826Y632517D01*
X710876Y632431D01*
X710923Y632343D01*
X710967Y632253D01*
X711007Y632162D01*
X711043Y632069D01*
X711076Y631975D01*
X711105Y631879D01*
X711130Y631783D01*
X711151Y631686D01*
X711169Y631587D01*
X711182Y631489D01*
X711192Y631389D01*
X711198Y631290D01*
X711200Y631190D01*
D12*
X725805Y610833D02*
X725805Y608293D01*
X725803Y608193D01*
X725797Y608094D01*
X725787Y607994D01*
X725774Y607896D01*
X725756Y607797D01*
X725735Y607700D01*
X725710Y607604D01*
X725681Y607508D01*
X725648Y607414D01*
X725612Y607321D01*
X725572Y607230D01*
X725528Y607140D01*
X725481Y607052D01*
X725431Y606966D01*
X725377Y606882D01*
X725320Y606800D01*
X725260Y606721D01*
X725196Y606643D01*
X725130Y606569D01*
X725061Y606497D01*
X724989Y606428D01*
X724915Y606362D01*
X724837Y606298D01*
X724758Y606238D01*
X724676Y606181D01*
X724592Y606127D01*
X724506Y606077D01*
X724418Y606030D01*
X724328Y605986D01*
X724237Y605946D01*
X724144Y605910D01*
X724050Y605877D01*
X723954Y605848D01*
X723858Y605823D01*
X723761Y605802D01*
X723662Y605784D01*
X723564Y605771D01*
X723464Y605761D01*
X723365Y605755D01*
X723265Y605753D01*
X716915Y605753D01*
X716815Y605755D01*
X716716Y605761D01*
X716616Y605771D01*
X716518Y605784D01*
X716419Y605802D01*
X716322Y605823D01*
X716226Y605848D01*
X716130Y605877D01*
X716036Y605910D01*
X715943Y605946D01*
X715852Y605986D01*
X715762Y606030D01*
X715674Y606077D01*
X715588Y606127D01*
X715504Y606181D01*
X715422Y606238D01*
X715343Y606298D01*
X715265Y606362D01*
X715191Y606428D01*
X715119Y606497D01*
X715050Y606569D01*
X714984Y606643D01*
X714920Y606721D01*
X714860Y606800D01*
X714803Y606882D01*
X714749Y606966D01*
X714699Y607052D01*
X714652Y607140D01*
X714608Y607230D01*
X714568Y607321D01*
X714532Y607414D01*
X714499Y607508D01*
X714470Y607604D01*
X714445Y607700D01*
X714424Y607797D01*
X714406Y607896D01*
X714393Y607994D01*
X714383Y608094D01*
X714377Y608193D01*
X714375Y608293D01*
X714375Y610833D01*
X725805Y615315D02*
X725805Y618490D01*
X725803Y618601D01*
X725797Y618711D01*
X725788Y618822D01*
X725774Y618932D01*
X725757Y619041D01*
X725736Y619150D01*
X725711Y619258D01*
X725682Y619365D01*
X725650Y619471D01*
X725614Y619576D01*
X725574Y619679D01*
X725531Y619781D01*
X725484Y619882D01*
X725433Y619981D01*
X725380Y620078D01*
X725323Y620172D01*
X725262Y620265D01*
X725199Y620356D01*
X725132Y620445D01*
X725062Y620531D01*
X724989Y620614D01*
X724914Y620696D01*
X724836Y620774D01*
X724754Y620849D01*
X724671Y620922D01*
X724585Y620992D01*
X724496Y621059D01*
X724405Y621122D01*
X724312Y621183D01*
X724218Y621240D01*
X724121Y621293D01*
X724022Y621344D01*
X723921Y621391D01*
X723819Y621434D01*
X723716Y621474D01*
X723611Y621510D01*
X723505Y621542D01*
X723398Y621571D01*
X723290Y621596D01*
X723181Y621617D01*
X723072Y621634D01*
X722962Y621648D01*
X722851Y621657D01*
X722741Y621663D01*
X722630Y621665D01*
X722519Y621663D01*
X722409Y621657D01*
X722298Y621648D01*
X722188Y621634D01*
X722079Y621617D01*
X721970Y621596D01*
X721862Y621571D01*
X721755Y621542D01*
X721649Y621510D01*
X721544Y621474D01*
X721441Y621434D01*
X721339Y621391D01*
X721238Y621344D01*
X721139Y621293D01*
X721043Y621240D01*
X720948Y621183D01*
X720855Y621122D01*
X720764Y621059D01*
X720675Y620992D01*
X720589Y620922D01*
X720506Y620849D01*
X720424Y620774D01*
X720346Y620696D01*
X720271Y620614D01*
X720198Y620531D01*
X720128Y620445D01*
X720061Y620356D01*
X719998Y620265D01*
X719937Y620172D01*
X719880Y620078D01*
X719827Y619981D01*
X719776Y619882D01*
X719729Y619781D01*
X719686Y619679D01*
X719646Y619576D01*
X719610Y619471D01*
X719578Y619365D01*
X719549Y619258D01*
X719524Y619150D01*
X719503Y619041D01*
X719486Y618932D01*
X719472Y618822D01*
X719463Y618711D01*
X719457Y618601D01*
X719455Y618490D01*
X714375Y619125D02*
X714375Y615315D01*
X714375Y619125D02*
X714377Y619225D01*
X714383Y619324D01*
X714393Y619424D01*
X714406Y619522D01*
X714424Y619621D01*
X714445Y619718D01*
X714470Y619814D01*
X714499Y619910D01*
X714532Y620004D01*
X714568Y620097D01*
X714608Y620188D01*
X714652Y620278D01*
X714699Y620366D01*
X714749Y620452D01*
X714803Y620536D01*
X714860Y620618D01*
X714920Y620697D01*
X714984Y620775D01*
X715050Y620849D01*
X715119Y620921D01*
X715191Y620990D01*
X715265Y621056D01*
X715343Y621120D01*
X715422Y621180D01*
X715504Y621237D01*
X715588Y621291D01*
X715674Y621341D01*
X715762Y621388D01*
X715852Y621432D01*
X715943Y621472D01*
X716036Y621508D01*
X716130Y621541D01*
X716226Y621570D01*
X716322Y621595D01*
X716419Y621616D01*
X716518Y621634D01*
X716616Y621647D01*
X716716Y621657D01*
X716815Y621663D01*
X716915Y621665D01*
X717015Y621663D01*
X717114Y621657D01*
X717214Y621647D01*
X717312Y621634D01*
X717411Y621616D01*
X717508Y621595D01*
X717604Y621570D01*
X717700Y621541D01*
X717794Y621508D01*
X717887Y621472D01*
X717978Y621432D01*
X718068Y621388D01*
X718156Y621341D01*
X718242Y621291D01*
X718326Y621237D01*
X718408Y621180D01*
X718487Y621120D01*
X718565Y621056D01*
X718639Y620990D01*
X718711Y620921D01*
X718780Y620849D01*
X718846Y620775D01*
X718910Y620697D01*
X718970Y620618D01*
X719027Y620536D01*
X719081Y620452D01*
X719131Y620366D01*
X719178Y620278D01*
X719222Y620188D01*
X719262Y620097D01*
X719298Y620004D01*
X719331Y619910D01*
X719360Y619814D01*
X719385Y619718D01*
X719406Y619621D01*
X719424Y619522D01*
X719437Y619424D01*
X719447Y619324D01*
X719453Y619225D01*
X719455Y619125D01*
X719455Y616585D01*
D10*
X438150Y599948D02*
X431800Y599948D01*
X425450Y599948D01*
D11*
X431800Y599948D02*
X431800Y612140D01*
D10*
X431800Y593598D02*
X438150Y593598D01*
X431800Y593598D02*
X425450Y593598D01*
D11*
X431800Y593598D02*
X431800Y581660D01*
X454660Y633730D02*
X408940Y633730D01*
X406400Y631190D02*
X406400Y562610D01*
X408940Y560070D02*
X454660Y560070D01*
X457200Y562610D02*
X457200Y631190D01*
X457200Y562610D02*
X457198Y562510D01*
X457192Y562411D01*
X457182Y562311D01*
X457169Y562213D01*
X457151Y562114D01*
X457130Y562017D01*
X457105Y561921D01*
X457076Y561825D01*
X457043Y561731D01*
X457007Y561638D01*
X456967Y561547D01*
X456923Y561457D01*
X456876Y561369D01*
X456826Y561283D01*
X456772Y561199D01*
X456715Y561117D01*
X456655Y561038D01*
X456591Y560960D01*
X456525Y560886D01*
X456456Y560814D01*
X456384Y560745D01*
X456310Y560679D01*
X456232Y560615D01*
X456153Y560555D01*
X456071Y560498D01*
X455987Y560444D01*
X455901Y560394D01*
X455813Y560347D01*
X455723Y560303D01*
X455632Y560263D01*
X455539Y560227D01*
X455445Y560194D01*
X455349Y560165D01*
X455253Y560140D01*
X455156Y560119D01*
X455057Y560101D01*
X454959Y560088D01*
X454859Y560078D01*
X454760Y560072D01*
X454660Y560070D01*
X408940Y560070D02*
X408840Y560072D01*
X408741Y560078D01*
X408641Y560088D01*
X408543Y560101D01*
X408444Y560119D01*
X408347Y560140D01*
X408251Y560165D01*
X408155Y560194D01*
X408061Y560227D01*
X407968Y560263D01*
X407877Y560303D01*
X407787Y560347D01*
X407699Y560394D01*
X407613Y560444D01*
X407529Y560498D01*
X407447Y560555D01*
X407368Y560615D01*
X407290Y560679D01*
X407216Y560745D01*
X407144Y560814D01*
X407075Y560886D01*
X407009Y560960D01*
X406945Y561038D01*
X406885Y561117D01*
X406828Y561199D01*
X406774Y561283D01*
X406724Y561369D01*
X406677Y561457D01*
X406633Y561547D01*
X406593Y561638D01*
X406557Y561731D01*
X406524Y561825D01*
X406495Y561921D01*
X406470Y562017D01*
X406449Y562114D01*
X406431Y562213D01*
X406418Y562311D01*
X406408Y562411D01*
X406402Y562510D01*
X406400Y562610D01*
X406400Y631190D02*
X406402Y631290D01*
X406408Y631389D01*
X406418Y631489D01*
X406431Y631587D01*
X406449Y631686D01*
X406470Y631783D01*
X406495Y631879D01*
X406524Y631975D01*
X406557Y632069D01*
X406593Y632162D01*
X406633Y632253D01*
X406677Y632343D01*
X406724Y632431D01*
X406774Y632517D01*
X406828Y632601D01*
X406885Y632683D01*
X406945Y632762D01*
X407009Y632840D01*
X407075Y632914D01*
X407144Y632986D01*
X407216Y633055D01*
X407290Y633121D01*
X407368Y633185D01*
X407447Y633245D01*
X407529Y633302D01*
X407613Y633356D01*
X407699Y633406D01*
X407787Y633453D01*
X407877Y633497D01*
X407968Y633537D01*
X408061Y633573D01*
X408155Y633606D01*
X408251Y633635D01*
X408347Y633660D01*
X408444Y633681D01*
X408543Y633699D01*
X408641Y633712D01*
X408741Y633722D01*
X408840Y633728D01*
X408940Y633730D01*
X454660Y633730D02*
X454760Y633728D01*
X454859Y633722D01*
X454959Y633712D01*
X455057Y633699D01*
X455156Y633681D01*
X455253Y633660D01*
X455349Y633635D01*
X455445Y633606D01*
X455539Y633573D01*
X455632Y633537D01*
X455723Y633497D01*
X455813Y633453D01*
X455901Y633406D01*
X455987Y633356D01*
X456071Y633302D01*
X456153Y633245D01*
X456232Y633185D01*
X456310Y633121D01*
X456384Y633055D01*
X456456Y632986D01*
X456525Y632914D01*
X456591Y632840D01*
X456655Y632762D01*
X456715Y632683D01*
X456772Y632601D01*
X456826Y632517D01*
X456876Y632431D01*
X456923Y632343D01*
X456967Y632253D01*
X457007Y632162D01*
X457043Y632069D01*
X457076Y631975D01*
X457105Y631879D01*
X457130Y631783D01*
X457151Y631686D01*
X457169Y631587D01*
X457182Y631489D01*
X457192Y631389D01*
X457198Y631290D01*
X457200Y631190D01*
D12*
X471805Y610833D02*
X471805Y608293D01*
X471803Y608193D01*
X471797Y608094D01*
X471787Y607994D01*
X471774Y607896D01*
X471756Y607797D01*
X471735Y607700D01*
X471710Y607604D01*
X471681Y607508D01*
X471648Y607414D01*
X471612Y607321D01*
X471572Y607230D01*
X471528Y607140D01*
X471481Y607052D01*
X471431Y606966D01*
X471377Y606882D01*
X471320Y606800D01*
X471260Y606721D01*
X471196Y606643D01*
X471130Y606569D01*
X471061Y606497D01*
X470989Y606428D01*
X470915Y606362D01*
X470837Y606298D01*
X470758Y606238D01*
X470676Y606181D01*
X470592Y606127D01*
X470506Y606077D01*
X470418Y606030D01*
X470328Y605986D01*
X470237Y605946D01*
X470144Y605910D01*
X470050Y605877D01*
X469954Y605848D01*
X469858Y605823D01*
X469761Y605802D01*
X469662Y605784D01*
X469564Y605771D01*
X469464Y605761D01*
X469365Y605755D01*
X469265Y605753D01*
X462915Y605753D01*
X462815Y605755D01*
X462716Y605761D01*
X462616Y605771D01*
X462518Y605784D01*
X462419Y605802D01*
X462322Y605823D01*
X462226Y605848D01*
X462130Y605877D01*
X462036Y605910D01*
X461943Y605946D01*
X461852Y605986D01*
X461762Y606030D01*
X461674Y606077D01*
X461588Y606127D01*
X461504Y606181D01*
X461422Y606238D01*
X461343Y606298D01*
X461265Y606362D01*
X461191Y606428D01*
X461119Y606497D01*
X461050Y606569D01*
X460984Y606643D01*
X460920Y606721D01*
X460860Y606800D01*
X460803Y606882D01*
X460749Y606966D01*
X460699Y607052D01*
X460652Y607140D01*
X460608Y607230D01*
X460568Y607321D01*
X460532Y607414D01*
X460499Y607508D01*
X460470Y607604D01*
X460445Y607700D01*
X460424Y607797D01*
X460406Y607896D01*
X460393Y607994D01*
X460383Y608094D01*
X460377Y608193D01*
X460375Y608293D01*
X460375Y610833D01*
X460375Y617855D02*
X469265Y615315D01*
X469265Y621665D01*
X466725Y619760D02*
X471805Y619760D01*
D10*
X361950Y599948D02*
X355600Y599948D01*
X349250Y599948D01*
D11*
X355600Y599948D02*
X355600Y612140D01*
D10*
X355600Y593598D02*
X361950Y593598D01*
X355600Y593598D02*
X349250Y593598D01*
D11*
X355600Y593598D02*
X355600Y581660D01*
X378460Y633730D02*
X332740Y633730D01*
X330200Y631190D02*
X330200Y562610D01*
X332740Y560070D02*
X378460Y560070D01*
X381000Y562610D02*
X381000Y631190D01*
X381000Y562610D02*
X380998Y562510D01*
X380992Y562411D01*
X380982Y562311D01*
X380969Y562213D01*
X380951Y562114D01*
X380930Y562017D01*
X380905Y561921D01*
X380876Y561825D01*
X380843Y561731D01*
X380807Y561638D01*
X380767Y561547D01*
X380723Y561457D01*
X380676Y561369D01*
X380626Y561283D01*
X380572Y561199D01*
X380515Y561117D01*
X380455Y561038D01*
X380391Y560960D01*
X380325Y560886D01*
X380256Y560814D01*
X380184Y560745D01*
X380110Y560679D01*
X380032Y560615D01*
X379953Y560555D01*
X379871Y560498D01*
X379787Y560444D01*
X379701Y560394D01*
X379613Y560347D01*
X379523Y560303D01*
X379432Y560263D01*
X379339Y560227D01*
X379245Y560194D01*
X379149Y560165D01*
X379053Y560140D01*
X378956Y560119D01*
X378857Y560101D01*
X378759Y560088D01*
X378659Y560078D01*
X378560Y560072D01*
X378460Y560070D01*
X332740Y560070D02*
X332640Y560072D01*
X332541Y560078D01*
X332441Y560088D01*
X332343Y560101D01*
X332244Y560119D01*
X332147Y560140D01*
X332051Y560165D01*
X331955Y560194D01*
X331861Y560227D01*
X331768Y560263D01*
X331677Y560303D01*
X331587Y560347D01*
X331499Y560394D01*
X331413Y560444D01*
X331329Y560498D01*
X331247Y560555D01*
X331168Y560615D01*
X331090Y560679D01*
X331016Y560745D01*
X330944Y560814D01*
X330875Y560886D01*
X330809Y560960D01*
X330745Y561038D01*
X330685Y561117D01*
X330628Y561199D01*
X330574Y561283D01*
X330524Y561369D01*
X330477Y561457D01*
X330433Y561547D01*
X330393Y561638D01*
X330357Y561731D01*
X330324Y561825D01*
X330295Y561921D01*
X330270Y562017D01*
X330249Y562114D01*
X330231Y562213D01*
X330218Y562311D01*
X330208Y562411D01*
X330202Y562510D01*
X330200Y562610D01*
X330200Y631190D02*
X330202Y631290D01*
X330208Y631389D01*
X330218Y631489D01*
X330231Y631587D01*
X330249Y631686D01*
X330270Y631783D01*
X330295Y631879D01*
X330324Y631975D01*
X330357Y632069D01*
X330393Y632162D01*
X330433Y632253D01*
X330477Y632343D01*
X330524Y632431D01*
X330574Y632517D01*
X330628Y632601D01*
X330685Y632683D01*
X330745Y632762D01*
X330809Y632840D01*
X330875Y632914D01*
X330944Y632986D01*
X331016Y633055D01*
X331090Y633121D01*
X331168Y633185D01*
X331247Y633245D01*
X331329Y633302D01*
X331413Y633356D01*
X331499Y633406D01*
X331587Y633453D01*
X331677Y633497D01*
X331768Y633537D01*
X331861Y633573D01*
X331955Y633606D01*
X332051Y633635D01*
X332147Y633660D01*
X332244Y633681D01*
X332343Y633699D01*
X332441Y633712D01*
X332541Y633722D01*
X332640Y633728D01*
X332740Y633730D01*
X378460Y633730D02*
X378560Y633728D01*
X378659Y633722D01*
X378759Y633712D01*
X378857Y633699D01*
X378956Y633681D01*
X379053Y633660D01*
X379149Y633635D01*
X379245Y633606D01*
X379339Y633573D01*
X379432Y633537D01*
X379523Y633497D01*
X379613Y633453D01*
X379701Y633406D01*
X379787Y633356D01*
X379871Y633302D01*
X379953Y633245D01*
X380032Y633185D01*
X380110Y633121D01*
X380184Y633055D01*
X380256Y632986D01*
X380325Y632914D01*
X380391Y632840D01*
X380455Y632762D01*
X380515Y632683D01*
X380572Y632601D01*
X380626Y632517D01*
X380676Y632431D01*
X380723Y632343D01*
X380767Y632253D01*
X380807Y632162D01*
X380843Y632069D01*
X380876Y631975D01*
X380905Y631879D01*
X380930Y631783D01*
X380951Y631686D01*
X380969Y631587D01*
X380982Y631489D01*
X380992Y631389D01*
X380998Y631290D01*
X381000Y631190D01*
D12*
X395605Y610833D02*
X395605Y608293D01*
X395603Y608193D01*
X395597Y608094D01*
X395587Y607994D01*
X395574Y607896D01*
X395556Y607797D01*
X395535Y607700D01*
X395510Y607604D01*
X395481Y607508D01*
X395448Y607414D01*
X395412Y607321D01*
X395372Y607230D01*
X395328Y607140D01*
X395281Y607052D01*
X395231Y606966D01*
X395177Y606882D01*
X395120Y606800D01*
X395060Y606721D01*
X394996Y606643D01*
X394930Y606569D01*
X394861Y606497D01*
X394789Y606428D01*
X394715Y606362D01*
X394637Y606298D01*
X394558Y606238D01*
X394476Y606181D01*
X394392Y606127D01*
X394306Y606077D01*
X394218Y606030D01*
X394128Y605986D01*
X394037Y605946D01*
X393944Y605910D01*
X393850Y605877D01*
X393754Y605848D01*
X393658Y605823D01*
X393561Y605802D01*
X393462Y605784D01*
X393364Y605771D01*
X393264Y605761D01*
X393165Y605755D01*
X393065Y605753D01*
X386715Y605753D01*
X386615Y605755D01*
X386516Y605761D01*
X386416Y605771D01*
X386318Y605784D01*
X386219Y605802D01*
X386122Y605823D01*
X386026Y605848D01*
X385930Y605877D01*
X385836Y605910D01*
X385743Y605946D01*
X385652Y605986D01*
X385562Y606030D01*
X385474Y606077D01*
X385388Y606127D01*
X385304Y606181D01*
X385222Y606238D01*
X385143Y606298D01*
X385065Y606362D01*
X384991Y606428D01*
X384919Y606497D01*
X384850Y606569D01*
X384784Y606643D01*
X384720Y606721D01*
X384660Y606800D01*
X384603Y606882D01*
X384549Y606966D01*
X384499Y607052D01*
X384452Y607140D01*
X384408Y607230D01*
X384368Y607321D01*
X384332Y607414D01*
X384299Y607508D01*
X384270Y607604D01*
X384245Y607700D01*
X384224Y607797D01*
X384206Y607896D01*
X384193Y607994D01*
X384183Y608094D01*
X384177Y608193D01*
X384175Y608293D01*
X384175Y610833D01*
X395605Y615315D02*
X395605Y619125D01*
X395603Y619225D01*
X395597Y619324D01*
X395587Y619424D01*
X395574Y619522D01*
X395556Y619621D01*
X395535Y619718D01*
X395510Y619814D01*
X395481Y619910D01*
X395448Y620004D01*
X395412Y620097D01*
X395372Y620188D01*
X395328Y620278D01*
X395281Y620366D01*
X395231Y620452D01*
X395177Y620536D01*
X395120Y620618D01*
X395060Y620697D01*
X394996Y620775D01*
X394930Y620849D01*
X394861Y620921D01*
X394789Y620990D01*
X394715Y621056D01*
X394637Y621120D01*
X394558Y621180D01*
X394476Y621237D01*
X394392Y621291D01*
X394306Y621341D01*
X394218Y621388D01*
X394128Y621432D01*
X394037Y621472D01*
X393944Y621508D01*
X393850Y621541D01*
X393754Y621570D01*
X393658Y621595D01*
X393561Y621616D01*
X393462Y621634D01*
X393364Y621647D01*
X393264Y621657D01*
X393165Y621663D01*
X393065Y621665D01*
X391795Y621665D01*
X391695Y621663D01*
X391596Y621657D01*
X391496Y621647D01*
X391398Y621634D01*
X391299Y621616D01*
X391202Y621595D01*
X391106Y621570D01*
X391010Y621541D01*
X390916Y621508D01*
X390823Y621472D01*
X390732Y621432D01*
X390642Y621388D01*
X390554Y621341D01*
X390468Y621291D01*
X390384Y621237D01*
X390302Y621180D01*
X390223Y621120D01*
X390145Y621056D01*
X390071Y620990D01*
X389999Y620921D01*
X389930Y620849D01*
X389864Y620775D01*
X389800Y620697D01*
X389740Y620618D01*
X389683Y620536D01*
X389629Y620452D01*
X389579Y620366D01*
X389532Y620278D01*
X389488Y620188D01*
X389448Y620097D01*
X389412Y620004D01*
X389379Y619910D01*
X389350Y619814D01*
X389325Y619718D01*
X389304Y619621D01*
X389286Y619522D01*
X389273Y619424D01*
X389263Y619324D01*
X389257Y619225D01*
X389255Y619125D01*
X389255Y615315D01*
X384175Y615315D01*
X384175Y621665D01*
D10*
X285750Y599948D02*
X279400Y599948D01*
X273050Y599948D01*
D11*
X279400Y599948D02*
X279400Y612140D01*
D10*
X279400Y593598D02*
X285750Y593598D01*
X279400Y593598D02*
X273050Y593598D01*
D11*
X279400Y593598D02*
X279400Y581660D01*
X302260Y633730D02*
X256540Y633730D01*
X254000Y631190D02*
X254000Y562610D01*
X256540Y560070D02*
X302260Y560070D01*
X304800Y562610D02*
X304800Y631190D01*
X304800Y562610D02*
X304798Y562510D01*
X304792Y562411D01*
X304782Y562311D01*
X304769Y562213D01*
X304751Y562114D01*
X304730Y562017D01*
X304705Y561921D01*
X304676Y561825D01*
X304643Y561731D01*
X304607Y561638D01*
X304567Y561547D01*
X304523Y561457D01*
X304476Y561369D01*
X304426Y561283D01*
X304372Y561199D01*
X304315Y561117D01*
X304255Y561038D01*
X304191Y560960D01*
X304125Y560886D01*
X304056Y560814D01*
X303984Y560745D01*
X303910Y560679D01*
X303832Y560615D01*
X303753Y560555D01*
X303671Y560498D01*
X303587Y560444D01*
X303501Y560394D01*
X303413Y560347D01*
X303323Y560303D01*
X303232Y560263D01*
X303139Y560227D01*
X303045Y560194D01*
X302949Y560165D01*
X302853Y560140D01*
X302756Y560119D01*
X302657Y560101D01*
X302559Y560088D01*
X302459Y560078D01*
X302360Y560072D01*
X302260Y560070D01*
X256540Y560070D02*
X256440Y560072D01*
X256341Y560078D01*
X256241Y560088D01*
X256143Y560101D01*
X256044Y560119D01*
X255947Y560140D01*
X255851Y560165D01*
X255755Y560194D01*
X255661Y560227D01*
X255568Y560263D01*
X255477Y560303D01*
X255387Y560347D01*
X255299Y560394D01*
X255213Y560444D01*
X255129Y560498D01*
X255047Y560555D01*
X254968Y560615D01*
X254890Y560679D01*
X254816Y560745D01*
X254744Y560814D01*
X254675Y560886D01*
X254609Y560960D01*
X254545Y561038D01*
X254485Y561117D01*
X254428Y561199D01*
X254374Y561283D01*
X254324Y561369D01*
X254277Y561457D01*
X254233Y561547D01*
X254193Y561638D01*
X254157Y561731D01*
X254124Y561825D01*
X254095Y561921D01*
X254070Y562017D01*
X254049Y562114D01*
X254031Y562213D01*
X254018Y562311D01*
X254008Y562411D01*
X254002Y562510D01*
X254000Y562610D01*
X254000Y631190D02*
X254002Y631290D01*
X254008Y631389D01*
X254018Y631489D01*
X254031Y631587D01*
X254049Y631686D01*
X254070Y631783D01*
X254095Y631879D01*
X254124Y631975D01*
X254157Y632069D01*
X254193Y632162D01*
X254233Y632253D01*
X254277Y632343D01*
X254324Y632431D01*
X254374Y632517D01*
X254428Y632601D01*
X254485Y632683D01*
X254545Y632762D01*
X254609Y632840D01*
X254675Y632914D01*
X254744Y632986D01*
X254816Y633055D01*
X254890Y633121D01*
X254968Y633185D01*
X255047Y633245D01*
X255129Y633302D01*
X255213Y633356D01*
X255299Y633406D01*
X255387Y633453D01*
X255477Y633497D01*
X255568Y633537D01*
X255661Y633573D01*
X255755Y633606D01*
X255851Y633635D01*
X255947Y633660D01*
X256044Y633681D01*
X256143Y633699D01*
X256241Y633712D01*
X256341Y633722D01*
X256440Y633728D01*
X256540Y633730D01*
X302260Y633730D02*
X302360Y633728D01*
X302459Y633722D01*
X302559Y633712D01*
X302657Y633699D01*
X302756Y633681D01*
X302853Y633660D01*
X302949Y633635D01*
X303045Y633606D01*
X303139Y633573D01*
X303232Y633537D01*
X303323Y633497D01*
X303413Y633453D01*
X303501Y633406D01*
X303587Y633356D01*
X303671Y633302D01*
X303753Y633245D01*
X303832Y633185D01*
X303910Y633121D01*
X303984Y633055D01*
X304056Y632986D01*
X304125Y632914D01*
X304191Y632840D01*
X304255Y632762D01*
X304315Y632683D01*
X304372Y632601D01*
X304426Y632517D01*
X304476Y632431D01*
X304523Y632343D01*
X304567Y632253D01*
X304607Y632162D01*
X304643Y632069D01*
X304676Y631975D01*
X304705Y631879D01*
X304730Y631783D01*
X304751Y631686D01*
X304769Y631587D01*
X304782Y631489D01*
X304792Y631389D01*
X304798Y631290D01*
X304800Y631190D01*
D12*
X319405Y610833D02*
X319405Y608293D01*
X319403Y608193D01*
X319397Y608094D01*
X319387Y607994D01*
X319374Y607896D01*
X319356Y607797D01*
X319335Y607700D01*
X319310Y607604D01*
X319281Y607508D01*
X319248Y607414D01*
X319212Y607321D01*
X319172Y607230D01*
X319128Y607140D01*
X319081Y607052D01*
X319031Y606966D01*
X318977Y606882D01*
X318920Y606800D01*
X318860Y606721D01*
X318796Y606643D01*
X318730Y606569D01*
X318661Y606497D01*
X318589Y606428D01*
X318515Y606362D01*
X318437Y606298D01*
X318358Y606238D01*
X318276Y606181D01*
X318192Y606127D01*
X318106Y606077D01*
X318018Y606030D01*
X317928Y605986D01*
X317837Y605946D01*
X317744Y605910D01*
X317650Y605877D01*
X317554Y605848D01*
X317458Y605823D01*
X317361Y605802D01*
X317262Y605784D01*
X317164Y605771D01*
X317064Y605761D01*
X316965Y605755D01*
X316865Y605753D01*
X310515Y605753D01*
X310415Y605755D01*
X310316Y605761D01*
X310216Y605771D01*
X310118Y605784D01*
X310019Y605802D01*
X309922Y605823D01*
X309826Y605848D01*
X309730Y605877D01*
X309636Y605910D01*
X309543Y605946D01*
X309452Y605986D01*
X309362Y606030D01*
X309274Y606077D01*
X309188Y606127D01*
X309104Y606181D01*
X309022Y606238D01*
X308943Y606298D01*
X308865Y606362D01*
X308791Y606428D01*
X308719Y606497D01*
X308650Y606569D01*
X308584Y606643D01*
X308520Y606721D01*
X308460Y606800D01*
X308403Y606882D01*
X308349Y606966D01*
X308299Y607052D01*
X308252Y607140D01*
X308208Y607230D01*
X308168Y607321D01*
X308132Y607414D01*
X308099Y607508D01*
X308070Y607604D01*
X308045Y607700D01*
X308024Y607797D01*
X308006Y607896D01*
X307993Y607994D01*
X307983Y608094D01*
X307977Y608193D01*
X307975Y608293D01*
X307975Y610833D01*
X313055Y615315D02*
X313055Y619125D01*
X313057Y619225D01*
X313063Y619324D01*
X313073Y619424D01*
X313086Y619522D01*
X313104Y619621D01*
X313125Y619718D01*
X313150Y619814D01*
X313179Y619910D01*
X313212Y620004D01*
X313248Y620097D01*
X313288Y620188D01*
X313332Y620278D01*
X313379Y620366D01*
X313429Y620452D01*
X313483Y620536D01*
X313540Y620618D01*
X313600Y620697D01*
X313664Y620775D01*
X313730Y620849D01*
X313799Y620921D01*
X313871Y620990D01*
X313945Y621056D01*
X314023Y621120D01*
X314102Y621180D01*
X314184Y621237D01*
X314268Y621291D01*
X314354Y621341D01*
X314442Y621388D01*
X314532Y621432D01*
X314623Y621472D01*
X314716Y621508D01*
X314810Y621541D01*
X314906Y621570D01*
X315002Y621595D01*
X315099Y621616D01*
X315198Y621634D01*
X315296Y621647D01*
X315396Y621657D01*
X315495Y621663D01*
X315595Y621665D01*
X316230Y621665D01*
X316341Y621663D01*
X316451Y621657D01*
X316562Y621648D01*
X316672Y621634D01*
X316781Y621617D01*
X316890Y621596D01*
X316998Y621571D01*
X317105Y621542D01*
X317211Y621510D01*
X317316Y621474D01*
X317419Y621434D01*
X317521Y621391D01*
X317622Y621344D01*
X317721Y621293D01*
X317818Y621240D01*
X317912Y621183D01*
X318005Y621122D01*
X318096Y621059D01*
X318185Y620992D01*
X318271Y620922D01*
X318354Y620849D01*
X318436Y620774D01*
X318514Y620696D01*
X318589Y620614D01*
X318662Y620531D01*
X318732Y620445D01*
X318799Y620356D01*
X318862Y620265D01*
X318923Y620172D01*
X318980Y620077D01*
X319033Y619981D01*
X319084Y619882D01*
X319131Y619781D01*
X319174Y619679D01*
X319214Y619576D01*
X319250Y619471D01*
X319282Y619365D01*
X319311Y619258D01*
X319336Y619150D01*
X319357Y619041D01*
X319374Y618932D01*
X319388Y618822D01*
X319397Y618711D01*
X319403Y618601D01*
X319405Y618490D01*
X319403Y618379D01*
X319397Y618269D01*
X319388Y618158D01*
X319374Y618048D01*
X319357Y617939D01*
X319336Y617830D01*
X319311Y617722D01*
X319282Y617615D01*
X319250Y617509D01*
X319214Y617404D01*
X319174Y617301D01*
X319131Y617199D01*
X319084Y617098D01*
X319033Y616999D01*
X318980Y616903D01*
X318923Y616808D01*
X318862Y616715D01*
X318799Y616624D01*
X318732Y616535D01*
X318662Y616449D01*
X318589Y616366D01*
X318514Y616284D01*
X318436Y616206D01*
X318354Y616131D01*
X318271Y616058D01*
X318185Y615988D01*
X318096Y615921D01*
X318005Y615858D01*
X317912Y615797D01*
X317818Y615740D01*
X317721Y615687D01*
X317622Y615636D01*
X317521Y615589D01*
X317419Y615546D01*
X317316Y615506D01*
X317211Y615470D01*
X317105Y615438D01*
X316998Y615409D01*
X316890Y615384D01*
X316781Y615363D01*
X316672Y615346D01*
X316562Y615332D01*
X316451Y615323D01*
X316341Y615317D01*
X316230Y615315D01*
X313055Y615315D01*
X312915Y615317D01*
X312775Y615323D01*
X312635Y615332D01*
X312496Y615346D01*
X312357Y615363D01*
X312219Y615384D01*
X312081Y615409D01*
X311944Y615438D01*
X311808Y615470D01*
X311673Y615507D01*
X311539Y615547D01*
X311406Y615590D01*
X311274Y615638D01*
X311143Y615688D01*
X311014Y615743D01*
X310887Y615801D01*
X310761Y615862D01*
X310637Y615927D01*
X310515Y615996D01*
X310395Y616067D01*
X310277Y616142D01*
X310160Y616220D01*
X310046Y616302D01*
X309935Y616386D01*
X309826Y616474D01*
X309719Y616564D01*
X309614Y616658D01*
X309513Y616754D01*
X309414Y616853D01*
X309318Y616954D01*
X309224Y617059D01*
X309134Y617166D01*
X309046Y617275D01*
X308962Y617386D01*
X308880Y617500D01*
X308802Y617617D01*
X308727Y617735D01*
X308656Y617855D01*
X308587Y617977D01*
X308522Y618101D01*
X308461Y618227D01*
X308403Y618354D01*
X308348Y618483D01*
X308298Y618614D01*
X308250Y618746D01*
X308207Y618879D01*
X308167Y619013D01*
X308130Y619148D01*
X308098Y619284D01*
X308069Y619421D01*
X308044Y619559D01*
X308023Y619697D01*
X308006Y619836D01*
X307992Y619975D01*
X307983Y620115D01*
X307977Y620255D01*
X307975Y620395D01*
D13*
X952500Y1010920D02*
X1003300Y1010920D01*
X1003300Y1003300D01*
X1003300Y995680D01*
X952500Y995680D01*
X952500Y1003300D01*
X952500Y1010920D01*
X1003300Y1003300D02*
X1005840Y1003300D01*
X952500Y1003300D02*
X949960Y1003300D01*
D12*
X973848Y1014095D02*
X973848Y1018921D01*
X975189Y1018921D01*
X975260Y1018919D01*
X975332Y1018913D01*
X975402Y1018904D01*
X975472Y1018891D01*
X975542Y1018874D01*
X975610Y1018853D01*
X975677Y1018829D01*
X975743Y1018801D01*
X975807Y1018770D01*
X975870Y1018735D01*
X975930Y1018697D01*
X975989Y1018656D01*
X976045Y1018612D01*
X976099Y1018565D01*
X976150Y1018516D01*
X976198Y1018463D01*
X976244Y1018408D01*
X976286Y1018351D01*
X976326Y1018291D01*
X976362Y1018230D01*
X976395Y1018166D01*
X976424Y1018101D01*
X976450Y1018035D01*
X976473Y1017967D01*
X976492Y1017898D01*
X976507Y1017828D01*
X976518Y1017758D01*
X976526Y1017687D01*
X976530Y1017616D01*
X976530Y1017544D01*
X976526Y1017473D01*
X976518Y1017402D01*
X976507Y1017332D01*
X976492Y1017262D01*
X976473Y1017193D01*
X976450Y1017125D01*
X976424Y1017059D01*
X976395Y1016994D01*
X976362Y1016930D01*
X976326Y1016869D01*
X976286Y1016809D01*
X976244Y1016752D01*
X976198Y1016697D01*
X976150Y1016644D01*
X976099Y1016595D01*
X976045Y1016548D01*
X975989Y1016504D01*
X975930Y1016463D01*
X975870Y1016425D01*
X975807Y1016390D01*
X975743Y1016359D01*
X975677Y1016331D01*
X975610Y1016307D01*
X975542Y1016286D01*
X975472Y1016269D01*
X975402Y1016256D01*
X975332Y1016247D01*
X975260Y1016241D01*
X975189Y1016239D01*
X975189Y1016240D02*
X973848Y1016240D01*
X975457Y1016240D02*
X976529Y1014095D01*
X979271Y1017849D02*
X980611Y1018921D01*
X980611Y1014095D01*
X979271Y1014095D02*
X981952Y1014095D01*
D13*
X1003300Y1049020D02*
X952500Y1049020D01*
X1003300Y1049020D02*
X1003300Y1041400D01*
X1003300Y1033780D01*
X952500Y1033780D01*
X952500Y1041400D01*
X952500Y1049020D01*
X1003300Y1041400D02*
X1005840Y1041400D01*
X952500Y1041400D02*
X949960Y1041400D01*
D12*
X973848Y1052195D02*
X973848Y1057021D01*
X975189Y1057021D01*
X975260Y1057019D01*
X975332Y1057013D01*
X975402Y1057004D01*
X975472Y1056991D01*
X975542Y1056974D01*
X975610Y1056953D01*
X975677Y1056929D01*
X975743Y1056901D01*
X975807Y1056870D01*
X975870Y1056835D01*
X975930Y1056797D01*
X975989Y1056756D01*
X976045Y1056712D01*
X976099Y1056665D01*
X976150Y1056616D01*
X976198Y1056563D01*
X976244Y1056508D01*
X976286Y1056451D01*
X976326Y1056391D01*
X976362Y1056330D01*
X976395Y1056266D01*
X976424Y1056201D01*
X976450Y1056135D01*
X976473Y1056067D01*
X976492Y1055998D01*
X976507Y1055928D01*
X976518Y1055858D01*
X976526Y1055787D01*
X976530Y1055716D01*
X976530Y1055644D01*
X976526Y1055573D01*
X976518Y1055502D01*
X976507Y1055432D01*
X976492Y1055362D01*
X976473Y1055293D01*
X976450Y1055225D01*
X976424Y1055159D01*
X976395Y1055094D01*
X976362Y1055030D01*
X976326Y1054969D01*
X976286Y1054909D01*
X976244Y1054852D01*
X976198Y1054797D01*
X976150Y1054744D01*
X976099Y1054695D01*
X976045Y1054648D01*
X975989Y1054604D01*
X975930Y1054563D01*
X975870Y1054525D01*
X975807Y1054490D01*
X975743Y1054459D01*
X975677Y1054431D01*
X975610Y1054407D01*
X975542Y1054386D01*
X975472Y1054369D01*
X975402Y1054356D01*
X975332Y1054347D01*
X975260Y1054341D01*
X975189Y1054339D01*
X975189Y1054340D02*
X973848Y1054340D01*
X975457Y1054340D02*
X976529Y1052195D01*
X980745Y1057021D02*
X980813Y1057019D01*
X980880Y1057013D01*
X980947Y1057004D01*
X981014Y1056991D01*
X981079Y1056974D01*
X981144Y1056953D01*
X981207Y1056929D01*
X981269Y1056901D01*
X981329Y1056870D01*
X981387Y1056836D01*
X981443Y1056798D01*
X981498Y1056758D01*
X981549Y1056714D01*
X981598Y1056667D01*
X981645Y1056618D01*
X981689Y1056567D01*
X981729Y1056512D01*
X981767Y1056456D01*
X981801Y1056398D01*
X981832Y1056338D01*
X981860Y1056276D01*
X981884Y1056213D01*
X981905Y1056148D01*
X981922Y1056083D01*
X981935Y1056016D01*
X981944Y1055949D01*
X981950Y1055882D01*
X981952Y1055814D01*
X980745Y1057021D02*
X980667Y1057019D01*
X980589Y1057013D01*
X980512Y1057003D01*
X980435Y1056990D01*
X980359Y1056972D01*
X980284Y1056951D01*
X980210Y1056926D01*
X980138Y1056897D01*
X980067Y1056865D01*
X979998Y1056829D01*
X979930Y1056790D01*
X979865Y1056747D01*
X979802Y1056701D01*
X979741Y1056652D01*
X979683Y1056600D01*
X979628Y1056545D01*
X979575Y1056488D01*
X979526Y1056428D01*
X979479Y1056365D01*
X979436Y1056301D01*
X979396Y1056234D01*
X979359Y1056165D01*
X979326Y1056094D01*
X979296Y1056022D01*
X979270Y1055949D01*
X981550Y1054876D02*
X981599Y1054925D01*
X981646Y1054977D01*
X981689Y1055032D01*
X981730Y1055089D01*
X981768Y1055148D01*
X981802Y1055209D01*
X981833Y1055272D01*
X981861Y1055336D01*
X981885Y1055402D01*
X981905Y1055468D01*
X981922Y1055536D01*
X981935Y1055605D01*
X981944Y1055674D01*
X981950Y1055744D01*
X981952Y1055814D01*
X981550Y1054876D02*
X979271Y1052195D01*
X981952Y1052195D01*
D13*
X1003300Y858520D02*
X952500Y858520D01*
X1003300Y858520D02*
X1003300Y850900D01*
X1003300Y843280D01*
X952500Y843280D01*
X952500Y850900D01*
X952500Y858520D01*
X1003300Y850900D02*
X1005840Y850900D01*
X952500Y850900D02*
X949960Y850900D01*
D12*
X973848Y861695D02*
X973848Y866521D01*
X975189Y866521D01*
X975260Y866519D01*
X975332Y866513D01*
X975402Y866504D01*
X975472Y866491D01*
X975542Y866474D01*
X975610Y866453D01*
X975677Y866429D01*
X975743Y866401D01*
X975807Y866370D01*
X975870Y866335D01*
X975930Y866297D01*
X975989Y866256D01*
X976045Y866212D01*
X976099Y866165D01*
X976150Y866116D01*
X976198Y866063D01*
X976244Y866008D01*
X976286Y865951D01*
X976326Y865891D01*
X976362Y865830D01*
X976395Y865766D01*
X976424Y865701D01*
X976450Y865635D01*
X976473Y865567D01*
X976492Y865498D01*
X976507Y865428D01*
X976518Y865358D01*
X976526Y865287D01*
X976530Y865216D01*
X976530Y865144D01*
X976526Y865073D01*
X976518Y865002D01*
X976507Y864932D01*
X976492Y864862D01*
X976473Y864793D01*
X976450Y864725D01*
X976424Y864659D01*
X976395Y864594D01*
X976362Y864530D01*
X976326Y864469D01*
X976286Y864409D01*
X976244Y864352D01*
X976198Y864297D01*
X976150Y864244D01*
X976099Y864195D01*
X976045Y864148D01*
X975989Y864104D01*
X975930Y864063D01*
X975870Y864025D01*
X975807Y863990D01*
X975743Y863959D01*
X975677Y863931D01*
X975610Y863907D01*
X975542Y863886D01*
X975472Y863869D01*
X975402Y863856D01*
X975332Y863847D01*
X975260Y863841D01*
X975189Y863839D01*
X975189Y863840D02*
X973848Y863840D01*
X975457Y863840D02*
X976529Y861695D01*
X979271Y861695D02*
X980611Y861695D01*
X980682Y861697D01*
X980754Y861703D01*
X980824Y861712D01*
X980894Y861725D01*
X980964Y861742D01*
X981032Y861763D01*
X981099Y861787D01*
X981165Y861815D01*
X981229Y861846D01*
X981292Y861881D01*
X981352Y861919D01*
X981411Y861960D01*
X981467Y862004D01*
X981521Y862051D01*
X981572Y862100D01*
X981620Y862153D01*
X981666Y862208D01*
X981708Y862265D01*
X981748Y862325D01*
X981784Y862386D01*
X981817Y862450D01*
X981846Y862515D01*
X981872Y862581D01*
X981895Y862649D01*
X981914Y862718D01*
X981929Y862788D01*
X981940Y862858D01*
X981948Y862929D01*
X981952Y863000D01*
X981952Y863072D01*
X981948Y863143D01*
X981940Y863214D01*
X981929Y863284D01*
X981914Y863354D01*
X981895Y863423D01*
X981872Y863491D01*
X981846Y863557D01*
X981817Y863622D01*
X981784Y863686D01*
X981748Y863747D01*
X981708Y863807D01*
X981666Y863864D01*
X981620Y863919D01*
X981572Y863972D01*
X981521Y864021D01*
X981467Y864068D01*
X981411Y864112D01*
X981352Y864153D01*
X981292Y864191D01*
X981229Y864226D01*
X981165Y864257D01*
X981099Y864285D01*
X981032Y864309D01*
X980964Y864330D01*
X980894Y864347D01*
X980824Y864360D01*
X980754Y864369D01*
X980682Y864375D01*
X980611Y864377D01*
X980879Y866521D02*
X979271Y866521D01*
X980879Y866521D02*
X980944Y866519D01*
X981008Y866513D01*
X981072Y866503D01*
X981136Y866490D01*
X981198Y866472D01*
X981259Y866451D01*
X981319Y866427D01*
X981377Y866398D01*
X981434Y866366D01*
X981488Y866331D01*
X981540Y866293D01*
X981590Y866251D01*
X981637Y866207D01*
X981681Y866160D01*
X981723Y866110D01*
X981761Y866058D01*
X981796Y866004D01*
X981828Y865947D01*
X981857Y865889D01*
X981881Y865829D01*
X981902Y865768D01*
X981920Y865706D01*
X981933Y865642D01*
X981943Y865578D01*
X981949Y865514D01*
X981951Y865449D01*
X981949Y865384D01*
X981943Y865320D01*
X981933Y865256D01*
X981920Y865192D01*
X981902Y865130D01*
X981881Y865069D01*
X981857Y865009D01*
X981828Y864951D01*
X981796Y864894D01*
X981761Y864840D01*
X981723Y864788D01*
X981681Y864738D01*
X981637Y864691D01*
X981590Y864647D01*
X981540Y864605D01*
X981488Y864567D01*
X981434Y864532D01*
X981377Y864500D01*
X981319Y864471D01*
X981259Y864447D01*
X981198Y864426D01*
X981136Y864408D01*
X981072Y864395D01*
X981008Y864385D01*
X980944Y864379D01*
X980879Y864377D01*
X980879Y864376D02*
X979807Y864376D01*
D13*
X1003300Y896620D02*
X952500Y896620D01*
X1003300Y896620D02*
X1003300Y889000D01*
X1003300Y881380D01*
X952500Y881380D01*
X952500Y889000D01*
X952500Y896620D01*
X1003300Y889000D02*
X1005840Y889000D01*
X952500Y889000D02*
X949960Y889000D01*
D12*
X973848Y899795D02*
X973848Y904621D01*
X975189Y904621D01*
X975260Y904619D01*
X975332Y904613D01*
X975402Y904604D01*
X975472Y904591D01*
X975542Y904574D01*
X975610Y904553D01*
X975677Y904529D01*
X975743Y904501D01*
X975807Y904470D01*
X975870Y904435D01*
X975930Y904397D01*
X975989Y904356D01*
X976045Y904312D01*
X976099Y904265D01*
X976150Y904216D01*
X976198Y904163D01*
X976244Y904108D01*
X976286Y904051D01*
X976326Y903991D01*
X976362Y903930D01*
X976395Y903866D01*
X976424Y903801D01*
X976450Y903735D01*
X976473Y903667D01*
X976492Y903598D01*
X976507Y903528D01*
X976518Y903458D01*
X976526Y903387D01*
X976530Y903316D01*
X976530Y903244D01*
X976526Y903173D01*
X976518Y903102D01*
X976507Y903032D01*
X976492Y902962D01*
X976473Y902893D01*
X976450Y902825D01*
X976424Y902759D01*
X976395Y902694D01*
X976362Y902630D01*
X976326Y902569D01*
X976286Y902509D01*
X976244Y902452D01*
X976198Y902397D01*
X976150Y902344D01*
X976099Y902295D01*
X976045Y902248D01*
X975989Y902204D01*
X975930Y902163D01*
X975870Y902125D01*
X975807Y902090D01*
X975743Y902059D01*
X975677Y902031D01*
X975610Y902007D01*
X975542Y901986D01*
X975472Y901969D01*
X975402Y901956D01*
X975332Y901947D01*
X975260Y901941D01*
X975189Y901939D01*
X975189Y901940D02*
X973848Y901940D01*
X975457Y901940D02*
X976529Y899795D01*
X979271Y900867D02*
X980343Y904621D01*
X979271Y900867D02*
X981952Y900867D01*
X981148Y901940D02*
X981148Y899795D01*
D13*
X1003300Y934720D02*
X952500Y934720D01*
X1003300Y934720D02*
X1003300Y927100D01*
X1003300Y919480D01*
X952500Y919480D01*
X952500Y927100D01*
X952500Y934720D01*
X1003300Y927100D02*
X1005840Y927100D01*
X952500Y927100D02*
X949960Y927100D01*
D12*
X973848Y937895D02*
X973848Y942721D01*
X975189Y942721D01*
X975260Y942719D01*
X975332Y942713D01*
X975402Y942704D01*
X975472Y942691D01*
X975542Y942674D01*
X975610Y942653D01*
X975677Y942629D01*
X975743Y942601D01*
X975807Y942570D01*
X975870Y942535D01*
X975930Y942497D01*
X975989Y942456D01*
X976045Y942412D01*
X976099Y942365D01*
X976150Y942316D01*
X976198Y942263D01*
X976244Y942208D01*
X976286Y942151D01*
X976326Y942091D01*
X976362Y942030D01*
X976395Y941966D01*
X976424Y941901D01*
X976450Y941835D01*
X976473Y941767D01*
X976492Y941698D01*
X976507Y941628D01*
X976518Y941558D01*
X976526Y941487D01*
X976530Y941416D01*
X976530Y941344D01*
X976526Y941273D01*
X976518Y941202D01*
X976507Y941132D01*
X976492Y941062D01*
X976473Y940993D01*
X976450Y940925D01*
X976424Y940859D01*
X976395Y940794D01*
X976362Y940730D01*
X976326Y940669D01*
X976286Y940609D01*
X976244Y940552D01*
X976198Y940497D01*
X976150Y940444D01*
X976099Y940395D01*
X976045Y940348D01*
X975989Y940304D01*
X975930Y940263D01*
X975870Y940225D01*
X975807Y940190D01*
X975743Y940159D01*
X975677Y940131D01*
X975610Y940107D01*
X975542Y940086D01*
X975472Y940069D01*
X975402Y940056D01*
X975332Y940047D01*
X975260Y940041D01*
X975189Y940039D01*
X975189Y940040D02*
X973848Y940040D01*
X975457Y940040D02*
X976529Y937895D01*
X979271Y937895D02*
X980879Y937895D01*
X980944Y937897D01*
X981008Y937903D01*
X981072Y937913D01*
X981136Y937926D01*
X981198Y937944D01*
X981259Y937965D01*
X981319Y937989D01*
X981377Y938018D01*
X981434Y938050D01*
X981488Y938085D01*
X981540Y938123D01*
X981590Y938165D01*
X981637Y938209D01*
X981681Y938256D01*
X981723Y938306D01*
X981761Y938358D01*
X981796Y938412D01*
X981828Y938469D01*
X981857Y938527D01*
X981881Y938587D01*
X981902Y938648D01*
X981920Y938710D01*
X981933Y938774D01*
X981943Y938838D01*
X981949Y938902D01*
X981951Y938967D01*
X981952Y938967D02*
X981952Y939504D01*
X981951Y939504D02*
X981949Y939569D01*
X981943Y939633D01*
X981933Y939697D01*
X981920Y939761D01*
X981902Y939823D01*
X981881Y939884D01*
X981857Y939944D01*
X981828Y940002D01*
X981796Y940059D01*
X981761Y940113D01*
X981723Y940165D01*
X981681Y940215D01*
X981637Y940262D01*
X981590Y940306D01*
X981540Y940348D01*
X981488Y940386D01*
X981434Y940421D01*
X981377Y940453D01*
X981319Y940482D01*
X981259Y940506D01*
X981198Y940527D01*
X981136Y940545D01*
X981072Y940558D01*
X981008Y940568D01*
X980944Y940574D01*
X980879Y940576D01*
X979271Y940576D01*
X979271Y942721D01*
X981952Y942721D01*
D13*
X971550Y558800D02*
X958850Y558800D01*
X952500Y565150D01*
X952500Y577850D02*
X958850Y584200D01*
X952500Y565150D02*
X946150Y558800D01*
X933450Y558800D01*
X927100Y565150D01*
X927100Y577850D02*
X933450Y584200D01*
X946150Y584200D01*
X952500Y577850D01*
X977900Y577850D02*
X977900Y565150D01*
X971550Y558800D01*
X977900Y577850D02*
X971550Y584200D01*
X958850Y584200D01*
X927100Y577850D02*
X927100Y565150D01*
D12*
X971636Y556895D02*
X971636Y553141D01*
X971634Y553076D01*
X971628Y553012D01*
X971618Y552948D01*
X971605Y552884D01*
X971587Y552822D01*
X971566Y552761D01*
X971542Y552701D01*
X971513Y552643D01*
X971481Y552586D01*
X971446Y552532D01*
X971408Y552480D01*
X971366Y552430D01*
X971322Y552383D01*
X971275Y552339D01*
X971225Y552297D01*
X971173Y552259D01*
X971119Y552224D01*
X971062Y552192D01*
X971004Y552163D01*
X970944Y552139D01*
X970883Y552118D01*
X970821Y552100D01*
X970757Y552087D01*
X970693Y552077D01*
X970629Y552071D01*
X970564Y552069D01*
X970027Y552069D01*
X974584Y552069D02*
X975924Y552069D01*
X975995Y552071D01*
X976067Y552077D01*
X976137Y552086D01*
X976207Y552099D01*
X976277Y552116D01*
X976345Y552137D01*
X976412Y552161D01*
X976478Y552189D01*
X976542Y552220D01*
X976605Y552255D01*
X976665Y552293D01*
X976724Y552334D01*
X976780Y552378D01*
X976834Y552425D01*
X976885Y552474D01*
X976933Y552527D01*
X976979Y552582D01*
X977021Y552639D01*
X977061Y552699D01*
X977097Y552760D01*
X977130Y552824D01*
X977159Y552889D01*
X977185Y552955D01*
X977208Y553023D01*
X977227Y553092D01*
X977242Y553162D01*
X977253Y553232D01*
X977261Y553303D01*
X977265Y553374D01*
X977265Y553446D01*
X977261Y553517D01*
X977253Y553588D01*
X977242Y553658D01*
X977227Y553728D01*
X977208Y553797D01*
X977185Y553865D01*
X977159Y553931D01*
X977130Y553996D01*
X977097Y554060D01*
X977061Y554121D01*
X977021Y554181D01*
X976979Y554238D01*
X976933Y554293D01*
X976885Y554346D01*
X976834Y554395D01*
X976780Y554442D01*
X976724Y554486D01*
X976665Y554527D01*
X976605Y554565D01*
X976542Y554600D01*
X976478Y554631D01*
X976412Y554659D01*
X976345Y554683D01*
X976277Y554704D01*
X976207Y554721D01*
X976137Y554734D01*
X976067Y554743D01*
X975995Y554749D01*
X975924Y554751D01*
X976193Y556895D02*
X974584Y556895D01*
X976193Y556895D02*
X976258Y556893D01*
X976322Y556887D01*
X976386Y556877D01*
X976450Y556864D01*
X976512Y556846D01*
X976573Y556825D01*
X976633Y556801D01*
X976691Y556772D01*
X976748Y556740D01*
X976802Y556705D01*
X976854Y556667D01*
X976904Y556625D01*
X976951Y556581D01*
X976995Y556534D01*
X977037Y556484D01*
X977075Y556432D01*
X977110Y556378D01*
X977142Y556321D01*
X977171Y556263D01*
X977195Y556203D01*
X977216Y556142D01*
X977234Y556080D01*
X977247Y556016D01*
X977257Y555952D01*
X977263Y555888D01*
X977265Y555823D01*
X977263Y555758D01*
X977257Y555694D01*
X977247Y555630D01*
X977234Y555566D01*
X977216Y555504D01*
X977195Y555443D01*
X977171Y555383D01*
X977142Y555325D01*
X977110Y555268D01*
X977075Y555214D01*
X977037Y555162D01*
X976995Y555112D01*
X976951Y555065D01*
X976904Y555021D01*
X976854Y554979D01*
X976802Y554941D01*
X976748Y554906D01*
X976691Y554874D01*
X976633Y554845D01*
X976573Y554821D01*
X976512Y554800D01*
X976450Y554782D01*
X976386Y554769D01*
X976322Y554759D01*
X976258Y554753D01*
X976193Y554751D01*
X976193Y554750D02*
X975120Y554750D01*
D13*
X641350Y1028700D02*
X628650Y1028700D01*
X622300Y1035050D01*
X622300Y1047750D02*
X628650Y1054100D01*
X622300Y1035050D02*
X615950Y1028700D01*
X603250Y1028700D01*
X596900Y1035050D01*
X596900Y1047750D02*
X603250Y1054100D01*
X615950Y1054100D01*
X622300Y1047750D01*
X647700Y1047750D02*
X647700Y1035050D01*
X641350Y1028700D01*
X647700Y1047750D02*
X641350Y1054100D01*
X628650Y1054100D01*
X596900Y1047750D02*
X596900Y1035050D01*
D12*
X598256Y1057331D02*
X598256Y1061085D01*
X598256Y1057331D02*
X598254Y1057266D01*
X598248Y1057202D01*
X598238Y1057138D01*
X598225Y1057074D01*
X598207Y1057012D01*
X598186Y1056951D01*
X598162Y1056891D01*
X598133Y1056833D01*
X598101Y1056776D01*
X598066Y1056722D01*
X598028Y1056670D01*
X597986Y1056620D01*
X597942Y1056573D01*
X597895Y1056529D01*
X597845Y1056487D01*
X597793Y1056449D01*
X597739Y1056414D01*
X597682Y1056382D01*
X597624Y1056353D01*
X597564Y1056329D01*
X597503Y1056308D01*
X597441Y1056290D01*
X597377Y1056277D01*
X597313Y1056267D01*
X597249Y1056261D01*
X597184Y1056259D01*
X596647Y1056259D01*
X602679Y1061085D02*
X602747Y1061083D01*
X602814Y1061077D01*
X602881Y1061068D01*
X602948Y1061055D01*
X603013Y1061038D01*
X603078Y1061017D01*
X603141Y1060993D01*
X603203Y1060965D01*
X603263Y1060934D01*
X603321Y1060900D01*
X603377Y1060862D01*
X603432Y1060822D01*
X603483Y1060778D01*
X603532Y1060731D01*
X603579Y1060682D01*
X603623Y1060631D01*
X603663Y1060576D01*
X603701Y1060520D01*
X603735Y1060462D01*
X603766Y1060402D01*
X603794Y1060340D01*
X603818Y1060277D01*
X603839Y1060212D01*
X603856Y1060147D01*
X603869Y1060080D01*
X603878Y1060013D01*
X603884Y1059946D01*
X603886Y1059878D01*
X602679Y1061085D02*
X602601Y1061083D01*
X602523Y1061077D01*
X602446Y1061067D01*
X602369Y1061054D01*
X602293Y1061036D01*
X602218Y1061015D01*
X602144Y1060990D01*
X602072Y1060961D01*
X602001Y1060929D01*
X601932Y1060893D01*
X601864Y1060854D01*
X601799Y1060811D01*
X601736Y1060765D01*
X601675Y1060716D01*
X601617Y1060664D01*
X601562Y1060609D01*
X601509Y1060552D01*
X601460Y1060492D01*
X601413Y1060429D01*
X601370Y1060365D01*
X601330Y1060298D01*
X601293Y1060229D01*
X601260Y1060158D01*
X601230Y1060086D01*
X601204Y1060013D01*
X603483Y1058940D02*
X603532Y1058989D01*
X603579Y1059041D01*
X603622Y1059096D01*
X603663Y1059153D01*
X603701Y1059212D01*
X603735Y1059273D01*
X603766Y1059336D01*
X603794Y1059400D01*
X603818Y1059466D01*
X603838Y1059532D01*
X603855Y1059600D01*
X603868Y1059669D01*
X603877Y1059738D01*
X603883Y1059808D01*
X603885Y1059878D01*
X603483Y1058940D02*
X601204Y1056259D01*
X603885Y1056259D01*
D13*
X742950Y1028700D02*
X755650Y1028700D01*
X742950Y1028700D02*
X736600Y1035050D01*
X736600Y1047750D02*
X742950Y1054100D01*
X736600Y1035050D02*
X730250Y1028700D01*
X717550Y1028700D01*
X711200Y1035050D01*
X711200Y1047750D02*
X717550Y1054100D01*
X730250Y1054100D01*
X736600Y1047750D01*
X762000Y1047750D02*
X762000Y1035050D01*
X755650Y1028700D01*
X762000Y1047750D02*
X755650Y1054100D01*
X742950Y1054100D01*
X711200Y1047750D02*
X711200Y1035050D01*
D12*
X711286Y1056061D02*
X711286Y1059815D01*
X711286Y1056061D02*
X711284Y1055996D01*
X711278Y1055932D01*
X711268Y1055868D01*
X711255Y1055804D01*
X711237Y1055742D01*
X711216Y1055681D01*
X711192Y1055621D01*
X711163Y1055563D01*
X711131Y1055506D01*
X711096Y1055452D01*
X711058Y1055400D01*
X711016Y1055350D01*
X710972Y1055303D01*
X710925Y1055259D01*
X710875Y1055217D01*
X710823Y1055179D01*
X710769Y1055144D01*
X710712Y1055112D01*
X710654Y1055083D01*
X710594Y1055059D01*
X710533Y1055038D01*
X710471Y1055020D01*
X710407Y1055007D01*
X710343Y1054997D01*
X710279Y1054991D01*
X710214Y1054989D01*
X709677Y1054989D01*
X714234Y1056061D02*
X715306Y1059815D01*
X714234Y1056061D02*
X716915Y1056061D01*
X716111Y1057134D02*
X716111Y1054989D01*
D13*
X844550Y1054100D02*
X857250Y1054100D01*
X863600Y1047750D01*
X863600Y1035050D02*
X857250Y1028700D01*
X863600Y1047750D02*
X869950Y1054100D01*
X882650Y1054100D01*
X889000Y1047750D01*
X889000Y1035050D02*
X882650Y1028700D01*
X869950Y1028700D01*
X863600Y1035050D01*
X838200Y1035050D02*
X838200Y1047750D01*
X844550Y1054100D01*
X838200Y1035050D02*
X844550Y1028700D01*
X857250Y1028700D01*
X889000Y1035050D02*
X889000Y1047750D01*
D12*
X840444Y1057077D02*
X840444Y1060831D01*
X840443Y1057077D02*
X840441Y1057012D01*
X840435Y1056948D01*
X840425Y1056884D01*
X840412Y1056820D01*
X840394Y1056758D01*
X840373Y1056697D01*
X840349Y1056637D01*
X840320Y1056579D01*
X840288Y1056522D01*
X840253Y1056468D01*
X840215Y1056416D01*
X840173Y1056366D01*
X840129Y1056319D01*
X840082Y1056275D01*
X840032Y1056233D01*
X839980Y1056195D01*
X839926Y1056160D01*
X839869Y1056128D01*
X839811Y1056099D01*
X839751Y1056075D01*
X839690Y1056054D01*
X839628Y1056036D01*
X839564Y1056023D01*
X839500Y1056013D01*
X839436Y1056007D01*
X839371Y1056005D01*
X838835Y1056005D01*
X843392Y1056005D02*
X845000Y1056005D01*
X845065Y1056007D01*
X845129Y1056013D01*
X845193Y1056023D01*
X845257Y1056036D01*
X845319Y1056054D01*
X845380Y1056075D01*
X845440Y1056099D01*
X845498Y1056128D01*
X845555Y1056160D01*
X845609Y1056195D01*
X845661Y1056233D01*
X845711Y1056275D01*
X845758Y1056319D01*
X845802Y1056366D01*
X845844Y1056416D01*
X845882Y1056468D01*
X845917Y1056522D01*
X845949Y1056579D01*
X845978Y1056637D01*
X846002Y1056697D01*
X846023Y1056758D01*
X846041Y1056820D01*
X846054Y1056884D01*
X846064Y1056948D01*
X846070Y1057012D01*
X846072Y1057077D01*
X846073Y1057077D02*
X846073Y1057614D01*
X846072Y1057614D02*
X846070Y1057679D01*
X846064Y1057743D01*
X846054Y1057807D01*
X846041Y1057871D01*
X846023Y1057933D01*
X846002Y1057994D01*
X845978Y1058054D01*
X845949Y1058112D01*
X845917Y1058169D01*
X845882Y1058223D01*
X845844Y1058275D01*
X845802Y1058325D01*
X845758Y1058372D01*
X845711Y1058416D01*
X845661Y1058458D01*
X845609Y1058496D01*
X845555Y1058531D01*
X845498Y1058563D01*
X845440Y1058592D01*
X845380Y1058616D01*
X845319Y1058637D01*
X845257Y1058655D01*
X845193Y1058668D01*
X845129Y1058678D01*
X845065Y1058684D01*
X845000Y1058686D01*
X843392Y1058686D01*
X843392Y1060831D01*
X846073Y1060831D01*
D13*
X260350Y1054100D02*
X247650Y1054100D01*
X260350Y1054100D02*
X266700Y1047750D01*
X266700Y1035050D02*
X260350Y1028700D01*
X266700Y1047750D02*
X273050Y1054100D01*
X285750Y1054100D01*
X292100Y1047750D01*
X292100Y1035050D02*
X285750Y1028700D01*
X273050Y1028700D01*
X266700Y1035050D01*
X241300Y1035050D02*
X241300Y1047750D01*
X247650Y1054100D01*
X241300Y1035050D02*
X247650Y1028700D01*
X260350Y1028700D01*
X292100Y1035050D02*
X292100Y1047750D01*
D12*
X243544Y1057077D02*
X243544Y1060831D01*
X243543Y1057077D02*
X243541Y1057012D01*
X243535Y1056948D01*
X243525Y1056884D01*
X243512Y1056820D01*
X243494Y1056758D01*
X243473Y1056697D01*
X243449Y1056637D01*
X243420Y1056579D01*
X243388Y1056522D01*
X243353Y1056468D01*
X243315Y1056416D01*
X243273Y1056366D01*
X243229Y1056319D01*
X243182Y1056275D01*
X243132Y1056233D01*
X243080Y1056195D01*
X243026Y1056160D01*
X242969Y1056128D01*
X242911Y1056099D01*
X242851Y1056075D01*
X242790Y1056054D01*
X242728Y1056036D01*
X242664Y1056023D01*
X242600Y1056013D01*
X242536Y1056007D01*
X242471Y1056005D01*
X241935Y1056005D01*
X246492Y1058686D02*
X248100Y1058686D01*
X248165Y1058684D01*
X248229Y1058678D01*
X248293Y1058668D01*
X248357Y1058655D01*
X248419Y1058637D01*
X248480Y1058616D01*
X248540Y1058592D01*
X248598Y1058563D01*
X248655Y1058531D01*
X248709Y1058496D01*
X248761Y1058458D01*
X248811Y1058416D01*
X248858Y1058372D01*
X248902Y1058325D01*
X248944Y1058275D01*
X248982Y1058223D01*
X249017Y1058169D01*
X249049Y1058112D01*
X249078Y1058054D01*
X249102Y1057994D01*
X249123Y1057933D01*
X249141Y1057871D01*
X249154Y1057807D01*
X249164Y1057743D01*
X249170Y1057679D01*
X249172Y1057614D01*
X249173Y1057614D02*
X249173Y1057346D01*
X249171Y1057275D01*
X249165Y1057203D01*
X249156Y1057133D01*
X249143Y1057063D01*
X249126Y1056993D01*
X249105Y1056925D01*
X249081Y1056858D01*
X249053Y1056792D01*
X249022Y1056728D01*
X248987Y1056665D01*
X248949Y1056605D01*
X248908Y1056546D01*
X248864Y1056490D01*
X248817Y1056436D01*
X248768Y1056385D01*
X248715Y1056337D01*
X248660Y1056291D01*
X248603Y1056249D01*
X248543Y1056209D01*
X248482Y1056173D01*
X248418Y1056140D01*
X248353Y1056111D01*
X248287Y1056085D01*
X248219Y1056062D01*
X248150Y1056043D01*
X248080Y1056028D01*
X248010Y1056017D01*
X247939Y1056009D01*
X247868Y1056005D01*
X247796Y1056005D01*
X247725Y1056009D01*
X247654Y1056017D01*
X247584Y1056028D01*
X247514Y1056043D01*
X247445Y1056062D01*
X247377Y1056085D01*
X247311Y1056111D01*
X247246Y1056140D01*
X247182Y1056173D01*
X247121Y1056209D01*
X247061Y1056249D01*
X247004Y1056291D01*
X246949Y1056337D01*
X246896Y1056385D01*
X246847Y1056436D01*
X246800Y1056490D01*
X246756Y1056546D01*
X246715Y1056605D01*
X246677Y1056665D01*
X246642Y1056728D01*
X246611Y1056792D01*
X246583Y1056858D01*
X246559Y1056925D01*
X246538Y1056993D01*
X246521Y1057063D01*
X246508Y1057133D01*
X246499Y1057203D01*
X246493Y1057275D01*
X246491Y1057346D01*
X246492Y1057346D02*
X246492Y1058686D01*
X246494Y1058777D01*
X246500Y1058868D01*
X246509Y1058958D01*
X246523Y1059049D01*
X246540Y1059138D01*
X246561Y1059226D01*
X246586Y1059314D01*
X246615Y1059401D01*
X246647Y1059486D01*
X246682Y1059570D01*
X246722Y1059652D01*
X246764Y1059732D01*
X246810Y1059811D01*
X246860Y1059887D01*
X246912Y1059961D01*
X246968Y1060034D01*
X247027Y1060103D01*
X247088Y1060170D01*
X247153Y1060235D01*
X247220Y1060296D01*
X247289Y1060355D01*
X247361Y1060411D01*
X247436Y1060463D01*
X247512Y1060513D01*
X247591Y1060559D01*
X247671Y1060601D01*
X247753Y1060641D01*
X247837Y1060676D01*
X247922Y1060708D01*
X248009Y1060737D01*
X248096Y1060762D01*
X248185Y1060783D01*
X248274Y1060800D01*
X248365Y1060814D01*
X248455Y1060823D01*
X248546Y1060829D01*
X248637Y1060831D01*
D13*
X361950Y1054100D02*
X374650Y1054100D01*
X381000Y1047750D01*
X381000Y1035050D02*
X374650Y1028700D01*
X381000Y1047750D02*
X387350Y1054100D01*
X400050Y1054100D01*
X406400Y1047750D01*
X406400Y1035050D02*
X400050Y1028700D01*
X387350Y1028700D01*
X381000Y1035050D01*
X355600Y1035050D02*
X355600Y1047750D01*
X361950Y1054100D01*
X355600Y1035050D02*
X361950Y1028700D01*
X374650Y1028700D01*
X406400Y1035050D02*
X406400Y1047750D01*
D12*
X357844Y1057077D02*
X357844Y1060831D01*
X357843Y1057077D02*
X357841Y1057012D01*
X357835Y1056948D01*
X357825Y1056884D01*
X357812Y1056820D01*
X357794Y1056758D01*
X357773Y1056697D01*
X357749Y1056637D01*
X357720Y1056579D01*
X357688Y1056522D01*
X357653Y1056468D01*
X357615Y1056416D01*
X357573Y1056366D01*
X357529Y1056319D01*
X357482Y1056275D01*
X357432Y1056233D01*
X357380Y1056195D01*
X357326Y1056160D01*
X357269Y1056128D01*
X357211Y1056099D01*
X357151Y1056075D01*
X357090Y1056054D01*
X357028Y1056036D01*
X356964Y1056023D01*
X356900Y1056013D01*
X356836Y1056007D01*
X356771Y1056005D01*
X356235Y1056005D01*
X360792Y1060295D02*
X360792Y1060831D01*
X363473Y1060831D01*
X362132Y1056005D01*
D13*
X476250Y1054100D02*
X488950Y1054100D01*
X495300Y1047750D01*
X495300Y1035050D02*
X488950Y1028700D01*
X495300Y1047750D02*
X501650Y1054100D01*
X514350Y1054100D01*
X520700Y1047750D01*
X520700Y1035050D02*
X514350Y1028700D01*
X501650Y1028700D01*
X495300Y1035050D01*
X469900Y1035050D02*
X469900Y1047750D01*
X476250Y1054100D01*
X469900Y1035050D02*
X476250Y1028700D01*
X488950Y1028700D01*
X520700Y1035050D02*
X520700Y1047750D01*
D12*
X472144Y1057077D02*
X472144Y1060831D01*
X472143Y1057077D02*
X472141Y1057012D01*
X472135Y1056948D01*
X472125Y1056884D01*
X472112Y1056820D01*
X472094Y1056758D01*
X472073Y1056697D01*
X472049Y1056637D01*
X472020Y1056579D01*
X471988Y1056522D01*
X471953Y1056468D01*
X471915Y1056416D01*
X471873Y1056366D01*
X471829Y1056319D01*
X471782Y1056275D01*
X471732Y1056233D01*
X471680Y1056195D01*
X471626Y1056160D01*
X471569Y1056128D01*
X471511Y1056099D01*
X471451Y1056075D01*
X471390Y1056054D01*
X471328Y1056036D01*
X471264Y1056023D01*
X471200Y1056013D01*
X471136Y1056007D01*
X471071Y1056005D01*
X470535Y1056005D01*
X475091Y1057346D02*
X475093Y1057417D01*
X475099Y1057489D01*
X475108Y1057559D01*
X475121Y1057629D01*
X475138Y1057699D01*
X475159Y1057767D01*
X475183Y1057834D01*
X475211Y1057900D01*
X475242Y1057964D01*
X475277Y1058027D01*
X475315Y1058087D01*
X475356Y1058146D01*
X475400Y1058202D01*
X475447Y1058256D01*
X475496Y1058307D01*
X475549Y1058355D01*
X475604Y1058401D01*
X475661Y1058443D01*
X475721Y1058483D01*
X475782Y1058519D01*
X475846Y1058552D01*
X475911Y1058581D01*
X475977Y1058607D01*
X476045Y1058630D01*
X476114Y1058649D01*
X476184Y1058664D01*
X476254Y1058675D01*
X476325Y1058683D01*
X476396Y1058687D01*
X476468Y1058687D01*
X476539Y1058683D01*
X476610Y1058675D01*
X476680Y1058664D01*
X476750Y1058649D01*
X476819Y1058630D01*
X476887Y1058607D01*
X476953Y1058581D01*
X477018Y1058552D01*
X477082Y1058519D01*
X477143Y1058483D01*
X477203Y1058443D01*
X477260Y1058401D01*
X477315Y1058355D01*
X477368Y1058307D01*
X477417Y1058256D01*
X477464Y1058202D01*
X477508Y1058146D01*
X477549Y1058087D01*
X477587Y1058027D01*
X477622Y1057964D01*
X477653Y1057900D01*
X477681Y1057834D01*
X477705Y1057767D01*
X477726Y1057699D01*
X477743Y1057629D01*
X477756Y1057559D01*
X477765Y1057489D01*
X477771Y1057417D01*
X477773Y1057346D01*
X477771Y1057275D01*
X477765Y1057203D01*
X477756Y1057133D01*
X477743Y1057063D01*
X477726Y1056993D01*
X477705Y1056925D01*
X477681Y1056858D01*
X477653Y1056792D01*
X477622Y1056728D01*
X477587Y1056665D01*
X477549Y1056605D01*
X477508Y1056546D01*
X477464Y1056490D01*
X477417Y1056436D01*
X477368Y1056385D01*
X477315Y1056337D01*
X477260Y1056291D01*
X477203Y1056249D01*
X477143Y1056209D01*
X477082Y1056173D01*
X477018Y1056140D01*
X476953Y1056111D01*
X476887Y1056085D01*
X476819Y1056062D01*
X476750Y1056043D01*
X476680Y1056028D01*
X476610Y1056017D01*
X476539Y1056009D01*
X476468Y1056005D01*
X476396Y1056005D01*
X476325Y1056009D01*
X476254Y1056017D01*
X476184Y1056028D01*
X476114Y1056043D01*
X476045Y1056062D01*
X475977Y1056085D01*
X475911Y1056111D01*
X475846Y1056140D01*
X475782Y1056173D01*
X475721Y1056209D01*
X475661Y1056249D01*
X475604Y1056291D01*
X475549Y1056337D01*
X475496Y1056385D01*
X475447Y1056436D01*
X475400Y1056490D01*
X475356Y1056546D01*
X475315Y1056605D01*
X475277Y1056665D01*
X475242Y1056728D01*
X475211Y1056792D01*
X475183Y1056858D01*
X475159Y1056925D01*
X475138Y1056993D01*
X475121Y1057063D01*
X475108Y1057133D01*
X475099Y1057203D01*
X475093Y1057275D01*
X475091Y1057346D01*
X475360Y1059759D02*
X475362Y1059824D01*
X475368Y1059888D01*
X475378Y1059952D01*
X475391Y1060016D01*
X475409Y1060078D01*
X475430Y1060139D01*
X475454Y1060199D01*
X475483Y1060257D01*
X475515Y1060314D01*
X475550Y1060368D01*
X475588Y1060420D01*
X475630Y1060470D01*
X475674Y1060517D01*
X475721Y1060561D01*
X475771Y1060603D01*
X475823Y1060641D01*
X475877Y1060676D01*
X475934Y1060708D01*
X475992Y1060737D01*
X476052Y1060761D01*
X476113Y1060782D01*
X476175Y1060800D01*
X476239Y1060813D01*
X476303Y1060823D01*
X476367Y1060829D01*
X476432Y1060831D01*
X476497Y1060829D01*
X476561Y1060823D01*
X476625Y1060813D01*
X476689Y1060800D01*
X476751Y1060782D01*
X476812Y1060761D01*
X476872Y1060737D01*
X476930Y1060708D01*
X476987Y1060676D01*
X477041Y1060641D01*
X477093Y1060603D01*
X477143Y1060561D01*
X477190Y1060517D01*
X477234Y1060470D01*
X477276Y1060420D01*
X477314Y1060368D01*
X477349Y1060314D01*
X477381Y1060257D01*
X477410Y1060199D01*
X477434Y1060139D01*
X477455Y1060078D01*
X477473Y1060016D01*
X477486Y1059952D01*
X477496Y1059888D01*
X477502Y1059824D01*
X477504Y1059759D01*
X477502Y1059694D01*
X477496Y1059630D01*
X477486Y1059566D01*
X477473Y1059502D01*
X477455Y1059440D01*
X477434Y1059379D01*
X477410Y1059319D01*
X477381Y1059261D01*
X477349Y1059204D01*
X477314Y1059150D01*
X477276Y1059098D01*
X477234Y1059048D01*
X477190Y1059001D01*
X477143Y1058957D01*
X477093Y1058915D01*
X477041Y1058877D01*
X476987Y1058842D01*
X476930Y1058810D01*
X476872Y1058781D01*
X476812Y1058757D01*
X476751Y1058736D01*
X476689Y1058718D01*
X476625Y1058705D01*
X476561Y1058695D01*
X476497Y1058689D01*
X476432Y1058687D01*
X476367Y1058689D01*
X476303Y1058695D01*
X476239Y1058705D01*
X476175Y1058718D01*
X476113Y1058736D01*
X476052Y1058757D01*
X475992Y1058781D01*
X475934Y1058810D01*
X475877Y1058842D01*
X475823Y1058877D01*
X475771Y1058915D01*
X475721Y1058957D01*
X475674Y1059001D01*
X475630Y1059048D01*
X475588Y1059098D01*
X475550Y1059150D01*
X475515Y1059204D01*
X475483Y1059261D01*
X475454Y1059319D01*
X475430Y1059379D01*
X475409Y1059440D01*
X475391Y1059502D01*
X475378Y1059566D01*
X475368Y1059630D01*
X475362Y1059694D01*
X475360Y1059759D01*
D13*
X495300Y882650D02*
X488950Y876300D01*
X476250Y876300D01*
X469900Y882650D01*
X469900Y895350D02*
X476250Y901700D01*
X488950Y901700D01*
X495300Y895350D01*
X527050Y876300D02*
X539750Y876300D01*
X527050Y876300D02*
X520700Y882650D01*
X520700Y895350D02*
X527050Y901700D01*
X520700Y882650D02*
X514350Y876300D01*
X501650Y876300D01*
X495300Y882650D01*
X495300Y895350D02*
X501650Y901700D01*
X514350Y901700D01*
X520700Y895350D01*
X546100Y895350D02*
X546100Y882650D01*
X539750Y876300D01*
X546100Y895350D02*
X539750Y901700D01*
X527050Y901700D01*
X469900Y895350D02*
X469900Y882650D01*
D12*
X539836Y874395D02*
X539836Y870641D01*
X539834Y870576D01*
X539828Y870512D01*
X539818Y870448D01*
X539805Y870384D01*
X539787Y870322D01*
X539766Y870261D01*
X539742Y870201D01*
X539713Y870143D01*
X539681Y870086D01*
X539646Y870032D01*
X539608Y869980D01*
X539566Y869930D01*
X539522Y869883D01*
X539475Y869839D01*
X539425Y869797D01*
X539373Y869759D01*
X539319Y869724D01*
X539262Y869692D01*
X539204Y869663D01*
X539144Y869639D01*
X539083Y869618D01*
X539021Y869600D01*
X538957Y869587D01*
X538893Y869577D01*
X538829Y869571D01*
X538764Y869569D01*
X538227Y869569D01*
X543856Y871714D02*
X545465Y871714D01*
X543856Y871714D02*
X543791Y871716D01*
X543727Y871722D01*
X543663Y871732D01*
X543599Y871745D01*
X543537Y871763D01*
X543476Y871784D01*
X543416Y871808D01*
X543358Y871837D01*
X543301Y871869D01*
X543247Y871904D01*
X543195Y871942D01*
X543145Y871984D01*
X543098Y872028D01*
X543054Y872075D01*
X543012Y872125D01*
X542974Y872177D01*
X542939Y872231D01*
X542907Y872288D01*
X542878Y872346D01*
X542854Y872406D01*
X542833Y872467D01*
X542815Y872529D01*
X542802Y872593D01*
X542792Y872657D01*
X542786Y872721D01*
X542784Y872786D01*
X542784Y873054D01*
X542783Y873054D02*
X542785Y873125D01*
X542791Y873197D01*
X542800Y873267D01*
X542813Y873337D01*
X542830Y873407D01*
X542851Y873475D01*
X542875Y873542D01*
X542903Y873608D01*
X542934Y873672D01*
X542969Y873735D01*
X543007Y873795D01*
X543048Y873854D01*
X543092Y873910D01*
X543139Y873964D01*
X543188Y874015D01*
X543241Y874063D01*
X543296Y874109D01*
X543353Y874151D01*
X543413Y874191D01*
X543474Y874227D01*
X543538Y874260D01*
X543603Y874289D01*
X543669Y874315D01*
X543737Y874338D01*
X543806Y874357D01*
X543876Y874372D01*
X543946Y874383D01*
X544017Y874391D01*
X544088Y874395D01*
X544160Y874395D01*
X544231Y874391D01*
X544302Y874383D01*
X544372Y874372D01*
X544442Y874357D01*
X544511Y874338D01*
X544579Y874315D01*
X544645Y874289D01*
X544710Y874260D01*
X544774Y874227D01*
X544835Y874191D01*
X544895Y874151D01*
X544952Y874109D01*
X545007Y874063D01*
X545060Y874015D01*
X545109Y873964D01*
X545156Y873910D01*
X545200Y873854D01*
X545241Y873795D01*
X545279Y873735D01*
X545314Y873672D01*
X545345Y873608D01*
X545373Y873542D01*
X545397Y873475D01*
X545418Y873407D01*
X545435Y873337D01*
X545448Y873267D01*
X545457Y873197D01*
X545463Y873125D01*
X545465Y873054D01*
X545465Y871714D01*
X545463Y871623D01*
X545457Y871532D01*
X545448Y871442D01*
X545434Y871351D01*
X545417Y871262D01*
X545396Y871174D01*
X545371Y871086D01*
X545342Y870999D01*
X545310Y870914D01*
X545275Y870830D01*
X545235Y870748D01*
X545193Y870668D01*
X545147Y870589D01*
X545097Y870513D01*
X545045Y870439D01*
X544989Y870366D01*
X544930Y870297D01*
X544869Y870230D01*
X544804Y870165D01*
X544737Y870104D01*
X544668Y870045D01*
X544595Y869989D01*
X544521Y869937D01*
X544445Y869887D01*
X544366Y869841D01*
X544286Y869799D01*
X544204Y869759D01*
X544120Y869724D01*
X544035Y869692D01*
X543948Y869663D01*
X543860Y869638D01*
X543772Y869617D01*
X543683Y869600D01*
X543592Y869586D01*
X543502Y869577D01*
X543411Y869571D01*
X543320Y869569D01*
D13*
X381000Y882650D02*
X374650Y876300D01*
X361950Y876300D01*
X355600Y882650D01*
X355600Y895350D02*
X361950Y901700D01*
X374650Y901700D01*
X381000Y895350D01*
X412750Y876300D02*
X425450Y876300D01*
X412750Y876300D02*
X406400Y882650D01*
X406400Y895350D02*
X412750Y901700D01*
X406400Y882650D02*
X400050Y876300D01*
X387350Y876300D01*
X381000Y882650D01*
X381000Y895350D02*
X387350Y901700D01*
X400050Y901700D01*
X406400Y895350D01*
X431800Y895350D02*
X431800Y882650D01*
X425450Y876300D01*
X431800Y895350D02*
X425450Y901700D01*
X412750Y901700D01*
X355600Y895350D02*
X355600Y882650D01*
D12*
X420050Y874395D02*
X420050Y870641D01*
X420049Y870641D02*
X420047Y870576D01*
X420041Y870512D01*
X420031Y870448D01*
X420018Y870384D01*
X420000Y870322D01*
X419979Y870261D01*
X419955Y870201D01*
X419926Y870143D01*
X419894Y870086D01*
X419859Y870032D01*
X419821Y869980D01*
X419779Y869930D01*
X419735Y869883D01*
X419688Y869839D01*
X419638Y869797D01*
X419586Y869759D01*
X419532Y869724D01*
X419475Y869692D01*
X419417Y869663D01*
X419357Y869639D01*
X419296Y869618D01*
X419234Y869600D01*
X419170Y869587D01*
X419106Y869577D01*
X419042Y869571D01*
X418977Y869569D01*
X418441Y869569D01*
X422998Y873323D02*
X424338Y874395D01*
X424338Y869569D01*
X422998Y869569D02*
X425679Y869569D01*
X428484Y871982D02*
X428486Y872102D01*
X428491Y872222D01*
X428500Y872342D01*
X428513Y872462D01*
X428529Y872581D01*
X428549Y872700D01*
X428573Y872818D01*
X428600Y872935D01*
X428630Y873051D01*
X428664Y873166D01*
X428702Y873281D01*
X428743Y873394D01*
X428787Y873505D01*
X428835Y873616D01*
X428886Y873725D01*
X428907Y873782D01*
X428933Y873838D01*
X428961Y873893D01*
X428993Y873945D01*
X429029Y873996D01*
X429067Y874044D01*
X429108Y874090D01*
X429152Y874133D01*
X429198Y874173D01*
X429247Y874210D01*
X429299Y874244D01*
X429352Y874275D01*
X429407Y874303D01*
X429463Y874327D01*
X429521Y874348D01*
X429580Y874365D01*
X429640Y874378D01*
X429701Y874387D01*
X429763Y874393D01*
X429824Y874395D01*
X429885Y874393D01*
X429947Y874387D01*
X430008Y874378D01*
X430068Y874365D01*
X430127Y874348D01*
X430185Y874327D01*
X430241Y874303D01*
X430296Y874275D01*
X430349Y874244D01*
X430401Y874210D01*
X430450Y874173D01*
X430496Y874133D01*
X430540Y874090D01*
X430581Y874044D01*
X430619Y873996D01*
X430655Y873945D01*
X430687Y873893D01*
X430715Y873838D01*
X430741Y873782D01*
X430762Y873725D01*
X430763Y873725D02*
X430814Y873616D01*
X430862Y873505D01*
X430906Y873394D01*
X430947Y873281D01*
X430985Y873166D01*
X431019Y873051D01*
X431049Y872935D01*
X431076Y872818D01*
X431100Y872700D01*
X431120Y872581D01*
X431136Y872462D01*
X431149Y872342D01*
X431158Y872222D01*
X431163Y872102D01*
X431165Y871982D01*
X428484Y871982D02*
X428486Y871862D01*
X428491Y871742D01*
X428500Y871622D01*
X428513Y871502D01*
X428529Y871383D01*
X428549Y871264D01*
X428573Y871146D01*
X428600Y871029D01*
X428630Y870913D01*
X428664Y870798D01*
X428702Y870683D01*
X428743Y870570D01*
X428787Y870459D01*
X428835Y870348D01*
X428886Y870239D01*
X428907Y870182D01*
X428933Y870126D01*
X428961Y870071D01*
X428993Y870019D01*
X429029Y869968D01*
X429067Y869920D01*
X429108Y869874D01*
X429152Y869831D01*
X429198Y869791D01*
X429247Y869754D01*
X429299Y869720D01*
X429352Y869689D01*
X429407Y869661D01*
X429463Y869637D01*
X429521Y869616D01*
X429580Y869599D01*
X429640Y869586D01*
X429701Y869577D01*
X429763Y869571D01*
X429824Y869569D01*
X430763Y870239D02*
X430814Y870348D01*
X430862Y870459D01*
X430906Y870570D01*
X430947Y870683D01*
X430985Y870798D01*
X431019Y870913D01*
X431049Y871029D01*
X431076Y871146D01*
X431100Y871264D01*
X431120Y871383D01*
X431136Y871502D01*
X431149Y871622D01*
X431158Y871742D01*
X431163Y871862D01*
X431165Y871982D01*
X430762Y870239D02*
X430741Y870182D01*
X430715Y870126D01*
X430687Y870071D01*
X430655Y870019D01*
X430619Y869968D01*
X430581Y869920D01*
X430540Y869874D01*
X430496Y869831D01*
X430449Y869791D01*
X430401Y869754D01*
X430349Y869720D01*
X430296Y869689D01*
X430241Y869661D01*
X430185Y869637D01*
X430127Y869616D01*
X430068Y869599D01*
X430008Y869586D01*
X429947Y869577D01*
X429885Y869571D01*
X429824Y869569D01*
X428752Y870641D02*
X430897Y873323D01*
D13*
X266700Y882650D02*
X260350Y876300D01*
X247650Y876300D01*
X241300Y882650D01*
X241300Y895350D02*
X247650Y901700D01*
X260350Y901700D01*
X266700Y895350D01*
X298450Y876300D02*
X311150Y876300D01*
X298450Y876300D02*
X292100Y882650D01*
X292100Y895350D02*
X298450Y901700D01*
X292100Y882650D02*
X285750Y876300D01*
X273050Y876300D01*
X266700Y882650D01*
X266700Y895350D02*
X273050Y901700D01*
X285750Y901700D01*
X292100Y895350D01*
X317500Y895350D02*
X317500Y882650D01*
X311150Y876300D01*
X317500Y895350D02*
X311150Y901700D01*
X298450Y901700D01*
X241300Y895350D02*
X241300Y882650D01*
D12*
X308314Y872871D02*
X308314Y869117D01*
X308313Y869117D02*
X308311Y869052D01*
X308305Y868988D01*
X308295Y868924D01*
X308282Y868860D01*
X308264Y868798D01*
X308243Y868737D01*
X308219Y868677D01*
X308190Y868619D01*
X308158Y868562D01*
X308123Y868508D01*
X308085Y868456D01*
X308043Y868406D01*
X307999Y868359D01*
X307952Y868315D01*
X307902Y868273D01*
X307850Y868235D01*
X307796Y868200D01*
X307739Y868168D01*
X307681Y868139D01*
X307621Y868115D01*
X307560Y868094D01*
X307498Y868076D01*
X307434Y868063D01*
X307370Y868053D01*
X307306Y868047D01*
X307241Y868045D01*
X306705Y868045D01*
X311262Y871799D02*
X312602Y872871D01*
X312602Y868045D01*
X311262Y868045D02*
X313943Y868045D01*
X316748Y871799D02*
X318088Y872871D01*
X318088Y868045D01*
X316748Y868045D02*
X319429Y868045D01*
D13*
X831850Y876300D02*
X838200Y882650D01*
X831850Y876300D02*
X819150Y876300D01*
X812800Y882650D01*
X812800Y895350D02*
X819150Y901700D01*
X831850Y901700D01*
X838200Y895350D01*
X869950Y876300D02*
X882650Y876300D01*
X869950Y876300D02*
X863600Y882650D01*
X863600Y895350D02*
X869950Y901700D01*
X863600Y882650D02*
X857250Y876300D01*
X844550Y876300D01*
X838200Y882650D01*
X838200Y895350D02*
X844550Y901700D01*
X857250Y901700D01*
X863600Y895350D01*
X889000Y895350D02*
X889000Y882650D01*
X882650Y876300D01*
X889000Y895350D02*
X882650Y901700D01*
X869950Y901700D01*
X812800Y895350D02*
X812800Y882650D01*
D12*
X877250Y874395D02*
X877250Y870641D01*
X877249Y870641D02*
X877247Y870576D01*
X877241Y870512D01*
X877231Y870448D01*
X877218Y870384D01*
X877200Y870322D01*
X877179Y870261D01*
X877155Y870201D01*
X877126Y870143D01*
X877094Y870086D01*
X877059Y870032D01*
X877021Y869980D01*
X876979Y869930D01*
X876935Y869883D01*
X876888Y869839D01*
X876838Y869797D01*
X876786Y869759D01*
X876732Y869724D01*
X876675Y869692D01*
X876617Y869663D01*
X876557Y869639D01*
X876496Y869618D01*
X876434Y869600D01*
X876370Y869587D01*
X876306Y869577D01*
X876242Y869571D01*
X876177Y869569D01*
X875641Y869569D01*
X880198Y873323D02*
X881538Y874395D01*
X881538Y869569D01*
X880198Y869569D02*
X882879Y869569D01*
X887159Y874395D02*
X887227Y874393D01*
X887294Y874387D01*
X887361Y874378D01*
X887428Y874365D01*
X887493Y874348D01*
X887558Y874327D01*
X887621Y874303D01*
X887683Y874275D01*
X887743Y874244D01*
X887801Y874210D01*
X887857Y874172D01*
X887912Y874132D01*
X887963Y874088D01*
X888012Y874041D01*
X888059Y873992D01*
X888103Y873941D01*
X888143Y873886D01*
X888181Y873830D01*
X888215Y873772D01*
X888246Y873712D01*
X888274Y873650D01*
X888298Y873587D01*
X888319Y873522D01*
X888336Y873457D01*
X888349Y873390D01*
X888358Y873323D01*
X888364Y873256D01*
X888366Y873188D01*
X887159Y874395D02*
X887081Y874393D01*
X887003Y874387D01*
X886926Y874377D01*
X886849Y874364D01*
X886773Y874346D01*
X886698Y874325D01*
X886624Y874300D01*
X886552Y874271D01*
X886481Y874239D01*
X886412Y874203D01*
X886344Y874164D01*
X886279Y874121D01*
X886216Y874075D01*
X886155Y874026D01*
X886097Y873974D01*
X886042Y873919D01*
X885989Y873862D01*
X885940Y873802D01*
X885893Y873739D01*
X885850Y873675D01*
X885810Y873608D01*
X885773Y873539D01*
X885740Y873468D01*
X885710Y873396D01*
X885684Y873323D01*
X887963Y872250D02*
X888012Y872299D01*
X888059Y872351D01*
X888102Y872406D01*
X888143Y872463D01*
X888181Y872522D01*
X888215Y872583D01*
X888246Y872646D01*
X888274Y872710D01*
X888298Y872776D01*
X888318Y872842D01*
X888335Y872910D01*
X888348Y872979D01*
X888357Y873048D01*
X888363Y873118D01*
X888365Y873188D01*
X887963Y872250D02*
X885684Y869569D01*
X888365Y869569D01*
D13*
X723900Y882650D02*
X717550Y876300D01*
X704850Y876300D01*
X698500Y882650D01*
X698500Y895350D02*
X704850Y901700D01*
X717550Y901700D01*
X723900Y895350D01*
X755650Y876300D02*
X768350Y876300D01*
X755650Y876300D02*
X749300Y882650D01*
X749300Y895350D02*
X755650Y901700D01*
X749300Y882650D02*
X742950Y876300D01*
X730250Y876300D01*
X723900Y882650D01*
X723900Y895350D02*
X730250Y901700D01*
X742950Y901700D01*
X749300Y895350D01*
X774700Y895350D02*
X774700Y882650D01*
X768350Y876300D01*
X774700Y895350D02*
X768350Y901700D01*
X755650Y901700D01*
X698500Y895350D02*
X698500Y882650D01*
D12*
X762950Y874395D02*
X762950Y870641D01*
X762949Y870641D02*
X762947Y870576D01*
X762941Y870512D01*
X762931Y870448D01*
X762918Y870384D01*
X762900Y870322D01*
X762879Y870261D01*
X762855Y870201D01*
X762826Y870143D01*
X762794Y870086D01*
X762759Y870032D01*
X762721Y869980D01*
X762679Y869930D01*
X762635Y869883D01*
X762588Y869839D01*
X762538Y869797D01*
X762486Y869759D01*
X762432Y869724D01*
X762375Y869692D01*
X762317Y869663D01*
X762257Y869639D01*
X762196Y869618D01*
X762134Y869600D01*
X762070Y869587D01*
X762006Y869577D01*
X761942Y869571D01*
X761877Y869569D01*
X761341Y869569D01*
X765898Y873323D02*
X767238Y874395D01*
X767238Y869569D01*
X765898Y869569D02*
X768579Y869569D01*
X771384Y869569D02*
X772724Y869569D01*
X772795Y869571D01*
X772867Y869577D01*
X772937Y869586D01*
X773007Y869599D01*
X773077Y869616D01*
X773145Y869637D01*
X773212Y869661D01*
X773278Y869689D01*
X773342Y869720D01*
X773405Y869755D01*
X773465Y869793D01*
X773524Y869834D01*
X773580Y869878D01*
X773634Y869925D01*
X773685Y869974D01*
X773733Y870027D01*
X773779Y870082D01*
X773821Y870139D01*
X773861Y870199D01*
X773897Y870260D01*
X773930Y870324D01*
X773959Y870389D01*
X773985Y870455D01*
X774008Y870523D01*
X774027Y870592D01*
X774042Y870662D01*
X774053Y870732D01*
X774061Y870803D01*
X774065Y870874D01*
X774065Y870946D01*
X774061Y871017D01*
X774053Y871088D01*
X774042Y871158D01*
X774027Y871228D01*
X774008Y871297D01*
X773985Y871365D01*
X773959Y871431D01*
X773930Y871496D01*
X773897Y871560D01*
X773861Y871621D01*
X773821Y871681D01*
X773779Y871738D01*
X773733Y871793D01*
X773685Y871846D01*
X773634Y871895D01*
X773580Y871942D01*
X773524Y871986D01*
X773465Y872027D01*
X773405Y872065D01*
X773342Y872100D01*
X773278Y872131D01*
X773212Y872159D01*
X773145Y872183D01*
X773077Y872204D01*
X773007Y872221D01*
X772937Y872234D01*
X772867Y872243D01*
X772795Y872249D01*
X772724Y872251D01*
X772993Y874395D02*
X771384Y874395D01*
X772993Y874395D02*
X773058Y874393D01*
X773122Y874387D01*
X773186Y874377D01*
X773250Y874364D01*
X773312Y874346D01*
X773373Y874325D01*
X773433Y874301D01*
X773491Y874272D01*
X773548Y874240D01*
X773602Y874205D01*
X773654Y874167D01*
X773704Y874125D01*
X773751Y874081D01*
X773795Y874034D01*
X773837Y873984D01*
X773875Y873932D01*
X773910Y873878D01*
X773942Y873821D01*
X773971Y873763D01*
X773995Y873703D01*
X774016Y873642D01*
X774034Y873580D01*
X774047Y873516D01*
X774057Y873452D01*
X774063Y873388D01*
X774065Y873323D01*
X774063Y873258D01*
X774057Y873194D01*
X774047Y873130D01*
X774034Y873066D01*
X774016Y873004D01*
X773995Y872943D01*
X773971Y872883D01*
X773942Y872825D01*
X773910Y872768D01*
X773875Y872714D01*
X773837Y872662D01*
X773795Y872612D01*
X773751Y872565D01*
X773704Y872521D01*
X773654Y872479D01*
X773602Y872441D01*
X773548Y872406D01*
X773491Y872374D01*
X773433Y872345D01*
X773373Y872321D01*
X773312Y872300D01*
X773250Y872282D01*
X773186Y872269D01*
X773122Y872259D01*
X773058Y872253D01*
X772993Y872251D01*
X772993Y872250D02*
X771920Y872250D01*
D13*
X609600Y882650D02*
X603250Y876300D01*
X590550Y876300D01*
X584200Y882650D01*
X584200Y895350D02*
X590550Y901700D01*
X603250Y901700D01*
X609600Y895350D01*
X641350Y876300D02*
X654050Y876300D01*
X641350Y876300D02*
X635000Y882650D01*
X635000Y895350D02*
X641350Y901700D01*
X635000Y882650D02*
X628650Y876300D01*
X615950Y876300D01*
X609600Y882650D01*
X609600Y895350D02*
X615950Y901700D01*
X628650Y901700D01*
X635000Y895350D01*
X660400Y895350D02*
X660400Y882650D01*
X654050Y876300D01*
X660400Y895350D02*
X654050Y901700D01*
X641350Y901700D01*
X584200Y895350D02*
X584200Y882650D01*
D12*
X648650Y874395D02*
X648650Y870641D01*
X648649Y870641D02*
X648647Y870576D01*
X648641Y870512D01*
X648631Y870448D01*
X648618Y870384D01*
X648600Y870322D01*
X648579Y870261D01*
X648555Y870201D01*
X648526Y870143D01*
X648494Y870086D01*
X648459Y870032D01*
X648421Y869980D01*
X648379Y869930D01*
X648335Y869883D01*
X648288Y869839D01*
X648238Y869797D01*
X648186Y869759D01*
X648132Y869724D01*
X648075Y869692D01*
X648017Y869663D01*
X647957Y869639D01*
X647896Y869618D01*
X647834Y869600D01*
X647770Y869587D01*
X647706Y869577D01*
X647642Y869571D01*
X647577Y869569D01*
X647041Y869569D01*
X651598Y873323D02*
X652938Y874395D01*
X652938Y869569D01*
X651598Y869569D02*
X654279Y869569D01*
X657084Y870641D02*
X658156Y874395D01*
X657084Y870641D02*
X659765Y870641D01*
X658961Y871714D02*
X658961Y869569D01*
D13*
X495300Y933450D02*
X488950Y927100D01*
X476250Y927100D01*
X469900Y933450D01*
X469900Y946150D02*
X476250Y952500D01*
X488950Y952500D01*
X495300Y946150D01*
X527050Y927100D02*
X539750Y927100D01*
X527050Y927100D02*
X520700Y933450D01*
X520700Y946150D02*
X527050Y952500D01*
X520700Y933450D02*
X514350Y927100D01*
X501650Y927100D01*
X495300Y933450D01*
X495300Y946150D02*
X501650Y952500D01*
X514350Y952500D01*
X520700Y946150D01*
X546100Y946150D02*
X546100Y933450D01*
X539750Y927100D01*
X546100Y946150D02*
X539750Y952500D01*
X527050Y952500D01*
X469900Y946150D02*
X469900Y933450D01*
D12*
X534350Y925195D02*
X534350Y921441D01*
X534349Y921441D02*
X534347Y921376D01*
X534341Y921312D01*
X534331Y921248D01*
X534318Y921184D01*
X534300Y921122D01*
X534279Y921061D01*
X534255Y921001D01*
X534226Y920943D01*
X534194Y920886D01*
X534159Y920832D01*
X534121Y920780D01*
X534079Y920730D01*
X534035Y920683D01*
X533988Y920639D01*
X533938Y920597D01*
X533886Y920559D01*
X533832Y920524D01*
X533775Y920492D01*
X533717Y920463D01*
X533657Y920439D01*
X533596Y920418D01*
X533534Y920400D01*
X533470Y920387D01*
X533406Y920377D01*
X533342Y920371D01*
X533277Y920369D01*
X532741Y920369D01*
X537298Y924123D02*
X538638Y925195D01*
X538638Y920369D01*
X537298Y920369D02*
X539979Y920369D01*
X542784Y920369D02*
X544393Y920369D01*
X544458Y920371D01*
X544522Y920377D01*
X544586Y920387D01*
X544650Y920400D01*
X544712Y920418D01*
X544773Y920439D01*
X544833Y920463D01*
X544891Y920492D01*
X544948Y920524D01*
X545002Y920559D01*
X545054Y920597D01*
X545104Y920639D01*
X545151Y920683D01*
X545195Y920730D01*
X545237Y920780D01*
X545275Y920832D01*
X545310Y920886D01*
X545342Y920943D01*
X545371Y921001D01*
X545395Y921061D01*
X545416Y921122D01*
X545434Y921184D01*
X545447Y921248D01*
X545457Y921312D01*
X545463Y921376D01*
X545465Y921441D01*
X545465Y921978D01*
X545463Y922043D01*
X545457Y922107D01*
X545447Y922171D01*
X545434Y922235D01*
X545416Y922297D01*
X545395Y922358D01*
X545371Y922418D01*
X545342Y922476D01*
X545310Y922533D01*
X545275Y922587D01*
X545237Y922639D01*
X545195Y922689D01*
X545151Y922736D01*
X545104Y922780D01*
X545054Y922822D01*
X545002Y922860D01*
X544948Y922895D01*
X544891Y922927D01*
X544833Y922956D01*
X544773Y922980D01*
X544712Y923001D01*
X544650Y923019D01*
X544586Y923032D01*
X544522Y923042D01*
X544458Y923048D01*
X544393Y923050D01*
X542784Y923050D01*
X542784Y925195D01*
X545465Y925195D01*
D13*
X381000Y933450D02*
X374650Y927100D01*
X361950Y927100D01*
X355600Y933450D01*
X355600Y946150D02*
X361950Y952500D01*
X374650Y952500D01*
X381000Y946150D01*
X412750Y927100D02*
X425450Y927100D01*
X412750Y927100D02*
X406400Y933450D01*
X406400Y946150D02*
X412750Y952500D01*
X406400Y933450D02*
X400050Y927100D01*
X387350Y927100D01*
X381000Y933450D01*
X381000Y946150D02*
X387350Y952500D01*
X400050Y952500D01*
X406400Y946150D01*
X431800Y946150D02*
X431800Y933450D01*
X425450Y927100D01*
X431800Y946150D02*
X425450Y952500D01*
X412750Y952500D01*
X355600Y946150D02*
X355600Y933450D01*
D12*
X420050Y925195D02*
X420050Y921441D01*
X420049Y921441D02*
X420047Y921376D01*
X420041Y921312D01*
X420031Y921248D01*
X420018Y921184D01*
X420000Y921122D01*
X419979Y921061D01*
X419955Y921001D01*
X419926Y920943D01*
X419894Y920886D01*
X419859Y920832D01*
X419821Y920780D01*
X419779Y920730D01*
X419735Y920683D01*
X419688Y920639D01*
X419638Y920597D01*
X419586Y920559D01*
X419532Y920524D01*
X419475Y920492D01*
X419417Y920463D01*
X419357Y920439D01*
X419296Y920418D01*
X419234Y920400D01*
X419170Y920387D01*
X419106Y920377D01*
X419042Y920371D01*
X418977Y920369D01*
X418441Y920369D01*
X422998Y924123D02*
X424338Y925195D01*
X424338Y920369D01*
X422998Y920369D02*
X425679Y920369D01*
X428484Y923050D02*
X430093Y923050D01*
X430158Y923048D01*
X430222Y923042D01*
X430286Y923032D01*
X430350Y923019D01*
X430412Y923001D01*
X430473Y922980D01*
X430533Y922956D01*
X430591Y922927D01*
X430648Y922895D01*
X430702Y922860D01*
X430754Y922822D01*
X430804Y922780D01*
X430851Y922736D01*
X430895Y922689D01*
X430937Y922639D01*
X430975Y922587D01*
X431010Y922533D01*
X431042Y922476D01*
X431071Y922418D01*
X431095Y922358D01*
X431116Y922297D01*
X431134Y922235D01*
X431147Y922171D01*
X431157Y922107D01*
X431163Y922043D01*
X431165Y921978D01*
X431165Y921710D01*
X431163Y921639D01*
X431157Y921567D01*
X431148Y921497D01*
X431135Y921427D01*
X431118Y921357D01*
X431097Y921289D01*
X431073Y921222D01*
X431045Y921156D01*
X431014Y921092D01*
X430979Y921029D01*
X430941Y920969D01*
X430900Y920910D01*
X430856Y920854D01*
X430809Y920800D01*
X430760Y920749D01*
X430707Y920701D01*
X430652Y920655D01*
X430595Y920613D01*
X430535Y920573D01*
X430474Y920537D01*
X430410Y920504D01*
X430345Y920475D01*
X430279Y920449D01*
X430211Y920426D01*
X430142Y920407D01*
X430072Y920392D01*
X430002Y920381D01*
X429931Y920373D01*
X429860Y920369D01*
X429788Y920369D01*
X429717Y920373D01*
X429646Y920381D01*
X429576Y920392D01*
X429506Y920407D01*
X429437Y920426D01*
X429369Y920449D01*
X429303Y920475D01*
X429238Y920504D01*
X429174Y920537D01*
X429113Y920573D01*
X429053Y920613D01*
X428996Y920655D01*
X428941Y920701D01*
X428888Y920749D01*
X428839Y920800D01*
X428792Y920854D01*
X428748Y920910D01*
X428707Y920969D01*
X428669Y921029D01*
X428634Y921092D01*
X428603Y921156D01*
X428575Y921222D01*
X428551Y921289D01*
X428530Y921357D01*
X428513Y921427D01*
X428500Y921497D01*
X428491Y921567D01*
X428485Y921639D01*
X428483Y921710D01*
X428484Y921710D02*
X428484Y923050D01*
X428486Y923141D01*
X428492Y923232D01*
X428501Y923322D01*
X428515Y923413D01*
X428532Y923502D01*
X428553Y923590D01*
X428578Y923678D01*
X428607Y923765D01*
X428639Y923850D01*
X428674Y923934D01*
X428714Y924016D01*
X428756Y924096D01*
X428802Y924175D01*
X428852Y924251D01*
X428904Y924325D01*
X428960Y924398D01*
X429019Y924467D01*
X429080Y924534D01*
X429145Y924599D01*
X429212Y924660D01*
X429281Y924719D01*
X429353Y924775D01*
X429428Y924827D01*
X429504Y924877D01*
X429583Y924923D01*
X429663Y924965D01*
X429745Y925005D01*
X429829Y925040D01*
X429914Y925072D01*
X430001Y925101D01*
X430088Y925126D01*
X430177Y925147D01*
X430266Y925164D01*
X430357Y925178D01*
X430447Y925187D01*
X430538Y925193D01*
X430629Y925195D01*
D13*
X266700Y933450D02*
X260350Y927100D01*
X247650Y927100D01*
X241300Y933450D01*
X241300Y946150D02*
X247650Y952500D01*
X260350Y952500D01*
X266700Y946150D01*
X298450Y927100D02*
X311150Y927100D01*
X298450Y927100D02*
X292100Y933450D01*
X292100Y946150D02*
X298450Y952500D01*
X292100Y933450D02*
X285750Y927100D01*
X273050Y927100D01*
X266700Y933450D01*
X266700Y946150D02*
X273050Y952500D01*
X285750Y952500D01*
X292100Y946150D01*
X317500Y946150D02*
X317500Y933450D01*
X311150Y927100D01*
X317500Y946150D02*
X311150Y952500D01*
X298450Y952500D01*
X241300Y946150D02*
X241300Y933450D01*
D12*
X305750Y925195D02*
X305750Y921441D01*
X305749Y921441D02*
X305747Y921376D01*
X305741Y921312D01*
X305731Y921248D01*
X305718Y921184D01*
X305700Y921122D01*
X305679Y921061D01*
X305655Y921001D01*
X305626Y920943D01*
X305594Y920886D01*
X305559Y920832D01*
X305521Y920780D01*
X305479Y920730D01*
X305435Y920683D01*
X305388Y920639D01*
X305338Y920597D01*
X305286Y920559D01*
X305232Y920524D01*
X305175Y920492D01*
X305117Y920463D01*
X305057Y920439D01*
X304996Y920418D01*
X304934Y920400D01*
X304870Y920387D01*
X304806Y920377D01*
X304742Y920371D01*
X304677Y920369D01*
X304141Y920369D01*
X308698Y924123D02*
X310038Y925195D01*
X310038Y920369D01*
X308698Y920369D02*
X311379Y920369D01*
X314184Y924659D02*
X314184Y925195D01*
X316865Y925195D01*
X315524Y920369D01*
D13*
X831850Y927100D02*
X838200Y933450D01*
X831850Y927100D02*
X819150Y927100D01*
X812800Y933450D01*
X812800Y946150D02*
X819150Y952500D01*
X831850Y952500D01*
X838200Y946150D01*
X869950Y927100D02*
X882650Y927100D01*
X869950Y927100D02*
X863600Y933450D01*
X863600Y946150D02*
X869950Y952500D01*
X863600Y933450D02*
X857250Y927100D01*
X844550Y927100D01*
X838200Y933450D01*
X838200Y946150D02*
X844550Y952500D01*
X857250Y952500D01*
X863600Y946150D01*
X889000Y946150D02*
X889000Y933450D01*
X882650Y927100D01*
X889000Y946150D02*
X882650Y952500D01*
X869950Y952500D01*
X812800Y946150D02*
X812800Y933450D01*
D12*
X877250Y925195D02*
X877250Y921441D01*
X877249Y921441D02*
X877247Y921376D01*
X877241Y921312D01*
X877231Y921248D01*
X877218Y921184D01*
X877200Y921122D01*
X877179Y921061D01*
X877155Y921001D01*
X877126Y920943D01*
X877094Y920886D01*
X877059Y920832D01*
X877021Y920780D01*
X876979Y920730D01*
X876935Y920683D01*
X876888Y920639D01*
X876838Y920597D01*
X876786Y920559D01*
X876732Y920524D01*
X876675Y920492D01*
X876617Y920463D01*
X876557Y920439D01*
X876496Y920418D01*
X876434Y920400D01*
X876370Y920387D01*
X876306Y920377D01*
X876242Y920371D01*
X876177Y920369D01*
X875641Y920369D01*
X880198Y924123D02*
X881538Y925195D01*
X881538Y920369D01*
X880198Y920369D02*
X882879Y920369D01*
X885683Y921710D02*
X885685Y921781D01*
X885691Y921853D01*
X885700Y921923D01*
X885713Y921993D01*
X885730Y922063D01*
X885751Y922131D01*
X885775Y922198D01*
X885803Y922264D01*
X885834Y922328D01*
X885869Y922391D01*
X885907Y922451D01*
X885948Y922510D01*
X885992Y922566D01*
X886039Y922620D01*
X886088Y922671D01*
X886141Y922719D01*
X886196Y922765D01*
X886253Y922807D01*
X886313Y922847D01*
X886374Y922883D01*
X886438Y922916D01*
X886503Y922945D01*
X886569Y922971D01*
X886637Y922994D01*
X886706Y923013D01*
X886776Y923028D01*
X886846Y923039D01*
X886917Y923047D01*
X886988Y923051D01*
X887060Y923051D01*
X887131Y923047D01*
X887202Y923039D01*
X887272Y923028D01*
X887342Y923013D01*
X887411Y922994D01*
X887479Y922971D01*
X887545Y922945D01*
X887610Y922916D01*
X887674Y922883D01*
X887735Y922847D01*
X887795Y922807D01*
X887852Y922765D01*
X887907Y922719D01*
X887960Y922671D01*
X888009Y922620D01*
X888056Y922566D01*
X888100Y922510D01*
X888141Y922451D01*
X888179Y922391D01*
X888214Y922328D01*
X888245Y922264D01*
X888273Y922198D01*
X888297Y922131D01*
X888318Y922063D01*
X888335Y921993D01*
X888348Y921923D01*
X888357Y921853D01*
X888363Y921781D01*
X888365Y921710D01*
X888363Y921639D01*
X888357Y921567D01*
X888348Y921497D01*
X888335Y921427D01*
X888318Y921357D01*
X888297Y921289D01*
X888273Y921222D01*
X888245Y921156D01*
X888214Y921092D01*
X888179Y921029D01*
X888141Y920969D01*
X888100Y920910D01*
X888056Y920854D01*
X888009Y920800D01*
X887960Y920749D01*
X887907Y920701D01*
X887852Y920655D01*
X887795Y920613D01*
X887735Y920573D01*
X887674Y920537D01*
X887610Y920504D01*
X887545Y920475D01*
X887479Y920449D01*
X887411Y920426D01*
X887342Y920407D01*
X887272Y920392D01*
X887202Y920381D01*
X887131Y920373D01*
X887060Y920369D01*
X886988Y920369D01*
X886917Y920373D01*
X886846Y920381D01*
X886776Y920392D01*
X886706Y920407D01*
X886637Y920426D01*
X886569Y920449D01*
X886503Y920475D01*
X886438Y920504D01*
X886374Y920537D01*
X886313Y920573D01*
X886253Y920613D01*
X886196Y920655D01*
X886141Y920701D01*
X886088Y920749D01*
X886039Y920800D01*
X885992Y920854D01*
X885948Y920910D01*
X885907Y920969D01*
X885869Y921029D01*
X885834Y921092D01*
X885803Y921156D01*
X885775Y921222D01*
X885751Y921289D01*
X885730Y921357D01*
X885713Y921427D01*
X885700Y921497D01*
X885691Y921567D01*
X885685Y921639D01*
X885683Y921710D01*
X885952Y924123D02*
X885954Y924188D01*
X885960Y924252D01*
X885970Y924316D01*
X885983Y924380D01*
X886001Y924442D01*
X886022Y924503D01*
X886046Y924563D01*
X886075Y924621D01*
X886107Y924678D01*
X886142Y924732D01*
X886180Y924784D01*
X886222Y924834D01*
X886266Y924881D01*
X886313Y924925D01*
X886363Y924967D01*
X886415Y925005D01*
X886469Y925040D01*
X886526Y925072D01*
X886584Y925101D01*
X886644Y925125D01*
X886705Y925146D01*
X886767Y925164D01*
X886831Y925177D01*
X886895Y925187D01*
X886959Y925193D01*
X887024Y925195D01*
X887089Y925193D01*
X887153Y925187D01*
X887217Y925177D01*
X887281Y925164D01*
X887343Y925146D01*
X887404Y925125D01*
X887464Y925101D01*
X887522Y925072D01*
X887579Y925040D01*
X887633Y925005D01*
X887685Y924967D01*
X887735Y924925D01*
X887782Y924881D01*
X887826Y924834D01*
X887868Y924784D01*
X887906Y924732D01*
X887941Y924678D01*
X887973Y924621D01*
X888002Y924563D01*
X888026Y924503D01*
X888047Y924442D01*
X888065Y924380D01*
X888078Y924316D01*
X888088Y924252D01*
X888094Y924188D01*
X888096Y924123D01*
X888094Y924058D01*
X888088Y923994D01*
X888078Y923930D01*
X888065Y923866D01*
X888047Y923804D01*
X888026Y923743D01*
X888002Y923683D01*
X887973Y923625D01*
X887941Y923568D01*
X887906Y923514D01*
X887868Y923462D01*
X887826Y923412D01*
X887782Y923365D01*
X887735Y923321D01*
X887685Y923279D01*
X887633Y923241D01*
X887579Y923206D01*
X887522Y923174D01*
X887464Y923145D01*
X887404Y923121D01*
X887343Y923100D01*
X887281Y923082D01*
X887217Y923069D01*
X887153Y923059D01*
X887089Y923053D01*
X887024Y923051D01*
X886959Y923053D01*
X886895Y923059D01*
X886831Y923069D01*
X886767Y923082D01*
X886705Y923100D01*
X886644Y923121D01*
X886584Y923145D01*
X886526Y923174D01*
X886469Y923206D01*
X886415Y923241D01*
X886363Y923279D01*
X886313Y923321D01*
X886266Y923365D01*
X886222Y923412D01*
X886180Y923462D01*
X886142Y923514D01*
X886107Y923568D01*
X886075Y923625D01*
X886046Y923683D01*
X886022Y923743D01*
X886001Y923804D01*
X885983Y923866D01*
X885970Y923930D01*
X885960Y923994D01*
X885954Y924058D01*
X885952Y924123D01*
D13*
X723900Y933450D02*
X717550Y927100D01*
X704850Y927100D01*
X698500Y933450D01*
X698500Y946150D02*
X704850Y952500D01*
X717550Y952500D01*
X723900Y946150D01*
X755650Y927100D02*
X768350Y927100D01*
X755650Y927100D02*
X749300Y933450D01*
X749300Y946150D02*
X755650Y952500D01*
X749300Y933450D02*
X742950Y927100D01*
X730250Y927100D01*
X723900Y933450D01*
X723900Y946150D02*
X730250Y952500D01*
X742950Y952500D01*
X749300Y946150D01*
X774700Y946150D02*
X774700Y933450D01*
X768350Y927100D01*
X774700Y946150D02*
X768350Y952500D01*
X755650Y952500D01*
X698500Y946150D02*
X698500Y933450D01*
D12*
X762950Y925195D02*
X762950Y921441D01*
X762949Y921441D02*
X762947Y921376D01*
X762941Y921312D01*
X762931Y921248D01*
X762918Y921184D01*
X762900Y921122D01*
X762879Y921061D01*
X762855Y921001D01*
X762826Y920943D01*
X762794Y920886D01*
X762759Y920832D01*
X762721Y920780D01*
X762679Y920730D01*
X762635Y920683D01*
X762588Y920639D01*
X762538Y920597D01*
X762486Y920559D01*
X762432Y920524D01*
X762375Y920492D01*
X762317Y920463D01*
X762257Y920439D01*
X762196Y920418D01*
X762134Y920400D01*
X762070Y920387D01*
X762006Y920377D01*
X761942Y920371D01*
X761877Y920369D01*
X761341Y920369D01*
X765898Y924123D02*
X767238Y925195D01*
X767238Y920369D01*
X765898Y920369D02*
X768579Y920369D01*
X772456Y922514D02*
X774065Y922514D01*
X772456Y922514D02*
X772391Y922516D01*
X772327Y922522D01*
X772263Y922532D01*
X772199Y922545D01*
X772137Y922563D01*
X772076Y922584D01*
X772016Y922608D01*
X771958Y922637D01*
X771901Y922669D01*
X771847Y922704D01*
X771795Y922742D01*
X771745Y922784D01*
X771698Y922828D01*
X771654Y922875D01*
X771612Y922925D01*
X771574Y922977D01*
X771539Y923031D01*
X771507Y923088D01*
X771478Y923146D01*
X771454Y923206D01*
X771433Y923267D01*
X771415Y923329D01*
X771402Y923393D01*
X771392Y923457D01*
X771386Y923521D01*
X771384Y923586D01*
X771384Y923854D01*
X771383Y923854D02*
X771385Y923925D01*
X771391Y923997D01*
X771400Y924067D01*
X771413Y924137D01*
X771430Y924207D01*
X771451Y924275D01*
X771475Y924342D01*
X771503Y924408D01*
X771534Y924472D01*
X771569Y924535D01*
X771607Y924595D01*
X771648Y924654D01*
X771692Y924710D01*
X771739Y924764D01*
X771788Y924815D01*
X771841Y924863D01*
X771896Y924909D01*
X771953Y924951D01*
X772013Y924991D01*
X772074Y925027D01*
X772138Y925060D01*
X772203Y925089D01*
X772269Y925115D01*
X772337Y925138D01*
X772406Y925157D01*
X772476Y925172D01*
X772546Y925183D01*
X772617Y925191D01*
X772688Y925195D01*
X772760Y925195D01*
X772831Y925191D01*
X772902Y925183D01*
X772972Y925172D01*
X773042Y925157D01*
X773111Y925138D01*
X773179Y925115D01*
X773245Y925089D01*
X773310Y925060D01*
X773374Y925027D01*
X773435Y924991D01*
X773495Y924951D01*
X773552Y924909D01*
X773607Y924863D01*
X773660Y924815D01*
X773709Y924764D01*
X773756Y924710D01*
X773800Y924654D01*
X773841Y924595D01*
X773879Y924535D01*
X773914Y924472D01*
X773945Y924408D01*
X773973Y924342D01*
X773997Y924275D01*
X774018Y924207D01*
X774035Y924137D01*
X774048Y924067D01*
X774057Y923997D01*
X774063Y923925D01*
X774065Y923854D01*
X774065Y922514D01*
X774063Y922423D01*
X774057Y922332D01*
X774048Y922242D01*
X774034Y922151D01*
X774017Y922062D01*
X773996Y921974D01*
X773971Y921886D01*
X773942Y921799D01*
X773910Y921714D01*
X773875Y921630D01*
X773835Y921548D01*
X773793Y921468D01*
X773747Y921389D01*
X773697Y921313D01*
X773645Y921239D01*
X773589Y921166D01*
X773530Y921097D01*
X773469Y921030D01*
X773404Y920965D01*
X773337Y920904D01*
X773268Y920845D01*
X773195Y920789D01*
X773121Y920737D01*
X773045Y920687D01*
X772966Y920641D01*
X772886Y920599D01*
X772804Y920559D01*
X772720Y920524D01*
X772635Y920492D01*
X772548Y920463D01*
X772460Y920438D01*
X772372Y920417D01*
X772283Y920400D01*
X772192Y920386D01*
X772102Y920377D01*
X772011Y920371D01*
X771920Y920369D01*
D13*
X609600Y933450D02*
X603250Y927100D01*
X590550Y927100D01*
X584200Y933450D01*
X584200Y946150D02*
X590550Y952500D01*
X603250Y952500D01*
X609600Y946150D01*
X641350Y927100D02*
X654050Y927100D01*
X641350Y927100D02*
X635000Y933450D01*
X635000Y946150D02*
X641350Y952500D01*
X635000Y933450D02*
X628650Y927100D01*
X615950Y927100D01*
X609600Y933450D01*
X609600Y946150D02*
X615950Y952500D01*
X628650Y952500D01*
X635000Y946150D01*
X660400Y946150D02*
X660400Y933450D01*
X654050Y927100D01*
X660400Y946150D02*
X654050Y952500D01*
X641350Y952500D01*
X584200Y946150D02*
X584200Y933450D01*
D12*
X648650Y925195D02*
X648650Y921441D01*
X648649Y921441D02*
X648647Y921376D01*
X648641Y921312D01*
X648631Y921248D01*
X648618Y921184D01*
X648600Y921122D01*
X648579Y921061D01*
X648555Y921001D01*
X648526Y920943D01*
X648494Y920886D01*
X648459Y920832D01*
X648421Y920780D01*
X648379Y920730D01*
X648335Y920683D01*
X648288Y920639D01*
X648238Y920597D01*
X648186Y920559D01*
X648132Y920524D01*
X648075Y920492D01*
X648017Y920463D01*
X647957Y920439D01*
X647896Y920418D01*
X647834Y920400D01*
X647770Y920387D01*
X647706Y920377D01*
X647642Y920371D01*
X647577Y920369D01*
X647041Y920369D01*
X653072Y925195D02*
X653140Y925193D01*
X653207Y925187D01*
X653274Y925178D01*
X653341Y925165D01*
X653406Y925148D01*
X653471Y925127D01*
X653534Y925103D01*
X653596Y925075D01*
X653656Y925044D01*
X653714Y925010D01*
X653770Y924972D01*
X653825Y924932D01*
X653876Y924888D01*
X653925Y924841D01*
X653972Y924792D01*
X654016Y924741D01*
X654056Y924686D01*
X654094Y924630D01*
X654128Y924572D01*
X654159Y924512D01*
X654187Y924450D01*
X654211Y924387D01*
X654232Y924322D01*
X654249Y924257D01*
X654262Y924190D01*
X654271Y924123D01*
X654277Y924056D01*
X654279Y923988D01*
X653072Y925195D02*
X652994Y925193D01*
X652916Y925187D01*
X652839Y925177D01*
X652762Y925164D01*
X652686Y925146D01*
X652611Y925125D01*
X652537Y925100D01*
X652465Y925071D01*
X652394Y925039D01*
X652325Y925003D01*
X652257Y924964D01*
X652192Y924921D01*
X652129Y924875D01*
X652068Y924826D01*
X652010Y924774D01*
X651955Y924719D01*
X651902Y924662D01*
X651853Y924602D01*
X651806Y924539D01*
X651763Y924475D01*
X651723Y924408D01*
X651686Y924339D01*
X651653Y924268D01*
X651623Y924196D01*
X651597Y924123D01*
X653877Y923050D02*
X653926Y923099D01*
X653973Y923151D01*
X654016Y923206D01*
X654057Y923263D01*
X654095Y923322D01*
X654129Y923383D01*
X654160Y923446D01*
X654188Y923510D01*
X654212Y923576D01*
X654232Y923642D01*
X654249Y923710D01*
X654262Y923779D01*
X654271Y923848D01*
X654277Y923918D01*
X654279Y923988D01*
X653877Y923050D02*
X651598Y920369D01*
X654279Y920369D01*
X657084Y922782D02*
X657086Y922902D01*
X657091Y923022D01*
X657100Y923142D01*
X657113Y923262D01*
X657129Y923381D01*
X657149Y923500D01*
X657173Y923618D01*
X657200Y923735D01*
X657230Y923851D01*
X657264Y923966D01*
X657302Y924081D01*
X657343Y924194D01*
X657387Y924305D01*
X657435Y924416D01*
X657486Y924525D01*
X657507Y924582D01*
X657533Y924638D01*
X657561Y924693D01*
X657593Y924745D01*
X657629Y924796D01*
X657667Y924844D01*
X657708Y924890D01*
X657752Y924933D01*
X657798Y924973D01*
X657847Y925010D01*
X657899Y925044D01*
X657952Y925075D01*
X658007Y925103D01*
X658063Y925127D01*
X658121Y925148D01*
X658180Y925165D01*
X658240Y925178D01*
X658301Y925187D01*
X658363Y925193D01*
X658424Y925195D01*
X658485Y925193D01*
X658547Y925187D01*
X658608Y925178D01*
X658668Y925165D01*
X658727Y925148D01*
X658785Y925127D01*
X658841Y925103D01*
X658896Y925075D01*
X658949Y925044D01*
X659001Y925010D01*
X659050Y924973D01*
X659096Y924933D01*
X659140Y924890D01*
X659181Y924844D01*
X659219Y924796D01*
X659255Y924745D01*
X659287Y924693D01*
X659315Y924638D01*
X659341Y924582D01*
X659362Y924525D01*
X659363Y924525D02*
X659414Y924416D01*
X659462Y924305D01*
X659506Y924194D01*
X659547Y924081D01*
X659585Y923966D01*
X659619Y923851D01*
X659649Y923735D01*
X659676Y923618D01*
X659700Y923500D01*
X659720Y923381D01*
X659736Y923262D01*
X659749Y923142D01*
X659758Y923022D01*
X659763Y922902D01*
X659765Y922782D01*
X657084Y922782D02*
X657086Y922662D01*
X657091Y922542D01*
X657100Y922422D01*
X657113Y922302D01*
X657129Y922183D01*
X657149Y922064D01*
X657173Y921946D01*
X657200Y921829D01*
X657230Y921713D01*
X657264Y921598D01*
X657302Y921483D01*
X657343Y921370D01*
X657387Y921259D01*
X657435Y921148D01*
X657486Y921039D01*
X657507Y920982D01*
X657533Y920926D01*
X657561Y920871D01*
X657593Y920819D01*
X657629Y920768D01*
X657667Y920720D01*
X657708Y920674D01*
X657752Y920631D01*
X657798Y920591D01*
X657847Y920554D01*
X657899Y920520D01*
X657952Y920489D01*
X658007Y920461D01*
X658063Y920437D01*
X658121Y920416D01*
X658180Y920399D01*
X658240Y920386D01*
X658301Y920377D01*
X658363Y920371D01*
X658424Y920369D01*
X659363Y921039D02*
X659414Y921148D01*
X659462Y921259D01*
X659506Y921370D01*
X659547Y921483D01*
X659585Y921598D01*
X659619Y921713D01*
X659649Y921829D01*
X659676Y921946D01*
X659700Y922064D01*
X659720Y922183D01*
X659736Y922302D01*
X659749Y922422D01*
X659758Y922542D01*
X659763Y922662D01*
X659765Y922782D01*
X659362Y921039D02*
X659341Y920982D01*
X659315Y920926D01*
X659287Y920871D01*
X659255Y920819D01*
X659219Y920768D01*
X659181Y920720D01*
X659140Y920674D01*
X659096Y920631D01*
X659049Y920591D01*
X659001Y920554D01*
X658949Y920520D01*
X658896Y920489D01*
X658841Y920461D01*
X658785Y920437D01*
X658727Y920416D01*
X658668Y920399D01*
X658608Y920386D01*
X658547Y920377D01*
X658485Y920371D01*
X658424Y920369D01*
X657352Y921441D02*
X659497Y924123D01*
D13*
X952500Y779780D02*
X1003300Y779780D01*
X952500Y779780D02*
X952500Y787400D01*
X952500Y795020D01*
X1003300Y795020D01*
X1003300Y787400D01*
X1003300Y779780D01*
X952500Y787400D02*
X949960Y787400D01*
X1003300Y787400D02*
X1005840Y787400D01*
D12*
X973848Y797179D02*
X973848Y802005D01*
X975189Y802005D01*
X975260Y802003D01*
X975332Y801997D01*
X975402Y801988D01*
X975472Y801975D01*
X975542Y801958D01*
X975610Y801937D01*
X975677Y801913D01*
X975743Y801885D01*
X975807Y801854D01*
X975870Y801819D01*
X975930Y801781D01*
X975989Y801740D01*
X976045Y801696D01*
X976099Y801649D01*
X976150Y801600D01*
X976198Y801547D01*
X976244Y801492D01*
X976286Y801435D01*
X976326Y801375D01*
X976362Y801314D01*
X976395Y801250D01*
X976424Y801185D01*
X976450Y801119D01*
X976473Y801051D01*
X976492Y800982D01*
X976507Y800912D01*
X976518Y800842D01*
X976526Y800771D01*
X976530Y800700D01*
X976530Y800628D01*
X976526Y800557D01*
X976518Y800486D01*
X976507Y800416D01*
X976492Y800346D01*
X976473Y800277D01*
X976450Y800209D01*
X976424Y800143D01*
X976395Y800078D01*
X976362Y800014D01*
X976326Y799953D01*
X976286Y799893D01*
X976244Y799836D01*
X976198Y799781D01*
X976150Y799728D01*
X976099Y799679D01*
X976045Y799632D01*
X975989Y799588D01*
X975930Y799547D01*
X975870Y799509D01*
X975807Y799474D01*
X975743Y799443D01*
X975677Y799415D01*
X975610Y799391D01*
X975542Y799370D01*
X975472Y799353D01*
X975402Y799340D01*
X975332Y799331D01*
X975260Y799325D01*
X975189Y799323D01*
X975189Y799324D02*
X973848Y799324D01*
X975457Y799324D02*
X976529Y797179D01*
X979271Y801469D02*
X979271Y802005D01*
X981952Y802005D01*
X980611Y797179D01*
D13*
X1003300Y756920D02*
X952500Y756920D01*
X1003300Y756920D02*
X1003300Y749300D01*
X1003300Y741680D01*
X952500Y741680D01*
X952500Y749300D01*
X952500Y756920D01*
X1003300Y749300D02*
X1005840Y749300D01*
X952500Y749300D02*
X949960Y749300D01*
D12*
X973848Y760095D02*
X973848Y764921D01*
X975189Y764921D01*
X975260Y764919D01*
X975332Y764913D01*
X975402Y764904D01*
X975472Y764891D01*
X975542Y764874D01*
X975610Y764853D01*
X975677Y764829D01*
X975743Y764801D01*
X975807Y764770D01*
X975870Y764735D01*
X975930Y764697D01*
X975989Y764656D01*
X976045Y764612D01*
X976099Y764565D01*
X976150Y764516D01*
X976198Y764463D01*
X976244Y764408D01*
X976286Y764351D01*
X976326Y764291D01*
X976362Y764230D01*
X976395Y764166D01*
X976424Y764101D01*
X976450Y764035D01*
X976473Y763967D01*
X976492Y763898D01*
X976507Y763828D01*
X976518Y763758D01*
X976526Y763687D01*
X976530Y763616D01*
X976530Y763544D01*
X976526Y763473D01*
X976518Y763402D01*
X976507Y763332D01*
X976492Y763262D01*
X976473Y763193D01*
X976450Y763125D01*
X976424Y763059D01*
X976395Y762994D01*
X976362Y762930D01*
X976326Y762869D01*
X976286Y762809D01*
X976244Y762752D01*
X976198Y762697D01*
X976150Y762644D01*
X976099Y762595D01*
X976045Y762548D01*
X975989Y762504D01*
X975930Y762463D01*
X975870Y762425D01*
X975807Y762390D01*
X975743Y762359D01*
X975677Y762331D01*
X975610Y762307D01*
X975542Y762286D01*
X975472Y762269D01*
X975402Y762256D01*
X975332Y762247D01*
X975260Y762241D01*
X975189Y762239D01*
X975189Y762240D02*
X973848Y762240D01*
X975457Y762240D02*
X976529Y760095D01*
X979270Y761436D02*
X979272Y761507D01*
X979278Y761579D01*
X979287Y761649D01*
X979300Y761719D01*
X979317Y761789D01*
X979338Y761857D01*
X979362Y761924D01*
X979390Y761990D01*
X979421Y762054D01*
X979456Y762117D01*
X979494Y762177D01*
X979535Y762236D01*
X979579Y762292D01*
X979626Y762346D01*
X979675Y762397D01*
X979728Y762445D01*
X979783Y762491D01*
X979840Y762533D01*
X979900Y762573D01*
X979961Y762609D01*
X980025Y762642D01*
X980090Y762671D01*
X980156Y762697D01*
X980224Y762720D01*
X980293Y762739D01*
X980363Y762754D01*
X980433Y762765D01*
X980504Y762773D01*
X980575Y762777D01*
X980647Y762777D01*
X980718Y762773D01*
X980789Y762765D01*
X980859Y762754D01*
X980929Y762739D01*
X980998Y762720D01*
X981066Y762697D01*
X981132Y762671D01*
X981197Y762642D01*
X981261Y762609D01*
X981322Y762573D01*
X981382Y762533D01*
X981439Y762491D01*
X981494Y762445D01*
X981547Y762397D01*
X981596Y762346D01*
X981643Y762292D01*
X981687Y762236D01*
X981728Y762177D01*
X981766Y762117D01*
X981801Y762054D01*
X981832Y761990D01*
X981860Y761924D01*
X981884Y761857D01*
X981905Y761789D01*
X981922Y761719D01*
X981935Y761649D01*
X981944Y761579D01*
X981950Y761507D01*
X981952Y761436D01*
X981950Y761365D01*
X981944Y761293D01*
X981935Y761223D01*
X981922Y761153D01*
X981905Y761083D01*
X981884Y761015D01*
X981860Y760948D01*
X981832Y760882D01*
X981801Y760818D01*
X981766Y760755D01*
X981728Y760695D01*
X981687Y760636D01*
X981643Y760580D01*
X981596Y760526D01*
X981547Y760475D01*
X981494Y760427D01*
X981439Y760381D01*
X981382Y760339D01*
X981322Y760299D01*
X981261Y760263D01*
X981197Y760230D01*
X981132Y760201D01*
X981066Y760175D01*
X980998Y760152D01*
X980929Y760133D01*
X980859Y760118D01*
X980789Y760107D01*
X980718Y760099D01*
X980647Y760095D01*
X980575Y760095D01*
X980504Y760099D01*
X980433Y760107D01*
X980363Y760118D01*
X980293Y760133D01*
X980224Y760152D01*
X980156Y760175D01*
X980090Y760201D01*
X980025Y760230D01*
X979961Y760263D01*
X979900Y760299D01*
X979840Y760339D01*
X979783Y760381D01*
X979728Y760427D01*
X979675Y760475D01*
X979626Y760526D01*
X979579Y760580D01*
X979535Y760636D01*
X979494Y760695D01*
X979456Y760755D01*
X979421Y760818D01*
X979390Y760882D01*
X979362Y760948D01*
X979338Y761015D01*
X979317Y761083D01*
X979300Y761153D01*
X979287Y761223D01*
X979278Y761293D01*
X979272Y761365D01*
X979270Y761436D01*
X979539Y763849D02*
X979541Y763914D01*
X979547Y763978D01*
X979557Y764042D01*
X979570Y764106D01*
X979588Y764168D01*
X979609Y764229D01*
X979633Y764289D01*
X979662Y764347D01*
X979694Y764404D01*
X979729Y764458D01*
X979767Y764510D01*
X979809Y764560D01*
X979853Y764607D01*
X979900Y764651D01*
X979950Y764693D01*
X980002Y764731D01*
X980056Y764766D01*
X980113Y764798D01*
X980171Y764827D01*
X980231Y764851D01*
X980292Y764872D01*
X980354Y764890D01*
X980418Y764903D01*
X980482Y764913D01*
X980546Y764919D01*
X980611Y764921D01*
X980676Y764919D01*
X980740Y764913D01*
X980804Y764903D01*
X980868Y764890D01*
X980930Y764872D01*
X980991Y764851D01*
X981051Y764827D01*
X981109Y764798D01*
X981166Y764766D01*
X981220Y764731D01*
X981272Y764693D01*
X981322Y764651D01*
X981369Y764607D01*
X981413Y764560D01*
X981455Y764510D01*
X981493Y764458D01*
X981528Y764404D01*
X981560Y764347D01*
X981589Y764289D01*
X981613Y764229D01*
X981634Y764168D01*
X981652Y764106D01*
X981665Y764042D01*
X981675Y763978D01*
X981681Y763914D01*
X981683Y763849D01*
X981681Y763784D01*
X981675Y763720D01*
X981665Y763656D01*
X981652Y763592D01*
X981634Y763530D01*
X981613Y763469D01*
X981589Y763409D01*
X981560Y763351D01*
X981528Y763294D01*
X981493Y763240D01*
X981455Y763188D01*
X981413Y763138D01*
X981369Y763091D01*
X981322Y763047D01*
X981272Y763005D01*
X981220Y762967D01*
X981166Y762932D01*
X981109Y762900D01*
X981051Y762871D01*
X980991Y762847D01*
X980930Y762826D01*
X980868Y762808D01*
X980804Y762795D01*
X980740Y762785D01*
X980676Y762779D01*
X980611Y762777D01*
X980546Y762779D01*
X980482Y762785D01*
X980418Y762795D01*
X980354Y762808D01*
X980292Y762826D01*
X980231Y762847D01*
X980171Y762871D01*
X980113Y762900D01*
X980056Y762932D01*
X980002Y762967D01*
X979950Y763005D01*
X979900Y763047D01*
X979853Y763091D01*
X979809Y763138D01*
X979767Y763188D01*
X979729Y763240D01*
X979694Y763294D01*
X979662Y763351D01*
X979633Y763409D01*
X979609Y763469D01*
X979588Y763530D01*
X979570Y763592D01*
X979557Y763656D01*
X979547Y763720D01*
X979541Y763784D01*
X979539Y763849D01*
M02*
