G04 EAGLE Gerber RS-274X export*
G75*
%MOMM*%
%FSLAX34Y34*%
%LPD*%
%INSoldermask Bottom*%
%IPPOS*%
%AMOC8*
5,1,8,0,0,1.08239X$1,22.5*%
G01*
%ADD10C,2.503200*%
%ADD11C,6.203200*%
%ADD12P,1.951982X8X292.500000*%
%ADD13C,2.082800*%
%ADD14R,1.481200X1.481200*%
%ADD15C,1.481200*%
%ADD16P,2.254402X8X112.500000*%
%ADD17R,2.082800X2.082800*%
%ADD18P,3.467112X8X112.500000*%
%ADD19C,4.521200*%


D10*
X140000Y1050000D03*
X140000Y620000D03*
X1010000Y620000D03*
X1010000Y1050000D03*
D11*
X958730Y720160D03*
D12*
X858200Y722300D03*
X858200Y671500D03*
D13*
X629800Y1004950D03*
X706000Y1004950D03*
D14*
X540370Y800100D03*
D15*
X540370Y774700D03*
X540370Y749300D03*
X540370Y723900D03*
X540370Y698500D03*
X540370Y673100D03*
X540370Y647700D03*
X619770Y647700D03*
X619770Y673100D03*
X619770Y698500D03*
X619770Y723900D03*
X619770Y749300D03*
X619770Y774700D03*
X619770Y800100D03*
D12*
X782000Y722300D03*
X782000Y671500D03*
X705800Y722300D03*
X705800Y671500D03*
X451800Y722300D03*
X451800Y671500D03*
X375600Y722300D03*
X375600Y671500D03*
X299400Y722300D03*
X299400Y671500D03*
D13*
X759800Y1004950D03*
X836000Y1004950D03*
X889800Y1006050D03*
X966000Y1006050D03*
X259800Y1004950D03*
X336000Y1004950D03*
X379800Y1004950D03*
X456000Y1004950D03*
X509800Y1004950D03*
X586000Y1004950D03*
X970000Y659920D03*
X944600Y659920D03*
X638730Y1037460D03*
X613330Y1037460D03*
X759840Y1040000D03*
X734440Y1040000D03*
X862490Y1037590D03*
X887890Y1037590D03*
X244000Y1036320D03*
X269400Y1036320D03*
X363220Y1035210D03*
X388620Y1035210D03*
X493940Y1037400D03*
X519340Y1037400D03*
X503400Y809000D03*
X478000Y809000D03*
X452600Y809000D03*
X399400Y809000D03*
X374000Y809000D03*
X348600Y809000D03*
X295400Y809000D03*
X270000Y809000D03*
X244600Y809000D03*
X915400Y809000D03*
X890000Y809000D03*
X864600Y809000D03*
X811400Y809000D03*
X786000Y809000D03*
X760600Y809000D03*
X707400Y809000D03*
X682000Y809000D03*
X656600Y809000D03*
X966050Y894000D03*
X966050Y970200D03*
X966050Y779800D03*
X966050Y856000D03*
D16*
X180968Y826500D03*
X155568Y826500D03*
X180968Y851900D03*
X155568Y851900D03*
X180968Y877300D03*
X155568Y877300D03*
X180968Y902700D03*
X155568Y902700D03*
X180968Y928100D03*
X155568Y928100D03*
X180968Y953500D03*
X155568Y953500D03*
X180968Y978900D03*
X155568Y978900D03*
X180968Y1004300D03*
X155568Y1004300D03*
D17*
X543000Y960975D03*
X518000Y960975D03*
X493000Y960975D03*
D18*
X562000Y890975D03*
X474000Y890975D03*
D17*
X419000Y960975D03*
X394000Y960975D03*
X369000Y960975D03*
D18*
X438000Y890975D03*
X350000Y890975D03*
D17*
X295000Y960975D03*
X270000Y960975D03*
X245000Y960975D03*
D18*
X314000Y890975D03*
X226000Y890975D03*
D17*
X667000Y960975D03*
X642000Y960975D03*
X617000Y960975D03*
D18*
X686000Y890975D03*
X598000Y890975D03*
D17*
X791000Y960975D03*
X766000Y960975D03*
X741000Y960975D03*
D18*
X810000Y890975D03*
X722000Y890975D03*
D17*
X915000Y960975D03*
X890000Y960975D03*
X865000Y960975D03*
D18*
X934000Y890975D03*
X846000Y890975D03*
D13*
X170000Y767300D03*
X170000Y792700D03*
X304410Y772520D03*
X228210Y772520D03*
X970000Y629920D03*
X944600Y629920D03*
X324030Y620240D03*
X349430Y620240D03*
X374830Y620240D03*
D19*
X247000Y700000D03*
X187000Y700000D03*
X217000Y653000D03*
M02*
